G04 Layer: BottomSilkscreenLayer*
G04 EasyEDA v6.5.9, 2022-07-29 15:21:59*
G04 d62bb8ad4e154c8097677c42ea29ab51,674c0623d3a246009f606e19fc16e94a,10*
G04 Gerber Generator version 0.2*
G04 Scale: 100 percent, Rotated: No, Reflected: No *
G04 Dimensions in millimeters *
G04 leading zeros omitted , absolute positions ,4 integer and 5 decimal *
%FSLAX45Y45*%
%MOMM*%

%ADD10C,0.1524*%
%ADD11C,0.3000*%
%ADD12C,0.2000*%
%ADD13C,0.5000*%

%LPD*%
G36*
X3992321Y-1924710D02*
G01*
X3987850Y-1925015D01*
X3983177Y-1925726D01*
X3972509Y-1928317D01*
X3946398Y-1936597D01*
X3922014Y-1945335D01*
X3897985Y-1954987D01*
X3874363Y-1965452D01*
X3862730Y-1970989D01*
X3839819Y-1982724D01*
X3828491Y-1988921D01*
X3811778Y-1998573D01*
X3800754Y-2005279D01*
X3779113Y-2019300D01*
X3768496Y-2026615D01*
X3752748Y-2037943D01*
X3742436Y-2045766D01*
X3727196Y-2057857D01*
X3717239Y-2066137D01*
X3697630Y-2083358D01*
X3675126Y-2104491D01*
X3664559Y-2114804D01*
X3654907Y-2124608D01*
X3646068Y-2134006D01*
X3637991Y-2143099D01*
X3630523Y-2151938D01*
X3623614Y-2160778D01*
X3617163Y-2169566D01*
X3611118Y-2178507D01*
X3605326Y-2187752D01*
X3599789Y-2197303D01*
X3594354Y-2207310D01*
X3583940Y-2228291D01*
X3577336Y-2243023D01*
X3569208Y-2263394D01*
X3561842Y-2284577D01*
X3558387Y-2295499D01*
X3552088Y-2318054D01*
X3549192Y-2329688D01*
X3543960Y-2353716D01*
X3539439Y-2378710D01*
X3535578Y-2404719D01*
X3532428Y-2431897D01*
X3529939Y-2460142D01*
X3528161Y-2489555D01*
X3527044Y-2520188D01*
X3526586Y-2552039D01*
X3526180Y-2653080D01*
X3509162Y-2658160D01*
X3501542Y-2661005D01*
X3498291Y-2662732D01*
X3495446Y-2664764D01*
X3492957Y-2667152D01*
X3490772Y-2669946D01*
X3488944Y-2673248D01*
X3487369Y-2677058D01*
X3486048Y-2681478D01*
X3484981Y-2686558D01*
X3483508Y-2698953D01*
X3482746Y-2714701D01*
X3482136Y-2754020D01*
X3481019Y-2772003D01*
X3479393Y-2786227D01*
X3478428Y-2791358D01*
X3476294Y-2797911D01*
X3475532Y-2801416D01*
X3474974Y-2805328D01*
X3474820Y-2815082D01*
X3503269Y-2815082D01*
X3503422Y-2800908D01*
X3504793Y-2764028D01*
X3507130Y-2717444D01*
X3508349Y-2701188D01*
X3509924Y-2690368D01*
X3510889Y-2686659D01*
X3512007Y-2683814D01*
X3513328Y-2681732D01*
X3514902Y-2680258D01*
X3516731Y-2679242D01*
X3518865Y-2678480D01*
X3523894Y-2677820D01*
X3528720Y-2678785D01*
X3533444Y-2681427D01*
X3543096Y-2690317D01*
X3548176Y-2692958D01*
X3553206Y-2693822D01*
X3558133Y-2692908D01*
X3562756Y-2690317D01*
X3566972Y-2686050D01*
X3570630Y-2680157D01*
X3573576Y-2672689D01*
X3576370Y-2662885D01*
X3583787Y-2632608D01*
X3589121Y-2608732D01*
X3600653Y-2561742D01*
X3620566Y-2484628D01*
X3634841Y-2431796D01*
X3639667Y-2414981D01*
X3640734Y-2412644D01*
X3642461Y-2410815D01*
X3645204Y-2409393D01*
X3649218Y-2408428D01*
X3654806Y-2407767D01*
X3662273Y-2407412D01*
X3684066Y-2407462D01*
X3711448Y-2408174D01*
X3723843Y-2408834D01*
X3735679Y-2409748D01*
X3747008Y-2410968D01*
X3758133Y-2412441D01*
X3769207Y-2414270D01*
X3780332Y-2416505D01*
X3791813Y-2419096D01*
X3803700Y-2422144D01*
X3829558Y-2429662D01*
X3892092Y-2449779D01*
X3906926Y-2454148D01*
X3920947Y-2457958D01*
X3934155Y-2461260D01*
X3946702Y-2464003D01*
X3958742Y-2466238D01*
X3970324Y-2467965D01*
X3981551Y-2469184D01*
X3992524Y-2469946D01*
X4003395Y-2470251D01*
X4014215Y-2470099D01*
X4025087Y-2469489D01*
X4036161Y-2468473D01*
X4047490Y-2467102D01*
X4186834Y-2444191D01*
X4224731Y-2437434D01*
X4253382Y-2431897D01*
X4290974Y-2423769D01*
X4309262Y-2420213D01*
X4325874Y-2417775D01*
X4333494Y-2416962D01*
X4347311Y-2416200D01*
X4353407Y-2416251D01*
X4358944Y-2416556D01*
X4363872Y-2417165D01*
X4368190Y-2418029D01*
X4371898Y-2419146D01*
X4374896Y-2420569D01*
X4377232Y-2422296D01*
X4378807Y-2424277D01*
X4380890Y-2429611D01*
X4383024Y-2438196D01*
X4385005Y-2448814D01*
X4386529Y-2460294D01*
X4398060Y-2565095D01*
X4402277Y-2599740D01*
X4405884Y-2624632D01*
X4407560Y-2633878D01*
X4409236Y-2641244D01*
X4410913Y-2646984D01*
X4412589Y-2651201D01*
X4414367Y-2654147D01*
X4416298Y-2655976D01*
X4417263Y-2656586D01*
X4419447Y-2657144D01*
X4421835Y-2657094D01*
X4430014Y-2655722D01*
X4433824Y-2655874D01*
X4436922Y-2656636D01*
X4438802Y-2658059D01*
X4439259Y-2659634D01*
X4440224Y-2668016D01*
X4442358Y-2703626D01*
X4444593Y-2759913D01*
X4447082Y-2851454D01*
X4446981Y-2855417D01*
X4446422Y-2859786D01*
X4445457Y-2864510D01*
X4442510Y-2874670D01*
X4438294Y-2885490D01*
X4433112Y-2896463D01*
X4427118Y-2907182D01*
X4420565Y-2917088D01*
X4417110Y-2921609D01*
X4408474Y-2931414D01*
X4406849Y-2934004D01*
X4405223Y-2937256D01*
X4403648Y-2941167D01*
X4400499Y-2951327D01*
X4397349Y-2964637D01*
X4393996Y-2981502D01*
X4387646Y-3018891D01*
X4384751Y-3033979D01*
X4381703Y-3047695D01*
X4378502Y-3060293D01*
X4374997Y-3072079D01*
X4371187Y-3083306D01*
X4366920Y-3094228D01*
X4358233Y-3113582D01*
X4348124Y-3134156D01*
X4335678Y-3158490D01*
X4306417Y-3213506D01*
X4275734Y-3269234D01*
X4261510Y-3294329D01*
X4248912Y-3316020D01*
X4238548Y-3333140D01*
X4231081Y-3344468D01*
X4228642Y-3347618D01*
X4216400Y-3361486D01*
X4227982Y-3330448D01*
X4231436Y-3318865D01*
X4234027Y-3307587D01*
X4235450Y-3297885D01*
X4235602Y-3294126D01*
X4235500Y-3289909D01*
X4235094Y-3287369D01*
X4234383Y-3286607D01*
X4233265Y-3287725D01*
X4231741Y-3290773D01*
X4227017Y-3303168D01*
X4214215Y-3339846D01*
X4208475Y-3354171D01*
X4202887Y-3366008D01*
X4199991Y-3371087D01*
X4197045Y-3375710D01*
X4193997Y-3379927D01*
X4190695Y-3383787D01*
X4187240Y-3387293D01*
X4183481Y-3390595D01*
X4179417Y-3393694D01*
X4170222Y-3399434D01*
X4159300Y-3405022D01*
X4146346Y-3410864D01*
X4134408Y-3415792D01*
X4123893Y-3419348D01*
X4118864Y-3420668D01*
X4113733Y-3421735D01*
X4102862Y-3423208D01*
X4090162Y-3423869D01*
X4074617Y-3424021D01*
X4060240Y-3423767D01*
X4045965Y-3423158D01*
X4031843Y-3422192D01*
X4017873Y-3420872D01*
X4004157Y-3419195D01*
X3990644Y-3417214D01*
X3977487Y-3414877D01*
X3964686Y-3412286D01*
X3952240Y-3409340D01*
X3940251Y-3406140D01*
X3928770Y-3402685D01*
X3917797Y-3398977D01*
X3907383Y-3394964D01*
X3897629Y-3390747D01*
X3888536Y-3386328D01*
X3880104Y-3381654D01*
X3872484Y-3376828D01*
X3865626Y-3371748D01*
X3858361Y-3365754D01*
X3852519Y-3360470D01*
X3847846Y-3355441D01*
X3844086Y-3350361D01*
X3840987Y-3344824D01*
X3838397Y-3338525D01*
X3836009Y-3331006D01*
X3826001Y-3291789D01*
X3828694Y-3330194D01*
X3828084Y-3336594D01*
X3825189Y-3336848D01*
X3819296Y-3332581D01*
X3814470Y-3328466D01*
X3808323Y-3322828D01*
X3792728Y-3307587D01*
X3773779Y-3288284D01*
X3752799Y-3266287D01*
X3725773Y-3237230D01*
X3705047Y-3214420D01*
X3686606Y-3193491D01*
X3671671Y-3175914D01*
X3665982Y-3168802D01*
X3653891Y-3152292D01*
X3648303Y-3143910D01*
X3643376Y-3135731D01*
X3639058Y-3127603D01*
X3635248Y-3119323D01*
X3631895Y-3110585D01*
X3628948Y-3101289D01*
X3626358Y-3091129D01*
X3623970Y-3080004D01*
X3621836Y-3067608D01*
X3619804Y-3053740D01*
X3615893Y-3020923D01*
X3611219Y-2979267D01*
X3609035Y-2965145D01*
X3607917Y-2959912D01*
X3606749Y-2955798D01*
X3605529Y-2952597D01*
X3604209Y-2950210D01*
X3602736Y-2948533D01*
X3601110Y-2947416D01*
X3595776Y-2945485D01*
X3592880Y-2943453D01*
X3590899Y-2941015D01*
X3589324Y-2935071D01*
X3586886Y-2931617D01*
X3583279Y-2928315D01*
X3578860Y-2925368D01*
X3573983Y-2922981D01*
X3569004Y-2921304D01*
X3564280Y-2920644D01*
X3560114Y-2921152D01*
X3556406Y-2922676D01*
X3552494Y-2924911D01*
X3548837Y-2927553D01*
X3545941Y-2930245D01*
X3544163Y-2931566D01*
X3542233Y-2931464D01*
X3540048Y-2929890D01*
X3537508Y-2926588D01*
X3534460Y-2921406D01*
X3530854Y-2914243D01*
X3516833Y-2882188D01*
X3512972Y-2872536D01*
X3509822Y-2863799D01*
X3507384Y-2855366D01*
X3505555Y-2846781D01*
X3504285Y-2837535D01*
X3503523Y-2827121D01*
X3503269Y-2815082D01*
X3474820Y-2815082D01*
X3475685Y-2824632D01*
X3477615Y-2836316D01*
X3480562Y-2849270D01*
X3484575Y-2863392D01*
X3489604Y-2878531D01*
X3495548Y-2894685D01*
X3502507Y-2911754D01*
X3511042Y-2931058D01*
X3519779Y-2949092D01*
X3523894Y-2956763D01*
X3527856Y-2963570D01*
X3531666Y-2969514D01*
X3535426Y-2974644D01*
X3539134Y-2979064D01*
X3542842Y-2982671D01*
X3546500Y-2985617D01*
X3550259Y-2987903D01*
X3554069Y-2989529D01*
X3557981Y-2990545D01*
X3561994Y-2991053D01*
X3566210Y-2990951D01*
X3574491Y-2989732D01*
X3577742Y-2989478D01*
X3580485Y-2989783D01*
X3582822Y-2990799D01*
X3584701Y-2992628D01*
X3586276Y-2995472D01*
X3587597Y-2999536D01*
X3588715Y-3004972D01*
X3589731Y-3011881D01*
X3591661Y-3030880D01*
X3593490Y-3051606D01*
X3595471Y-3067710D01*
X3598062Y-3083102D01*
X3601212Y-3097631D01*
X3604869Y-3111195D01*
X3609035Y-3123641D01*
X3611270Y-3129432D01*
X3616096Y-3139998D01*
X3623513Y-3152800D01*
X3627018Y-3159912D01*
X3628288Y-3163570D01*
X3629304Y-3167380D01*
X3630015Y-3171494D01*
X3630422Y-3175863D01*
X3630574Y-3180689D01*
X3630371Y-3186023D01*
X3629101Y-3198368D01*
X3626612Y-3213557D01*
X3622954Y-3232200D01*
X3618636Y-3252774D01*
X3615131Y-3270707D01*
X3612489Y-3286607D01*
X3610711Y-3300729D01*
X3609701Y-3314903D01*
X3627628Y-3314903D01*
X3627882Y-3306368D01*
X3629101Y-3295751D01*
X3631133Y-3283051D01*
X3633978Y-3268522D01*
X3637686Y-3252165D01*
X3646322Y-3218637D01*
X3652316Y-3197098D01*
X3653434Y-3193796D01*
X3656025Y-3196234D01*
X3662527Y-3203143D01*
X3700475Y-3245561D01*
X3720287Y-3266592D01*
X3741623Y-3288487D01*
X3774389Y-3321050D01*
X3795420Y-3341166D01*
X3814673Y-3358997D01*
X3831183Y-3373577D01*
X3844036Y-3383991D01*
X3857701Y-3393389D01*
X3864660Y-3398621D01*
X3869029Y-3402431D01*
X3870096Y-3404362D01*
X3869283Y-3404615D01*
X3865626Y-3404463D01*
X3859428Y-3403447D01*
X3851046Y-3401669D01*
X3828745Y-3396132D01*
X3801110Y-3388512D01*
X3770426Y-3379571D01*
X3739134Y-3369970D01*
X3709466Y-3360420D01*
X3683914Y-3351580D01*
X3664712Y-3344164D01*
X3650234Y-3337306D01*
X3640632Y-3332226D01*
X3633470Y-3327857D01*
X3629710Y-3324860D01*
X3628847Y-3323285D01*
X3628186Y-3321100D01*
X3627780Y-3318256D01*
X3627628Y-3314903D01*
X3609701Y-3314903D01*
X3609594Y-3324301D01*
X3610305Y-3334156D01*
X3611829Y-3342995D01*
X3612896Y-3347110D01*
X3615690Y-3354781D01*
X3619246Y-3361944D01*
X3624529Y-3371850D01*
X3626815Y-3378708D01*
X3626256Y-3383991D01*
X3620719Y-3393236D01*
X3619093Y-3398570D01*
X3618810Y-3401212D01*
X3637330Y-3401212D01*
X3640988Y-3399790D01*
X3644290Y-3396640D01*
X3647338Y-3391966D01*
X3652113Y-3380333D01*
X3655009Y-3375253D01*
X3658158Y-3371392D01*
X3661156Y-3369462D01*
X3664254Y-3369462D01*
X3665728Y-3372256D01*
X3665728Y-3378403D01*
X3662679Y-3400806D01*
X3662883Y-3404920D01*
X3663950Y-3408121D01*
X3666185Y-3410813D01*
X3669741Y-3413302D01*
X3674872Y-3415995D01*
X3691636Y-3423564D01*
X3699662Y-3426561D01*
X3706012Y-3428034D01*
X3710940Y-3428085D01*
X3714699Y-3426612D01*
X3717493Y-3423564D01*
X3719626Y-3418890D01*
X3722674Y-3406698D01*
X3724351Y-3402279D01*
X3726535Y-3399231D01*
X3729482Y-3397453D01*
X3733444Y-3396894D01*
X3738676Y-3397453D01*
X3745331Y-3399028D01*
X3753764Y-3401517D01*
X3761333Y-3404362D01*
X3765804Y-3407257D01*
X3767582Y-3410458D01*
X3766820Y-3414318D01*
X3759454Y-3431540D01*
X3757320Y-3437686D01*
X3756151Y-3442563D01*
X3755898Y-3446424D01*
X3756507Y-3449675D01*
X3757929Y-3452520D01*
X3763721Y-3459429D01*
X3764127Y-3460242D01*
X3763924Y-3460648D01*
X3763060Y-3460699D01*
X3758895Y-3459378D01*
X3750665Y-3455974D01*
X3718864Y-3441598D01*
X3677107Y-3422294D01*
X3662781Y-3415385D01*
X3651148Y-3409492D01*
X3642715Y-3404920D01*
X3638092Y-3402025D01*
X3637330Y-3401212D01*
X3618810Y-3401212D01*
X3618484Y-3404260D01*
X3619754Y-3415842D01*
X3618636Y-3420313D01*
X3615436Y-3423665D01*
X3603853Y-3429711D01*
X3599942Y-3434384D01*
X3597554Y-3441446D01*
X3596949Y-3446170D01*
X3609136Y-3446170D01*
X3610406Y-3438956D01*
X3613658Y-3434486D01*
X3623970Y-3429000D01*
X3627882Y-3425901D01*
X3630777Y-3422548D01*
X3632250Y-3419246D01*
X3633520Y-3415487D01*
X3636010Y-3414369D01*
X3640836Y-3415944D01*
X3649116Y-3420313D01*
X3655060Y-3424224D01*
X3659632Y-3428492D01*
X3662375Y-3432606D01*
X3662934Y-3436162D01*
X3662781Y-3439515D01*
X3663543Y-3443224D01*
X3665067Y-3446830D01*
X3669233Y-3452723D01*
X3670452Y-3455720D01*
X3670757Y-3458514D01*
X3670046Y-3460750D01*
X3670300Y-3463290D01*
X3673195Y-3466846D01*
X3678224Y-3471011D01*
X3684981Y-3475278D01*
X3691940Y-3479342D01*
X3697681Y-3483000D01*
X3701542Y-3485845D01*
X3702964Y-3487470D01*
X3702151Y-3487928D01*
X3699814Y-3487420D01*
X3696157Y-3486099D01*
X3686048Y-3481374D01*
X3673601Y-3474618D01*
X3664051Y-3469030D01*
X3655974Y-3465017D01*
X3646271Y-3460800D01*
X3636111Y-3456838D01*
X3609187Y-3447694D01*
X3609136Y-3446170D01*
X3596949Y-3446170D01*
X3594963Y-3460648D01*
X3592779Y-3468268D01*
X3589782Y-3474212D01*
X3586226Y-3477971D01*
X3582060Y-3481324D01*
X3580434Y-3484930D01*
X3581152Y-3489147D01*
X3595573Y-3489147D01*
X3597097Y-3485134D01*
X3602888Y-3481628D01*
X3606342Y-3479241D01*
X3608476Y-3474669D01*
X3609441Y-3467506D01*
X3609187Y-3448202D01*
X3627374Y-3462985D01*
X3634790Y-3469640D01*
X3640937Y-3476244D01*
X3645052Y-3482035D01*
X3646576Y-3486251D01*
X3647033Y-3489198D01*
X3648252Y-3491636D01*
X3650081Y-3493262D01*
X3654298Y-3494582D01*
X3655568Y-3496513D01*
X3655974Y-3499358D01*
X3655147Y-3505758D01*
X3738829Y-3505758D01*
X3739896Y-3505250D01*
X3742690Y-3505657D01*
X3746906Y-3506876D01*
X3758437Y-3511092D01*
X3763111Y-3511905D01*
X3766413Y-3511194D01*
X3770884Y-3506927D01*
X3773424Y-3506114D01*
X3776472Y-3506470D01*
X3787952Y-3511448D01*
X3794404Y-3512108D01*
X3798773Y-3510127D01*
X3801160Y-3502761D01*
X3803345Y-3500577D01*
X3806596Y-3499053D01*
X3810609Y-3498545D01*
X3815842Y-3498240D01*
X3819042Y-3497326D01*
X3820210Y-3495852D01*
X3819347Y-3493719D01*
X3816400Y-3490874D01*
X3811320Y-3487420D01*
X3804158Y-3483254D01*
X3784955Y-3472992D01*
X3777234Y-3468319D01*
X3772458Y-3464763D01*
X3771341Y-3462832D01*
X3773119Y-3462375D01*
X3776116Y-3462731D01*
X3779926Y-3463848D01*
X3784142Y-3465576D01*
X3789934Y-3467557D01*
X3794251Y-3465829D01*
X3798417Y-3458972D01*
X3803802Y-3445764D01*
X3813149Y-3420973D01*
X3866845Y-3432962D01*
X3883355Y-3437026D01*
X3896512Y-3440684D01*
X3904640Y-3443478D01*
X3906367Y-3444392D01*
X3907028Y-3448050D01*
X3905910Y-3455365D01*
X3903218Y-3465271D01*
X3895496Y-3486708D01*
X3892956Y-3494582D01*
X3891584Y-3500577D01*
X3891534Y-3505098D01*
X3892804Y-3508349D01*
X3895394Y-3510584D01*
X3899357Y-3512108D01*
X3904742Y-3513226D01*
X3909822Y-3512921D01*
X3913886Y-3509518D01*
X3917543Y-3502050D01*
X3924808Y-3479292D01*
X3928313Y-3469944D01*
X3931615Y-3462578D01*
X3934409Y-3458210D01*
X3937304Y-3455263D01*
X3939641Y-3453231D01*
X3941470Y-3452215D01*
X3942791Y-3452164D01*
X3943604Y-3453129D01*
X3943858Y-3455009D01*
X3943604Y-3457905D01*
X3942791Y-3461765D01*
X3939641Y-3472383D01*
X3934358Y-3486912D01*
X3931564Y-3493922D01*
X3928668Y-3500475D01*
X3925773Y-3506419D01*
X3920388Y-3515817D01*
X3918000Y-3519017D01*
X3915968Y-3521049D01*
X3914343Y-3521760D01*
X3909364Y-3520846D01*
X3900728Y-3518357D01*
X3889603Y-3514648D01*
X3855161Y-3501948D01*
X3844848Y-3498545D01*
X3843832Y-3499865D01*
X3843477Y-3503422D01*
X3843680Y-3508756D01*
X3844391Y-3515156D01*
X3845560Y-3522167D01*
X3847033Y-3529177D01*
X3848760Y-3535679D01*
X3850690Y-3541014D01*
X3853332Y-3545992D01*
X3856482Y-3550513D01*
X3859784Y-3554018D01*
X3864406Y-3556914D01*
X3863797Y-3557270D01*
X3856736Y-3556254D01*
X3849725Y-3554171D01*
X3838600Y-3550158D01*
X3808628Y-3538118D01*
X3775913Y-3524148D01*
X3749649Y-3512058D01*
X3741724Y-3507943D01*
X3739591Y-3506571D01*
X3738829Y-3505758D01*
X3655147Y-3505758D01*
X3655009Y-3507282D01*
X3656736Y-3510991D01*
X3660901Y-3514293D01*
X3673754Y-3519830D01*
X3679088Y-3522472D01*
X3683152Y-3524961D01*
X3685438Y-3526993D01*
X3685946Y-3528263D01*
X3685387Y-3528923D01*
X3683812Y-3528974D01*
X3681323Y-3528466D01*
X3673957Y-3525875D01*
X3663950Y-3521456D01*
X3652012Y-3515512D01*
X3628390Y-3502660D01*
X3618433Y-3498087D01*
X3610101Y-3494989D01*
X3598113Y-3492500D01*
X3595573Y-3489147D01*
X3581152Y-3489147D01*
X3581247Y-3489706D01*
X3587648Y-3504234D01*
X3587851Y-3509518D01*
X3584346Y-3514293D01*
X3568852Y-3526434D01*
X3567509Y-3528314D01*
X3584854Y-3528314D01*
X3585413Y-3526688D01*
X3591001Y-3522929D01*
X3594455Y-3519678D01*
X3597452Y-3516020D01*
X3601770Y-3507740D01*
X3604514Y-3506114D01*
X3609187Y-3507384D01*
X3617112Y-3511499D01*
X3622548Y-3515156D01*
X3627069Y-3519322D01*
X3630066Y-3523487D01*
X3631184Y-3527196D01*
X3631641Y-3530498D01*
X3632512Y-3532886D01*
X3692702Y-3532886D01*
X3693058Y-3531615D01*
X3693464Y-3531209D01*
X3693972Y-3531057D01*
X3696766Y-3532073D01*
X3701897Y-3534664D01*
X3715765Y-3542588D01*
X3728465Y-3550462D01*
X3732072Y-3553104D01*
X3732733Y-3554120D01*
X3729736Y-3553358D01*
X3724605Y-3551224D01*
X3718102Y-3548176D01*
X3704183Y-3540760D01*
X3698341Y-3537305D01*
X3694226Y-3534562D01*
X3692702Y-3532886D01*
X3632512Y-3532886D01*
X3632809Y-3533698D01*
X3634536Y-3536391D01*
X3638600Y-3539845D01*
X3639820Y-3542029D01*
X3640277Y-3544468D01*
X3639769Y-3546906D01*
X3640632Y-3550107D01*
X3644696Y-3554628D01*
X3646915Y-3556406D01*
X3748836Y-3556406D01*
X3748989Y-3554476D01*
X3750310Y-3552951D01*
X3752748Y-3551885D01*
X3756355Y-3551377D01*
X3761130Y-3551478D01*
X3774795Y-3553256D01*
X3780434Y-3553206D01*
X3783837Y-3552190D01*
X3784955Y-3550158D01*
X3785260Y-3548176D01*
X3786124Y-3546652D01*
X3787343Y-3545687D01*
X3788816Y-3545535D01*
X3798773Y-3547465D01*
X3805529Y-3550158D01*
X3809390Y-3553764D01*
X3811208Y-3560724D01*
X3878986Y-3560724D01*
X3879799Y-3558895D01*
X3881424Y-3557117D01*
X3883558Y-3555644D01*
X3885844Y-3554628D01*
X3888079Y-3554272D01*
X3889857Y-3554628D01*
X3890772Y-3555644D01*
X3890873Y-3557117D01*
X3890060Y-3558895D01*
X3888435Y-3560724D01*
X3886301Y-3562197D01*
X3884015Y-3563162D01*
X3881780Y-3563569D01*
X3880002Y-3563162D01*
X3879087Y-3562197D01*
X3878986Y-3560724D01*
X3811208Y-3560724D01*
X3811625Y-3562350D01*
X3814368Y-3567125D01*
X3818432Y-3572052D01*
X3830421Y-3583178D01*
X3835247Y-3589528D01*
X3837025Y-3594252D01*
X3834942Y-3595979D01*
X3832402Y-3595624D01*
X3824071Y-3593490D01*
X3812743Y-3589934D01*
X3799890Y-3585514D01*
X3787038Y-3580637D01*
X3775557Y-3575913D01*
X3770884Y-3573779D01*
X3764483Y-3570478D01*
X3759200Y-3567277D01*
X3754983Y-3564229D01*
X3751834Y-3561334D01*
X3749751Y-3558743D01*
X3748836Y-3556406D01*
X3646915Y-3556406D01*
X3651351Y-3559962D01*
X3659936Y-3565448D01*
X3668674Y-3570630D01*
X3675837Y-3575253D01*
X3680663Y-3578809D01*
X3682441Y-3580790D01*
X3681526Y-3581196D01*
X3679088Y-3580485D01*
X3675379Y-3578860D01*
X3657600Y-3569208D01*
X3608070Y-3544062D01*
X3599434Y-3539490D01*
X3592931Y-3535730D01*
X3588410Y-3532733D01*
X3585768Y-3530295D01*
X3584854Y-3528314D01*
X3567509Y-3528314D01*
X3565296Y-3531412D01*
X3565347Y-3537153D01*
X3571189Y-3553510D01*
X3571646Y-3559606D01*
X3569512Y-3565093D01*
X3560267Y-3577336D01*
X3558032Y-3582619D01*
X3557927Y-3584143D01*
X3570122Y-3584143D01*
X3570325Y-3580384D01*
X3571900Y-3577437D01*
X3574796Y-3575151D01*
X3576777Y-3574796D01*
X3578402Y-3575862D01*
X3579520Y-3578199D01*
X3580333Y-3585413D01*
X3581450Y-3588969D01*
X3583076Y-3591915D01*
X3585057Y-3593744D01*
X3587191Y-3593439D01*
X3588816Y-3590086D01*
X3589832Y-3583990D01*
X3590442Y-3568192D01*
X3591204Y-3562553D01*
X3592525Y-3558387D01*
X3594506Y-3555695D01*
X3597198Y-3554425D01*
X3600653Y-3554476D01*
X3604920Y-3555847D01*
X3610101Y-3558489D01*
X3612438Y-3561283D01*
X3613810Y-3565956D01*
X3614267Y-3572052D01*
X3613861Y-3578961D01*
X3612642Y-3586124D01*
X3610821Y-3592474D01*
X3710330Y-3592474D01*
X3712006Y-3592220D01*
X3715105Y-3592829D01*
X3719118Y-3594201D01*
X3729329Y-3598570D01*
X3733444Y-3599332D01*
X3736441Y-3598519D01*
X3741165Y-3593693D01*
X3744163Y-3592829D01*
X3748074Y-3593439D01*
X3761638Y-3599332D01*
X3766616Y-3600348D01*
X3769004Y-3598519D01*
X3770376Y-3589172D01*
X3773220Y-3587445D01*
X3779062Y-3588562D01*
X3788816Y-3592474D01*
X3793286Y-3595065D01*
X3796944Y-3598367D01*
X3799433Y-3601974D01*
X3800348Y-3605529D01*
X3800906Y-3609035D01*
X3802430Y-3612743D01*
X3804716Y-3616147D01*
X3810457Y-3621633D01*
X3813251Y-3625240D01*
X3815587Y-3629151D01*
X3817162Y-3633012D01*
X3818077Y-3637686D01*
X3816299Y-3639515D01*
X3810457Y-3638600D01*
X3799027Y-3635146D01*
X3788105Y-3631184D01*
X3774490Y-3625545D01*
X3759504Y-3618890D01*
X3744468Y-3611829D01*
X3730701Y-3605022D01*
X3719576Y-3599129D01*
X3712362Y-3594709D01*
X3710635Y-3593287D01*
X3710330Y-3592474D01*
X3610821Y-3592474D01*
X3608019Y-3599129D01*
X3604768Y-3603904D01*
X3603294Y-3606546D01*
X3603802Y-3609187D01*
X3606139Y-3611829D01*
X3610356Y-3614369D01*
X3616451Y-3616858D01*
X3624275Y-3619246D01*
X3633825Y-3621532D01*
X3655364Y-3625596D01*
X3673195Y-3629558D01*
X3682593Y-3632047D01*
X3685387Y-3631742D01*
X3687064Y-3630066D01*
X3688283Y-3623411D01*
X3691534Y-3622192D01*
X3698900Y-3623462D01*
X3711905Y-3627170D01*
X3717086Y-3628847D01*
X3727704Y-3633012D01*
X3737762Y-3637787D01*
X3746042Y-3642614D01*
X3753002Y-3647592D01*
X3757879Y-3650487D01*
X3763619Y-3653383D01*
X3776929Y-3659022D01*
X3791356Y-3664051D01*
X3805529Y-3667963D01*
X3812032Y-3669334D01*
X3817975Y-3670198D01*
X3827272Y-3671011D01*
X3827779Y-3672128D01*
X3824376Y-3674211D01*
X3816959Y-3677361D01*
X3810203Y-3680510D01*
X3804208Y-3684168D01*
X3799586Y-3687978D01*
X3795268Y-3693820D01*
X3792270Y-3695446D01*
X3788105Y-3696258D01*
X3782822Y-3696309D01*
X3776319Y-3695496D01*
X3768648Y-3693922D01*
X3759809Y-3691534D01*
X3749801Y-3688283D01*
X3744112Y-3685997D01*
X3741369Y-3683711D01*
X3741267Y-3681069D01*
X3743655Y-3677716D01*
X3745839Y-3675126D01*
X3747008Y-3673043D01*
X3746754Y-3671163D01*
X3744823Y-3669385D01*
X3740912Y-3667455D01*
X3734714Y-3665220D01*
X3714140Y-3658920D01*
X3698900Y-3654653D01*
X3693769Y-3653586D01*
X3689959Y-3653180D01*
X3687013Y-3653536D01*
X3684676Y-3654602D01*
X3682593Y-3656380D01*
X3678326Y-3661308D01*
X3676142Y-3663035D01*
X3673652Y-3664000D01*
X3670401Y-3664153D01*
X3666083Y-3663543D01*
X3660292Y-3662070D01*
X3643071Y-3656634D01*
X3631133Y-3652418D01*
X3626104Y-3650335D01*
X3621633Y-3648201D01*
X3617569Y-3645966D01*
X3613810Y-3643426D01*
X3610203Y-3640632D01*
X3606647Y-3637432D01*
X3603040Y-3633774D01*
X3595268Y-3624681D01*
X3583686Y-3609594D01*
X3578047Y-3601415D01*
X3573932Y-3594557D01*
X3571290Y-3588816D01*
X3570122Y-3584143D01*
X3557927Y-3584143D01*
X3557676Y-3587800D01*
X3559251Y-3593287D01*
X3562299Y-3599383D01*
X3566820Y-3606698D01*
X3572662Y-3615029D01*
X3579672Y-3624122D01*
X3587648Y-3633876D01*
X3596386Y-3644036D01*
X3605834Y-3654450D01*
X3615740Y-3664864D01*
X3625951Y-3675126D01*
X3642142Y-3690365D01*
X3658260Y-3690365D01*
X3659733Y-3689807D01*
X3663086Y-3690213D01*
X3668725Y-3691686D01*
X3688334Y-3698036D01*
X3714242Y-3707028D01*
X3728567Y-3712464D01*
X3731920Y-3714140D01*
X3732936Y-3715308D01*
X3731717Y-3716020D01*
X3728516Y-3716375D01*
X3723436Y-3716528D01*
X3718407Y-3716274D01*
X3712667Y-3715512D01*
X3706469Y-3714292D01*
X3699967Y-3712718D01*
X3693363Y-3710838D01*
X3686810Y-3708704D01*
X3674770Y-3703878D01*
X3669588Y-3701338D01*
X3665220Y-3698849D01*
X3661867Y-3696411D01*
X3659733Y-3694125D01*
X3658362Y-3691839D01*
X3658260Y-3690365D01*
X3642142Y-3690365D01*
X3652012Y-3699001D01*
X3661460Y-3706469D01*
X3665982Y-3709670D01*
X3670452Y-3712514D01*
X3674922Y-3715054D01*
X3683914Y-3719169D01*
X3688537Y-3720744D01*
X3693312Y-3722065D01*
X3698290Y-3723081D01*
X3703472Y-3723843D01*
X3714699Y-3724656D01*
X3727399Y-3724452D01*
X3741826Y-3723386D01*
X3758336Y-3721557D01*
X3777284Y-3719017D01*
X3783584Y-3718001D01*
X3796334Y-3715054D01*
X3802684Y-3713226D01*
X3814724Y-3709009D01*
X3825290Y-3704285D01*
X3829812Y-3701897D01*
X3833672Y-3699459D01*
X3836822Y-3697020D01*
X3839108Y-3694684D01*
X3842969Y-3691991D01*
X3849370Y-3689553D01*
X3857447Y-3687622D01*
X3874058Y-3685692D01*
X3881069Y-3684320D01*
X3887215Y-3682492D01*
X3892499Y-3680256D01*
X3896868Y-3677716D01*
X3900170Y-3674973D01*
X3902354Y-3672027D01*
X3903421Y-3668979D01*
X3903218Y-3665931D01*
X3901694Y-3662883D01*
X3898798Y-3659987D01*
X3891330Y-3655212D01*
X3889552Y-3652875D01*
X3889146Y-3650335D01*
X3890060Y-3647694D01*
X3892245Y-3645052D01*
X3895648Y-3642461D01*
X3900220Y-3639972D01*
X3905961Y-3637737D01*
X3910634Y-3635654D01*
X3914190Y-3633114D01*
X3916578Y-3630218D01*
X3917797Y-3627170D01*
X3917797Y-3624072D01*
X3916578Y-3621024D01*
X3914140Y-3618229D01*
X3907180Y-3613505D01*
X3905402Y-3610762D01*
X3905046Y-3607663D01*
X3905910Y-3604412D01*
X3908044Y-3601110D01*
X3911295Y-3597859D01*
X3915664Y-3594811D01*
X3929379Y-3587800D01*
X3932986Y-3583432D01*
X3932021Y-3578656D01*
X3923436Y-3570173D01*
X3921810Y-3566668D01*
X3921404Y-3562858D01*
X3922268Y-3558946D01*
X3924249Y-3555136D01*
X3927348Y-3551478D01*
X3931513Y-3548278D01*
X3936644Y-3545636D01*
X3944620Y-3540963D01*
X3948429Y-3535375D01*
X3947922Y-3529228D01*
X3943045Y-3522827D01*
X3940606Y-3518865D01*
X3940301Y-3512565D01*
X3942232Y-3503015D01*
X3946398Y-3489350D01*
X3951427Y-3475634D01*
X3953713Y-3470757D01*
X3955948Y-3467049D01*
X3958234Y-3464356D01*
X3960622Y-3462629D01*
X3963212Y-3461664D01*
X3970883Y-3460699D01*
X3976268Y-3458972D01*
X3981653Y-3456381D01*
X3988511Y-3451606D01*
X3991000Y-3450234D01*
X3993946Y-3449065D01*
X3997451Y-3448050D01*
X4001668Y-3447237D01*
X4012895Y-3446018D01*
X4028694Y-3445357D01*
X4092143Y-3444748D01*
X4106722Y-3444341D01*
X4118508Y-3443630D01*
X4128160Y-3442512D01*
X4136339Y-3440937D01*
X4143756Y-3438855D01*
X4151071Y-3436112D01*
X4168546Y-3428187D01*
X4177080Y-3423665D01*
X4185310Y-3418890D01*
X4193235Y-3413810D01*
X4200906Y-3408273D01*
X4208424Y-3402228D01*
X4215790Y-3395675D01*
X4223105Y-3388512D01*
X4230370Y-3380638D01*
X4237685Y-3372053D01*
X4245102Y-3362706D01*
X4252620Y-3352495D01*
X4260392Y-3341319D01*
X4268368Y-3329178D01*
X4276648Y-3316020D01*
X4294327Y-3286251D01*
X4313885Y-3251504D01*
X4333951Y-3214573D01*
X4351629Y-3180994D01*
X4367022Y-3150412D01*
X4380179Y-3122676D01*
X4386021Y-3109722D01*
X4396130Y-3085592D01*
X4400448Y-3074314D01*
X4404309Y-3063494D01*
X4407712Y-3053130D01*
X4410710Y-3043174D01*
X4413250Y-3033572D01*
X4415434Y-3024276D01*
X4417161Y-3015335D01*
X4418584Y-3006598D01*
X4419600Y-2998114D01*
X4420260Y-2989834D01*
X4420819Y-2972257D01*
X4421479Y-2967177D01*
X4422698Y-2962148D01*
X4424476Y-2957118D01*
X4426864Y-2951988D01*
X4429912Y-2946552D01*
X4433722Y-2940761D01*
X4442002Y-2929128D01*
X4445965Y-2922981D01*
X4453890Y-2909163D01*
X4461052Y-2894787D01*
X4464100Y-2887929D01*
X4469790Y-2872587D01*
X4472127Y-2865018D01*
X4473702Y-2858414D01*
X4474565Y-2852318D01*
X4474718Y-2846222D01*
X4474159Y-2839720D01*
X4473041Y-2832252D01*
X4470654Y-2820162D01*
X4469536Y-2811627D01*
X4468469Y-2800908D01*
X4466844Y-2774492D01*
X4465980Y-2744266D01*
X4465828Y-2728772D01*
X4466031Y-2704642D01*
X4465980Y-2679242D01*
X4465421Y-2662224D01*
X4464812Y-2656179D01*
X4463948Y-2651455D01*
X4462780Y-2647696D01*
X4461306Y-2644749D01*
X4459478Y-2642311D01*
X4448302Y-2632151D01*
X4445355Y-2626715D01*
X4445203Y-2619705D01*
X4447895Y-2607005D01*
X4448759Y-2600502D01*
X4449470Y-2591816D01*
X4449978Y-2581300D01*
X4450435Y-2556103D01*
X4450130Y-2527858D01*
X4448911Y-2496667D01*
X4448098Y-2482951D01*
X4447082Y-2470658D01*
X4445812Y-2459329D01*
X4444238Y-2448610D01*
X4442307Y-2438095D01*
X4439920Y-2427427D01*
X4433620Y-2403906D01*
X4427728Y-2384196D01*
X4423613Y-2371191D01*
X4417110Y-2351989D01*
X4407865Y-2326843D01*
X4398060Y-2302306D01*
X4390288Y-2284222D01*
X4379366Y-2260701D01*
X4373727Y-2249170D01*
X4364939Y-2232152D01*
X4352798Y-2210003D01*
X4346498Y-2199182D01*
X4336796Y-2183282D01*
X4323384Y-2162657D01*
X4309414Y-2142693D01*
X4298645Y-2128164D01*
X4283811Y-2109470D01*
X4268520Y-2091486D01*
X4256684Y-2078482D01*
X4248708Y-2070049D01*
X4232300Y-2053793D01*
X4219752Y-2042109D01*
X4202582Y-2027224D01*
X4185005Y-2013153D01*
X4167022Y-1999945D01*
X4148632Y-1987550D01*
X4139285Y-1981657D01*
X4120286Y-1970582D01*
X4110685Y-1965350D01*
X4096054Y-1957933D01*
X4075531Y-1948586D01*
X4064304Y-1943912D01*
X4042613Y-1935683D01*
X4033367Y-1932533D01*
X4025900Y-1930400D01*
X4012133Y-1927098D01*
X4006494Y-1925929D01*
X4001414Y-1925167D01*
X3996791Y-1924761D01*
G37*
G36*
X3932885Y-2625801D02*
G01*
X3930142Y-2626360D01*
X3930497Y-2627680D01*
X3933647Y-2629814D01*
X3938422Y-2631541D01*
X3945839Y-2632862D01*
X3954830Y-2633624D01*
X3964381Y-2633776D01*
X3987444Y-2633268D01*
X3961536Y-2628442D01*
X3945128Y-2626360D01*
X3938778Y-2625852D01*
G37*
G36*
X4023360Y-2654249D02*
G01*
X4016095Y-2654350D01*
X4011472Y-2654808D01*
X4009898Y-2655417D01*
X4011726Y-2656230D01*
X4016095Y-2656890D01*
X4021429Y-2657144D01*
X4027017Y-2656941D01*
X4032250Y-2656332D01*
X4035145Y-2655570D01*
X4034434Y-2654909D01*
X4030370Y-2654401D01*
G37*
G36*
X3814572Y-2709976D02*
G01*
X3807714Y-2710180D01*
X3802024Y-2710789D01*
X3797452Y-2711856D01*
X3794048Y-2713380D01*
X3791762Y-2715310D01*
X3790594Y-2717698D01*
X3790492Y-2720594D01*
X3791458Y-2723896D01*
X3792728Y-2725521D01*
X3795014Y-2727045D01*
X3798417Y-2728417D01*
X3802989Y-2729687D01*
X3808679Y-2730804D01*
X3815587Y-2731820D01*
X3845153Y-2734868D01*
X3859174Y-2737002D01*
X3874465Y-2739847D01*
X3890111Y-2743149D01*
X3905351Y-2746806D01*
X3940606Y-2756763D01*
X3949242Y-2758948D01*
X3956558Y-2760522D01*
X3962704Y-2761538D01*
X3967734Y-2761996D01*
X3971798Y-2761843D01*
X3974896Y-2761183D01*
X3977132Y-2759913D01*
X3978656Y-2758135D01*
X3979519Y-2755747D01*
X3979773Y-2752852D01*
X3979468Y-2751328D01*
X3978605Y-2749753D01*
X3977233Y-2748178D01*
X3975252Y-2746502D01*
X3969867Y-2743098D01*
X3962603Y-2739593D01*
X3953560Y-2736037D01*
X3942943Y-2732430D01*
X3930904Y-2728925D01*
X3917543Y-2725470D01*
X3903014Y-2722219D01*
X3887520Y-2719070D01*
X3871214Y-2716174D01*
X3854196Y-2713583D01*
X3831945Y-2710942D01*
X3822649Y-2710230D01*
G37*
G36*
X4339590Y-2710180D02*
G01*
X4325315Y-2710383D01*
X4310380Y-2710992D01*
X4295089Y-2712059D01*
X4279595Y-2713532D01*
X4263999Y-2715310D01*
X4248607Y-2717444D01*
X4233570Y-2719882D01*
X4219092Y-2722524D01*
X4205274Y-2725420D01*
X4192422Y-2728518D01*
X4180636Y-2731770D01*
X4170172Y-2735122D01*
X4161180Y-2738628D01*
X4153865Y-2742133D01*
X4150868Y-2743911D01*
X4148378Y-2745689D01*
X4146397Y-2747467D01*
X4144975Y-2749245D01*
X4144111Y-2751023D01*
X4143806Y-2752801D01*
X4144010Y-2755646D01*
X4144772Y-2757982D01*
X4146143Y-2759760D01*
X4148226Y-2760929D01*
X4151071Y-2761589D01*
X4154830Y-2761691D01*
X4159605Y-2761183D01*
X4165396Y-2760116D01*
X4172407Y-2758490D01*
X4190288Y-2753461D01*
X4219092Y-2744673D01*
X4229252Y-2741879D01*
X4238752Y-2739694D01*
X4248150Y-2737967D01*
X4258005Y-2736697D01*
X4268876Y-2735732D01*
X4281322Y-2735072D01*
X4313326Y-2734259D01*
X4363821Y-2733344D01*
X4380382Y-2732532D01*
X4386122Y-2731922D01*
X4390440Y-2731211D01*
X4393539Y-2730296D01*
X4395571Y-2729179D01*
X4396790Y-2727858D01*
X4397400Y-2726283D01*
X4397552Y-2724454D01*
X4396486Y-2720187D01*
X4393031Y-2716987D01*
X4386732Y-2714548D01*
X4377029Y-2712618D01*
X4365650Y-2711246D01*
X4353102Y-2710484D01*
G37*
G36*
X3761994Y-2713634D02*
G01*
X3753154Y-2714447D01*
X3742131Y-2716072D01*
X3728821Y-2718460D01*
X3716020Y-2721406D01*
X3708095Y-2724404D01*
X3704082Y-2728061D01*
X3702964Y-2733040D01*
X3703116Y-2735935D01*
X3703726Y-2738170D01*
X3705148Y-2739694D01*
X3707587Y-2740609D01*
X3711448Y-2740964D01*
X3716934Y-2740863D01*
X3734054Y-2739339D01*
X3747414Y-2737866D01*
X3757980Y-2736443D01*
X3766007Y-2734970D01*
X3771849Y-2733294D01*
X3775811Y-2731312D01*
X3778300Y-2728874D01*
X3779520Y-2725877D01*
X3779824Y-2722219D01*
X3779265Y-2718816D01*
X3777335Y-2716225D01*
X3773932Y-2714498D01*
X3768851Y-2713634D01*
G37*
G36*
X3533190Y-2732024D02*
G01*
X3532022Y-2733395D01*
X3532378Y-2737154D01*
X3534105Y-2742692D01*
X3540353Y-2756560D01*
X3543096Y-2763164D01*
X3545281Y-2769311D01*
X3546856Y-2774950D01*
X3547821Y-2780182D01*
X3548278Y-2784957D01*
X3548075Y-2789326D01*
X3547364Y-2793288D01*
X3546043Y-2796895D01*
X3544163Y-2800146D01*
X3541674Y-2803042D01*
X3533394Y-2810103D01*
X3530498Y-2814269D01*
X3529787Y-2818485D01*
X3531057Y-2823057D01*
X3532733Y-2828086D01*
X3534308Y-2835198D01*
X3535629Y-2843479D01*
X3537000Y-2859074D01*
X3537813Y-2864916D01*
X3538829Y-2869488D01*
X3539896Y-2872841D01*
X3541064Y-2874975D01*
X3542233Y-2875788D01*
X3543350Y-2875330D01*
X3544366Y-2873654D01*
X3545281Y-2870606D01*
X3545992Y-2866288D01*
X3546449Y-2860700D01*
X3546601Y-2853740D01*
X3546144Y-2841904D01*
X3544773Y-2832608D01*
X3542436Y-2826004D01*
X3539236Y-2822041D01*
X3535883Y-2819146D01*
X3535273Y-2816606D01*
X3537610Y-2813913D01*
X3543096Y-2810459D01*
X3546297Y-2808173D01*
X3548938Y-2805226D01*
X3551072Y-2801670D01*
X3552698Y-2797556D01*
X3553764Y-2792984D01*
X3554272Y-2787904D01*
X3554272Y-2782468D01*
X3553714Y-2776626D01*
X3552647Y-2770479D01*
X3550970Y-2764078D01*
X3548786Y-2757474D01*
X3546043Y-2750718D01*
X3542487Y-2743454D01*
X3538880Y-2737510D01*
X3535629Y-2733497D01*
G37*
G36*
X3855618Y-2750972D02*
G01*
X3846677Y-2751683D01*
X3835400Y-2753360D01*
X3822598Y-2755849D01*
X3809085Y-2758998D01*
X3795674Y-2762605D01*
X3783228Y-2766415D01*
X3880459Y-2766517D01*
X3883812Y-2764840D01*
X3891584Y-2764586D01*
X3896563Y-2765145D01*
X3902710Y-2766618D01*
X3909618Y-2768854D01*
X3917086Y-2771749D01*
X3924706Y-2775102D01*
X3932275Y-2778760D01*
X3939387Y-2782570D01*
X3945788Y-2786380D01*
X3951122Y-2790037D01*
X3955135Y-2793339D01*
X3957523Y-2796184D01*
X3957929Y-2798419D01*
X3956050Y-2800248D01*
X3951935Y-2802585D01*
X3945991Y-2805328D01*
X3938676Y-2808325D01*
X3921607Y-2814472D01*
X3904386Y-2819755D01*
X3896868Y-2821736D01*
X3890619Y-2823057D01*
X3886098Y-2823565D01*
X3883812Y-2823108D01*
X3883202Y-2821178D01*
X3883456Y-2817520D01*
X3884523Y-2812796D01*
X3888333Y-2800451D01*
X3888740Y-2793746D01*
X3887470Y-2786888D01*
X3884574Y-2779318D01*
X3880916Y-2770886D01*
X3880459Y-2766517D01*
X3782936Y-2766517D01*
X3772458Y-2770327D01*
X3742842Y-2783789D01*
X3752030Y-2792628D01*
X3764483Y-2792628D01*
X3766464Y-2790393D01*
X3771900Y-2787091D01*
X3779926Y-2783179D01*
X3789781Y-2779064D01*
X3800297Y-2775102D01*
X3808882Y-2772156D01*
X3815537Y-2770225D01*
X3820261Y-2769362D01*
X3823106Y-2769565D01*
X3824173Y-2770733D01*
X3823360Y-2772968D01*
X3820820Y-2776220D01*
X3818331Y-2780436D01*
X3816858Y-2786329D01*
X3816451Y-2793593D01*
X3817162Y-2801924D01*
X3818432Y-2812186D01*
X3817874Y-2817418D01*
X3814876Y-2818841D01*
X3808882Y-2817622D01*
X3802532Y-2815539D01*
X3795420Y-2812542D01*
X3788054Y-2809036D01*
X3780891Y-2805226D01*
X3774440Y-2801366D01*
X3769258Y-2797810D01*
X3765753Y-2794812D01*
X3764483Y-2792628D01*
X3752030Y-2792628D01*
X3759403Y-2799638D01*
X3768344Y-2807004D01*
X3772814Y-2810205D01*
X3777335Y-2813050D01*
X3782009Y-2815640D01*
X3786835Y-2817876D01*
X3791864Y-2819857D01*
X3797147Y-2821635D01*
X3802735Y-2823108D01*
X3815079Y-2825496D01*
X3821887Y-2826410D01*
X3837127Y-2827731D01*
X3851960Y-2828442D01*
X3863594Y-2828747D01*
X3874262Y-2828645D01*
X3884320Y-2828137D01*
X3894074Y-2827121D01*
X3903979Y-2825597D01*
X3914444Y-2823413D01*
X3925773Y-2820568D01*
X3938371Y-2817012D01*
X3960520Y-2810205D01*
X3967987Y-2807563D01*
X3974134Y-2804871D01*
X3978249Y-2802432D01*
X3979773Y-2800604D01*
X3979113Y-2798826D01*
X3977182Y-2796590D01*
X3974185Y-2794000D01*
X3965346Y-2788005D01*
X3953611Y-2781350D01*
X3940149Y-2774543D01*
X3925874Y-2768142D01*
X3918813Y-2765247D01*
X3905402Y-2760472D01*
X3899357Y-2758694D01*
X3893921Y-2757424D01*
X3871468Y-2753156D01*
X3858971Y-2751074D01*
G37*
G36*
X4256278Y-2756611D02*
G01*
X4245051Y-2757017D01*
X4233570Y-2758084D01*
X4221988Y-2759710D01*
X4210253Y-2761945D01*
X4195203Y-2765704D01*
X4254296Y-2765704D01*
X4255160Y-2764942D01*
X4262424Y-2766314D01*
X4273448Y-2768955D01*
X4300423Y-2776575D01*
X4313174Y-2780588D01*
X4323232Y-2784144D01*
X4341164Y-2791053D01*
X4305960Y-2804718D01*
X4285488Y-2812034D01*
X4262475Y-2819654D01*
X4265320Y-2803804D01*
X4266031Y-2796133D01*
X4265320Y-2788970D01*
X4263186Y-2782366D01*
X4259681Y-2776270D01*
X4256684Y-2771749D01*
X4254855Y-2768092D01*
X4254296Y-2765704D01*
X4195203Y-2765704D01*
X4186732Y-2768193D01*
X4175048Y-2772206D01*
X4163466Y-2776829D01*
X4154474Y-2780792D01*
X4139488Y-2788158D01*
X4133646Y-2791561D01*
X4128871Y-2794762D01*
X4125214Y-2797657D01*
X4122775Y-2800350D01*
X4121721Y-2802331D01*
X4133545Y-2802331D01*
X4135780Y-2800045D01*
X4141876Y-2796286D01*
X4150868Y-2791561D01*
X4161840Y-2786430D01*
X4173626Y-2781300D01*
X4182770Y-2777591D01*
X4189476Y-2775356D01*
X4193946Y-2774543D01*
X4196435Y-2775153D01*
X4197146Y-2777185D01*
X4196334Y-2780588D01*
X4191660Y-2791561D01*
X4190847Y-2797098D01*
X4191711Y-2802737D01*
X4194251Y-2808884D01*
X4198315Y-2817469D01*
X4199839Y-2822295D01*
X4198772Y-2824429D01*
X4195267Y-2824937D01*
X4192117Y-2824581D01*
X4187494Y-2823514D01*
X4175150Y-2819806D01*
X4160926Y-2814878D01*
X4147515Y-2809697D01*
X4141876Y-2807309D01*
X4137456Y-2805176D01*
X4134561Y-2803499D01*
X4133545Y-2802331D01*
X4121721Y-2802331D01*
X4120743Y-2806090D01*
X4120540Y-2808427D01*
X4120896Y-2809544D01*
X4121861Y-2809189D01*
X4124502Y-2808986D01*
X4129379Y-2810306D01*
X4135932Y-2813050D01*
X4151020Y-2820822D01*
X4154881Y-2822346D01*
X4158894Y-2823616D01*
X4168241Y-2825496D01*
X4180332Y-2826562D01*
X4196537Y-2827121D01*
X4227728Y-2827223D01*
X4243933Y-2827070D01*
X4256786Y-2826562D01*
X4267454Y-2825597D01*
X4276801Y-2823921D01*
X4285945Y-2821381D01*
X4295800Y-2817774D01*
X4322216Y-2806547D01*
X4336389Y-2800096D01*
X4347159Y-2794812D01*
X4353153Y-2791460D01*
X4353966Y-2790647D01*
X4353255Y-2788970D01*
X4351274Y-2786888D01*
X4348175Y-2784449D01*
X4339285Y-2778861D01*
X4327956Y-2772918D01*
X4315561Y-2767380D01*
X4303420Y-2762910D01*
X4293057Y-2760167D01*
X4282998Y-2758338D01*
X4272584Y-2757170D01*
X4261764Y-2756662D01*
G37*
G36*
X4064965Y-2774696D02*
G01*
X4063796Y-2775102D01*
X4062831Y-2776677D01*
X4062425Y-2778861D01*
X4062628Y-2781401D01*
X4063390Y-2783992D01*
X4064558Y-2785872D01*
X4065473Y-2786024D01*
X4066133Y-2784449D01*
X4066489Y-2781198D01*
X4066438Y-2777947D01*
X4065879Y-2775712D01*
G37*
G36*
X3562146Y-2854960D02*
G01*
X3561181Y-2856280D01*
X3560368Y-2859024D01*
X3560114Y-2862122D01*
X3560368Y-2865170D01*
X3561181Y-2867914D01*
X3562146Y-2869234D01*
X3563010Y-2868574D01*
X3563518Y-2866136D01*
X3563721Y-2862122D01*
X3563518Y-2858058D01*
X3563010Y-2855620D01*
G37*
G36*
X3546601Y-2883255D02*
G01*
X3560876Y-2897073D01*
X3568344Y-2903829D01*
X3573373Y-2907030D01*
X3576980Y-2906928D01*
X3580028Y-2903931D01*
X3581908Y-2900730D01*
X3583482Y-2897225D01*
X3584549Y-2893771D01*
X3584956Y-2890875D01*
X3584600Y-2888742D01*
X3583533Y-2887421D01*
X3581908Y-2887014D01*
X3579926Y-2887675D01*
X3577945Y-2889351D01*
X3576320Y-2891891D01*
X3575202Y-2894888D01*
X3574186Y-2901238D01*
X3572001Y-2901848D01*
X3567684Y-2899562D01*
X3560724Y-2894380D01*
G37*
G36*
X4074109Y-2922219D02*
G01*
X4073753Y-2923946D01*
X4073042Y-2934055D01*
X4072686Y-2947924D01*
X4072636Y-2963011D01*
X4073042Y-2977438D01*
X4073702Y-2988614D01*
X4074058Y-2990799D01*
X4074363Y-2990596D01*
X4074668Y-2988106D01*
X4075074Y-2976676D01*
X4075176Y-2946654D01*
X4074871Y-2930753D01*
X4074414Y-2922879D01*
G37*
G36*
X4145686Y-2973933D02*
G01*
X4145534Y-2975000D01*
X4146550Y-2977642D01*
X4148734Y-2981756D01*
X4152188Y-2987395D01*
X4155846Y-2992577D01*
X4159148Y-2996590D01*
X4161688Y-2998978D01*
X4163161Y-2999384D01*
X4163212Y-2997758D01*
X4161993Y-2994609D01*
X4159656Y-2990392D01*
X4156456Y-2985617D01*
X4152341Y-2980232D01*
X4149191Y-2976524D01*
X4146905Y-2974441D01*
G37*
G36*
X4150563Y-3054705D02*
G01*
X4145432Y-3055620D01*
X4140758Y-3057194D01*
X4135628Y-3059836D01*
X4130497Y-3063138D01*
X4125874Y-3066694D01*
X4122165Y-3070098D01*
X4119829Y-3072993D01*
X4119372Y-3075025D01*
X4121200Y-3075787D01*
X4124248Y-3074873D01*
X4129024Y-3072434D01*
X4134916Y-3068828D01*
X4141215Y-3064408D01*
X4148683Y-3058668D01*
X4151731Y-3055620D01*
G37*
G36*
X3638346Y-3071672D02*
G01*
X3637330Y-3076143D01*
X3637330Y-3080105D01*
X3638042Y-3085338D01*
X3639413Y-3091484D01*
X3641293Y-3098342D01*
X3646220Y-3112973D01*
X3651961Y-3126841D01*
X3654907Y-3132836D01*
X3657701Y-3137763D01*
X3660292Y-3141421D01*
X3662527Y-3143504D01*
X3663848Y-3143148D01*
X3663543Y-3140252D01*
X3661867Y-3135172D01*
X3657041Y-3124403D01*
X3653078Y-3114548D01*
X3649218Y-3103422D01*
X3645865Y-3092450D01*
X3641801Y-3077057D01*
X3639769Y-3071926D01*
G37*
G36*
X3987749Y-3076143D02*
G01*
X3966972Y-3076549D01*
X3982313Y-3082899D01*
X3989527Y-3085388D01*
X3997706Y-3087471D01*
X4005884Y-3088843D01*
X4013098Y-3089351D01*
X4021429Y-3089249D01*
X4024833Y-3088436D01*
X4023715Y-3086404D01*
X4018534Y-3082594D01*
X4012996Y-3080004D01*
X4005376Y-3077921D01*
X3996639Y-3076549D01*
G37*
G36*
X4061764Y-3090976D02*
G01*
X4053738Y-3091129D01*
X4048861Y-3091586D01*
X4047591Y-3092196D01*
X4050233Y-3093008D01*
X4055618Y-3093618D01*
X4061764Y-3093821D01*
X4067911Y-3093618D01*
X4073296Y-3093008D01*
X4075988Y-3092196D01*
X4074668Y-3091586D01*
X4069842Y-3091129D01*
G37*
G36*
X3871569Y-3148126D02*
G01*
X3867861Y-3152444D01*
X3865727Y-3159556D01*
X3865372Y-3167837D01*
X3867099Y-3175762D01*
X3868877Y-3179114D01*
X3870350Y-3178657D01*
X3871620Y-3174238D01*
X3872788Y-3165602D01*
X3873347Y-3158236D01*
X3873296Y-3152495D01*
X3872687Y-3148939D01*
G37*
G36*
X3890924Y-3151530D02*
G01*
X3888892Y-3151987D01*
X3889197Y-3153105D01*
X3891432Y-3155137D01*
X3895344Y-3157778D01*
X3907129Y-3164586D01*
X3922166Y-3172409D01*
X3938219Y-3179978D01*
X3953001Y-3186176D01*
X3963111Y-3189681D01*
X3968140Y-3191713D01*
X3969054Y-3192526D01*
X3968800Y-3193186D01*
X3967276Y-3193796D01*
X3960063Y-3194812D01*
X3925925Y-3196844D01*
X3874668Y-3199434D01*
X3976878Y-3201263D01*
X4014927Y-3202381D01*
X4046880Y-3203854D01*
X4060901Y-3204718D01*
X4085488Y-3206953D01*
X4096258Y-3208274D01*
X4106265Y-3209798D01*
X4115511Y-3211525D01*
X4124147Y-3213404D01*
X4132275Y-3215538D01*
X4139996Y-3217875D01*
X4147464Y-3220466D01*
X4154728Y-3223310D01*
X4165600Y-3228086D01*
X4167073Y-3228390D01*
X4168292Y-3227984D01*
X4169105Y-3226866D01*
X4169410Y-3225190D01*
X4168749Y-3223768D01*
X4166819Y-3222091D01*
X4163720Y-3220161D01*
X4159605Y-3218129D01*
X4148886Y-3213811D01*
X4135577Y-3209391D01*
X4120743Y-3205327D01*
X4113072Y-3203498D01*
X4084828Y-3198012D01*
X4154068Y-3190849D01*
X4154068Y-3175355D01*
X4154678Y-3168497D01*
X4156405Y-3162655D01*
X4159250Y-3158083D01*
X4163009Y-3154934D01*
X4164990Y-3153714D01*
X4166057Y-3152800D01*
X4166108Y-3152190D01*
X4165193Y-3151886D01*
X4160316Y-3152190D01*
X4151376Y-3153714D01*
X4138218Y-3156508D01*
X4110939Y-3162757D01*
X4087723Y-3167176D01*
X4077157Y-3168904D01*
X4070146Y-3169564D01*
X4060596Y-3169818D01*
X4035653Y-3169259D01*
X4005834Y-3167583D01*
X3974490Y-3165043D01*
X3945128Y-3161944D01*
X3921150Y-3158490D01*
X3912260Y-3156762D01*
X3900068Y-3153206D01*
X3894886Y-3151987D01*
G37*
G36*
X3999280Y-3206496D02*
G01*
X3997706Y-3206546D01*
X3995978Y-3207207D01*
X3994353Y-3208375D01*
X3993032Y-3209848D01*
X3993845Y-3211677D01*
X3998214Y-3213557D01*
X4005326Y-3215284D01*
X4024934Y-3218078D01*
X4044645Y-3221228D01*
X4056379Y-3223615D01*
X4059529Y-3223768D01*
X4060850Y-3223107D01*
X4060088Y-3221634D01*
X4056329Y-3219602D01*
X4049318Y-3217164D01*
X4039971Y-3214624D01*
X4029354Y-3212287D01*
G37*
D10*
X1395321Y-1917291D02*
G01*
X1400401Y-1906877D01*
X1410815Y-1896463D01*
X1421229Y-1891383D01*
X1442057Y-1891383D01*
X1452471Y-1896463D01*
X1462885Y-1906877D01*
X1467965Y-1917291D01*
X1473299Y-1932785D01*
X1473299Y-1958693D01*
X1467965Y-1974441D01*
X1462885Y-1984855D01*
X1452471Y-1995269D01*
X1442057Y-2000349D01*
X1421229Y-2000349D01*
X1410815Y-1995269D01*
X1400401Y-1984855D01*
X1395321Y-1974441D01*
X1395321Y-1958693D01*
X1421229Y-1958693D02*
G01*
X1395321Y-1958693D01*
X1361031Y-1891383D02*
G01*
X1361031Y-2000349D01*
X1361031Y-1891383D02*
G01*
X1288133Y-2000349D01*
X1288133Y-1891383D02*
G01*
X1288133Y-2000349D01*
X1253843Y-1891383D02*
G01*
X1253843Y-2000349D01*
X1253843Y-1891383D02*
G01*
X1217521Y-1891383D01*
X1202027Y-1896463D01*
X1191613Y-1906877D01*
X1186533Y-1917291D01*
X1181199Y-1932785D01*
X1181199Y-1958693D01*
X1186533Y-1974441D01*
X1191613Y-1984855D01*
X1202027Y-1995269D01*
X1217521Y-2000349D01*
X1253843Y-2000349D01*
X1485900Y-2145284D02*
G01*
X1444244Y-2254250D01*
X1402842Y-2145284D02*
G01*
X1444244Y-2254250D01*
X1290573Y-2171192D02*
G01*
X1295654Y-2160778D01*
X1306068Y-2150363D01*
X1316481Y-2145284D01*
X1337310Y-2145284D01*
X1347723Y-2150363D01*
X1358137Y-2160778D01*
X1363218Y-2171192D01*
X1368552Y-2186939D01*
X1368552Y-2212847D01*
X1363218Y-2228342D01*
X1358137Y-2238755D01*
X1347723Y-2249170D01*
X1337310Y-2254250D01*
X1316481Y-2254250D01*
X1306068Y-2249170D01*
X1295654Y-2238755D01*
X1290573Y-2228342D01*
X1178305Y-2171192D02*
G01*
X1183639Y-2160778D01*
X1193800Y-2150363D01*
X1204213Y-2145284D01*
X1225042Y-2145284D01*
X1235455Y-2150363D01*
X1245870Y-2160778D01*
X1250950Y-2171192D01*
X1256284Y-2186939D01*
X1256284Y-2212847D01*
X1250950Y-2228342D01*
X1245870Y-2238755D01*
X1235455Y-2249170D01*
X1225042Y-2254250D01*
X1204213Y-2254250D01*
X1193800Y-2249170D01*
X1183639Y-2238755D01*
X1178305Y-2228342D01*
X2124456Y-2148078D02*
G01*
X2134870Y-2137663D01*
X2150363Y-2132584D01*
X2171191Y-2132584D01*
X2186686Y-2137663D01*
X2197100Y-2148078D01*
X2197100Y-2158492D01*
X2192020Y-2168905D01*
X2186686Y-2174239D01*
X2176272Y-2179320D01*
X2145029Y-2189734D01*
X2134870Y-2194813D01*
X2129536Y-2200147D01*
X2124456Y-2210562D01*
X2124456Y-2226055D01*
X2134870Y-2236470D01*
X2150363Y-2241550D01*
X2171191Y-2241550D01*
X2186686Y-2236470D01*
X2197100Y-2226055D01*
X2053590Y-2132584D02*
G01*
X2053590Y-2241550D01*
X2090165Y-2132584D02*
G01*
X2017268Y-2132584D01*
X1982977Y-2132584D02*
G01*
X1982977Y-2241550D01*
X1982977Y-2132584D02*
G01*
X1915413Y-2132584D01*
X1982977Y-2184400D02*
G01*
X1941575Y-2184400D01*
X1982977Y-2241550D02*
G01*
X1915413Y-2241550D01*
X1881123Y-2132584D02*
G01*
X1881123Y-2241550D01*
X1881123Y-2132584D02*
G01*
X1834387Y-2132584D01*
X1818894Y-2137663D01*
X1813560Y-2142997D01*
X1808479Y-2153412D01*
X1808479Y-2168905D01*
X1813560Y-2179320D01*
X1818894Y-2184400D01*
X1834387Y-2189734D01*
X1881123Y-2189734D01*
X2197100Y-1891284D02*
G01*
X2197100Y-2000250D01*
X2197100Y-1891284D02*
G01*
X2160777Y-1891284D01*
X2145029Y-1896363D01*
X2134870Y-1906778D01*
X2129536Y-1917192D01*
X2124456Y-1932939D01*
X2124456Y-1958847D01*
X2129536Y-1974342D01*
X2134870Y-1984755D01*
X2145029Y-1995170D01*
X2160777Y-2000250D01*
X2197100Y-2000250D01*
X2090165Y-1891284D02*
G01*
X2090165Y-2000250D01*
X2055875Y-1891284D02*
G01*
X2055875Y-2000250D01*
X2055875Y-1891284D02*
G01*
X2009140Y-1891284D01*
X1993391Y-1896363D01*
X1988311Y-1901697D01*
X1982977Y-1912112D01*
X1982977Y-1922526D01*
X1988311Y-1932939D01*
X1993391Y-1938020D01*
X2009140Y-1943100D01*
X2055875Y-1943100D01*
X2019300Y-1943100D02*
G01*
X1982977Y-2000250D01*
X1600200Y-3669261D02*
G01*
X1558635Y-3778364D01*
X1517073Y-3669261D02*
G01*
X1558635Y-3778364D01*
X1482783Y-3705628D02*
G01*
X1482783Y-3778364D01*
X1482783Y-3726411D02*
G01*
X1467195Y-3710825D01*
X1456804Y-3705628D01*
X1441218Y-3705628D01*
X1430827Y-3710825D01*
X1425633Y-3726411D01*
X1425633Y-3778364D01*
X1425633Y-3726411D02*
G01*
X1410045Y-3710825D01*
X1399654Y-3705628D01*
X1384068Y-3705628D01*
X1373677Y-3710825D01*
X1368483Y-3726411D01*
X1368483Y-3778364D01*
X1308214Y-3705628D02*
G01*
X1318605Y-3710825D01*
X1328996Y-3721214D01*
X1334193Y-3736802D01*
X1334193Y-3747193D01*
X1328996Y-3762778D01*
X1318605Y-3773170D01*
X1308214Y-3778364D01*
X1292628Y-3778364D01*
X1282237Y-3773170D01*
X1271846Y-3762778D01*
X1266652Y-3747193D01*
X1266652Y-3736802D01*
X1271846Y-3721214D01*
X1282237Y-3710825D01*
X1292628Y-3705628D01*
X1308214Y-3705628D01*
X1216774Y-3669261D02*
G01*
X1216774Y-3757584D01*
X1211579Y-3773170D01*
X1201188Y-3778364D01*
X1190797Y-3778364D01*
X1232362Y-3705628D02*
G01*
X1195994Y-3705628D01*
X1407967Y-3453937D02*
G01*
X1413164Y-3443546D01*
X1423555Y-3433155D01*
X1433944Y-3427961D01*
X1454726Y-3427961D01*
X1465117Y-3433155D01*
X1475508Y-3443546D01*
X1480705Y-3453937D01*
X1485900Y-3469525D01*
X1485900Y-3495502D01*
X1480705Y-3511087D01*
X1475508Y-3521478D01*
X1465117Y-3531870D01*
X1454726Y-3537064D01*
X1433944Y-3537064D01*
X1423555Y-3531870D01*
X1413164Y-3521478D01*
X1407967Y-3511087D01*
X1407967Y-3495502D01*
X1433944Y-3495502D02*
G01*
X1407967Y-3495502D01*
X1373677Y-3427961D02*
G01*
X1373677Y-3537064D01*
X1373677Y-3427961D02*
G01*
X1300942Y-3537064D01*
X1300942Y-3427961D02*
G01*
X1300942Y-3537064D01*
X1266652Y-3427961D02*
G01*
X1266652Y-3537064D01*
X1266652Y-3427961D02*
G01*
X1230284Y-3427961D01*
X1214696Y-3433155D01*
X1204305Y-3443546D01*
X1199111Y-3453937D01*
X1193914Y-3469525D01*
X1193914Y-3495502D01*
X1199111Y-3511087D01*
X1204305Y-3521478D01*
X1214696Y-3531870D01*
X1230284Y-3537064D01*
X1266652Y-3537064D01*
X2184400Y-3669261D02*
G01*
X2184400Y-3778364D01*
X2184400Y-3669261D02*
G01*
X2116858Y-3669261D01*
X2184400Y-3721214D02*
G01*
X2142835Y-3721214D01*
X2184400Y-3778364D02*
G01*
X2116858Y-3778364D01*
X2082568Y-3669261D02*
G01*
X2082568Y-3778364D01*
X2082568Y-3669261D02*
G01*
X2009833Y-3778364D01*
X2009833Y-3669261D02*
G01*
X2009833Y-3778364D01*
X811067Y-507537D02*
G01*
X816264Y-497146D01*
X826655Y-486755D01*
X837044Y-481561D01*
X857826Y-481561D01*
X868217Y-486755D01*
X878608Y-497146D01*
X883805Y-507537D01*
X889000Y-523125D01*
X889000Y-549102D01*
X883805Y-564687D01*
X878608Y-575078D01*
X868217Y-585470D01*
X857826Y-590664D01*
X837044Y-590664D01*
X826655Y-585470D01*
X816264Y-575078D01*
X811067Y-564687D01*
X811067Y-549102D01*
X837044Y-549102D02*
G01*
X811067Y-549102D01*
X776777Y-481561D02*
G01*
X776777Y-590664D01*
X776777Y-481561D02*
G01*
X704042Y-590664D01*
X704042Y-481561D02*
G01*
X704042Y-590664D01*
X669752Y-481561D02*
G01*
X669752Y-590664D01*
X669752Y-481561D02*
G01*
X633384Y-481561D01*
X617796Y-486755D01*
X607405Y-497146D01*
X602211Y-507537D01*
X597014Y-523125D01*
X597014Y-549102D01*
X602211Y-564687D01*
X607405Y-575078D01*
X617796Y-585470D01*
X633384Y-590664D01*
X669752Y-590664D01*
X639041Y-840046D02*
G01*
X639041Y-933564D01*
X685800Y-886805D02*
G01*
X592282Y-886805D01*
X3457864Y-4307146D02*
G01*
X3468255Y-4296755D01*
X3483841Y-4291561D01*
X3504623Y-4291561D01*
X3520208Y-4296755D01*
X3530600Y-4307146D01*
X3530600Y-4317537D01*
X3525405Y-4327928D01*
X3520208Y-4333125D01*
X3509817Y-4338320D01*
X3478644Y-4348711D01*
X3468255Y-4353905D01*
X3463058Y-4359102D01*
X3457864Y-4369493D01*
X3457864Y-4385078D01*
X3468255Y-4395470D01*
X3483841Y-4400664D01*
X3504623Y-4400664D01*
X3520208Y-4395470D01*
X3530600Y-4385078D01*
X3423574Y-4291561D02*
G01*
X3397595Y-4400664D01*
X3371618Y-4291561D02*
G01*
X3397595Y-4400664D01*
X3371618Y-4291561D02*
G01*
X3345642Y-4400664D01*
X3319665Y-4291561D02*
G01*
X3345642Y-4400664D01*
X3516167Y-1523537D02*
G01*
X3521364Y-1513146D01*
X3531755Y-1502755D01*
X3542144Y-1497561D01*
X3562926Y-1497561D01*
X3573317Y-1502755D01*
X3583708Y-1513146D01*
X3588905Y-1523537D01*
X3594100Y-1539125D01*
X3594100Y-1565102D01*
X3588905Y-1580687D01*
X3583708Y-1591078D01*
X3573317Y-1601470D01*
X3562926Y-1606664D01*
X3542144Y-1606664D01*
X3531755Y-1601470D01*
X3521364Y-1591078D01*
X3516167Y-1580687D01*
X3516167Y-1565102D01*
X3542144Y-1565102D02*
G01*
X3516167Y-1565102D01*
X3481877Y-1497561D02*
G01*
X3481877Y-1606664D01*
X3481877Y-1497561D02*
G01*
X3409142Y-1606664D01*
X3409142Y-1497561D02*
G01*
X3409142Y-1606664D01*
X3374852Y-1497561D02*
G01*
X3374852Y-1606664D01*
X3374852Y-1497561D02*
G01*
X3338484Y-1497561D01*
X3322896Y-1502755D01*
X3312505Y-1513146D01*
X3307311Y-1523537D01*
X3302114Y-1539125D01*
X3302114Y-1565102D01*
X3307311Y-1580687D01*
X3312505Y-1591078D01*
X3322896Y-1601470D01*
X3338484Y-1606664D01*
X3374852Y-1606664D01*
X4480328Y-1015537D02*
G01*
X4485525Y-1005146D01*
X4495916Y-994755D01*
X4506305Y-989561D01*
X4527087Y-989561D01*
X4537478Y-994755D01*
X4547870Y-1005146D01*
X4553066Y-1015537D01*
X4558261Y-1031125D01*
X4558261Y-1057102D01*
X4553066Y-1072687D01*
X4547870Y-1083078D01*
X4537478Y-1093470D01*
X4527087Y-1098664D01*
X4506305Y-1098664D01*
X4495916Y-1093470D01*
X4485525Y-1083078D01*
X4480328Y-1072687D01*
X4480328Y-1057102D01*
X4506305Y-1057102D02*
G01*
X4480328Y-1057102D01*
X4446038Y-989561D02*
G01*
X4446038Y-1098664D01*
X4446038Y-989561D02*
G01*
X4373303Y-1098664D01*
X4373303Y-989561D02*
G01*
X4373303Y-1098664D01*
X4339013Y-989561D02*
G01*
X4339013Y-1098664D01*
X4339013Y-989561D02*
G01*
X4302645Y-989561D01*
X4287057Y-994755D01*
X4276666Y-1005146D01*
X4271472Y-1015537D01*
X4266275Y-1031125D01*
X4266275Y-1057102D01*
X4271472Y-1072687D01*
X4276666Y-1083078D01*
X4287057Y-1093470D01*
X4302645Y-1098664D01*
X4339013Y-1098664D01*
X4572000Y-1484861D02*
G01*
X4530435Y-1593964D01*
X4488873Y-1484861D02*
G01*
X4530435Y-1593964D01*
X4376651Y-1510837D02*
G01*
X4381845Y-1500446D01*
X4392236Y-1490055D01*
X4402627Y-1484861D01*
X4423409Y-1484861D01*
X4433801Y-1490055D01*
X4444192Y-1500446D01*
X4449386Y-1510837D01*
X4454583Y-1526425D01*
X4454583Y-1552402D01*
X4449386Y-1567987D01*
X4444192Y-1578378D01*
X4433801Y-1588770D01*
X4423409Y-1593964D01*
X4402627Y-1593964D01*
X4392236Y-1588770D01*
X4381845Y-1578378D01*
X4376651Y-1567987D01*
X4264428Y-1510837D02*
G01*
X4269625Y-1500446D01*
X4280014Y-1490055D01*
X4290405Y-1484861D01*
X4311187Y-1484861D01*
X4321578Y-1490055D01*
X4331970Y-1500446D01*
X4337164Y-1510837D01*
X4342361Y-1526425D01*
X4342361Y-1552402D01*
X4337164Y-1567987D01*
X4331970Y-1578378D01*
X4321578Y-1588770D01*
X4311187Y-1593964D01*
X4290405Y-1593964D01*
X4280014Y-1588770D01*
X4269625Y-1578378D01*
X4264428Y-1567987D01*
X4572000Y-735561D02*
G01*
X4530435Y-844664D01*
X4488873Y-735561D02*
G01*
X4530435Y-844664D01*
X4454583Y-735561D02*
G01*
X4454583Y-844664D01*
X4420293Y-735561D02*
G01*
X4420293Y-844664D01*
X4420293Y-735561D02*
G01*
X4347555Y-844664D01*
X4347555Y-735561D02*
G01*
X4347555Y-844664D01*
D11*
X5359400Y-77927D02*
G01*
X5359400Y-316562D01*
X5359400Y-77927D02*
G01*
X5211673Y-77927D01*
X5359400Y-191564D02*
G01*
X5268490Y-191564D01*
X5359400Y-316562D02*
G01*
X5211673Y-316562D01*
X5136672Y-77927D02*
G01*
X5136672Y-316562D01*
X5136672Y-316562D02*
G01*
X5000310Y-316562D01*
X4925308Y-77927D02*
G01*
X4925308Y-316562D01*
X4925308Y-77927D02*
G01*
X4777582Y-77927D01*
X4925308Y-191564D02*
G01*
X4834399Y-191564D01*
X4925308Y-316562D02*
G01*
X4777582Y-316562D01*
X4532127Y-134744D02*
G01*
X4543491Y-112019D01*
X4566218Y-89291D01*
X4588944Y-77927D01*
X4634400Y-77927D01*
X4657128Y-89291D01*
X4679853Y-112019D01*
X4691217Y-134744D01*
X4702581Y-168836D01*
X4702581Y-225653D01*
X4691217Y-259745D01*
X4679853Y-282473D01*
X4657128Y-305198D01*
X4634400Y-316562D01*
X4588944Y-316562D01*
X4566218Y-305198D01*
X4543491Y-282473D01*
X4532127Y-259745D01*
X4377580Y-77927D02*
G01*
X4377580Y-316562D01*
X4457128Y-77927D02*
G01*
X4298035Y-77927D01*
X4223037Y-77927D02*
G01*
X4223037Y-316562D01*
X4223037Y-77927D02*
G01*
X4120763Y-77927D01*
X4086672Y-89291D01*
X4075308Y-100655D01*
X4063946Y-123383D01*
X4063946Y-146108D01*
X4075308Y-168836D01*
X4086672Y-180200D01*
X4120763Y-191564D01*
X4223037Y-191564D01*
X4143491Y-191564D02*
G01*
X4063946Y-316562D01*
X3920764Y-77927D02*
G01*
X3943489Y-89291D01*
X3966217Y-112019D01*
X3977581Y-134744D01*
X3988945Y-168836D01*
X3988945Y-225653D01*
X3977581Y-259745D01*
X3966217Y-282473D01*
X3943489Y-305198D01*
X3920764Y-316562D01*
X3875308Y-316562D01*
X3852580Y-305198D01*
X3829855Y-282473D01*
X3818491Y-259745D01*
X3807127Y-225653D01*
X3807127Y-168836D01*
X3818491Y-134744D01*
X3829855Y-112019D01*
X3852580Y-89291D01*
X3875308Y-77927D01*
X3920764Y-77927D01*
X3732126Y-77927D02*
G01*
X3732126Y-316562D01*
X3732126Y-77927D02*
G01*
X3573035Y-316562D01*
X3573035Y-77927D02*
G01*
X3573035Y-316562D01*
X3429853Y-77927D02*
G01*
X3452581Y-89291D01*
X3475309Y-112019D01*
X3486673Y-134744D01*
X3498037Y-168836D01*
X3498037Y-225653D01*
X3486673Y-259745D01*
X3475309Y-282473D01*
X3452581Y-305198D01*
X3429853Y-316562D01*
X3384400Y-316562D01*
X3361672Y-305198D01*
X3338944Y-282473D01*
X3327582Y-259745D01*
X3316218Y-225653D01*
X3316218Y-168836D01*
X3327582Y-134744D01*
X3338944Y-112019D01*
X3361672Y-89291D01*
X3384400Y-77927D01*
X3429853Y-77927D01*
X3173036Y-77927D02*
G01*
X3195764Y-89291D01*
X3218489Y-112019D01*
X3229853Y-134744D01*
X3241217Y-168836D01*
X3241217Y-225653D01*
X3229853Y-259745D01*
X3218489Y-282473D01*
X3195764Y-305198D01*
X3173036Y-316562D01*
X3127580Y-316562D01*
X3104855Y-305198D01*
X3082127Y-282473D01*
X3070763Y-259745D01*
X3059399Y-225653D01*
X3059399Y-168836D01*
X3070763Y-134744D01*
X3082127Y-112019D01*
X3104855Y-89291D01*
X3127580Y-77927D01*
X3173036Y-77927D01*
X2984400Y-77927D02*
G01*
X2984400Y-316562D01*
X2984400Y-77927D02*
G01*
X2882127Y-77927D01*
X2848035Y-89291D01*
X2836672Y-100655D01*
X2825308Y-123383D01*
X2825308Y-146108D01*
X2836672Y-168836D01*
X2848035Y-180200D01*
X2882127Y-191564D01*
X2984400Y-191564D02*
G01*
X2882127Y-191564D01*
X2848035Y-202928D01*
X2836672Y-214289D01*
X2825308Y-237017D01*
X2825308Y-271109D01*
X2836672Y-293837D01*
X2848035Y-305198D01*
X2882127Y-316562D01*
X2984400Y-316562D01*
X2591219Y-112019D02*
G01*
X2613944Y-89291D01*
X2648036Y-77927D01*
X2693489Y-77927D01*
X2727581Y-89291D01*
X2750309Y-112019D01*
X2750309Y-134744D01*
X2738945Y-157472D01*
X2727581Y-168836D01*
X2704853Y-180200D01*
X2636672Y-202928D01*
X2613944Y-214289D01*
X2602583Y-225653D01*
X2591219Y-248381D01*
X2591219Y-282473D01*
X2613944Y-305198D01*
X2648036Y-316562D01*
X2693489Y-316562D01*
X2727581Y-305198D01*
X2750309Y-282473D01*
D12*
X3492500Y-4766144D02*
G01*
X3492500Y-4918872D01*
X3492500Y-4766144D02*
G01*
X3397953Y-4766144D01*
X3492500Y-4838872D02*
G01*
X3434318Y-4838872D01*
X3349955Y-4766144D02*
G01*
X3349955Y-4918872D01*
X3301954Y-4766144D02*
G01*
X3301954Y-4918872D01*
X3301954Y-4918872D02*
G01*
X3214682Y-4918872D01*
X3108500Y-4766144D02*
G01*
X3166681Y-4918872D01*
X3108500Y-4766144D02*
G01*
X3050319Y-4918872D01*
X3144862Y-4867963D02*
G01*
X3072137Y-4867963D01*
X3002318Y-4766144D02*
G01*
X3002318Y-4918872D01*
X3002318Y-4766144D02*
G01*
X2944136Y-4918872D01*
X2885955Y-4766144D02*
G01*
X2944136Y-4918872D01*
X2885955Y-4766144D02*
G01*
X2885955Y-4918872D01*
X2837954Y-4766144D02*
G01*
X2837954Y-4918872D01*
X2837954Y-4766144D02*
G01*
X2743408Y-4766144D01*
X2837954Y-4838872D02*
G01*
X2779773Y-4838872D01*
X2837954Y-4918872D02*
G01*
X2743408Y-4918872D01*
X2695409Y-4766144D02*
G01*
X2695409Y-4918872D01*
X2695409Y-4766144D02*
G01*
X2593591Y-4918872D01*
X2593591Y-4766144D02*
G01*
X2593591Y-4918872D01*
X2494681Y-4766144D02*
G01*
X2494681Y-4918872D01*
X2545590Y-4766144D02*
G01*
X2443772Y-4766144D01*
X2283772Y-4766144D02*
G01*
X2283772Y-4918872D01*
X2283772Y-4766144D02*
G01*
X2189228Y-4766144D01*
X2283772Y-4838872D02*
G01*
X2225591Y-4838872D01*
X2283772Y-4918872D02*
G01*
X2189228Y-4918872D01*
X2141227Y-4766144D02*
G01*
X2039409Y-4918872D01*
X2039409Y-4766144D02*
G01*
X2141227Y-4918872D01*
X1940499Y-4766144D02*
G01*
X1940499Y-4918872D01*
X1991408Y-4766144D02*
G01*
X1889589Y-4766144D01*
X1841591Y-4766144D02*
G01*
X1841591Y-4918872D01*
X1841591Y-4766144D02*
G01*
X1776135Y-4766144D01*
X1754317Y-4773416D01*
X1747045Y-4780691D01*
X1739772Y-4795235D01*
X1739772Y-4809782D01*
X1747045Y-4824326D01*
X1754317Y-4831600D01*
X1776135Y-4838872D01*
X1841591Y-4838872D01*
X1790682Y-4838872D02*
G01*
X1739772Y-4918872D01*
X1691772Y-4766144D02*
G01*
X1691772Y-4875235D01*
X1684500Y-4897053D01*
X1669953Y-4911600D01*
X1648137Y-4918872D01*
X1633590Y-4918872D01*
X1611772Y-4911600D01*
X1597228Y-4897053D01*
X1589953Y-4875235D01*
X1589953Y-4766144D01*
X1541955Y-4766144D02*
G01*
X1541955Y-4918872D01*
X1541955Y-4766144D02*
G01*
X1491046Y-4766144D01*
X1469227Y-4773416D01*
X1454680Y-4787963D01*
X1447408Y-4802510D01*
X1440136Y-4824326D01*
X1440136Y-4860691D01*
X1447408Y-4882509D01*
X1454680Y-4897053D01*
X1469227Y-4911600D01*
X1491046Y-4918872D01*
X1541955Y-4918872D01*
X1392135Y-4766144D02*
G01*
X1392135Y-4918872D01*
X1392135Y-4766144D02*
G01*
X1297592Y-4766144D01*
X1392135Y-4838872D02*
G01*
X1333954Y-4838872D01*
X1392135Y-4918872D02*
G01*
X1297592Y-4918872D01*
X1249591Y-4766144D02*
G01*
X1249591Y-4918872D01*
X1249591Y-4766144D02*
G01*
X1184135Y-4766144D01*
X1162319Y-4773416D01*
X1155044Y-4780691D01*
X1147772Y-4795235D01*
X1147772Y-4809782D01*
X1155044Y-4824326D01*
X1162319Y-4831600D01*
X1184135Y-4838872D01*
X1249591Y-4838872D01*
X1198681Y-4838872D02*
G01*
X1147772Y-4918872D01*
D11*
X4457700Y-4766144D02*
G01*
X4457700Y-4918872D01*
X4457700Y-4766144D02*
G01*
X4392244Y-4766144D01*
X4370428Y-4773416D01*
X4363153Y-4780691D01*
X4355881Y-4795235D01*
X4355881Y-4809782D01*
X4363153Y-4824326D01*
X4370428Y-4831600D01*
X4392244Y-4838872D01*
X4457700Y-4838872D02*
G01*
X4392244Y-4838872D01*
X4370428Y-4846144D01*
X4363153Y-4853419D01*
X4355881Y-4867963D01*
X4355881Y-4889781D01*
X4363153Y-4904328D01*
X4370428Y-4911600D01*
X4392244Y-4918872D01*
X4457700Y-4918872D01*
X4264245Y-4766144D02*
G01*
X4278790Y-4773416D01*
X4293336Y-4787963D01*
X4300608Y-4802510D01*
X4307880Y-4824326D01*
X4307880Y-4860691D01*
X4300608Y-4882509D01*
X4293336Y-4897053D01*
X4278790Y-4911600D01*
X4264245Y-4918872D01*
X4235155Y-4918872D01*
X4220608Y-4911600D01*
X4206064Y-4897053D01*
X4198790Y-4882509D01*
X4191518Y-4860691D01*
X4191518Y-4824326D01*
X4198790Y-4802510D01*
X4206064Y-4787963D01*
X4220608Y-4773416D01*
X4235155Y-4766144D01*
X4264245Y-4766144D01*
X4092608Y-4766144D02*
G01*
X4092608Y-4918872D01*
X4143517Y-4766144D02*
G01*
X4041698Y-4766144D01*
X3942791Y-4766144D02*
G01*
X3942791Y-4918872D01*
X3993700Y-4766144D02*
G01*
X3891881Y-4766144D01*
X3843881Y-4766144D02*
G01*
X3843881Y-4918872D01*
X3843881Y-4918872D02*
G01*
X3756609Y-4918872D01*
X3708608Y-4766144D02*
G01*
X3708608Y-4918872D01*
X3708608Y-4766144D02*
G01*
X3614064Y-4766144D01*
X3708608Y-4838872D02*
G01*
X3650427Y-4838872D01*
X3708608Y-4918872D02*
G01*
X3614064Y-4918872D01*
D13*
X431800Y-355600D02*
G01*
X266700Y-355600D01*
X254000Y-368300D01*
X254000Y-1041400D01*
X431800Y-1041400D01*
M02*
