G04 Layer: TopSilkscreenLayer*
G04 EasyEDA v6.5.9, 2022-07-29 15:21:59*
G04 d62bb8ad4e154c8097677c42ea29ab51,674c0623d3a246009f606e19fc16e94a,10*
G04 Gerber Generator version 0.2*
G04 Scale: 100 percent, Rotated: No, Reflected: No *
G04 Dimensions in millimeters *
G04 leading zeros omitted , absolute positions ,4 integer and 5 decimal *
%FSLAX45Y45*%
%MOMM*%

%ADD10C,0.1524*%
%ADD11C,0.2000*%
%ADD12C,0.1422*%
%ADD13C,0.0813*%
%ADD14C,0.5000*%
%ADD15C,1.0000*%
%ADD16C,0.2540*%
%ADD17C,0.2032*%
%ADD18C,0.2030*%
%ADD19C,0.1270*%
%ADD20C,0.4000*%
%ADD21C,0.0132*%

%LPD*%
G36*
X401167Y-3475990D02*
G01*
X397103Y-3476142D01*
X392633Y-3476853D01*
X381000Y-3479800D01*
X373888Y-3482187D01*
X364642Y-3485896D01*
X354584Y-3490366D01*
X344830Y-3495090D01*
X335381Y-3500120D01*
X326085Y-3505504D01*
X316941Y-3511296D01*
X307949Y-3517493D01*
X299059Y-3524046D01*
X290372Y-3530955D01*
X281838Y-3538220D01*
X273405Y-3545789D01*
X265226Y-3553764D01*
X257149Y-3562045D01*
X249275Y-3570681D01*
X241554Y-3579672D01*
X234035Y-3588969D01*
X226720Y-3598570D01*
X219557Y-3608476D01*
X212598Y-3618737D01*
X205841Y-3629253D01*
X199288Y-3640074D01*
X192887Y-3651199D01*
X186740Y-3662578D01*
X180797Y-3674262D01*
X172313Y-3692296D01*
X164287Y-3710940D01*
X159258Y-3723690D01*
X154432Y-3736695D01*
X149809Y-3749903D01*
X145491Y-3763416D01*
X141376Y-3777132D01*
X137515Y-3791051D01*
X134010Y-3804920D01*
X131368Y-3817112D01*
X129489Y-3828796D01*
X128168Y-3841292D01*
X127254Y-3855720D01*
X126593Y-3873296D01*
X126288Y-3892346D01*
X126441Y-3909822D01*
X127050Y-3923842D01*
X127508Y-3928922D01*
X129387Y-3939336D01*
X129336Y-3944010D01*
X127558Y-3947617D01*
X121513Y-3953662D01*
X119735Y-3956050D01*
X118516Y-3959199D01*
X117652Y-3963670D01*
X117144Y-3970070D01*
X116890Y-3991101D01*
X117043Y-4013758D01*
X116890Y-4027525D01*
X115874Y-4053230D01*
X115163Y-4063898D01*
X114249Y-4072128D01*
X112014Y-4085996D01*
X111709Y-4090365D01*
X111795Y-4093819D01*
X128270Y-4093819D01*
X130251Y-4018330D01*
X131318Y-3990746D01*
X132334Y-3972356D01*
X132842Y-3967175D01*
X133248Y-3964940D01*
X134416Y-3963974D01*
X136245Y-3963415D01*
X138531Y-3963365D01*
X144526Y-3964330D01*
X145542Y-3964178D01*
X147370Y-3963009D01*
X148996Y-3960317D01*
X150520Y-3955745D01*
X151993Y-3948785D01*
X153517Y-3939032D01*
X155194Y-3926027D01*
X159156Y-3888587D01*
X164592Y-3833063D01*
X165557Y-3825392D01*
X166725Y-3818331D01*
X167995Y-3812641D01*
X169265Y-3809034D01*
X170637Y-3807307D01*
X172770Y-3805936D01*
X175615Y-3804869D01*
X179171Y-3804158D01*
X183337Y-3803751D01*
X188163Y-3803700D01*
X193548Y-3803954D01*
X199440Y-3804513D01*
X205892Y-3805428D01*
X220065Y-3808272D01*
X240639Y-3813251D01*
X263245Y-3818128D01*
X287375Y-3822903D01*
X366674Y-3837381D01*
X377494Y-3838854D01*
X388010Y-3839616D01*
X398424Y-3839616D01*
X408940Y-3838854D01*
X419862Y-3837279D01*
X431495Y-3834841D01*
X443992Y-3831488D01*
X457657Y-3827272D01*
X472744Y-3822039D01*
X489051Y-3816045D01*
X503885Y-3810914D01*
X517042Y-3806799D01*
X529183Y-3803650D01*
X540816Y-3801313D01*
X552551Y-3799636D01*
X564946Y-3798570D01*
X586079Y-3797808D01*
X599186Y-3797808D01*
X607009Y-3798468D01*
X611073Y-3800043D01*
X612749Y-3802837D01*
X617880Y-3823208D01*
X632968Y-3886758D01*
X639775Y-3916781D01*
X648563Y-3958793D01*
X652373Y-3974693D01*
X656386Y-3983583D01*
X661670Y-3988155D01*
X667664Y-3988206D01*
X673658Y-3983431D01*
X676503Y-3980484D01*
X679297Y-3978706D01*
X682193Y-3978097D01*
X685241Y-3978503D01*
X687070Y-3979316D01*
X688543Y-3980687D01*
X689711Y-3982974D01*
X690575Y-3986479D01*
X691286Y-3991559D01*
X692454Y-4007865D01*
X694283Y-4051909D01*
X694588Y-4067352D01*
X694334Y-4079443D01*
X693420Y-4089196D01*
X691794Y-4097832D01*
X689254Y-4106418D01*
X685800Y-4116070D01*
X678027Y-4135678D01*
X674014Y-4143908D01*
X671220Y-4147159D01*
X668985Y-4146346D01*
X667258Y-4144568D01*
X665022Y-4142790D01*
X662686Y-4141317D01*
X660450Y-4140301D01*
X655116Y-4140403D01*
X649224Y-4143095D01*
X644398Y-4147261D01*
X642416Y-4151833D01*
X642010Y-4153560D01*
X640842Y-4155186D01*
X639064Y-4156506D01*
X635355Y-4158132D01*
X634034Y-4159656D01*
X632815Y-4162247D01*
X631799Y-4166158D01*
X630783Y-4171645D01*
X628751Y-4188561D01*
X626567Y-4211320D01*
X624484Y-4229912D01*
X622300Y-4245203D01*
X619760Y-4257903D01*
X618337Y-4263542D01*
X614832Y-4273804D01*
X612800Y-4278630D01*
X607974Y-4288129D01*
X601878Y-4297984D01*
X596188Y-4306468D01*
X583285Y-4323486D01*
X565861Y-4345228D01*
X541629Y-4374184D01*
X523595Y-4394911D01*
X515924Y-4403394D01*
X509574Y-4410049D01*
X504951Y-4414570D01*
X501446Y-4417466D01*
X499719Y-4417263D01*
X499313Y-4412996D01*
X500938Y-4387392D01*
X494944Y-4413554D01*
X493522Y-4418533D01*
X491947Y-4422749D01*
X490118Y-4426458D01*
X487832Y-4429810D01*
X485038Y-4433163D01*
X481533Y-4436719D01*
X473506Y-4443730D01*
X469442Y-4446676D01*
X464972Y-4449521D01*
X460197Y-4452213D01*
X449630Y-4457293D01*
X436072Y-4462424D01*
X474472Y-4462424D01*
X475132Y-4461154D01*
X477723Y-4458614D01*
X491794Y-4447438D01*
X497840Y-4441901D01*
X505104Y-4434840D01*
X522376Y-4417060D01*
X541731Y-4396181D01*
X565912Y-4368800D01*
X582980Y-4348378D01*
X602894Y-4323689D01*
X604469Y-4322064D01*
X606653Y-4330090D01*
X611225Y-4348988D01*
X616153Y-4371848D01*
X617880Y-4381601D01*
X619099Y-4390034D01*
X619810Y-4397146D01*
X619963Y-4402785D01*
X619607Y-4406900D01*
X618693Y-4409440D01*
X616458Y-4411472D01*
X612190Y-4414367D01*
X606399Y-4417771D01*
X599846Y-4421276D01*
X590753Y-4425391D01*
X578154Y-4430420D01*
X546557Y-4441799D01*
X521258Y-4450181D01*
X505612Y-4455058D01*
X492099Y-4458970D01*
X478129Y-4462373D01*
X475640Y-4462627D01*
X474472Y-4462424D01*
X436072Y-4462424D01*
X422434Y-4466488D01*
X535990Y-4466488D01*
X537057Y-4464354D01*
X539750Y-4462424D01*
X544271Y-4460544D01*
X553364Y-4457801D01*
X558850Y-4457852D01*
X561949Y-4461052D01*
X563778Y-4467910D01*
X566064Y-4475226D01*
X569976Y-4478274D01*
X576732Y-4477207D01*
X587502Y-4472330D01*
X594664Y-4468418D01*
X598170Y-4464964D01*
X598932Y-4460087D01*
X597103Y-4445152D01*
X597103Y-4441037D01*
X598017Y-4439158D01*
X599846Y-4439158D01*
X601624Y-4440478D01*
X603554Y-4443018D01*
X605282Y-4446422D01*
X608126Y-4454144D01*
X609955Y-4457293D01*
X611936Y-4459376D01*
X613867Y-4460189D01*
X614019Y-4460595D01*
X609854Y-4463491D01*
X600760Y-4468723D01*
X587908Y-4475632D01*
X546150Y-4496866D01*
X541223Y-4499102D01*
X538683Y-4500016D01*
X538073Y-4499660D01*
X538835Y-4498390D01*
X540512Y-4496358D01*
X542645Y-4492650D01*
X542848Y-4487875D01*
X540867Y-4480560D01*
X536448Y-4469079D01*
X535990Y-4466488D01*
X422434Y-4466488D01*
X411581Y-4469130D01*
X397306Y-4471822D01*
X382473Y-4473803D01*
X374904Y-4474565D01*
X359511Y-4475429D01*
X344576Y-4475530D01*
X333095Y-4474819D01*
X328320Y-4474006D01*
X323748Y-4472889D01*
X319125Y-4471314D01*
X314198Y-4469333D01*
X302158Y-4463491D01*
X296468Y-4460392D01*
X291541Y-4457242D01*
X287223Y-4453940D01*
X283514Y-4450283D01*
X280162Y-4446168D01*
X277114Y-4441291D01*
X274269Y-4435652D01*
X271475Y-4428998D01*
X265582Y-4411980D01*
X258724Y-4390136D01*
X256590Y-4384649D01*
X255473Y-4384446D01*
X255168Y-4388967D01*
X255574Y-4394504D01*
X256844Y-4401616D01*
X258673Y-4409338D01*
X260908Y-4416806D01*
X266700Y-4433874D01*
X258267Y-4423054D01*
X255066Y-4417872D01*
X245414Y-4400194D01*
X232664Y-4375454D01*
X218338Y-4346752D01*
X200507Y-4309872D01*
X188163Y-4283405D01*
X179222Y-4262932D01*
X175514Y-4253280D01*
X172262Y-4243425D01*
X169418Y-4233062D01*
X166878Y-4221683D01*
X164541Y-4208932D01*
X159105Y-4174642D01*
X156210Y-4160418D01*
X154787Y-4155135D01*
X153416Y-4151020D01*
X151942Y-4147972D01*
X150469Y-4145838D01*
X146253Y-4140606D01*
X142189Y-4134358D01*
X138430Y-4127449D01*
X135026Y-4120184D01*
X132181Y-4112869D01*
X130048Y-4105859D01*
X128676Y-4099407D01*
X128270Y-4093819D01*
X111795Y-4093819D01*
X112318Y-4098493D01*
X113233Y-4102862D01*
X116585Y-4113885D01*
X119887Y-4122724D01*
X124206Y-4132326D01*
X128981Y-4141520D01*
X138582Y-4157268D01*
X141833Y-4164279D01*
X143611Y-4170984D01*
X144170Y-4177944D01*
X144424Y-4186478D01*
X145135Y-4195216D01*
X146456Y-4204360D01*
X148285Y-4213910D01*
X150723Y-4223969D01*
X153822Y-4234688D01*
X157530Y-4246118D01*
X162001Y-4258360D01*
X167132Y-4271518D01*
X173075Y-4285691D01*
X179781Y-4300931D01*
X195783Y-4335068D01*
X213817Y-4371695D01*
X221894Y-4387443D01*
X229463Y-4401566D01*
X236575Y-4414113D01*
X243332Y-4425289D01*
X249783Y-4435144D01*
X256133Y-4443831D01*
X262382Y-4451502D01*
X268630Y-4458258D01*
X275031Y-4464202D01*
X281584Y-4469485D01*
X288493Y-4474210D01*
X295808Y-4478528D01*
X303580Y-4482541D01*
X308102Y-4484573D01*
X312470Y-4486148D01*
X317093Y-4487367D01*
X322427Y-4488281D01*
X328777Y-4488891D01*
X346354Y-4489450D01*
X369976Y-4489602D01*
X386740Y-4490059D01*
X392480Y-4490567D01*
X396849Y-4491278D01*
X400202Y-4492244D01*
X402691Y-4493463D01*
X406341Y-4496206D01*
X430225Y-4496206D01*
X430580Y-4494530D01*
X431647Y-4494377D01*
X433425Y-4495596D01*
X435914Y-4498340D01*
X437540Y-4501235D01*
X439572Y-4506163D01*
X441655Y-4512411D01*
X446024Y-4527550D01*
X448208Y-4532528D01*
X450646Y-4534814D01*
X453694Y-4535017D01*
X459333Y-4533239D01*
X461619Y-4529582D01*
X460806Y-4522571D01*
X454609Y-4503064D01*
X452983Y-4496460D01*
X452323Y-4491583D01*
X452729Y-4489145D01*
X455777Y-4487672D01*
X462280Y-4485487D01*
X471271Y-4482846D01*
X508660Y-4473498D01*
X514248Y-4490059D01*
X517499Y-4498848D01*
X519988Y-4503420D01*
X522579Y-4504588D01*
X530860Y-4501337D01*
X532638Y-4501134D01*
X533704Y-4501438D01*
X533095Y-4502708D01*
X530199Y-4505096D01*
X525576Y-4508195D01*
X509727Y-4517796D01*
X574751Y-4517847D01*
X575614Y-4516729D01*
X581355Y-4512411D01*
X589584Y-4506874D01*
X592632Y-4504080D01*
X594360Y-4501692D01*
X594512Y-4500016D01*
X594106Y-4498543D01*
X594258Y-4496663D01*
X594969Y-4494682D01*
X597509Y-4490720D01*
X598424Y-4488332D01*
X598881Y-4485843D01*
X598779Y-4483658D01*
X599135Y-4481271D01*
X600760Y-4478528D01*
X603504Y-4475683D01*
X607060Y-4473041D01*
X612038Y-4470146D01*
X614934Y-4469079D01*
X616407Y-4469841D01*
X617169Y-4472381D01*
X618083Y-4474565D01*
X619810Y-4476800D01*
X622147Y-4478832D01*
X628345Y-4482541D01*
X630326Y-4485538D01*
X631088Y-4490313D01*
X631088Y-4491278D01*
X611835Y-4498695D01*
X605790Y-4501489D01*
X600354Y-4504283D01*
X588518Y-4511700D01*
X581609Y-4515561D01*
X576681Y-4517796D01*
X509669Y-4517847D01*
X504951Y-4522012D01*
X505104Y-4524400D01*
X512572Y-4525568D01*
X514553Y-4526584D01*
X515823Y-4528058D01*
X517296Y-4532934D01*
X519887Y-4534255D01*
X523798Y-4533798D01*
X530656Y-4530496D01*
X532485Y-4530293D01*
X534009Y-4530852D01*
X536702Y-4533646D01*
X538683Y-4534103D01*
X541477Y-4533595D01*
X548386Y-4530801D01*
X550926Y-4529988D01*
X552602Y-4529734D01*
X553212Y-4530039D01*
X552043Y-4531156D01*
X543458Y-4535982D01*
X524687Y-4545330D01*
X585063Y-4545330D01*
X585266Y-4544212D01*
X586638Y-4542840D01*
X589076Y-4541215D01*
X592277Y-4539437D01*
X599998Y-4535728D01*
X602488Y-4533544D01*
X603554Y-4531055D01*
X602945Y-4525772D01*
X603199Y-4523841D01*
X603961Y-4522571D01*
X606501Y-4521708D01*
X607568Y-4520641D01*
X608330Y-4519015D01*
X608584Y-4517034D01*
X609498Y-4514240D01*
X611987Y-4510379D01*
X615645Y-4505960D01*
X620115Y-4501489D01*
X631037Y-4491583D01*
X630885Y-4504537D01*
X631444Y-4509312D01*
X632764Y-4512360D01*
X634796Y-4513986D01*
X638251Y-4516272D01*
X639216Y-4518964D01*
X637692Y-4521200D01*
X630478Y-4522876D01*
X625500Y-4524908D01*
X619506Y-4527956D01*
X607263Y-4535373D01*
X596544Y-4541367D01*
X588670Y-4544872D01*
X586232Y-4545533D01*
X585063Y-4545330D01*
X524687Y-4545330D01*
X513029Y-4550867D01*
X497433Y-4557877D01*
X485800Y-4562652D01*
X482498Y-4563668D01*
X478231Y-4564380D01*
X477875Y-4564126D01*
X480669Y-4562195D01*
X482650Y-4559858D01*
X484530Y-4556861D01*
X486105Y-4553508D01*
X488340Y-4545685D01*
X489915Y-4536287D01*
X490474Y-4528464D01*
X489610Y-4525213D01*
X483412Y-4527499D01*
X462788Y-4535982D01*
X456133Y-4538421D01*
X450900Y-4540097D01*
X447903Y-4540707D01*
X445719Y-4538878D01*
X442772Y-4533900D01*
X439369Y-4526534D01*
X435914Y-4517491D01*
X431647Y-4503928D01*
X430580Y-4499305D01*
X430225Y-4496206D01*
X406341Y-4496206D01*
X407568Y-4497120D01*
X410768Y-4498848D01*
X414020Y-4500016D01*
X416915Y-4500422D01*
X420166Y-4501286D01*
X422960Y-4504232D01*
X425653Y-4509973D01*
X428701Y-4519117D01*
X431190Y-4528210D01*
X432358Y-4534560D01*
X432155Y-4538776D01*
X430733Y-4541418D01*
X427786Y-4545685D01*
X427482Y-4549800D01*
X429768Y-4553508D01*
X440131Y-4560519D01*
X442432Y-4564278D01*
X462026Y-4564278D01*
X462076Y-4563262D01*
X462635Y-4562602D01*
X463702Y-4562398D01*
X465023Y-4562602D01*
X466394Y-4563262D01*
X467664Y-4564278D01*
X468680Y-4565446D01*
X469138Y-4566666D01*
X469087Y-4567682D01*
X468528Y-4568342D01*
X467461Y-4568545D01*
X466140Y-4568342D01*
X464769Y-4567682D01*
X463499Y-4566666D01*
X462483Y-4565446D01*
X462026Y-4564278D01*
X442432Y-4564278D01*
X443179Y-4565497D01*
X443484Y-4570628D01*
X440639Y-4575048D01*
X437337Y-4578654D01*
X436727Y-4581804D01*
X438912Y-4584750D01*
X446040Y-4589018D01*
X494334Y-4589018D01*
X495401Y-4585868D01*
X498297Y-4581652D01*
X505459Y-4574235D01*
X507898Y-4570933D01*
X509574Y-4567783D01*
X510895Y-4562043D01*
X513232Y-4559604D01*
X517296Y-4557826D01*
X523240Y-4556556D01*
X524154Y-4556658D01*
X524865Y-4557318D01*
X525373Y-4558334D01*
X525576Y-4559604D01*
X526237Y-4560976D01*
X528269Y-4561687D01*
X531672Y-4561687D01*
X541375Y-4560417D01*
X544880Y-4560773D01*
X546811Y-4561941D01*
X546888Y-4562297D01*
X556920Y-4562297D01*
X559460Y-4559858D01*
X567080Y-4554575D01*
X575411Y-4549292D01*
X580136Y-4546904D01*
X580694Y-4547260D01*
X580898Y-4548124D01*
X577545Y-4551070D01*
X569925Y-4555896D01*
X561797Y-4560366D01*
X556920Y-4562297D01*
X546888Y-4562297D01*
X547217Y-4563821D01*
X546150Y-4566208D01*
X543560Y-4569002D01*
X539496Y-4572101D01*
X534009Y-4575403D01*
X524306Y-4579975D01*
X587044Y-4580026D01*
X588111Y-4578756D01*
X595325Y-4573270D01*
X605739Y-4566158D01*
X609701Y-4562652D01*
X612190Y-4559604D01*
X612698Y-4557471D01*
X612394Y-4555845D01*
X612648Y-4554220D01*
X613359Y-4552746D01*
X615797Y-4550460D01*
X616864Y-4548682D01*
X617575Y-4546549D01*
X617829Y-4544314D01*
X618490Y-4541875D01*
X620318Y-4539081D01*
X623011Y-4536287D01*
X626262Y-4533849D01*
X631037Y-4531106D01*
X633831Y-4530293D01*
X635508Y-4531360D01*
X638098Y-4536897D01*
X639876Y-4539335D01*
X641959Y-4541469D01*
X644093Y-4543044D01*
X645617Y-4545076D01*
X643483Y-4548022D01*
X636879Y-4552543D01*
X598576Y-4574336D01*
X591312Y-4578756D01*
X589076Y-4579874D01*
X587603Y-4580331D01*
X587044Y-4580026D01*
X524187Y-4580026D01*
X512673Y-4584750D01*
X502107Y-4588510D01*
X498144Y-4589729D01*
X495554Y-4590186D01*
X494334Y-4589018D01*
X446040Y-4589018D01*
X449783Y-4591405D01*
X452983Y-4595825D01*
X453288Y-4600041D01*
X450342Y-4603394D01*
X446582Y-4606899D01*
X445871Y-4610963D01*
X448056Y-4614926D01*
X452902Y-4617974D01*
X505714Y-4617974D01*
X506272Y-4614875D01*
X507187Y-4612335D01*
X508558Y-4609693D01*
X510285Y-4607306D01*
X513689Y-4603648D01*
X515061Y-4601362D01*
X515975Y-4598873D01*
X516890Y-4594199D01*
X518363Y-4591761D01*
X520547Y-4589576D01*
X523240Y-4587849D01*
X529082Y-4585258D01*
X532587Y-4584496D01*
X534314Y-4585665D01*
X535127Y-4591862D01*
X536549Y-4593082D01*
X539546Y-4592421D01*
X547725Y-4588510D01*
X550062Y-4588103D01*
X551840Y-4588662D01*
X554685Y-4591862D01*
X556463Y-4592421D01*
X558952Y-4591913D01*
X565048Y-4588967D01*
X567486Y-4588052D01*
X569315Y-4587646D01*
X570331Y-4587849D01*
X569925Y-4588662D01*
X567994Y-4590186D01*
X560527Y-4594809D01*
X549859Y-4600752D01*
X537819Y-4607001D01*
X526288Y-4612487D01*
X517093Y-4616297D01*
X510285Y-4618583D01*
X506780Y-4619193D01*
X505714Y-4617974D01*
X452983Y-4618024D01*
X459130Y-4621174D01*
X462483Y-4624679D01*
X462788Y-4628083D01*
X459841Y-4631080D01*
X456285Y-4633823D01*
X454609Y-4636820D01*
X454710Y-4639868D01*
X455365Y-4640986D01*
X499872Y-4640986D01*
X500176Y-4640173D01*
X507492Y-4639411D01*
X513232Y-4638141D01*
X519531Y-4636312D01*
X526084Y-4633976D01*
X532485Y-4631283D01*
X538378Y-4628438D01*
X543356Y-4625543D01*
X551230Y-4619701D01*
X556818Y-4616450D01*
X563118Y-4613402D01*
X569366Y-4610963D01*
X577189Y-4608525D01*
X581609Y-4607661D01*
X583539Y-4608474D01*
X584301Y-4612894D01*
X585317Y-4614011D01*
X586994Y-4614214D01*
X592632Y-4612538D01*
X621995Y-4605731D01*
X630326Y-4602429D01*
X634288Y-4598974D01*
X633679Y-4595469D01*
X630123Y-4588205D01*
X628243Y-4578858D01*
X628243Y-4570171D01*
X630478Y-4565192D01*
X636168Y-4562500D01*
X639826Y-4563313D01*
X641807Y-4567885D01*
X642670Y-4582210D01*
X643280Y-4586274D01*
X644245Y-4588510D01*
X645515Y-4588713D01*
X646684Y-4587443D01*
X647700Y-4585512D01*
X648360Y-4583125D01*
X648817Y-4578350D01*
X649478Y-4576775D01*
X650443Y-4576064D01*
X651662Y-4576318D01*
X654354Y-4579772D01*
X653745Y-4585411D01*
X649732Y-4593793D01*
X642010Y-4605629D01*
X638149Y-4611014D01*
X634695Y-4615383D01*
X631494Y-4618939D01*
X628243Y-4621834D01*
X624789Y-4624273D01*
X620877Y-4626406D01*
X616254Y-4628489D01*
X600354Y-4634230D01*
X594309Y-4635652D01*
X590854Y-4634890D01*
X585724Y-4629251D01*
X582574Y-4628337D01*
X577189Y-4629302D01*
X568045Y-4632147D01*
X555701Y-4636363D01*
X549656Y-4639106D01*
X548335Y-4641545D01*
X551789Y-4646930D01*
X551738Y-4648657D01*
X550062Y-4650181D01*
X546658Y-4651756D01*
X535381Y-4655464D01*
X526846Y-4657039D01*
X521157Y-4656480D01*
X518312Y-4653788D01*
X516788Y-4651502D01*
X514045Y-4649012D01*
X510438Y-4646523D01*
X501904Y-4642358D01*
X499872Y-4640986D01*
X455365Y-4640986D01*
X456438Y-4642815D01*
X459638Y-4645558D01*
X464210Y-4647844D01*
X469950Y-4649571D01*
X482092Y-4651298D01*
X486918Y-4652568D01*
X490778Y-4654194D01*
X493064Y-4656023D01*
X495350Y-4658360D01*
X498652Y-4660798D01*
X502869Y-4663186D01*
X507695Y-4665522D01*
X513080Y-4667656D01*
X517042Y-4668977D01*
X557377Y-4668977D01*
X562914Y-4666284D01*
X574751Y-4661560D01*
X590346Y-4655718D01*
X598678Y-4653026D01*
X601573Y-4653127D01*
X600710Y-4655616D01*
X598474Y-4657953D01*
X594766Y-4660442D01*
X589991Y-4662932D01*
X584454Y-4665319D01*
X578561Y-4667402D01*
X572668Y-4669078D01*
X567182Y-4670145D01*
X562457Y-4670552D01*
X557479Y-4670196D01*
X557377Y-4668977D01*
X517042Y-4668977D01*
X524510Y-4671110D01*
X530148Y-4672228D01*
X546658Y-4674565D01*
X553720Y-4675378D01*
X560120Y-4675835D01*
X565912Y-4675987D01*
X571195Y-4675784D01*
X576021Y-4675225D01*
X580542Y-4674260D01*
X584809Y-4672838D01*
X588924Y-4671009D01*
X592937Y-4668723D01*
X596950Y-4665980D01*
X601065Y-4662678D01*
X609854Y-4654499D01*
X619912Y-4644085D01*
X630123Y-4632655D01*
X639622Y-4621072D01*
X647954Y-4609998D01*
X654761Y-4600041D01*
X657453Y-4595622D01*
X659536Y-4591710D01*
X661009Y-4588357D01*
X661924Y-4584700D01*
X661720Y-4581245D01*
X660349Y-4577740D01*
X654812Y-4569612D01*
X653542Y-4565904D01*
X653846Y-4561890D01*
X657352Y-4550968D01*
X657352Y-4547158D01*
X655218Y-4543806D01*
X645922Y-4535728D01*
X643839Y-4532528D01*
X643940Y-4529023D01*
X647801Y-4519320D01*
X648258Y-4516120D01*
X647293Y-4513783D01*
X644804Y-4511497D01*
X642670Y-4509008D01*
X640892Y-4505045D01*
X639572Y-4499965D01*
X637997Y-4487164D01*
X636574Y-4482439D01*
X634238Y-4479340D01*
X627278Y-4475327D01*
X625348Y-4473092D01*
X624687Y-4470095D01*
X625449Y-4462373D01*
X625094Y-4458563D01*
X624128Y-4455058D01*
X620776Y-4448860D01*
X620471Y-4445355D01*
X621792Y-4440783D01*
X626821Y-4430217D01*
X628294Y-4426000D01*
X629462Y-4421530D01*
X630224Y-4416653D01*
X630682Y-4411319D01*
X630783Y-4405477D01*
X630580Y-4399026D01*
X629056Y-4383938D01*
X626110Y-4365548D01*
X622350Y-4345432D01*
X619709Y-4329887D01*
X618388Y-4318152D01*
X618337Y-4309110D01*
X618794Y-4305350D01*
X619556Y-4301896D01*
X620623Y-4298645D01*
X625856Y-4288383D01*
X627888Y-4283964D01*
X631545Y-4273956D01*
X634746Y-4262577D01*
X637387Y-4249928D01*
X639470Y-4236262D01*
X642670Y-4200804D01*
X643636Y-4194251D01*
X644753Y-4189882D01*
X646277Y-4187240D01*
X648258Y-4186072D01*
X650849Y-4185920D01*
X657656Y-4186885D01*
X660958Y-4186732D01*
X664108Y-4185869D01*
X667156Y-4184345D01*
X670102Y-4182008D01*
X673049Y-4178909D01*
X676046Y-4174896D01*
X679043Y-4169968D01*
X682193Y-4164025D01*
X685495Y-4157116D01*
X692759Y-4139895D01*
X696518Y-4130192D01*
X702767Y-4111904D01*
X705358Y-4103420D01*
X709168Y-4087977D01*
X710438Y-4081068D01*
X711250Y-4074718D01*
X711657Y-4069029D01*
X711606Y-4064000D01*
X711098Y-4059682D01*
X709472Y-4053789D01*
X708406Y-4046016D01*
X707542Y-4035094D01*
X707085Y-4022394D01*
X706882Y-4002684D01*
X706424Y-3992168D01*
X705561Y-3983888D01*
X704138Y-3977589D01*
X702056Y-3972864D01*
X699262Y-3969410D01*
X695604Y-3966870D01*
X691032Y-3964990D01*
X680821Y-3961587D01*
X680516Y-3886454D01*
X679805Y-3856482D01*
X679145Y-3842105D01*
X677113Y-3814622D01*
X675843Y-3801465D01*
X672541Y-3776319D01*
X670560Y-3764279D01*
X668375Y-3752596D01*
X665988Y-3741267D01*
X663346Y-3730244D01*
X660501Y-3719525D01*
X657402Y-3709162D01*
X654100Y-3699103D01*
X650544Y-3689350D01*
X646785Y-3679850D01*
X641959Y-3668776D01*
X636270Y-3656939D01*
X630326Y-3645966D01*
X623874Y-3635552D01*
X616610Y-3625291D01*
X608228Y-3614775D01*
X598525Y-3603599D01*
X587197Y-3591356D01*
X576478Y-3580282D01*
X567690Y-3571697D01*
X558698Y-3563416D01*
X549554Y-3555390D01*
X540207Y-3547668D01*
X525830Y-3536696D01*
X516077Y-3529736D01*
X506120Y-3523081D01*
X496062Y-3516731D01*
X485800Y-3510737D01*
X475386Y-3504996D01*
X464870Y-3499612D01*
X454151Y-3494532D01*
X443331Y-3489756D01*
X432358Y-3485337D01*
X421284Y-3481222D01*
X409651Y-3477412D01*
X405231Y-3476447D01*
G37*
G36*
X436829Y-3943400D02*
G01*
X429463Y-3943756D01*
X419608Y-3945178D01*
X404063Y-3948379D01*
X417880Y-3948734D01*
X423621Y-3948633D01*
X429056Y-3948125D01*
X433476Y-3947210D01*
X436372Y-3946093D01*
X438251Y-3944620D01*
X438454Y-3943756D01*
G37*
G36*
X382524Y-3962349D02*
G01*
X378307Y-3962501D01*
X375869Y-3962806D01*
X375462Y-3963212D01*
X377190Y-3963771D01*
X380339Y-3964178D01*
X383692Y-3964279D01*
X386892Y-3964127D01*
X389483Y-3963720D01*
X390601Y-3963162D01*
X389636Y-3962704D01*
G37*
G36*
X509930Y-3999534D02*
G01*
X502920Y-3999687D01*
X494334Y-4000500D01*
X484022Y-4001922D01*
X473811Y-4003649D01*
X454710Y-4007662D01*
X446024Y-4009847D01*
X437997Y-4012133D01*
X424383Y-4016857D01*
X418998Y-4019245D01*
X414629Y-4021582D01*
X411378Y-4023868D01*
X409397Y-4026052D01*
X408686Y-4028084D01*
X409041Y-4030878D01*
X410260Y-4032808D01*
X412496Y-4033926D01*
X415899Y-4034180D01*
X420674Y-4033621D01*
X427024Y-4032148D01*
X457860Y-4022851D01*
X471881Y-4019397D01*
X485393Y-4016756D01*
X496671Y-4015232D01*
X507187Y-4014114D01*
X514756Y-4012641D01*
X519531Y-4010914D01*
X521665Y-4008780D01*
X522325Y-4005579D01*
X521462Y-4003090D01*
X519176Y-4001262D01*
X515315Y-4000093D01*
G37*
G36*
X195580Y-3999636D02*
G01*
X188671Y-3999687D01*
X175971Y-4000500D01*
X170332Y-4001262D01*
X164490Y-4002582D01*
X160731Y-4004208D01*
X158648Y-4006342D01*
X158038Y-4009136D01*
X158242Y-4010964D01*
X159207Y-4012336D01*
X161239Y-4013403D01*
X164846Y-4014165D01*
X170383Y-4014724D01*
X188874Y-4015384D01*
X227736Y-4016248D01*
X239674Y-4017111D01*
X249529Y-4018534D01*
X258978Y-4020769D01*
X269544Y-4024122D01*
X285343Y-4029506D01*
X293116Y-4031843D01*
X299110Y-4033367D01*
X303631Y-4033977D01*
X306832Y-4033774D01*
X308864Y-4032707D01*
X309930Y-4030776D01*
X310286Y-4028033D01*
X309778Y-4026103D01*
X308305Y-4024122D01*
X306019Y-4022140D01*
X302869Y-4020159D01*
X299008Y-4018229D01*
X294436Y-4016298D01*
X283514Y-4012590D01*
X277317Y-4010812D01*
X263652Y-4007561D01*
X248869Y-4004767D01*
X233476Y-4002430D01*
X217932Y-4000754D01*
X202844Y-3999839D01*
G37*
G36*
X535228Y-4001973D02*
G01*
X530148Y-4003700D01*
X528624Y-4007713D01*
X529590Y-4012133D01*
X533450Y-4015079D01*
X541731Y-4017162D01*
X556107Y-4019092D01*
X566369Y-4020108D01*
X571957Y-4019956D01*
X574294Y-4018330D01*
X574751Y-4014876D01*
X574090Y-4011574D01*
X571703Y-4009136D01*
X566928Y-4007104D01*
X559257Y-4005173D01*
X544677Y-4002481D01*
G37*
G36*
X676656Y-4014215D02*
G01*
X675182Y-4015181D01*
X673201Y-4017873D01*
X671068Y-4021836D01*
X668883Y-4026662D01*
X666546Y-4033418D01*
X664972Y-4039870D01*
X664108Y-4045915D01*
X663956Y-4051452D01*
X664565Y-4056430D01*
X665886Y-4060647D01*
X667918Y-4064050D01*
X670712Y-4066489D01*
X673963Y-4068826D01*
X675386Y-4070604D01*
X675030Y-4072280D01*
X672998Y-4074210D01*
X671068Y-4076852D01*
X669696Y-4081272D01*
X668832Y-4087469D01*
X668578Y-4095394D01*
X668782Y-4101998D01*
X669391Y-4106621D01*
X670204Y-4109313D01*
X671220Y-4110075D01*
X672236Y-4108907D01*
X673252Y-4105859D01*
X674116Y-4100982D01*
X675182Y-4088536D01*
X675944Y-4082999D01*
X676910Y-4078274D01*
X678688Y-4071823D01*
X678230Y-4069029D01*
X676503Y-4066286D01*
X670763Y-4060596D01*
X668934Y-4057446D01*
X667867Y-4053738D01*
X667562Y-4049522D01*
X668070Y-4044594D01*
X669391Y-4039057D01*
X671474Y-4032808D01*
X676097Y-4021328D01*
X677113Y-4017619D01*
X677316Y-4015130D01*
G37*
G36*
X481177Y-4026915D02*
G01*
X473659Y-4028287D01*
X460197Y-4031132D01*
X453288Y-4033164D01*
X445262Y-4036364D01*
X436727Y-4040378D01*
X428294Y-4044797D01*
X420674Y-4049369D01*
X414426Y-4053636D01*
X410209Y-4057294D01*
X409535Y-4058462D01*
X421792Y-4058462D01*
X422605Y-4056075D01*
X425856Y-4052874D01*
X430936Y-4049166D01*
X437184Y-4045356D01*
X443992Y-4041800D01*
X450748Y-4038752D01*
X456844Y-4036720D01*
X461568Y-4035907D01*
X466242Y-4036110D01*
X468274Y-4037228D01*
X467980Y-4040022D01*
X502056Y-4040022D01*
X504393Y-4039108D01*
X511200Y-4040987D01*
X522681Y-4045559D01*
X528574Y-4048302D01*
X533400Y-4050944D01*
X536651Y-4053128D01*
X537870Y-4054601D01*
X534974Y-4058056D01*
X528015Y-4062984D01*
X519277Y-4067911D01*
X511200Y-4071264D01*
X507593Y-4072077D01*
X505815Y-4071112D01*
X505510Y-4067657D01*
X506679Y-4055262D01*
X506425Y-4050436D01*
X505561Y-4046474D01*
X502056Y-4040022D01*
X467969Y-4040124D01*
X464058Y-4050792D01*
X463296Y-4055364D01*
X463550Y-4059834D01*
X465835Y-4068064D01*
X466445Y-4071213D01*
X466648Y-4073651D01*
X466242Y-4074972D01*
X463702Y-4075125D01*
X458419Y-4074007D01*
X451408Y-4071924D01*
X443585Y-4069181D01*
X435762Y-4066133D01*
X428955Y-4063085D01*
X423976Y-4060444D01*
X421792Y-4058462D01*
X409535Y-4058462D01*
X408686Y-4059936D01*
X409600Y-4061155D01*
X412089Y-4062780D01*
X415747Y-4064558D01*
X420217Y-4066336D01*
X434848Y-4071315D01*
X446785Y-4074871D01*
X457149Y-4077157D01*
X466953Y-4078376D01*
X477266Y-4078681D01*
X489153Y-4078325D01*
X499008Y-4077614D01*
X507492Y-4076547D01*
X514908Y-4074922D01*
X521462Y-4072788D01*
X527354Y-4069943D01*
X532841Y-4066336D01*
X538175Y-4061866D01*
X543610Y-4056430D01*
X550824Y-4048709D01*
X535736Y-4041038D01*
X529996Y-4038447D01*
X522985Y-4035856D01*
X515162Y-4033367D01*
X507034Y-4031132D01*
X499059Y-4029201D01*
X491794Y-4027779D01*
X485648Y-4027017D01*
G37*
G36*
X242773Y-4030624D02*
G01*
X236220Y-4030776D01*
X229819Y-4031335D01*
X223672Y-4032300D01*
X217779Y-4033723D01*
X212699Y-4035450D01*
X207213Y-4037787D01*
X201574Y-4040530D01*
X196240Y-4043476D01*
X191465Y-4046423D01*
X187655Y-4049166D01*
X185064Y-4051503D01*
X184150Y-4053281D01*
X184538Y-4053586D01*
X191820Y-4053586D01*
X206959Y-4047236D01*
X218338Y-4043222D01*
X230581Y-4039412D01*
X240436Y-4036771D01*
X243433Y-4036161D01*
X243941Y-4036669D01*
X243636Y-4038295D01*
X242519Y-4040682D01*
X238607Y-4047794D01*
X237337Y-4052214D01*
X236931Y-4056938D01*
X237337Y-4062069D01*
X239064Y-4072636D01*
X222402Y-4066438D01*
X209804Y-4061358D01*
X191820Y-4053586D01*
X184538Y-4053586D01*
X186029Y-4054754D01*
X191160Y-4057700D01*
X207975Y-4066235D01*
X222097Y-4072686D01*
X226890Y-4074414D01*
X276656Y-4074414D01*
X277520Y-4071162D01*
X280009Y-4065473D01*
X281533Y-4061358D01*
X282041Y-4057599D01*
X281533Y-4053890D01*
X278231Y-4044289D01*
X280162Y-4042562D01*
X286867Y-4044594D01*
X299415Y-4050487D01*
X306019Y-4053890D01*
X311404Y-4057040D01*
X315061Y-4059580D01*
X316433Y-4061104D01*
X315061Y-4062374D01*
X311404Y-4064406D01*
X299974Y-4069486D01*
X287477Y-4074109D01*
X282549Y-4075582D01*
X279400Y-4076141D01*
X277266Y-4075836D01*
X276656Y-4074414D01*
X226890Y-4074414D01*
X233222Y-4076090D01*
X239115Y-4076954D01*
X246125Y-4077462D01*
X265684Y-4077715D01*
X283819Y-4077462D01*
X290372Y-4077106D01*
X295605Y-4076496D01*
X299923Y-4075633D01*
X303631Y-4074414D01*
X307035Y-4072839D01*
X315010Y-4068216D01*
X318922Y-4066438D01*
X321868Y-4065524D01*
X324002Y-4065879D01*
X324205Y-4065168D01*
X324104Y-4063593D01*
X323646Y-4061358D01*
X321411Y-4058005D01*
X316382Y-4053941D01*
X308660Y-4049268D01*
X298450Y-4044086D01*
X291490Y-4041038D01*
X284480Y-4038346D01*
X277418Y-4036060D01*
X270357Y-4034180D01*
X263347Y-4032656D01*
X256387Y-4031589D01*
X249529Y-4030878D01*
G37*
G36*
X357530Y-4042664D02*
G01*
X357022Y-4043375D01*
X356666Y-4044848D01*
X356616Y-4046982D01*
X356870Y-4049166D01*
X357276Y-4050233D01*
X357835Y-4050131D01*
X358495Y-4048861D01*
X358952Y-4047134D01*
X359105Y-4045458D01*
X358851Y-4043984D01*
X358241Y-4042918D01*
G37*
G36*
X659231Y-4096156D02*
G01*
X658774Y-4096613D01*
X658418Y-4098239D01*
X658418Y-4103624D01*
X658774Y-4105249D01*
X659231Y-4105706D01*
X659841Y-4104792D01*
X660349Y-4103014D01*
X660501Y-4100931D01*
X660349Y-4098848D01*
X659841Y-4097070D01*
G37*
G36*
X668578Y-4115054D02*
G01*
X655929Y-4125925D01*
X653338Y-4127398D01*
X652018Y-4127042D01*
X651408Y-4122775D01*
X650748Y-4120794D01*
X649782Y-4119118D01*
X648563Y-4117949D01*
X647395Y-4117543D01*
X646430Y-4117797D01*
X645769Y-4118660D01*
X645566Y-4120083D01*
X645820Y-4122064D01*
X646430Y-4124350D01*
X648512Y-4128820D01*
X650341Y-4130801D01*
X652526Y-4130852D01*
X655574Y-4128770D01*
X660044Y-4124248D01*
G37*
G36*
X352094Y-4141012D02*
G01*
X351891Y-4141419D01*
X351586Y-4146702D01*
X351434Y-4157319D01*
X351891Y-4186631D01*
X352094Y-4186732D01*
X352501Y-4182110D01*
X352856Y-4173169D01*
X352856Y-4153357D01*
X352298Y-4142130D01*
G37*
G36*
X309118Y-4175506D02*
G01*
X307035Y-4177182D01*
X302666Y-4183278D01*
X300736Y-4186478D01*
X299364Y-4189272D01*
X298602Y-4191355D01*
X298653Y-4192473D01*
X299516Y-4192219D01*
X301040Y-4190593D01*
X303022Y-4187951D01*
X305206Y-4184446D01*
X308610Y-4177944D01*
G37*
G36*
X306171Y-4229354D02*
G01*
X305511Y-4229912D01*
X307340Y-4231995D01*
X315620Y-4238752D01*
X319125Y-4241139D01*
X322021Y-4242765D01*
X323799Y-4243374D01*
X324612Y-4241546D01*
X321005Y-4237329D01*
X315163Y-4232757D01*
X309270Y-4229912D01*
G37*
G36*
X613511Y-4240682D02*
G01*
X612648Y-4240784D01*
X611479Y-4244238D01*
X608076Y-4258106D01*
X605891Y-4265574D01*
X603504Y-4272686D01*
X599389Y-4282998D01*
X598424Y-4286351D01*
X598271Y-4288332D01*
X599033Y-4288536D01*
X601116Y-4286046D01*
X603605Y-4281424D01*
X606247Y-4275226D01*
X608787Y-4268165D01*
X611073Y-4260799D01*
X612902Y-4253839D01*
X613968Y-4247896D01*
X614121Y-4243628D01*
G37*
G36*
X403910Y-4243628D02*
G01*
X398576Y-4243882D01*
X393293Y-4244797D01*
X388721Y-4246168D01*
X385419Y-4247946D01*
X382320Y-4250486D01*
X381660Y-4251807D01*
X383692Y-4252366D01*
X388670Y-4252468D01*
X392988Y-4252112D01*
X397916Y-4251147D01*
X402844Y-4249826D01*
X407162Y-4248150D01*
X416356Y-4243882D01*
G37*
G36*
X359460Y-4253534D02*
G01*
X354634Y-4253636D01*
X351739Y-4253941D01*
X350977Y-4254347D01*
X352552Y-4254855D01*
X355803Y-4255262D01*
X359460Y-4255414D01*
X363169Y-4255262D01*
X366369Y-4254855D01*
X367995Y-4254347D01*
X367233Y-4253941D01*
X364286Y-4253636D01*
G37*
G36*
X473608Y-4291584D02*
G01*
X472948Y-4292142D01*
X472592Y-4294530D01*
X472541Y-4298340D01*
X472846Y-4303268D01*
X473557Y-4309059D01*
X474319Y-4312005D01*
X475183Y-4312259D01*
X476300Y-4310024D01*
X477316Y-4304792D01*
X477113Y-4299254D01*
X475843Y-4294530D01*
G37*
G36*
X461975Y-4293920D02*
G01*
X459638Y-4294174D01*
X456488Y-4294987D01*
X449732Y-4297222D01*
X439826Y-4299254D01*
X426313Y-4301236D01*
X410667Y-4303014D01*
X394208Y-4304487D01*
X378358Y-4305554D01*
X364439Y-4306062D01*
X353872Y-4305858D01*
X350266Y-4305452D01*
X336854Y-4302912D01*
X309321Y-4296206D01*
X300329Y-4294327D01*
X297942Y-4294124D01*
X296875Y-4294327D01*
X297129Y-4295038D01*
X298704Y-4296156D01*
X300990Y-4298238D01*
X302666Y-4301286D01*
X303733Y-4305198D01*
X304088Y-4309770D01*
X304088Y-4320082D01*
X345643Y-4324858D01*
X326390Y-4329125D01*
X319582Y-4331055D01*
X307187Y-4335373D01*
X302209Y-4337608D01*
X298297Y-4339640D01*
X295757Y-4341469D01*
X294894Y-4342993D01*
X295046Y-4344111D01*
X295554Y-4344822D01*
X296316Y-4345127D01*
X297180Y-4344924D01*
X305003Y-4341164D01*
X312978Y-4337964D01*
X321564Y-4335272D01*
X331063Y-4333087D01*
X341934Y-4331258D01*
X354533Y-4329836D01*
X369316Y-4328718D01*
X386537Y-4327804D01*
X430225Y-4326585D01*
X471728Y-4325823D01*
X431292Y-4323537D01*
X419100Y-4322572D01*
X416153Y-4322064D01*
X415086Y-4321454D01*
X415645Y-4320692D01*
X426821Y-4316069D01*
X433628Y-4312869D01*
X447903Y-4305147D01*
X454253Y-4301388D01*
X459333Y-4298035D01*
X462483Y-4295546D01*
X463194Y-4294174D01*
G37*
G36*
X396951Y-4330547D02*
G01*
X378917Y-4334408D01*
X372567Y-4335983D01*
X366979Y-4337659D01*
X362712Y-4339285D01*
X360476Y-4340606D01*
X360019Y-4341571D01*
X360832Y-4342028D01*
X362712Y-4341977D01*
X369773Y-4340352D01*
X393344Y-4336389D01*
X397611Y-4335221D01*
X400202Y-4333951D01*
X400761Y-4332782D01*
X399948Y-4331766D01*
X398932Y-4331004D01*
X397916Y-4330598D01*
G37*
D10*
X2019300Y-3656584D02*
G01*
X2019300Y-3765550D01*
X2019300Y-3656584D02*
G01*
X2086863Y-3656584D01*
X2019300Y-3708400D02*
G01*
X2060956Y-3708400D01*
X2019300Y-3765550D02*
G01*
X2086863Y-3765550D01*
X2121154Y-3656584D02*
G01*
X2121154Y-3765550D01*
X2121154Y-3656584D02*
G01*
X2193797Y-3765550D01*
X2193797Y-3656584D02*
G01*
X2193797Y-3765550D01*
X1206500Y-3669284D02*
G01*
X1248155Y-3778250D01*
X1289557Y-3669284D02*
G01*
X1248155Y-3778250D01*
X1323847Y-3705605D02*
G01*
X1323847Y-3778250D01*
X1323847Y-3726434D02*
G01*
X1339595Y-3710939D01*
X1350010Y-3705605D01*
X1365504Y-3705605D01*
X1375918Y-3710939D01*
X1380997Y-3726434D01*
X1380997Y-3778250D01*
X1380997Y-3726434D02*
G01*
X1396745Y-3710939D01*
X1407160Y-3705605D01*
X1422654Y-3705605D01*
X1433068Y-3710939D01*
X1438147Y-3726434D01*
X1438147Y-3778250D01*
X1498600Y-3705605D02*
G01*
X1488186Y-3710939D01*
X1477771Y-3721100D01*
X1472437Y-3736847D01*
X1472437Y-3747262D01*
X1477771Y-3762755D01*
X1488186Y-3773170D01*
X1498600Y-3778250D01*
X1514094Y-3778250D01*
X1524507Y-3773170D01*
X1534921Y-3762755D01*
X1540002Y-3747262D01*
X1540002Y-3736847D01*
X1534921Y-3721100D01*
X1524507Y-3710939D01*
X1514094Y-3705605D01*
X1498600Y-3705605D01*
X1590039Y-3669284D02*
G01*
X1590039Y-3757676D01*
X1595120Y-3773170D01*
X1605534Y-3778250D01*
X1615947Y-3778250D01*
X1574292Y-3705605D02*
G01*
X1610613Y-3705605D01*
X1284378Y-3441291D02*
G01*
X1279298Y-3430877D01*
X1268884Y-3420463D01*
X1258470Y-3415383D01*
X1237642Y-3415383D01*
X1227228Y-3420463D01*
X1216814Y-3430877D01*
X1211734Y-3441291D01*
X1206400Y-3456785D01*
X1206400Y-3482693D01*
X1211734Y-3498441D01*
X1216814Y-3508855D01*
X1227228Y-3519269D01*
X1237642Y-3524349D01*
X1258470Y-3524349D01*
X1268884Y-3519269D01*
X1279298Y-3508855D01*
X1284378Y-3498441D01*
X1284378Y-3482693D01*
X1258470Y-3482693D02*
G01*
X1284378Y-3482693D01*
X1318668Y-3415383D02*
G01*
X1318668Y-3524349D01*
X1318668Y-3415383D02*
G01*
X1391566Y-3524349D01*
X1391566Y-3415383D02*
G01*
X1391566Y-3524349D01*
X1425856Y-3415383D02*
G01*
X1425856Y-3524349D01*
X1425856Y-3415383D02*
G01*
X1462178Y-3415383D01*
X1477672Y-3420463D01*
X1488086Y-3430877D01*
X1493166Y-3441291D01*
X1498500Y-3456785D01*
X1498500Y-3482693D01*
X1493166Y-3498441D01*
X1488086Y-3508855D01*
X1477672Y-3519269D01*
X1462178Y-3524349D01*
X1425856Y-3524349D01*
X1271678Y-1904591D02*
G01*
X1266598Y-1894177D01*
X1256184Y-1883763D01*
X1245770Y-1878683D01*
X1224942Y-1878683D01*
X1214528Y-1883763D01*
X1204114Y-1894177D01*
X1199034Y-1904591D01*
X1193700Y-1920085D01*
X1193700Y-1945993D01*
X1199034Y-1961741D01*
X1204114Y-1972155D01*
X1214528Y-1982569D01*
X1224942Y-1987649D01*
X1245770Y-1987649D01*
X1256184Y-1982569D01*
X1266598Y-1972155D01*
X1271678Y-1961741D01*
X1271678Y-1945993D01*
X1245770Y-1945993D02*
G01*
X1271678Y-1945993D01*
X1305968Y-1878683D02*
G01*
X1305968Y-1987649D01*
X1305968Y-1878683D02*
G01*
X1378866Y-1987649D01*
X1378866Y-1878683D02*
G01*
X1378866Y-1987649D01*
X1413156Y-1878683D02*
G01*
X1413156Y-1987649D01*
X1413156Y-1878683D02*
G01*
X1449478Y-1878683D01*
X1464972Y-1883763D01*
X1475386Y-1894177D01*
X1480466Y-1904591D01*
X1485800Y-1920085D01*
X1485800Y-1945993D01*
X1480466Y-1961741D01*
X1475386Y-1972155D01*
X1464972Y-1982569D01*
X1449478Y-1987649D01*
X1413156Y-1987649D01*
X1193800Y-2132584D02*
G01*
X1235455Y-2241550D01*
X1276857Y-2132584D02*
G01*
X1235455Y-2241550D01*
X1389126Y-2158492D02*
G01*
X1384045Y-2148078D01*
X1373631Y-2137663D01*
X1363218Y-2132584D01*
X1342389Y-2132584D01*
X1331976Y-2137663D01*
X1321562Y-2148078D01*
X1316481Y-2158492D01*
X1311147Y-2174239D01*
X1311147Y-2200147D01*
X1316481Y-2215642D01*
X1321562Y-2226055D01*
X1331976Y-2236470D01*
X1342389Y-2241550D01*
X1363218Y-2241550D01*
X1373631Y-2236470D01*
X1384045Y-2226055D01*
X1389126Y-2215642D01*
X1501394Y-2158492D02*
G01*
X1496060Y-2148078D01*
X1485900Y-2137663D01*
X1475486Y-2132584D01*
X1454657Y-2132584D01*
X1444244Y-2137663D01*
X1433829Y-2148078D01*
X1428750Y-2158492D01*
X1423415Y-2174239D01*
X1423415Y-2200147D01*
X1428750Y-2215642D01*
X1433829Y-2226055D01*
X1444244Y-2236470D01*
X1454657Y-2241550D01*
X1475486Y-2241550D01*
X1485900Y-2236470D01*
X1496060Y-2226055D01*
X1501394Y-2215642D01*
X1968500Y-1878584D02*
G01*
X1968500Y-1987550D01*
X1968500Y-1878584D02*
G01*
X2004822Y-1878584D01*
X2020570Y-1883663D01*
X2030729Y-1894078D01*
X2036063Y-1904492D01*
X2041143Y-1920239D01*
X2041143Y-1946147D01*
X2036063Y-1961642D01*
X2030729Y-1972055D01*
X2020570Y-1982470D01*
X2004822Y-1987550D01*
X1968500Y-1987550D01*
X2075434Y-1878584D02*
G01*
X2075434Y-1987550D01*
X2109724Y-1878584D02*
G01*
X2109724Y-1987550D01*
X2109724Y-1878584D02*
G01*
X2156459Y-1878584D01*
X2172208Y-1883663D01*
X2177288Y-1888997D01*
X2182622Y-1899412D01*
X2182622Y-1909826D01*
X2177288Y-1920239D01*
X2172208Y-1925320D01*
X2156459Y-1930400D01*
X2109724Y-1930400D01*
X2146300Y-1930400D02*
G01*
X2182622Y-1987550D01*
X1901444Y-2148078D02*
G01*
X1891029Y-2137663D01*
X1875536Y-2132584D01*
X1854707Y-2132584D01*
X1839213Y-2137663D01*
X1828800Y-2148078D01*
X1828800Y-2158492D01*
X1833879Y-2168905D01*
X1839213Y-2174239D01*
X1849628Y-2179320D01*
X1880870Y-2189734D01*
X1891029Y-2194813D01*
X1896363Y-2200147D01*
X1901444Y-2210562D01*
X1901444Y-2226055D01*
X1891029Y-2236470D01*
X1875536Y-2241550D01*
X1854707Y-2241550D01*
X1839213Y-2236470D01*
X1828800Y-2226055D01*
X1972309Y-2132584D02*
G01*
X1972309Y-2241550D01*
X1935734Y-2132584D02*
G01*
X2008631Y-2132584D01*
X2042922Y-2132584D02*
G01*
X2042922Y-2241550D01*
X2042922Y-2132584D02*
G01*
X2110486Y-2132584D01*
X2042922Y-2184400D02*
G01*
X2084324Y-2184400D01*
X2042922Y-2241550D02*
G01*
X2110486Y-2241550D01*
X2144775Y-2132584D02*
G01*
X2144775Y-2241550D01*
X2144775Y-2132584D02*
G01*
X2191511Y-2132584D01*
X2207006Y-2137663D01*
X2212340Y-2142997D01*
X2217420Y-2153412D01*
X2217420Y-2168905D01*
X2212340Y-2179320D01*
X2207006Y-2184400D01*
X2191511Y-2189734D01*
X2144775Y-2189734D01*
X128778Y-3165855D02*
G01*
X118363Y-3176270D01*
X113284Y-3191763D01*
X113284Y-3212592D01*
X118363Y-3228086D01*
X128778Y-3238500D01*
X139192Y-3238500D01*
X149605Y-3233420D01*
X154939Y-3228086D01*
X160020Y-3217671D01*
X170434Y-3186429D01*
X175513Y-3176270D01*
X180847Y-3170936D01*
X191262Y-3165855D01*
X206755Y-3165855D01*
X217170Y-3176270D01*
X222250Y-3191763D01*
X222250Y-3212592D01*
X217170Y-3228086D01*
X206755Y-3238500D01*
X113284Y-3094989D02*
G01*
X222250Y-3094989D01*
X113284Y-3131565D02*
G01*
X113284Y-3058668D01*
X113284Y-3024378D02*
G01*
X222250Y-3024378D01*
X113284Y-3024378D02*
G01*
X113284Y-2956813D01*
X165100Y-3024378D02*
G01*
X165100Y-2982976D01*
X222250Y-3024378D02*
G01*
X222250Y-2956813D01*
X113284Y-2922523D02*
G01*
X222250Y-2922523D01*
X113284Y-2922523D02*
G01*
X113284Y-2875787D01*
X118363Y-2860294D01*
X123697Y-2854960D01*
X134112Y-2849879D01*
X149605Y-2849879D01*
X160020Y-2854960D01*
X165100Y-2860294D01*
X170434Y-2875787D01*
X170434Y-2922523D01*
X113284Y-2735579D02*
G01*
X222250Y-2735579D01*
X113284Y-2735579D02*
G01*
X222250Y-2693923D01*
X113284Y-2652521D02*
G01*
X222250Y-2693923D01*
X113284Y-2652521D02*
G01*
X222250Y-2652521D01*
X113284Y-2586989D02*
G01*
X118363Y-2597404D01*
X128778Y-2607818D01*
X139192Y-2612897D01*
X154939Y-2618231D01*
X180847Y-2618231D01*
X196342Y-2612897D01*
X206755Y-2607818D01*
X217170Y-2597404D01*
X222250Y-2586989D01*
X222250Y-2566162D01*
X217170Y-2555747D01*
X206755Y-2545334D01*
X196342Y-2540254D01*
X180847Y-2534920D01*
X154939Y-2534920D01*
X139192Y-2540254D01*
X128778Y-2545334D01*
X118363Y-2555747D01*
X113284Y-2566162D01*
X113284Y-2586989D01*
X113284Y-2464307D02*
G01*
X222250Y-2464307D01*
X113284Y-2500629D02*
G01*
X113284Y-2427986D01*
X901700Y-4756912D02*
G01*
X912113Y-4751578D01*
X927607Y-4736084D01*
X927607Y-4845050D01*
X1127252Y-4761992D02*
G01*
X1127252Y-4756912D01*
X1132331Y-4746497D01*
X1137665Y-4741163D01*
X1148079Y-4736084D01*
X1168654Y-4736084D01*
X1179068Y-4741163D01*
X1184402Y-4746497D01*
X1189481Y-4756912D01*
X1189481Y-4767326D01*
X1184402Y-4777739D01*
X1173987Y-4793234D01*
X1121918Y-4845050D01*
X1194815Y-4845050D01*
X1399539Y-4736084D02*
G01*
X1456689Y-4736084D01*
X1425447Y-4777739D01*
X1440942Y-4777739D01*
X1451355Y-4782820D01*
X1456689Y-4787900D01*
X1461770Y-4803647D01*
X1461770Y-4814062D01*
X1456689Y-4829555D01*
X1446276Y-4839970D01*
X1430528Y-4845050D01*
X1415034Y-4845050D01*
X1399539Y-4839970D01*
X1394205Y-4834889D01*
X1389126Y-4824476D01*
X5269484Y-4375657D02*
G01*
X5274563Y-4386071D01*
X5284977Y-4396486D01*
X5295391Y-4401820D01*
X5311140Y-4406900D01*
X5337047Y-4406900D01*
X5352541Y-4401820D01*
X5362956Y-4396486D01*
X5373370Y-4386071D01*
X5378450Y-4375657D01*
X5378450Y-4354829D01*
X5373370Y-4344670D01*
X5362956Y-4334255D01*
X5352541Y-4328921D01*
X5337047Y-4323842D01*
X5311140Y-4323842D01*
X5295391Y-4328921D01*
X5284977Y-4334255D01*
X5274563Y-4344670D01*
X5269484Y-4354829D01*
X5269484Y-4375657D01*
X5269484Y-4289552D02*
G01*
X5378450Y-4289552D01*
X5269484Y-4289552D02*
G01*
X5269484Y-4242815D01*
X5274563Y-4227068D01*
X5279897Y-4221987D01*
X5290311Y-4216654D01*
X5300725Y-4216654D01*
X5311140Y-4221987D01*
X5316220Y-4227068D01*
X5321300Y-4242815D01*
X5321300Y-4289552D02*
G01*
X5321300Y-4242815D01*
X5326634Y-4227068D01*
X5331713Y-4221987D01*
X5342127Y-4216654D01*
X5357875Y-4216654D01*
X5368290Y-4221987D01*
X5373370Y-4227068D01*
X5378450Y-4242815D01*
X5378450Y-4289552D01*
X5523484Y-4375657D02*
G01*
X5528563Y-4386071D01*
X5538977Y-4396486D01*
X5549391Y-4401820D01*
X5565140Y-4406900D01*
X5591047Y-4406900D01*
X5606541Y-4401820D01*
X5616956Y-4396486D01*
X5627370Y-4386071D01*
X5632450Y-4375657D01*
X5632450Y-4354829D01*
X5627370Y-4344670D01*
X5616956Y-4334255D01*
X5606541Y-4328921D01*
X5591047Y-4323842D01*
X5565140Y-4323842D01*
X5549391Y-4328921D01*
X5538977Y-4334255D01*
X5528563Y-4344670D01*
X5523484Y-4354829D01*
X5523484Y-4375657D01*
X5523484Y-4247895D02*
G01*
X5632450Y-4289552D01*
X5523484Y-4247895D02*
G01*
X5632450Y-4206239D01*
X5596127Y-4273804D02*
G01*
X5596127Y-4221987D01*
X5780277Y-4334255D02*
G01*
X5769863Y-4344670D01*
X5764784Y-4360163D01*
X5764784Y-4380992D01*
X5769863Y-4396486D01*
X5780277Y-4406900D01*
X5790691Y-4406900D01*
X5801106Y-4401820D01*
X5806440Y-4396486D01*
X5811520Y-4386071D01*
X5821934Y-4354829D01*
X5827013Y-4344670D01*
X5832347Y-4339336D01*
X5842761Y-4334255D01*
X5858256Y-4334255D01*
X5868670Y-4344670D01*
X5873750Y-4360163D01*
X5873750Y-4380992D01*
X5868670Y-4396486D01*
X5858256Y-4406900D01*
X5764784Y-4299965D02*
G01*
X5873750Y-4273804D01*
X5764784Y-4247895D02*
G01*
X5873750Y-4273804D01*
X5764784Y-4247895D02*
G01*
X5873750Y-4221987D01*
X5764784Y-4196079D02*
G01*
X5873750Y-4221987D01*
X6031484Y-4419600D02*
G01*
X6140450Y-4377944D01*
X6031484Y-4336542D02*
G01*
X6140450Y-4377944D01*
X6057391Y-4224273D02*
G01*
X6046977Y-4229354D01*
X6036563Y-4239768D01*
X6031484Y-4250181D01*
X6031484Y-4271010D01*
X6036563Y-4281423D01*
X6046977Y-4291837D01*
X6057391Y-4296918D01*
X6073140Y-4302252D01*
X6099047Y-4302252D01*
X6114541Y-4296918D01*
X6124956Y-4291837D01*
X6135370Y-4281423D01*
X6140450Y-4271010D01*
X6140450Y-4250181D01*
X6135370Y-4239768D01*
X6124956Y-4229354D01*
X6114541Y-4224273D01*
X6057391Y-4112005D02*
G01*
X6046977Y-4117339D01*
X6036563Y-4127500D01*
X6031484Y-4137913D01*
X6031484Y-4158742D01*
X6036563Y-4169155D01*
X6046977Y-4179570D01*
X6057391Y-4184650D01*
X6073140Y-4189984D01*
X6099047Y-4189984D01*
X6114541Y-4184650D01*
X6124956Y-4179570D01*
X6135370Y-4169155D01*
X6140450Y-4158742D01*
X6140450Y-4137913D01*
X6135370Y-4127500D01*
X6124956Y-4117339D01*
X6114541Y-4112005D01*
X6311391Y-4328921D02*
G01*
X6300977Y-4334255D01*
X6290563Y-4344670D01*
X6285484Y-4354829D01*
X6285484Y-4375657D01*
X6290563Y-4386071D01*
X6300977Y-4396486D01*
X6311391Y-4401820D01*
X6327140Y-4406900D01*
X6353047Y-4406900D01*
X6368541Y-4401820D01*
X6378956Y-4396486D01*
X6389370Y-4386071D01*
X6394450Y-4375657D01*
X6394450Y-4354829D01*
X6389370Y-4344670D01*
X6378956Y-4334255D01*
X6368541Y-4328921D01*
X6353047Y-4328921D01*
X6353047Y-4354829D02*
G01*
X6353047Y-4328921D01*
X6285484Y-4294631D02*
G01*
X6394450Y-4294631D01*
X6285484Y-4294631D02*
G01*
X6394450Y-4221987D01*
X6285484Y-4221987D02*
G01*
X6394450Y-4221987D01*
X6285484Y-4187697D02*
G01*
X6394450Y-4187697D01*
X6285484Y-4187697D02*
G01*
X6285484Y-4151376D01*
X6290563Y-4135628D01*
X6300977Y-4125213D01*
X6311391Y-4120134D01*
X6327140Y-4114800D01*
X6353047Y-4114800D01*
X6368541Y-4120134D01*
X6378956Y-4125213D01*
X6389370Y-4135628D01*
X6394450Y-4151376D01*
X6394450Y-4187697D01*
X6709044Y-4329668D02*
G01*
X6698630Y-4335002D01*
X6688216Y-4345416D01*
X6683136Y-4355576D01*
X6683136Y-4376404D01*
X6688216Y-4386818D01*
X6698630Y-4397232D01*
X6709044Y-4402566D01*
X6724792Y-4407646D01*
X6750700Y-4407646D01*
X6766194Y-4402566D01*
X6776608Y-4397232D01*
X6787022Y-4386818D01*
X6792102Y-4376404D01*
X6792102Y-4355576D01*
X6787022Y-4345416D01*
X6776608Y-4335002D01*
X6766194Y-4329668D01*
X6750700Y-4329668D01*
X6750700Y-4355576D02*
G01*
X6750700Y-4329668D01*
X6683136Y-4295378D02*
G01*
X6792102Y-4295378D01*
X6683136Y-4295378D02*
G01*
X6792102Y-4222734D01*
X6683136Y-4222734D02*
G01*
X6792102Y-4222734D01*
X6683136Y-4188444D02*
G01*
X6792102Y-4188444D01*
X6683136Y-4188444D02*
G01*
X6683136Y-4152122D01*
X6688216Y-4136374D01*
X6698630Y-4125960D01*
X6709044Y-4120880D01*
X6724792Y-4115546D01*
X6750700Y-4115546D01*
X6766194Y-4120880D01*
X6776608Y-4125960D01*
X6787022Y-4136374D01*
X6792102Y-4152122D01*
X6792102Y-4188444D01*
X6945884Y-4419600D02*
G01*
X7054850Y-4377944D01*
X6945884Y-4336542D02*
G01*
X7054850Y-4377944D01*
X6971791Y-4224273D02*
G01*
X6961377Y-4229354D01*
X6950963Y-4239768D01*
X6945884Y-4250181D01*
X6945884Y-4271010D01*
X6950963Y-4281423D01*
X6961377Y-4291837D01*
X6971791Y-4296918D01*
X6987540Y-4302252D01*
X7013447Y-4302252D01*
X7028941Y-4296918D01*
X7039356Y-4291837D01*
X7049770Y-4281423D01*
X7054850Y-4271010D01*
X7054850Y-4250181D01*
X7049770Y-4239768D01*
X7039356Y-4229354D01*
X7028941Y-4224273D01*
X6971791Y-4112005D02*
G01*
X6961377Y-4117339D01*
X6950963Y-4127500D01*
X6945884Y-4137913D01*
X6945884Y-4158742D01*
X6950963Y-4169155D01*
X6961377Y-4179570D01*
X6971791Y-4184650D01*
X6987540Y-4189984D01*
X7013447Y-4189984D01*
X7028941Y-4184650D01*
X7039356Y-4179570D01*
X7049770Y-4169155D01*
X7054850Y-4158742D01*
X7054850Y-4137913D01*
X7049770Y-4127500D01*
X7039356Y-4117339D01*
X7028941Y-4112005D01*
X7228077Y-4334255D02*
G01*
X7217663Y-4344670D01*
X7212584Y-4360163D01*
X7212584Y-4380992D01*
X7217663Y-4396486D01*
X7228077Y-4406900D01*
X7238491Y-4406900D01*
X7248906Y-4401820D01*
X7254240Y-4396486D01*
X7259320Y-4386071D01*
X7269734Y-4354829D01*
X7274813Y-4344670D01*
X7280147Y-4339336D01*
X7290561Y-4334255D01*
X7306056Y-4334255D01*
X7316470Y-4344670D01*
X7321550Y-4360163D01*
X7321550Y-4380992D01*
X7316470Y-4396486D01*
X7306056Y-4406900D01*
X7212584Y-4299965D02*
G01*
X7321550Y-4299965D01*
X7212584Y-4299965D02*
G01*
X7212584Y-4263389D01*
X7217663Y-4247895D01*
X7228077Y-4237481D01*
X7238491Y-4232402D01*
X7254240Y-4227068D01*
X7280147Y-4227068D01*
X7295641Y-4232402D01*
X7306056Y-4237481D01*
X7316470Y-4247895D01*
X7321550Y-4263389D01*
X7321550Y-4299965D01*
X7212584Y-4151376D02*
G01*
X7321550Y-4192778D01*
X7212584Y-4151376D02*
G01*
X7321550Y-4109720D01*
X7285227Y-4177284D02*
G01*
X7285227Y-4125213D01*
X7494777Y-4321555D02*
G01*
X7484363Y-4331970D01*
X7479284Y-4347463D01*
X7479284Y-4368292D01*
X7484363Y-4383786D01*
X7494777Y-4394200D01*
X7505191Y-4394200D01*
X7515606Y-4389120D01*
X7520940Y-4383786D01*
X7526020Y-4373371D01*
X7536434Y-4342129D01*
X7541513Y-4331970D01*
X7546847Y-4326636D01*
X7557261Y-4321555D01*
X7572756Y-4321555D01*
X7583170Y-4331970D01*
X7588250Y-4347463D01*
X7588250Y-4368292D01*
X7583170Y-4383786D01*
X7572756Y-4394200D01*
X7505191Y-4209287D02*
G01*
X7494777Y-4214368D01*
X7484363Y-4224781D01*
X7479284Y-4235195D01*
X7479284Y-4256023D01*
X7484363Y-4266437D01*
X7494777Y-4276852D01*
X7505191Y-4281931D01*
X7520940Y-4287265D01*
X7546847Y-4287265D01*
X7562341Y-4281931D01*
X7572756Y-4276852D01*
X7583170Y-4266437D01*
X7588250Y-4256023D01*
X7588250Y-4235195D01*
X7583170Y-4224781D01*
X7572756Y-4214368D01*
X7562341Y-4209287D01*
X7479284Y-4174997D02*
G01*
X7588250Y-4174997D01*
X7588250Y-4174997D02*
G01*
X7588250Y-4112513D01*
X5816091Y-3681221D02*
G01*
X5805677Y-3686555D01*
X5795263Y-3696970D01*
X5790184Y-3707129D01*
X5790184Y-3727957D01*
X5795263Y-3738371D01*
X5805677Y-3748786D01*
X5816091Y-3754120D01*
X5831840Y-3759200D01*
X5857747Y-3759200D01*
X5873241Y-3754120D01*
X5883656Y-3748786D01*
X5894070Y-3738371D01*
X5899150Y-3727957D01*
X5899150Y-3707129D01*
X5894070Y-3696970D01*
X5883656Y-3686555D01*
X5873241Y-3681221D01*
X5857747Y-3681221D01*
X5857747Y-3707129D02*
G01*
X5857747Y-3681221D01*
X5790184Y-3646931D02*
G01*
X5899150Y-3646931D01*
X5790184Y-3646931D02*
G01*
X5899150Y-3574287D01*
X5790184Y-3574287D02*
G01*
X5899150Y-3574287D01*
X5790184Y-3539997D02*
G01*
X5899150Y-3539997D01*
X5790184Y-3539997D02*
G01*
X5790184Y-3503676D01*
X5795263Y-3487928D01*
X5805677Y-3477513D01*
X5816091Y-3472434D01*
X5831840Y-3467100D01*
X5857747Y-3467100D01*
X5873241Y-3472434D01*
X5883656Y-3477513D01*
X5894070Y-3487928D01*
X5899150Y-3503676D01*
X5899150Y-3539997D01*
X4990983Y-3300867D02*
G01*
X4990983Y-3410087D01*
X4990983Y-3300867D02*
G01*
X5037973Y-3300867D01*
X5053467Y-3306201D01*
X5058547Y-3311281D01*
X5063881Y-3321695D01*
X5063881Y-3332109D01*
X5058547Y-3342523D01*
X5053467Y-3347603D01*
X5037973Y-3352937D01*
X4990983Y-3352937D02*
G01*
X5037973Y-3352937D01*
X5053467Y-3358017D01*
X5058547Y-3363351D01*
X5063881Y-3373765D01*
X5063881Y-3389259D01*
X5058547Y-3399673D01*
X5053467Y-3404753D01*
X5037973Y-3410087D01*
X4990983Y-3410087D01*
X5098171Y-3321695D02*
G01*
X5108585Y-3316615D01*
X5124079Y-3300867D01*
X5124079Y-3410087D01*
X4978400Y-3580384D02*
G01*
X4978400Y-3689350D01*
X4978400Y-3580384D02*
G01*
X5025136Y-3580384D01*
X5040629Y-3585463D01*
X5045963Y-3590797D01*
X5051043Y-3601212D01*
X5051043Y-3611626D01*
X5045963Y-3622039D01*
X5040629Y-3627120D01*
X5025136Y-3632200D01*
X4978400Y-3632200D02*
G01*
X5025136Y-3632200D01*
X5040629Y-3637534D01*
X5045963Y-3642613D01*
X5051043Y-3653028D01*
X5051043Y-3668776D01*
X5045963Y-3679189D01*
X5040629Y-3684270D01*
X5025136Y-3689350D01*
X4978400Y-3689350D01*
X5090668Y-3606292D02*
G01*
X5090668Y-3601212D01*
X5095747Y-3590797D01*
X5101081Y-3585463D01*
X5111495Y-3580384D01*
X5132070Y-3580384D01*
X5142484Y-3585463D01*
X5147818Y-3590797D01*
X5152897Y-3601212D01*
X5152897Y-3611626D01*
X5147818Y-3622039D01*
X5137404Y-3637534D01*
X5085334Y-3689350D01*
X5158231Y-3689350D01*
X4978400Y-3847084D02*
G01*
X4978400Y-3956050D01*
X4978400Y-3847084D02*
G01*
X5025136Y-3847084D01*
X5040629Y-3852163D01*
X5045963Y-3857497D01*
X5051043Y-3867912D01*
X5051043Y-3878326D01*
X5045963Y-3888739D01*
X5040629Y-3893820D01*
X5025136Y-3898900D01*
X4978400Y-3898900D02*
G01*
X5025136Y-3898900D01*
X5040629Y-3904234D01*
X5045963Y-3909313D01*
X5051043Y-3919728D01*
X5051043Y-3935476D01*
X5045963Y-3945889D01*
X5040629Y-3950970D01*
X5025136Y-3956050D01*
X4978400Y-3956050D01*
X5095747Y-3847084D02*
G01*
X5152897Y-3847084D01*
X5121909Y-3888739D01*
X5137404Y-3888739D01*
X5147818Y-3893820D01*
X5152897Y-3898900D01*
X5158231Y-3914647D01*
X5158231Y-3925062D01*
X5152897Y-3940555D01*
X5142484Y-3950970D01*
X5126990Y-3956050D01*
X5111495Y-3956050D01*
X5095747Y-3950970D01*
X5090668Y-3945889D01*
X5085334Y-3935476D01*
X7869936Y-2910078D02*
G01*
X7869936Y-3003550D01*
X7823200Y-2956813D02*
G01*
X7916672Y-2956813D01*
X7823200Y-3185413D02*
G01*
X7916672Y-3185413D01*
X7326896Y-3240278D02*
G01*
X7435862Y-3240278D01*
X7326896Y-3276600D02*
G01*
X7326896Y-3203955D01*
X7394460Y-3169665D02*
G01*
X7394460Y-3107181D01*
X7384046Y-3107181D01*
X7373632Y-3112515D01*
X7368298Y-3117595D01*
X7363218Y-3128010D01*
X7363218Y-3143504D01*
X7368298Y-3153918D01*
X7378712Y-3164331D01*
X7394460Y-3169665D01*
X7404874Y-3169665D01*
X7420368Y-3164331D01*
X7430782Y-3153918D01*
X7435862Y-3143504D01*
X7435862Y-3128010D01*
X7430782Y-3117595D01*
X7420368Y-3107181D01*
X7363218Y-3072892D02*
G01*
X7435862Y-3072892D01*
X7384046Y-3072892D02*
G01*
X7368298Y-3057397D01*
X7363218Y-3046984D01*
X7363218Y-3031489D01*
X7368298Y-3021076D01*
X7384046Y-3015742D01*
X7435862Y-3015742D01*
X7384046Y-3015742D02*
G01*
X7368298Y-3000247D01*
X7363218Y-2989834D01*
X7363218Y-2974339D01*
X7368298Y-2963926D01*
X7384046Y-2958592D01*
X7435862Y-2958592D01*
X7363218Y-2924302D02*
G01*
X7472438Y-2924302D01*
X7378712Y-2924302D02*
G01*
X7368298Y-2913887D01*
X7363218Y-2903473D01*
X7363218Y-2887979D01*
X7368298Y-2877565D01*
X7378712Y-2867152D01*
X7394460Y-2862071D01*
X7404874Y-2862071D01*
X7420368Y-2867152D01*
X7430782Y-2877565D01*
X7435862Y-2887979D01*
X7435862Y-2903473D01*
X7430782Y-2913887D01*
X7420368Y-2924302D01*
X7009384Y-1231795D02*
G01*
X7118350Y-1231795D01*
X7009384Y-1231795D02*
G01*
X7009384Y-1164485D01*
X7061200Y-1231795D02*
G01*
X7061200Y-1190393D01*
X7009384Y-1088539D02*
G01*
X7118350Y-1130195D01*
X7009384Y-1088539D02*
G01*
X7118350Y-1046883D01*
X7082027Y-1114447D02*
G01*
X7082027Y-1062631D01*
X7009384Y-1012593D02*
G01*
X7118350Y-1012593D01*
X7009384Y-1012593D02*
G01*
X7118350Y-939949D01*
X7009384Y-939949D02*
G01*
X7118350Y-939949D01*
X6983984Y-2336800D02*
G01*
X7092950Y-2336800D01*
X6983984Y-2264155D02*
G01*
X7092950Y-2264155D01*
X7035800Y-2336800D02*
G01*
X7035800Y-2264155D01*
X6983984Y-2229865D02*
G01*
X7092950Y-2229865D01*
X6983984Y-2229865D02*
G01*
X6983984Y-2162302D01*
X7035800Y-2229865D02*
G01*
X7035800Y-2188210D01*
X7092950Y-2229865D02*
G01*
X7092950Y-2162302D01*
X6983984Y-2086355D02*
G01*
X7092950Y-2128012D01*
X6983984Y-2086355D02*
G01*
X7092950Y-2044700D01*
X7056627Y-2112263D02*
G01*
X7056627Y-2060447D01*
X6983984Y-1974087D02*
G01*
X7092950Y-1974087D01*
X6983984Y-2010410D02*
G01*
X6983984Y-1937765D01*
X7164577Y-1261363D02*
G01*
X7258050Y-1261363D01*
X7211313Y-1308100D02*
G01*
X7211313Y-1214628D01*
X7211313Y-1015872D02*
G01*
X7211313Y-922401D01*
X7164577Y-2366263D02*
G01*
X7258050Y-2366263D01*
X7211313Y-2413000D02*
G01*
X7211313Y-2319528D01*
X7211313Y-2019416D02*
G01*
X7211313Y-1925690D01*
X1783842Y-214884D02*
G01*
X1773428Y-219963D01*
X1763013Y-230378D01*
X1757679Y-240792D01*
X1752600Y-256539D01*
X1752600Y-282447D01*
X1757679Y-297942D01*
X1763013Y-308355D01*
X1773428Y-318770D01*
X1783842Y-323850D01*
X1804670Y-323850D01*
X1814829Y-318770D01*
X1825244Y-308355D01*
X1830578Y-297942D01*
X1835657Y-282447D01*
X1835657Y-256539D01*
X1830578Y-240792D01*
X1825244Y-230378D01*
X1814829Y-219963D01*
X1804670Y-214884D01*
X1783842Y-214884D01*
X1869947Y-214884D02*
G01*
X1869947Y-323850D01*
X1869947Y-214884D02*
G01*
X1942845Y-323850D01*
X1942845Y-214884D02*
G01*
X1942845Y-323850D01*
X2070608Y-194055D02*
G01*
X1977136Y-360426D01*
X2136140Y-214884D02*
G01*
X2125725Y-219963D01*
X2115311Y-230378D01*
X2109977Y-240792D01*
X2104897Y-256539D01*
X2104897Y-282447D01*
X2109977Y-297942D01*
X2115311Y-308355D01*
X2125725Y-318770D01*
X2136140Y-323850D01*
X2156713Y-323850D01*
X2167127Y-318770D01*
X2177541Y-308355D01*
X2182875Y-297942D01*
X2187956Y-282447D01*
X2187956Y-256539D01*
X2182875Y-240792D01*
X2177541Y-230378D01*
X2167127Y-219963D01*
X2156713Y-214884D01*
X2136140Y-214884D01*
X2222245Y-214884D02*
G01*
X2222245Y-323850D01*
X2222245Y-214884D02*
G01*
X2289809Y-214884D01*
X2222245Y-266700D02*
G01*
X2263902Y-266700D01*
X2324100Y-214884D02*
G01*
X2324100Y-323850D01*
X2324100Y-214884D02*
G01*
X2391663Y-214884D01*
X2324100Y-266700D02*
G01*
X2365756Y-266700D01*
X890653Y-507616D02*
G01*
X885573Y-497202D01*
X875159Y-486788D01*
X864745Y-481454D01*
X843917Y-481454D01*
X833503Y-486788D01*
X823089Y-497202D01*
X818009Y-507616D01*
X812675Y-523110D01*
X812675Y-549018D01*
X818009Y-564766D01*
X823089Y-575180D01*
X833503Y-585594D01*
X843917Y-590674D01*
X864745Y-590674D01*
X875159Y-585594D01*
X885573Y-575180D01*
X890653Y-564766D01*
X890653Y-549018D01*
X864745Y-549018D02*
G01*
X890653Y-549018D01*
X924943Y-481454D02*
G01*
X924943Y-590674D01*
X924943Y-481454D02*
G01*
X997841Y-590674D01*
X997841Y-481454D02*
G01*
X997841Y-590674D01*
X1032131Y-481454D02*
G01*
X1032131Y-590674D01*
X1032131Y-481454D02*
G01*
X1068453Y-481454D01*
X1083947Y-486788D01*
X1094361Y-497202D01*
X1099695Y-507616D01*
X1104775Y-523110D01*
X1104775Y-549018D01*
X1099695Y-564766D01*
X1094361Y-575180D01*
X1083947Y-585594D01*
X1068453Y-590674D01*
X1032131Y-590674D01*
X872238Y-789175D02*
G01*
X872238Y-882647D01*
X825502Y-835911D02*
G01*
X918974Y-835911D01*
X76200Y-1116584D02*
G01*
X76200Y-1225550D01*
X76200Y-1116584D02*
G01*
X117855Y-1225550D01*
X159257Y-1116584D02*
G01*
X117855Y-1225550D01*
X159257Y-1116584D02*
G01*
X159257Y-1225550D01*
X235204Y-1116584D02*
G01*
X193547Y-1225550D01*
X235204Y-1116584D02*
G01*
X276860Y-1225550D01*
X209295Y-1189228D02*
G01*
X261112Y-1189228D01*
X311150Y-1116584D02*
G01*
X311150Y-1225550D01*
X345439Y-1116584D02*
G01*
X345439Y-1225550D01*
X345439Y-1116584D02*
G01*
X418084Y-1225550D01*
X418084Y-1116584D02*
G01*
X418084Y-1225550D01*
X532384Y-1116584D02*
G01*
X532384Y-1225550D01*
X566673Y-1116584D02*
G01*
X566673Y-1225550D01*
X566673Y-1116584D02*
G01*
X639318Y-1225550D01*
X639318Y-1116584D02*
G01*
X639318Y-1225550D01*
X673607Y-1116584D02*
G01*
X673607Y-1225550D01*
X673607Y-1116584D02*
G01*
X720344Y-1116584D01*
X736092Y-1121663D01*
X741171Y-1126997D01*
X746505Y-1137412D01*
X746505Y-1152905D01*
X741171Y-1163320D01*
X736092Y-1168400D01*
X720344Y-1173734D01*
X673607Y-1173734D01*
X780795Y-1116584D02*
G01*
X780795Y-1194562D01*
X785876Y-1210055D01*
X796289Y-1220470D01*
X811784Y-1225550D01*
X822197Y-1225550D01*
X837945Y-1220470D01*
X848360Y-1210055D01*
X853439Y-1194562D01*
X853439Y-1116584D01*
X924052Y-1116584D02*
G01*
X924052Y-1225550D01*
X887729Y-1116584D02*
G01*
X960373Y-1116584D01*
X5575401Y-4761484D02*
G01*
X5575401Y-4870450D01*
X5575401Y-4761484D02*
G01*
X5622137Y-4761484D01*
X5637631Y-4766563D01*
X5642965Y-4771897D01*
X5648045Y-4782312D01*
X5648045Y-4792726D01*
X5642965Y-4803139D01*
X5637631Y-4808220D01*
X5622137Y-4813300D01*
X5575401Y-4813300D01*
X5611723Y-4813300D02*
G01*
X5648045Y-4870450D01*
X5708243Y-4797805D02*
G01*
X5697829Y-4803139D01*
X5687415Y-4813300D01*
X5682335Y-4829047D01*
X5682335Y-4839462D01*
X5687415Y-4854955D01*
X5697829Y-4865370D01*
X5708243Y-4870450D01*
X5723991Y-4870450D01*
X5734405Y-4865370D01*
X5744565Y-4854955D01*
X5749899Y-4839462D01*
X5749899Y-4829047D01*
X5744565Y-4813300D01*
X5734405Y-4803139D01*
X5723991Y-4797805D01*
X5708243Y-4797805D01*
X5799683Y-4761484D02*
G01*
X5799683Y-4849876D01*
X5805017Y-4865370D01*
X5815431Y-4870450D01*
X5825845Y-4870450D01*
X5784189Y-4797805D02*
G01*
X5820511Y-4797805D01*
X5922365Y-4797805D02*
G01*
X5922365Y-4870450D01*
X5922365Y-4813300D02*
G01*
X5911951Y-4803139D01*
X5901537Y-4797805D01*
X5886043Y-4797805D01*
X5875629Y-4803139D01*
X5865215Y-4813300D01*
X5860135Y-4829047D01*
X5860135Y-4839462D01*
X5865215Y-4854955D01*
X5875629Y-4865370D01*
X5886043Y-4870450D01*
X5901537Y-4870450D01*
X5911951Y-4865370D01*
X5922365Y-4854955D01*
X5956655Y-4797805D02*
G01*
X5956655Y-4870450D01*
X5956655Y-4829047D02*
G01*
X5961735Y-4813300D01*
X5972149Y-4803139D01*
X5982563Y-4797805D01*
X5998311Y-4797805D01*
X6037681Y-4797805D02*
G01*
X6068923Y-4870450D01*
X6100165Y-4797805D02*
G01*
X6068923Y-4870450D01*
X6058509Y-4891278D01*
X6048095Y-4901692D01*
X6037681Y-4907026D01*
X6032601Y-4907026D01*
X6845401Y-4761484D02*
G01*
X6845401Y-4870450D01*
X6845401Y-4761484D02*
G01*
X6881723Y-4761484D01*
X6897217Y-4766563D01*
X6907631Y-4776978D01*
X6912965Y-4787392D01*
X6918045Y-4803139D01*
X6918045Y-4829047D01*
X6912965Y-4844542D01*
X6907631Y-4854955D01*
X6897217Y-4865370D01*
X6881723Y-4870450D01*
X6845401Y-4870450D01*
X6952335Y-4761484D02*
G01*
X6952335Y-4870450D01*
X7059269Y-4776978D02*
G01*
X7048855Y-4766563D01*
X7033361Y-4761484D01*
X7012533Y-4761484D01*
X6997039Y-4766563D01*
X6986625Y-4776978D01*
X6986625Y-4787392D01*
X6991705Y-4797805D01*
X6997039Y-4803139D01*
X7007453Y-4808220D01*
X7038695Y-4818634D01*
X7048855Y-4823713D01*
X7054189Y-4829047D01*
X7059269Y-4839462D01*
X7059269Y-4854955D01*
X7048855Y-4865370D01*
X7033361Y-4870450D01*
X7012533Y-4870450D01*
X6997039Y-4865370D01*
X6986625Y-4854955D01*
X7093559Y-4761484D02*
G01*
X7093559Y-4870450D01*
X7093559Y-4761484D02*
G01*
X7140295Y-4761484D01*
X7156043Y-4766563D01*
X7161123Y-4771897D01*
X7166457Y-4782312D01*
X7166457Y-4797805D01*
X7161123Y-4808220D01*
X7156043Y-4813300D01*
X7140295Y-4818634D01*
X7093559Y-4818634D01*
X7200747Y-4761484D02*
G01*
X7200747Y-4870450D01*
X7200747Y-4870450D02*
G01*
X7262977Y-4870450D01*
X7338923Y-4761484D02*
G01*
X7297267Y-4870450D01*
X7338923Y-4761484D02*
G01*
X7380325Y-4870450D01*
X7313015Y-4834128D02*
G01*
X7364831Y-4834128D01*
X7414615Y-4761484D02*
G01*
X7456271Y-4813300D01*
X7456271Y-4870450D01*
X7497927Y-4761484D02*
G01*
X7456271Y-4813300D01*
D11*
X2717800Y-105155D02*
G01*
X2717800Y-258063D01*
X2717800Y-105155D02*
G01*
X2812288Y-105155D01*
X2717800Y-178054D02*
G01*
X2775965Y-178054D01*
X2717800Y-258063D02*
G01*
X2812288Y-258063D01*
X2860293Y-105155D02*
G01*
X2860293Y-258063D01*
X2860293Y-258063D02*
G01*
X2947670Y-258063D01*
X2995675Y-105155D02*
G01*
X2995675Y-258063D01*
X2995675Y-105155D02*
G01*
X3090163Y-105155D01*
X2995675Y-178054D02*
G01*
X3053841Y-178054D01*
X2995675Y-258063D02*
G01*
X3090163Y-258063D01*
X3247136Y-141731D02*
G01*
X3240024Y-127000D01*
X3225545Y-112521D01*
X3210813Y-105155D01*
X3181858Y-105155D01*
X3167379Y-112521D01*
X3152647Y-127000D01*
X3145536Y-141731D01*
X3138170Y-163321D01*
X3138170Y-199897D01*
X3145536Y-221487D01*
X3152647Y-236220D01*
X3167379Y-250697D01*
X3181858Y-258063D01*
X3210813Y-258063D01*
X3225545Y-250697D01*
X3240024Y-236220D01*
X3247136Y-221487D01*
X3346195Y-105155D02*
G01*
X3346195Y-258063D01*
X3295141Y-105155D02*
G01*
X3396995Y-105155D01*
X3445002Y-105155D02*
G01*
X3445002Y-258063D01*
X3445002Y-105155D02*
G01*
X3510534Y-105155D01*
X3532377Y-112521D01*
X3539743Y-119887D01*
X3546856Y-134365D01*
X3546856Y-148844D01*
X3539743Y-163321D01*
X3532377Y-170687D01*
X3510534Y-178054D01*
X3445002Y-178054D01*
X3496056Y-178054D02*
G01*
X3546856Y-258063D01*
X3638550Y-105155D02*
G01*
X3624072Y-112521D01*
X3609340Y-127000D01*
X3602227Y-141731D01*
X3594861Y-163321D01*
X3594861Y-199897D01*
X3602227Y-221487D01*
X3609340Y-236220D01*
X3624072Y-250697D01*
X3638550Y-258063D01*
X3667506Y-258063D01*
X3682238Y-250697D01*
X3696715Y-236220D01*
X3704081Y-221487D01*
X3711193Y-199897D01*
X3711193Y-163321D01*
X3704081Y-141731D01*
X3696715Y-127000D01*
X3682238Y-112521D01*
X3667506Y-105155D01*
X3638550Y-105155D01*
X3759200Y-105155D02*
G01*
X3759200Y-258063D01*
X3759200Y-105155D02*
G01*
X3861054Y-258063D01*
X3861054Y-105155D02*
G01*
X3861054Y-258063D01*
X3952747Y-105155D02*
G01*
X3938270Y-112521D01*
X3923538Y-127000D01*
X3916425Y-141731D01*
X3909059Y-163321D01*
X3909059Y-199897D01*
X3916425Y-221487D01*
X3923538Y-236220D01*
X3938270Y-250697D01*
X3952747Y-258063D01*
X3981704Y-258063D01*
X3996436Y-250697D01*
X4010913Y-236220D01*
X4018279Y-221487D01*
X4025391Y-199897D01*
X4025391Y-163321D01*
X4018279Y-141731D01*
X4010913Y-127000D01*
X3996436Y-112521D01*
X3981704Y-105155D01*
X3952747Y-105155D01*
X4117086Y-105155D02*
G01*
X4102608Y-112521D01*
X4087875Y-127000D01*
X4080763Y-141731D01*
X4073397Y-163321D01*
X4073397Y-199897D01*
X4080763Y-221487D01*
X4087875Y-236220D01*
X4102608Y-250697D01*
X4117086Y-258063D01*
X4146041Y-258063D01*
X4160774Y-250697D01*
X4175252Y-236220D01*
X4182618Y-221487D01*
X4189729Y-199897D01*
X4189729Y-163321D01*
X4182618Y-141731D01*
X4175252Y-127000D01*
X4160774Y-112521D01*
X4146041Y-105155D01*
X4117086Y-105155D01*
X4237736Y-105155D02*
G01*
X4237736Y-258063D01*
X4237736Y-105155D02*
G01*
X4303268Y-105155D01*
X4325111Y-112521D01*
X4332224Y-119887D01*
X4339590Y-134365D01*
X4339590Y-148844D01*
X4332224Y-163321D01*
X4325111Y-170687D01*
X4303268Y-178054D01*
X4237736Y-178054D02*
G01*
X4303268Y-178054D01*
X4325111Y-185165D01*
X4332224Y-192531D01*
X4339590Y-207010D01*
X4339590Y-228854D01*
X4332224Y-243331D01*
X4325111Y-250697D01*
X4303268Y-258063D01*
X4237736Y-258063D01*
X4489450Y-127000D02*
G01*
X4474972Y-112521D01*
X4453127Y-105155D01*
X4423918Y-105155D01*
X4402074Y-112521D01*
X4387595Y-127000D01*
X4387595Y-141731D01*
X4394961Y-156210D01*
X4402074Y-163321D01*
X4416806Y-170687D01*
X4460240Y-185165D01*
X4474972Y-192531D01*
X4482084Y-199897D01*
X4489450Y-214376D01*
X4489450Y-236220D01*
X4474972Y-250697D01*
X4453127Y-258063D01*
X4423918Y-258063D01*
X4402074Y-250697D01*
X4387595Y-236220D01*
X4544822Y-221487D02*
G01*
X4537456Y-228854D01*
X4544822Y-236220D01*
X4551934Y-228854D01*
X4544822Y-221487D01*
X4709159Y-141731D02*
G01*
X4701793Y-127000D01*
X4687315Y-112521D01*
X4672584Y-105155D01*
X4643627Y-105155D01*
X4629150Y-112521D01*
X4614418Y-127000D01*
X4607306Y-141731D01*
X4599940Y-163321D01*
X4599940Y-199897D01*
X4607306Y-221487D01*
X4614418Y-236220D01*
X4629150Y-250697D01*
X4643627Y-258063D01*
X4672584Y-258063D01*
X4687315Y-250697D01*
X4701793Y-236220D01*
X4709159Y-221487D01*
X4800600Y-105155D02*
G01*
X4786122Y-112521D01*
X4771643Y-127000D01*
X4764277Y-141731D01*
X4757165Y-163321D01*
X4757165Y-199897D01*
X4764277Y-221487D01*
X4771643Y-236220D01*
X4786122Y-250697D01*
X4800600Y-258063D01*
X4829809Y-258063D01*
X4844288Y-250697D01*
X4858765Y-236220D01*
X4866131Y-221487D01*
X4873497Y-199897D01*
X4873497Y-163321D01*
X4866131Y-141731D01*
X4858765Y-127000D01*
X4844288Y-112521D01*
X4829809Y-105155D01*
X4800600Y-105155D01*
X4921504Y-105155D02*
G01*
X4921504Y-258063D01*
X4921504Y-105155D02*
G01*
X4979670Y-258063D01*
X5037836Y-105155D02*
G01*
X4979670Y-258063D01*
X5037836Y-105155D02*
G01*
X5037836Y-258063D01*
D10*
X6593077Y-2488692D02*
G01*
X6587743Y-2478278D01*
X6577329Y-2467863D01*
X6567170Y-2462784D01*
X6546341Y-2462784D01*
X6535927Y-2467863D01*
X6525513Y-2478278D01*
X6520179Y-2488692D01*
X6515100Y-2504439D01*
X6515100Y-2530347D01*
X6520179Y-2545842D01*
X6525513Y-2556255D01*
X6535927Y-2566670D01*
X6546341Y-2571750D01*
X6567170Y-2571750D01*
X6577329Y-2566670D01*
X6587743Y-2556255D01*
X6593077Y-2545842D01*
X6627368Y-2483612D02*
G01*
X6637781Y-2478278D01*
X6653275Y-2462784D01*
X6653275Y-2571750D01*
X1830578Y-672592D02*
G01*
X1825244Y-662178D01*
X1814829Y-651763D01*
X1804670Y-646684D01*
X1783842Y-646684D01*
X1773428Y-651763D01*
X1763013Y-662178D01*
X1757679Y-672592D01*
X1752600Y-688339D01*
X1752600Y-714247D01*
X1757679Y-729742D01*
X1763013Y-740155D01*
X1773428Y-750570D01*
X1783842Y-755650D01*
X1804670Y-755650D01*
X1814829Y-750570D01*
X1825244Y-740155D01*
X1830578Y-729742D01*
X1869947Y-672592D02*
G01*
X1869947Y-667512D01*
X1875281Y-657097D01*
X1880362Y-651763D01*
X1890776Y-646684D01*
X1911604Y-646684D01*
X1922018Y-651763D01*
X1927097Y-657097D01*
X1932431Y-667512D01*
X1932431Y-677926D01*
X1927097Y-688339D01*
X1916684Y-703834D01*
X1864868Y-755650D01*
X1937511Y-755650D01*
X2681477Y-672592D02*
G01*
X2676143Y-662178D01*
X2665729Y-651763D01*
X2655570Y-646684D01*
X2634741Y-646684D01*
X2624327Y-651763D01*
X2613913Y-662178D01*
X2608579Y-672592D01*
X2603500Y-688339D01*
X2603500Y-714247D01*
X2608579Y-729742D01*
X2613913Y-740155D01*
X2624327Y-750570D01*
X2634741Y-755650D01*
X2655570Y-755650D01*
X2665729Y-750570D01*
X2676143Y-740155D01*
X2681477Y-729742D01*
X2726181Y-646684D02*
G01*
X2783331Y-646684D01*
X2752090Y-688339D01*
X2767584Y-688339D01*
X2777997Y-693420D01*
X2783331Y-698500D01*
X2788411Y-714247D01*
X2788411Y-724662D01*
X2783331Y-740155D01*
X2772918Y-750570D01*
X2757170Y-755650D01*
X2741675Y-755650D01*
X2726181Y-750570D01*
X2720847Y-745489D01*
X2715768Y-735076D01*
D12*
X3859275Y-4635500D02*
G01*
X3980434Y-4635500D01*
X4004563Y-4627371D01*
X4020820Y-4611370D01*
X4028947Y-4586986D01*
X4028947Y-4570729D01*
X4020820Y-4546600D01*
X4004563Y-4530344D01*
X3980434Y-4522470D01*
X3859275Y-4522470D01*
X3883406Y-4355845D02*
G01*
X3867150Y-4372102D01*
X3859275Y-4396231D01*
X3859275Y-4428489D01*
X3867150Y-4452873D01*
X3883406Y-4469129D01*
X3899661Y-4469129D01*
X3915663Y-4461002D01*
X3923791Y-4452873D01*
X3931920Y-4436618D01*
X3948175Y-4388104D01*
X3956050Y-4372102D01*
X3964177Y-4363973D01*
X3980434Y-4355845D01*
X4004563Y-4355845D01*
X4020820Y-4372102D01*
X4028947Y-4396231D01*
X4028947Y-4428489D01*
X4020820Y-4452873D01*
X4004563Y-4469129D01*
X3859275Y-4302505D02*
G01*
X4028947Y-4302505D01*
X3859275Y-4302505D02*
G01*
X3859275Y-4229862D01*
X3867150Y-4205478D01*
X3875277Y-4197350D01*
X3891534Y-4189476D01*
X3907790Y-4189476D01*
X3923791Y-4197350D01*
X3931920Y-4205478D01*
X3940047Y-4229862D01*
X3940047Y-4302505D02*
G01*
X3940047Y-4229862D01*
X3948175Y-4205478D01*
X3956050Y-4197350D01*
X3972306Y-4189476D01*
X3996690Y-4189476D01*
X4012691Y-4197350D01*
X4020820Y-4205478D01*
X4028947Y-4229862D01*
X4028947Y-4302505D01*
D13*
X4229100Y-2160015D02*
G01*
X4229100Y-2062987D01*
X4229100Y-2160015D02*
G01*
X4187443Y-2160015D01*
X4173727Y-2155189D01*
X4169156Y-2150618D01*
X4164329Y-2141473D01*
X4164329Y-2132329D01*
X4169156Y-2122931D01*
X4173727Y-2118360D01*
X4187443Y-2113787D01*
X4229100Y-2113787D01*
X4196841Y-2113787D02*
G01*
X4164329Y-2062987D01*
X4133850Y-2160015D02*
G01*
X4133850Y-2062987D01*
X4133850Y-2160015D02*
G01*
X4073906Y-2160015D01*
X4133850Y-2113787D02*
G01*
X4097020Y-2113787D01*
X4133850Y-2062987D02*
G01*
X4073906Y-2062987D01*
X3978909Y-2146045D02*
G01*
X3988054Y-2155189D01*
X4001770Y-2160015D01*
X4020311Y-2160015D01*
X4034281Y-2155189D01*
X4043425Y-2146045D01*
X4043425Y-2136902D01*
X4038854Y-2127504D01*
X4034281Y-2122931D01*
X4024884Y-2118360D01*
X3997197Y-2109215D01*
X3988054Y-2104389D01*
X3983481Y-2099818D01*
X3978909Y-2090673D01*
X3978909Y-2076704D01*
X3988054Y-2067560D01*
X4001770Y-2062987D01*
X4020311Y-2062987D01*
X4034281Y-2067560D01*
X4043425Y-2076704D01*
X3948429Y-2160015D02*
G01*
X3948429Y-2062987D01*
X3948429Y-2160015D02*
G01*
X3888231Y-2160015D01*
X3948429Y-2113787D02*
G01*
X3911345Y-2113787D01*
X3948429Y-2062987D02*
G01*
X3888231Y-2062987D01*
X3825493Y-2160015D02*
G01*
X3825493Y-2062987D01*
X3857752Y-2160015D02*
G01*
X3793236Y-2160015D01*
D10*
X5892800Y-2754884D02*
G01*
X5892800Y-2863850D01*
X5892800Y-2754884D02*
G01*
X5939536Y-2754884D01*
X5955029Y-2759963D01*
X5960363Y-2765297D01*
X5965443Y-2775712D01*
X5965443Y-2786126D01*
X5960363Y-2796539D01*
X5955029Y-2801620D01*
X5939536Y-2806700D01*
X5892800Y-2806700D01*
X5929122Y-2806700D02*
G01*
X5965443Y-2863850D01*
X5999734Y-2775712D02*
G01*
X6010147Y-2770378D01*
X6025895Y-2754884D01*
X6025895Y-2863850D01*
X2197100Y-4405884D02*
G01*
X2197100Y-4514850D01*
X2197100Y-4405884D02*
G01*
X2243836Y-4405884D01*
X2259329Y-4410963D01*
X2264663Y-4416297D01*
X2269743Y-4426712D01*
X2269743Y-4437126D01*
X2264663Y-4447539D01*
X2259329Y-4452620D01*
X2243836Y-4457700D01*
X2197100Y-4457700D01*
X2233422Y-4457700D02*
G01*
X2269743Y-4514850D01*
X2309368Y-4431792D02*
G01*
X2309368Y-4426712D01*
X2314447Y-4416297D01*
X2319781Y-4410963D01*
X2330195Y-4405884D01*
X2350770Y-4405884D01*
X2361184Y-4410963D01*
X2366518Y-4416297D01*
X2371597Y-4426712D01*
X2371597Y-4437126D01*
X2366518Y-4447539D01*
X2356104Y-4463034D01*
X2304034Y-4514850D01*
X2376931Y-4514850D01*
X5664200Y-1878584D02*
G01*
X5664200Y-1987550D01*
X5664200Y-1878584D02*
G01*
X5710936Y-1878584D01*
X5726429Y-1883663D01*
X5731763Y-1888997D01*
X5736843Y-1899412D01*
X5736843Y-1909826D01*
X5731763Y-1920239D01*
X5726429Y-1925320D01*
X5710936Y-1930400D01*
X5664200Y-1930400D01*
X5700522Y-1930400D02*
G01*
X5736843Y-1987550D01*
X5781547Y-1878584D02*
G01*
X5838697Y-1878584D01*
X5807709Y-1920239D01*
X5823204Y-1920239D01*
X5833618Y-1925320D01*
X5838697Y-1930400D01*
X5844031Y-1946147D01*
X5844031Y-1956562D01*
X5838697Y-1972055D01*
X5828284Y-1982470D01*
X5812790Y-1987550D01*
X5797295Y-1987550D01*
X5781547Y-1982470D01*
X5776468Y-1977389D01*
X5771134Y-1966976D01*
X5676900Y-2208784D02*
G01*
X5676900Y-2317750D01*
X5676900Y-2208784D02*
G01*
X5723636Y-2208784D01*
X5739129Y-2213863D01*
X5744463Y-2219197D01*
X5749543Y-2229612D01*
X5749543Y-2240026D01*
X5744463Y-2250439D01*
X5739129Y-2255520D01*
X5723636Y-2260600D01*
X5676900Y-2260600D01*
X5713222Y-2260600D02*
G01*
X5749543Y-2317750D01*
X5835904Y-2208784D02*
G01*
X5783834Y-2281428D01*
X5861811Y-2281428D01*
X5835904Y-2208784D02*
G01*
X5835904Y-2317750D01*
X6680200Y-3262884D02*
G01*
X6680200Y-3371850D01*
X6680200Y-3262884D02*
G01*
X6726936Y-3262884D01*
X6742429Y-3267963D01*
X6747763Y-3273297D01*
X6752843Y-3283712D01*
X6752843Y-3294126D01*
X6747763Y-3304539D01*
X6742429Y-3309620D01*
X6726936Y-3314700D01*
X6680200Y-3314700D01*
X6716522Y-3314700D02*
G01*
X6752843Y-3371850D01*
X6849618Y-3262884D02*
G01*
X6797547Y-3262884D01*
X6792468Y-3309620D01*
X6797547Y-3304539D01*
X6813295Y-3299205D01*
X6828790Y-3299205D01*
X6844284Y-3304539D01*
X6854697Y-3314700D01*
X6860031Y-3330447D01*
X6860031Y-3340862D01*
X6854697Y-3356355D01*
X6844284Y-3366770D01*
X6828790Y-3371850D01*
X6813295Y-3371850D01*
X6797547Y-3366770D01*
X6792468Y-3361689D01*
X6787134Y-3351276D01*
X6680200Y-3580384D02*
G01*
X6680200Y-3689350D01*
X6680200Y-3580384D02*
G01*
X6726936Y-3580384D01*
X6742429Y-3585463D01*
X6747763Y-3590797D01*
X6752843Y-3601212D01*
X6752843Y-3611626D01*
X6747763Y-3622039D01*
X6742429Y-3627120D01*
X6726936Y-3632200D01*
X6680200Y-3632200D01*
X6716522Y-3632200D02*
G01*
X6752843Y-3689350D01*
X6849618Y-3595878D02*
G01*
X6844284Y-3585463D01*
X6828790Y-3580384D01*
X6818375Y-3580384D01*
X6802881Y-3585463D01*
X6792468Y-3601212D01*
X6787134Y-3627120D01*
X6787134Y-3653028D01*
X6792468Y-3673855D01*
X6802881Y-3684270D01*
X6818375Y-3689350D01*
X6823709Y-3689350D01*
X6839204Y-3684270D01*
X6849618Y-3673855D01*
X6854697Y-3658362D01*
X6854697Y-3653028D01*
X6849618Y-3637534D01*
X6839204Y-3627120D01*
X6823709Y-3622039D01*
X6818375Y-3622039D01*
X6802881Y-3627120D01*
X6792468Y-3637534D01*
X6787134Y-3653028D01*
X6667500Y-3910584D02*
G01*
X6667500Y-4019550D01*
X6667500Y-3910584D02*
G01*
X6714236Y-3910584D01*
X6729729Y-3915663D01*
X6735063Y-3920997D01*
X6740143Y-3931412D01*
X6740143Y-3941826D01*
X6735063Y-3952239D01*
X6729729Y-3957320D01*
X6714236Y-3962400D01*
X6667500Y-3962400D01*
X6703822Y-3962400D02*
G01*
X6740143Y-4019550D01*
X6847331Y-3910584D02*
G01*
X6795261Y-4019550D01*
X6774434Y-3910584D02*
G01*
X6847331Y-3910584D01*
X5664200Y-1573784D02*
G01*
X5664200Y-1682750D01*
X5664200Y-1573784D02*
G01*
X5710936Y-1573784D01*
X5726429Y-1578863D01*
X5731763Y-1584197D01*
X5736843Y-1594612D01*
X5736843Y-1605026D01*
X5731763Y-1615439D01*
X5726429Y-1620520D01*
X5710936Y-1625600D01*
X5664200Y-1625600D01*
X5700522Y-1625600D02*
G01*
X5736843Y-1682750D01*
X5838697Y-1610105D02*
G01*
X5833618Y-1625600D01*
X5823204Y-1636013D01*
X5807709Y-1641347D01*
X5802375Y-1641347D01*
X5786881Y-1636013D01*
X5776468Y-1625600D01*
X5771134Y-1610105D01*
X5771134Y-1605026D01*
X5776468Y-1589278D01*
X5786881Y-1578863D01*
X5802375Y-1573784D01*
X5807709Y-1573784D01*
X5823204Y-1578863D01*
X5833618Y-1589278D01*
X5838697Y-1610105D01*
X5838697Y-1636013D01*
X5833618Y-1662176D01*
X5823204Y-1677670D01*
X5807709Y-1682750D01*
X5797295Y-1682750D01*
X5781547Y-1677670D01*
X5776468Y-1667255D01*
G36*
X6725310Y-2865069D02*
G01*
X6734657Y-2872943D01*
X6744563Y-2880106D01*
X6754926Y-2886608D01*
X6765696Y-2892399D01*
X6771182Y-2895041D01*
X6782511Y-2899664D01*
X6794093Y-2903575D01*
X6805930Y-2906623D01*
X6811873Y-2907893D01*
X6823964Y-2909722D01*
X6836156Y-2910789D01*
X6848348Y-2910992D01*
X6860540Y-2910382D01*
X6872681Y-2908909D01*
X6878726Y-2907893D01*
X6890664Y-2905201D01*
X6902348Y-2901696D01*
X6913778Y-2897428D01*
X6919417Y-2895041D01*
X6930390Y-2889605D01*
X6940905Y-2883458D01*
X6951065Y-2876600D01*
X6960666Y-2869082D01*
X6965289Y-2865120D01*
G37*
G36*
X1173175Y-1341780D02*
G01*
X1187196Y-1354531D01*
X1201674Y-1366672D01*
X1216710Y-1378153D01*
X1232255Y-1388973D01*
X1248206Y-1399082D01*
X1264615Y-1408531D01*
X1281430Y-1417218D01*
X1298549Y-1425194D01*
X1316024Y-1432407D01*
X1333804Y-1438859D01*
X1351889Y-1444548D01*
X1370126Y-1449425D01*
X1388618Y-1453489D01*
X1407261Y-1456791D01*
X1426006Y-1459230D01*
X1444853Y-1460855D01*
X1463751Y-1461719D01*
X1482648Y-1461719D01*
X1501546Y-1460855D01*
X1520393Y-1459230D01*
X1539138Y-1456791D01*
X1557782Y-1453489D01*
X1576273Y-1449425D01*
X1594510Y-1444548D01*
X1612595Y-1438859D01*
X1630375Y-1432407D01*
X1647850Y-1425194D01*
X1664970Y-1417218D01*
X1681784Y-1408531D01*
X1698193Y-1399082D01*
X1714144Y-1388973D01*
X1729689Y-1378153D01*
X1744725Y-1366672D01*
X1759204Y-1354531D01*
X1773224Y-1341780D01*
G37*
G36*
X2036825Y-1341780D02*
G01*
X2050796Y-1354531D01*
X2065274Y-1366672D01*
X2080310Y-1378153D01*
X2095855Y-1388973D01*
X2111806Y-1399082D01*
X2128215Y-1408531D01*
X2145030Y-1417218D01*
X2162149Y-1425194D01*
X2179624Y-1432407D01*
X2197404Y-1438859D01*
X2215489Y-1444548D01*
X2233726Y-1449425D01*
X2252218Y-1453489D01*
X2270861Y-1456791D01*
X2289606Y-1459230D01*
X2308453Y-1460855D01*
X2327351Y-1461719D01*
X2346248Y-1461719D01*
X2365146Y-1460855D01*
X2383993Y-1459230D01*
X2402738Y-1456791D01*
X2421382Y-1453489D01*
X2439873Y-1449425D01*
X2458110Y-1444548D01*
X2476195Y-1438859D01*
X2493975Y-1432407D01*
X2511450Y-1425194D01*
X2528570Y-1417218D01*
X2545384Y-1408531D01*
X2561793Y-1399082D01*
X2577744Y-1388973D01*
X2593289Y-1378153D01*
X2608326Y-1366672D01*
X2622804Y-1354531D01*
X2636774Y-1341780D01*
G37*
G36*
X6741261Y-1630426D02*
G01*
X6671259Y-1640433D01*
X6581241Y-1740458D01*
X6891274Y-1740458D01*
X6841286Y-1650441D01*
G37*
G36*
X6753961Y-754126D02*
G01*
X6683959Y-764133D01*
X6593941Y-864158D01*
X6903974Y-864158D01*
X6853986Y-774141D01*
G37*
D14*
X165100Y-381000D02*
G01*
X177800Y-393700D01*
X749300Y-393700D01*
X736600Y-406400D01*
X736600Y-673100D01*
D15*
X5727700Y-3238500D02*
G01*
X5727700Y-4013200D01*
D16*
X6965299Y-2685100D02*
G01*
X6965299Y-2601280D01*
X6927199Y-2644460D02*
G01*
X7005939Y-2644460D01*
X1593199Y-846800D02*
G01*
X1593199Y-722340D01*
X1525889Y-784570D02*
G01*
X1660509Y-784570D01*
X2456799Y-846800D02*
G01*
X2456799Y-722340D01*
X2389489Y-784570D02*
G01*
X2524109Y-784570D01*
D17*
X254000Y-2324100D02*
G01*
X508000Y-2324100D01*
X508000Y-3340100D01*
X254000Y-3340100D01*
X254000Y-3149600D01*
D18*
X254000Y-2324100D02*
G01*
X254000Y-3149600D01*
D17*
X1689100Y-139700D02*
G01*
X1689100Y-391160D01*
X1181100Y-391160D01*
X1181100Y-139700D01*
X1689100Y-139700D01*
X5689600Y-3238500D02*
G01*
X5689600Y-3489960D01*
X5181600Y-3489960D01*
X5181600Y-3238500D01*
X5689600Y-3238500D01*
X5689600Y-3505200D02*
G01*
X5689600Y-3756660D01*
X5181600Y-3756660D01*
X5181600Y-3505200D01*
X5689600Y-3505200D01*
X5689600Y-3771900D02*
G01*
X5689600Y-4023360D01*
X5181600Y-4023360D01*
X5181600Y-3771900D01*
X5689600Y-3771900D01*
X5384800Y-4432300D02*
G01*
X5194300Y-4432300D01*
X5194300Y-4686300D01*
X6464300Y-4686300D01*
X6464300Y-4432300D01*
D18*
X6464300Y-4432300D02*
G01*
X5384800Y-4432300D01*
D16*
X2603500Y-3975100D02*
G01*
X800100Y-3975100D01*
X800100Y-1689100D01*
X2603500Y-1689100D01*
X2603500Y-3975100D01*
D18*
X7518400Y-2794000D02*
G01*
X7518400Y-3111500D01*
D17*
X7518400Y-2794000D02*
G01*
X7772400Y-2794000D01*
X7772400Y-3302000D01*
X7518400Y-3302000D01*
X7518400Y-3111500D01*
X977900Y-4178300D02*
G01*
X787400Y-4178300D01*
X787400Y-4432300D01*
X1549400Y-4432300D01*
X1549400Y-4178300D01*
D18*
X1549400Y-4178300D02*
G01*
X977900Y-4178300D01*
D17*
X977900Y-4445000D02*
G01*
X787400Y-4445000D01*
X787400Y-4699000D01*
X1549400Y-4699000D01*
X1549400Y-4445000D01*
D18*
X1549400Y-4445000D02*
G01*
X977900Y-4445000D01*
D17*
X771804Y-358394D02*
G01*
X771804Y-1058392D01*
X151790Y-1058392D01*
X71805Y-1058392D01*
X71805Y-358394D01*
X151790Y-358394D01*
X771804Y-358394D01*
X151790Y-1058392D02*
G01*
X151790Y-358394D01*
X7305395Y-2524505D02*
G01*
X7305395Y-1824507D01*
X7925409Y-1824507D01*
X8005394Y-1824507D01*
X8005394Y-2524505D01*
X7925409Y-2524505D01*
X7305395Y-2524505D01*
X7925409Y-1824507D02*
G01*
X7925409Y-2524505D01*
X7292695Y-1508505D02*
G01*
X7292695Y-808507D01*
X7912709Y-808507D01*
X7992694Y-808507D01*
X7992694Y-1508505D01*
X7912709Y-1508505D01*
X7292695Y-1508505D01*
X7912709Y-808507D02*
G01*
X7912709Y-1508505D01*
D19*
X3048000Y-3644900D02*
G01*
X3111500Y-3708400D01*
X3048000Y-3771900D01*
X3048000Y-3898900D01*
X3111500Y-3962400D01*
X3048000Y-4025900D01*
X3048000Y-4152900D01*
X3111500Y-4216400D01*
X3048000Y-4279900D01*
X3048000Y-4406900D01*
X3111500Y-4470400D01*
X3238500Y-4470400D01*
X3302000Y-4406900D01*
X3302000Y-4279900D01*
X3238500Y-4216400D01*
X3302000Y-4152900D01*
X3302000Y-4025900D01*
X3238500Y-3962400D01*
X3302000Y-3898900D01*
X3302000Y-3771900D01*
X3238500Y-3708400D01*
X3302000Y-3644900D01*
X3302000Y-3517900D01*
X3238500Y-3454400D01*
X3302000Y-3390900D01*
X3302000Y-3263900D01*
X3238500Y-3200400D01*
X3302000Y-3136900D01*
X3302000Y-3009900D01*
X3238500Y-2946400D01*
X3302000Y-2882900D01*
X3302000Y-2755900D01*
X3238500Y-2692400D01*
X3302000Y-2628900D01*
X3302000Y-2501900D01*
X3238500Y-2438400D01*
X3302000Y-2374900D01*
X3302000Y-2247900D01*
X3238500Y-2184400D01*
X3302000Y-2120900D01*
X3302000Y-1993900D01*
X3238500Y-1930400D01*
X3302000Y-1866900D01*
X3302000Y-1739900D01*
X3238500Y-1676400D01*
X3302000Y-1612900D01*
X3302000Y-1485900D01*
X3238500Y-1422400D01*
X3302000Y-1358900D01*
X3302000Y-1231900D01*
X3238500Y-1168400D01*
X3302000Y-1104900D01*
X3302000Y-977900D01*
X3238500Y-914400D01*
X3302000Y-850900D01*
X3302000Y-723900D01*
X3238500Y-660400D01*
X3111500Y-660400D01*
X3048000Y-723900D01*
X3048000Y-850900D02*
G01*
X3111500Y-914400D01*
X3048000Y-977900D01*
X3048000Y-406400D01*
X3619500Y-406400D01*
X4254500Y-406400D01*
X4826000Y-406400D01*
X4826000Y-850900D01*
X4826000Y-977900D01*
X4762500Y-914400D01*
X4826000Y-850900D01*
X3048000Y-1104900D02*
G01*
X3111500Y-1168400D01*
X3048000Y-1231900D01*
X3048000Y-977900D02*
G01*
X3048000Y-1358900D01*
X3111500Y-1422400D01*
X3048000Y-1485900D01*
X3048000Y-1612900D02*
G01*
X3111500Y-1676400D01*
X3048000Y-1739900D01*
X3048000Y-1866900D02*
G01*
X3111500Y-1930400D01*
X3048000Y-1993900D01*
X3048000Y-2120900D02*
G01*
X3111500Y-2184400D01*
X3048000Y-2247900D01*
X3048000Y-2374900D02*
G01*
X3111500Y-2438400D01*
X3048000Y-2501900D01*
X3048000Y-2628900D02*
G01*
X3111500Y-2692400D01*
X3048000Y-2755900D01*
X3048000Y-2882900D02*
G01*
X3111500Y-2946400D01*
X3048000Y-3009900D01*
X3048000Y-3771900D01*
X3048000Y-3136900D02*
G01*
X3111500Y-3200400D01*
X3048000Y-3263900D01*
X3048000Y-3390900D02*
G01*
X3111500Y-3454400D01*
X3048000Y-3517900D01*
X4826000Y-723900D02*
G01*
X4762500Y-660400D01*
X4635500Y-660400D01*
X4572000Y-723900D01*
X4572000Y-850900D01*
X4635500Y-914400D01*
X4572000Y-977900D01*
X4572000Y-1104900D01*
X4635500Y-1168400D01*
X4572000Y-1231900D01*
X4572000Y-1358900D01*
X4635500Y-1422400D01*
X4572000Y-1485900D01*
X4572000Y-1612900D01*
X4635500Y-1676400D01*
X4572000Y-1739900D01*
X4572000Y-1866900D01*
X4635500Y-1930400D01*
X4572000Y-1993900D01*
X4572000Y-2120900D01*
X4635500Y-2184400D01*
X4572000Y-2247900D01*
X4572000Y-2374900D01*
X4635500Y-2438400D01*
X4572000Y-2501900D01*
X4572000Y-2628900D01*
X4635500Y-2692400D01*
X4572000Y-2755900D01*
X4572000Y-2882900D01*
X4635500Y-2946400D01*
X4572000Y-3009900D01*
X4572000Y-3136900D01*
X4635500Y-3200400D01*
X4572000Y-3263900D01*
X4572000Y-3390900D01*
X4635500Y-3454400D01*
X4572000Y-3517900D01*
X4572000Y-3644900D01*
X4635500Y-3708400D01*
X4572000Y-3771900D01*
X4572000Y-3898900D01*
X4635500Y-3962400D01*
X4572000Y-4025900D01*
X4572000Y-4152900D01*
X4635500Y-4216400D01*
X4572000Y-4279900D01*
X4572000Y-4406900D01*
X4635500Y-4470400D01*
X4762500Y-4470400D01*
X4826000Y-4406900D01*
X4826000Y-4724400D01*
X4254500Y-4724400D01*
X4254500Y-3962400D01*
X3619500Y-3962400D01*
X3619500Y-4724400D01*
X3619500Y-4851400D01*
X4254500Y-4851400D01*
X4254500Y-4724400D01*
X4826000Y-3644900D02*
G01*
X4762500Y-3708400D01*
X4826000Y-3771900D01*
X4826000Y-3898900D01*
X4762500Y-3962400D01*
X4826000Y-4025900D01*
X4826000Y-4152900D01*
X4762500Y-4216400D01*
X4826000Y-4279900D01*
X4826000Y-4406900D01*
X3048000Y-1358900D02*
G01*
X3048000Y-3009900D01*
X4826000Y-3390900D02*
G01*
X4762500Y-3454400D01*
X4826000Y-3517900D01*
X4826000Y-3390900D01*
X4826000Y-3263900D01*
X4826000Y-3136900D01*
X4826000Y-3009900D01*
X4826000Y-2882900D01*
X4826000Y-2755900D01*
X4826000Y-2628900D01*
X4826000Y-2501900D01*
X4826000Y-2374900D01*
X4826000Y-2247900D01*
X4826000Y-2120900D01*
X4826000Y-1993900D01*
X4826000Y-1866900D01*
X4826000Y-1739900D01*
X4826000Y-1612900D01*
X4826000Y-1485900D01*
X4826000Y-1358900D01*
X4826000Y-1231900D01*
X4826000Y-1104900D01*
X4826000Y-977900D01*
X4826000Y-3263900D02*
G01*
X4762500Y-3200400D01*
X4826000Y-3136900D01*
X4826000Y-3009900D02*
G01*
X4762500Y-2946400D01*
X4826000Y-2882900D01*
X4826000Y-2755900D02*
G01*
X4762500Y-2692400D01*
X4826000Y-2628900D01*
X4826000Y-2501900D02*
G01*
X4762500Y-2438400D01*
X4826000Y-2374900D01*
X4826000Y-2247900D02*
G01*
X4762500Y-2184400D01*
X4826000Y-2120900D01*
X4826000Y-1993900D02*
G01*
X4762500Y-1930400D01*
X4826000Y-1866900D01*
X4826000Y-1739900D02*
G01*
X4762500Y-1676400D01*
X4826000Y-1612900D01*
X4826000Y-1485900D02*
G01*
X4762500Y-1422400D01*
X4826000Y-1358900D01*
X4826000Y-1231900D02*
G01*
X4762500Y-1168400D01*
X4826000Y-1104900D01*
X3048000Y-3898900D02*
G01*
X3048000Y-4025900D01*
X3048000Y-4152900D02*
G01*
X3048000Y-4279900D01*
X3048000Y-4406900D02*
G01*
X3048000Y-4724400D01*
X3619500Y-4724400D01*
X4826000Y-4279900D02*
G01*
X4826000Y-4152900D01*
X4826000Y-4025900D02*
G01*
X4826000Y-3898900D01*
X4826000Y-3771900D02*
G01*
X4826000Y-3517900D01*
X4191000Y-2438400D02*
G01*
X4191000Y-2184400D01*
X3810000Y-2184400D01*
X3810000Y-2438400D01*
X4191000Y-2438400D01*
D16*
X6440200Y-192191D02*
G01*
X7500396Y-192191D01*
X7500396Y-671997D01*
X6440200Y-671997D01*
X6440200Y-192699D01*
X6440200Y-192191D01*
X7500294Y-252102D02*
G01*
X6440302Y-252102D01*
X5335300Y-192191D02*
G01*
X6395496Y-192191D01*
X6395496Y-671997D01*
X5335300Y-671997D01*
X5335300Y-192699D01*
X5335300Y-192191D01*
X6395394Y-252102D02*
G01*
X5335402Y-252102D01*
X5656300Y-2656700D02*
G01*
X6256274Y-2656586D01*
X6256274Y-2956813D01*
X5656325Y-2956813D01*
X5656325Y-2656586D01*
X5656300Y-2656700D01*
X2585999Y-4607699D02*
G01*
X1986025Y-4607813D01*
X1986025Y-4307586D01*
X2585974Y-4307586D01*
X2585974Y-4607813D01*
X2585999Y-4607699D01*
X6040399Y-2093099D02*
G01*
X5440425Y-2093213D01*
X5440425Y-1792986D01*
X6040374Y-1792986D01*
X6040374Y-2093213D01*
X6040399Y-2093099D01*
X5440400Y-2110600D02*
G01*
X6040374Y-2110486D01*
X6040374Y-2410713D01*
X5440425Y-2410713D01*
X5440425Y-2110486D01*
X5440400Y-2110600D01*
X6443700Y-3177400D02*
G01*
X7043674Y-3177286D01*
X7043674Y-3477513D01*
X6443725Y-3477513D01*
X6443725Y-3177286D01*
X6443700Y-3177400D01*
X6443700Y-3494900D02*
G01*
X7043674Y-3494786D01*
X7043674Y-3795013D01*
X6443725Y-3795013D01*
X6443725Y-3494786D01*
X6443700Y-3494900D01*
X6443700Y-3812400D02*
G01*
X7043674Y-3812286D01*
X7043674Y-4112513D01*
X6443725Y-4112513D01*
X6443725Y-3812286D01*
X6443700Y-3812400D01*
X5440400Y-1475600D02*
G01*
X6040374Y-1475486D01*
X6040374Y-1775713D01*
X5440425Y-1775713D01*
X5440425Y-1475486D01*
X5440400Y-1475600D01*
D17*
X7645400Y-4432300D02*
G01*
X7645400Y-4686300D01*
X6629400Y-4686300D01*
X6629400Y-4432300D01*
X6819900Y-4432300D01*
D18*
X7645400Y-4432300D02*
G01*
X6819900Y-4432300D01*
D16*
G75*
G01*
X7045198Y-2704973D02*
G03*
X7045198Y-2708275I-199993J-1651D01*
G75*
G01*
X1873250Y-1067054D02*
G03*
X1873250Y-1074166I-399984J-3556D01*
G75*
G01*
X2736850Y-1067054D02*
G03*
X2736850Y-1074166I-399984J-3556D01*
D19*
G75*
G01*
X4000500Y-2235200D02*
G03*
X4000906Y-2235200I203J-76200D01*
D20*
G75*
G01*
X6693301Y-724599D02*
G03*
X6693555Y-724599I127J-19999D01*
G75*
G01*
X5588401Y-724599D02*
G03*
X5588655Y-724599I127J-19999D01*
D16*
G75*
G01
X6881368Y-1790446D02*
G03X6881368Y-1790446I-150114J0D01*
G75*
G01
X6906260Y-1790446D02*
G03X6906260Y-1790446I-175006J0D01*
G75*
G01
X6894068Y-914146D02*
G03X6894068Y-914146I-150114J0D01*
G75*
G01
X6918960Y-914146D02*
G03X6918960Y-914146I-175006J0D01*
M02*
