M48
METRIC,LZ,000.000
;FILE_FORMAT=3:3
;TYPE=PLATED
;Layer: PTH_Through
;EasyEDA v6.5.9, 2022-07-29 15:21:59
;d62bb8ad4e154c8097677c42ea29ab51,674c0623d3a246009f606e19fc16e94a,10
;Gerber Generator version 0.2
;Holesize 1 = 0.305 mm
T01C0.305
;Holesize 2 = 0.800 mm
T02C0.800
;Holesize 3 = 0.889 mm
T03C0.889
;Holesize 4 = 0.915 mm
T04C0.915
;Holesize 5 = 1.000 mm
T05C1.000
;Holesize 6 = 1.101 mm
T06C1.101
;Holesize 7 = 1.200 mm
T07C1.200
;Holesize 8 = 3.000 mm
T08C3.000
%
G05
G90
T01
X043942Y-038481
X043942Y-037084
X058039Y-033909
X070993Y-022098
X067310Y-030988
X062230Y-025019
X069723Y-021590
X063881Y-009652
T02
X068453Y-027801
X068453Y-026301
X067310Y-019108
X067310Y-016706
X067437Y-010345
X067437Y-007943
T03
X003810Y-032131
X003810Y-029591
X003810Y-027051
X003810Y-024511
X013081Y-002667
X015621Y-002667
X053086Y-033655
X055626Y-033655
X053086Y-036322
X055626Y-036322
X053086Y-038989
X055626Y-038989
X063373Y-045593
X060833Y-045593
X058293Y-045593
X055753Y-045593
X053213Y-045593
X014224Y-043053
X011684Y-043053
X009144Y-043053
X014224Y-045720
X011684Y-045720
X009144Y-045720
X067564Y-045593
X070104Y-045593
X072644Y-045593
X075184Y-045593
T04
X054563Y-028067
X064563Y-028067
X027860Y-044577
X017860Y-044577
X062404Y-019431
X052404Y-019431
X052404Y-022606
X062404Y-022606
X062437Y-033274
X072437Y-033274
X062437Y-036449
X072437Y-036449
X062437Y-039624
X072437Y-039624
X052404Y-016256
X062404Y-016256
T05
X014732Y-012418
X014732Y-008918
X023368Y-012418
X023368Y-008918
X031750Y-007874G85X031750Y-007874
X031750Y-010414G85X031750Y-010414
X031750Y-012954G85X031750Y-012954
X031750Y-015494G85X031750Y-015494
X031750Y-018034G85X031750Y-018034
X031750Y-020574G85X031750Y-020574
X031750Y-023114G85X031750Y-023114
X031750Y-025654G85X031750Y-025654
X031750Y-028194G85X031750Y-028194
X031750Y-030734G85X031750Y-030734
X031750Y-033274G85X031750Y-033274
X031750Y-035814G85X031750Y-035814
X046990Y-007874G85X046990Y-007874
X046990Y-010414G85X046990Y-010414
X046990Y-012954G85X046990Y-012954
X046990Y-015494G85X046990Y-015494
X046990Y-018034G85X046990Y-018034
X046990Y-020574G85X046990Y-020574
X046990Y-025654G85X046990Y-025654
X046990Y-028194G85X046990Y-028194
X046990Y-033274G85X046990Y-033274
X046990Y-035814G85X046990Y-035814
X046990Y-030734G85X046990Y-030734
X046990Y-023114G85X046990Y-023114
X031750Y-038354G85X031750Y-038354
X031750Y-040894G85X031750Y-040894
X031750Y-043434G85X031750Y-043434
X046990Y-038354G85X046990Y-038354
X046990Y-040894G85X046990Y-040894
X046990Y-043434G85X046990Y-043434
T06
X076454Y-031750
X076454Y-029210
T07
X010541Y-037211
X010541Y-034671
X010541Y-032131
X010541Y-029591
X010541Y-027051
X010541Y-024511
X010541Y-021971
X010541Y-019431
X023241Y-019431
X023241Y-021971
X023241Y-024511
X023241Y-027051
X023241Y-029591
X023241Y-032131
X023241Y-034671
X023241Y-037211
X004318Y-005331G85X004318Y-005337
X004318Y-008831G85X004318Y-008836
X076454Y-023498G85X076454Y-023492
X076454Y-019998G85X076454Y-019993
X076327Y-013338G85X076327Y-013332
X076327Y-009838G85X076327Y-009833
X069703Y-004821
X072283Y-004831
X067163Y-004821
X058654Y-004821
X061234Y-004831
X056114Y-004821
T08
X008890Y-002032
X004826Y-046990
X077978Y-040005
X077343Y-005207
M30
