G04 Layer: BottomLayer*
G04 EasyEDA v6.5.9, 2022-07-29 15:21:59*
G04 d62bb8ad4e154c8097677c42ea29ab51,674c0623d3a246009f606e19fc16e94a,10*
G04 Gerber Generator version 0.2*
G04 Scale: 100 percent, Rotated: No, Reflected: No *
G04 Dimensions in millimeters *
G04 leading zeros omitted , absolute positions ,4 integer and 5 decimal *
%FSLAX45Y45*%
%MOMM*%

%ADD10C,3.0000*%
%ADD11C,2.0000*%
%ADD12C,1.0000*%
%ADD13C,0.2500*%
%ADD14C,4.0000*%
%ADD15C,1.2000*%
%ADD16C,1.6000*%
%ADD17R,1.5748X1.5748*%
%ADD18C,1.5748*%
%ADD19R,1.8000X1.8000*%
%ADD20C,1.8000*%
%ADD21R,1.5748X1.7000*%
%ADD22C,1.7000*%
%ADD23R,2.0320X2.0320*%
%ADD24C,2.0320*%
%ADD25C,1.4000*%
%ADD26R,1.5080X1.5080*%
%ADD27C,1.5080*%
%ADD28C,3.2000*%
%ADD29C,0.6096*%
%ADD30C,0.0116*%

%LPD*%
G36*
X800201Y-4974082D02*
G01*
X761746Y-4973116D01*
X723900Y-4970322D01*
X686155Y-4965649D01*
X648716Y-4959146D01*
X611682Y-4950815D01*
X575056Y-4940655D01*
X538988Y-4928768D01*
X503529Y-4915052D01*
X478840Y-4904079D01*
X475589Y-4901844D01*
X473506Y-4898542D01*
X472795Y-4894681D01*
X473608Y-4890820D01*
X475792Y-4887569D01*
X479094Y-4885436D01*
X482955Y-4884674D01*
X491998Y-4884674D01*
X510743Y-4882743D01*
X529183Y-4878984D01*
X547166Y-4873345D01*
X564489Y-4865878D01*
X580948Y-4856734D01*
X596392Y-4846015D01*
X610666Y-4833721D01*
X623671Y-4820107D01*
X635152Y-4805172D01*
X645160Y-4789220D01*
X653440Y-4772304D01*
X659993Y-4754626D01*
X664667Y-4736439D01*
X667562Y-4717796D01*
X668477Y-4699000D01*
X667562Y-4680204D01*
X664667Y-4661560D01*
X659993Y-4643374D01*
X653440Y-4625695D01*
X645160Y-4608779D01*
X635152Y-4592828D01*
X623671Y-4577892D01*
X610666Y-4564278D01*
X596392Y-4551984D01*
X580948Y-4541266D01*
X564489Y-4532122D01*
X547166Y-4524654D01*
X529183Y-4519015D01*
X510743Y-4515256D01*
X491998Y-4513326D01*
X473201Y-4513326D01*
X454456Y-4515256D01*
X436016Y-4519015D01*
X418033Y-4524654D01*
X400710Y-4532122D01*
X384251Y-4541266D01*
X368808Y-4551984D01*
X354533Y-4564278D01*
X341528Y-4577892D01*
X330047Y-4592828D01*
X320040Y-4608779D01*
X311759Y-4625695D01*
X305206Y-4643374D01*
X300532Y-4661560D01*
X297637Y-4680204D01*
X296722Y-4699000D01*
X297637Y-4717796D01*
X300532Y-4736439D01*
X305206Y-4754626D01*
X311759Y-4772304D01*
X314096Y-4777079D01*
X315112Y-4780889D01*
X314604Y-4784801D01*
X312674Y-4788255D01*
X309524Y-4790643D01*
X305714Y-4791710D01*
X301802Y-4791202D01*
X298348Y-4789271D01*
X279958Y-4773371D01*
X252475Y-4747158D01*
X226263Y-4719675D01*
X201472Y-4690872D01*
X178104Y-4660900D01*
X156260Y-4629861D01*
X135940Y-4597755D01*
X117195Y-4564684D01*
X100126Y-4530750D01*
X84734Y-4496003D01*
X71069Y-4460544D01*
X59182Y-4424476D01*
X49072Y-4387850D01*
X40741Y-4350766D01*
X34239Y-4313326D01*
X29616Y-4275632D01*
X26822Y-4237736D01*
X25908Y-4199585D01*
X25908Y-800404D01*
X26873Y-761746D01*
X29667Y-723900D01*
X34340Y-686155D01*
X40843Y-648716D01*
X49174Y-611682D01*
X59334Y-575056D01*
X71272Y-538988D01*
X84937Y-503529D01*
X100330Y-468833D01*
X117449Y-434898D01*
X136194Y-401828D01*
X156514Y-369722D01*
X178409Y-338683D01*
X201777Y-308762D01*
X226618Y-279958D01*
X252831Y-252475D01*
X280365Y-226263D01*
X309118Y-201472D01*
X339090Y-178104D01*
X370128Y-156260D01*
X402234Y-135940D01*
X435305Y-117195D01*
X469239Y-100126D01*
X503986Y-84734D01*
X539445Y-71069D01*
X575513Y-59182D01*
X612140Y-49072D01*
X649224Y-40741D01*
X686663Y-34239D01*
X724357Y-29616D01*
X762254Y-26822D01*
X785723Y-26263D01*
X790092Y-27127D01*
X793699Y-29819D01*
X795782Y-33731D01*
X795985Y-38201D01*
X794258Y-42316D01*
X790651Y-45466D01*
X775208Y-56184D01*
X760933Y-68478D01*
X747928Y-82092D01*
X736447Y-97028D01*
X726440Y-112979D01*
X718159Y-129895D01*
X711606Y-147574D01*
X706932Y-165760D01*
X704037Y-184404D01*
X703122Y-203200D01*
X704037Y-221996D01*
X706932Y-240639D01*
X711606Y-258825D01*
X718159Y-276504D01*
X726440Y-293420D01*
X736447Y-309372D01*
X747928Y-324307D01*
X760933Y-337921D01*
X775208Y-350215D01*
X790651Y-360934D01*
X807110Y-370078D01*
X824433Y-377545D01*
X842416Y-383184D01*
X860856Y-386943D01*
X879602Y-388874D01*
X898398Y-388874D01*
X917143Y-386943D01*
X935583Y-383184D01*
X953566Y-377545D01*
X970889Y-370078D01*
X987348Y-360934D01*
X1002792Y-350215D01*
X1017066Y-337921D01*
X1030071Y-324307D01*
X1041552Y-309372D01*
X1051560Y-293420D01*
X1059840Y-276504D01*
X1066393Y-258825D01*
X1071067Y-240639D01*
X1073962Y-221996D01*
X1074877Y-203200D01*
X1073962Y-184404D01*
X1071067Y-165760D01*
X1066393Y-147574D01*
X1059840Y-129895D01*
X1051560Y-112979D01*
X1041552Y-97028D01*
X1030071Y-82092D01*
X1017066Y-68478D01*
X1002792Y-56184D01*
X987348Y-45466D01*
X983132Y-42011D01*
X981405Y-37947D01*
X981557Y-33528D01*
X983538Y-29565D01*
X987044Y-26873D01*
X991362Y-25908D01*
X7199579Y-25908D01*
X7238238Y-26873D01*
X7276134Y-29667D01*
X7313828Y-34340D01*
X7351268Y-40843D01*
X7388352Y-49174D01*
X7424928Y-59334D01*
X7460996Y-71272D01*
X7496454Y-84937D01*
X7531201Y-100330D01*
X7565136Y-117449D01*
X7598156Y-136194D01*
X7630261Y-156514D01*
X7661300Y-178409D01*
X7691272Y-201777D01*
X7720025Y-226618D01*
X7747508Y-252831D01*
X7773720Y-280365D01*
X7798511Y-309118D01*
X7817713Y-333756D01*
X7819644Y-337718D01*
X7819644Y-342188D01*
X7817764Y-346202D01*
X7814360Y-348996D01*
X7810093Y-350113D01*
X7805724Y-349300D01*
X7798866Y-346354D01*
X7780883Y-340715D01*
X7762443Y-336956D01*
X7743698Y-335026D01*
X7724902Y-335026D01*
X7706156Y-336956D01*
X7687716Y-340715D01*
X7669733Y-346354D01*
X7652410Y-353822D01*
X7635951Y-362966D01*
X7620508Y-373684D01*
X7606233Y-385978D01*
X7593228Y-399592D01*
X7581747Y-414528D01*
X7571740Y-430479D01*
X7563459Y-447395D01*
X7556906Y-465074D01*
X7552232Y-483260D01*
X7549337Y-501904D01*
X7548422Y-520700D01*
X7549337Y-539496D01*
X7552232Y-558139D01*
X7556906Y-576326D01*
X7563459Y-594004D01*
X7571740Y-610920D01*
X7581747Y-626872D01*
X7593228Y-641807D01*
X7606233Y-655421D01*
X7620508Y-667715D01*
X7635951Y-678434D01*
X7652410Y-687578D01*
X7669733Y-695045D01*
X7687716Y-700684D01*
X7706156Y-704443D01*
X7724902Y-706374D01*
X7743698Y-706374D01*
X7762443Y-704443D01*
X7780883Y-700684D01*
X7798866Y-695045D01*
X7816189Y-687578D01*
X7832648Y-678434D01*
X7848092Y-667715D01*
X7862366Y-655421D01*
X7875371Y-641807D01*
X7886852Y-626872D01*
X7896859Y-610920D01*
X7905140Y-594004D01*
X7911693Y-576326D01*
X7915960Y-559816D01*
X7917891Y-555955D01*
X7921244Y-553262D01*
X7925460Y-552196D01*
X7929676Y-553008D01*
X7933232Y-555447D01*
X7935417Y-559206D01*
X7940802Y-575513D01*
X7950962Y-612140D01*
X7959242Y-649224D01*
X7965744Y-686663D01*
X7970367Y-724357D01*
X7973161Y-762254D01*
X7974075Y-800404D01*
X7974075Y-3896868D01*
X7973161Y-3901084D01*
X7970570Y-3904538D01*
X7966709Y-3906621D01*
X7962392Y-3906875D01*
X7958328Y-3905351D01*
X7955330Y-3902201D01*
X7950352Y-3894328D01*
X7938871Y-3879392D01*
X7925866Y-3865778D01*
X7911592Y-3853484D01*
X7896148Y-3842765D01*
X7879689Y-3833622D01*
X7862366Y-3826154D01*
X7844383Y-3820515D01*
X7825943Y-3816756D01*
X7807198Y-3814826D01*
X7788402Y-3814826D01*
X7769656Y-3816756D01*
X7751216Y-3820515D01*
X7733233Y-3826154D01*
X7715910Y-3833622D01*
X7699451Y-3842765D01*
X7684008Y-3853484D01*
X7669733Y-3865778D01*
X7656728Y-3879392D01*
X7645247Y-3894328D01*
X7635240Y-3910279D01*
X7626959Y-3927195D01*
X7620406Y-3944874D01*
X7615732Y-3963060D01*
X7612837Y-3981704D01*
X7611922Y-4000500D01*
X7612837Y-4019296D01*
X7615732Y-4037939D01*
X7620406Y-4056126D01*
X7626959Y-4073804D01*
X7635240Y-4090720D01*
X7645247Y-4106672D01*
X7656728Y-4121607D01*
X7669733Y-4135221D01*
X7684008Y-4147515D01*
X7699451Y-4158234D01*
X7715910Y-4167378D01*
X7733233Y-4174845D01*
X7751216Y-4180484D01*
X7769656Y-4184243D01*
X7788402Y-4186174D01*
X7807198Y-4186174D01*
X7825943Y-4184243D01*
X7844383Y-4180484D01*
X7862366Y-4174845D01*
X7879689Y-4167378D01*
X7896148Y-4158234D01*
X7911592Y-4147515D01*
X7925866Y-4135221D01*
X7938871Y-4121607D01*
X7950352Y-4106672D01*
X7955330Y-4098798D01*
X7958328Y-4095648D01*
X7962392Y-4094124D01*
X7966709Y-4094378D01*
X7970570Y-4096461D01*
X7973161Y-4099915D01*
X7974075Y-4104132D01*
X7974075Y-4199839D01*
X7973110Y-4238244D01*
X7970316Y-4276140D01*
X7965643Y-4313834D01*
X7959140Y-4351274D01*
X7950809Y-4388307D01*
X7940649Y-4424934D01*
X7928762Y-4461002D01*
X7915046Y-4496460D01*
X7899653Y-4531207D01*
X7882534Y-4565142D01*
X7863840Y-4598162D01*
X7843469Y-4630267D01*
X7821574Y-4661306D01*
X7798206Y-4691278D01*
X7773365Y-4720031D01*
X7747203Y-4747514D01*
X7719669Y-4773726D01*
X7690866Y-4798517D01*
X7660894Y-4821885D01*
X7629855Y-4843780D01*
X7597749Y-4864100D01*
X7564678Y-4882794D01*
X7530744Y-4899863D01*
X7495997Y-4915255D01*
X7460538Y-4928920D01*
X7424470Y-4940808D01*
X7387844Y-4950917D01*
X7350759Y-4959248D01*
X7313320Y-4965750D01*
X7275626Y-4970373D01*
X7237730Y-4973167D01*
X7199579Y-4974082D01*
G37*

%LPC*%
G36*
X3658108Y-4864404D02*
G01*
X5676392Y-4864404D01*
X5684367Y-4863642D01*
X5691581Y-4861458D01*
X5698236Y-4857902D01*
X5704433Y-4852822D01*
X5856122Y-4701133D01*
X5861202Y-4694936D01*
X5864758Y-4688281D01*
X5866942Y-4681067D01*
X5867704Y-4673092D01*
X5867704Y-4663084D01*
X5868416Y-4659426D01*
X5870397Y-4656226D01*
X5873394Y-4653991D01*
X5881624Y-4649927D01*
X5893003Y-4642307D01*
X5903264Y-4633264D01*
X5912307Y-4623003D01*
X5919927Y-4611624D01*
X5925972Y-4599330D01*
X5930341Y-4586376D01*
X5933033Y-4572965D01*
X5933948Y-4559300D01*
X5933033Y-4545634D01*
X5930341Y-4532223D01*
X5925972Y-4519269D01*
X5919927Y-4506976D01*
X5912307Y-4495596D01*
X5903264Y-4485335D01*
X5893003Y-4476292D01*
X5881624Y-4468672D01*
X5869330Y-4462627D01*
X5856376Y-4458258D01*
X5842965Y-4455566D01*
X5829300Y-4454652D01*
X5815634Y-4455566D01*
X5802223Y-4458258D01*
X5789269Y-4462627D01*
X5776976Y-4468672D01*
X5765596Y-4476292D01*
X5755335Y-4485335D01*
X5746292Y-4495596D01*
X5738672Y-4506976D01*
X5732627Y-4519269D01*
X5728258Y-4532223D01*
X5725566Y-4545634D01*
X5724652Y-4559300D01*
X5725566Y-4572965D01*
X5728258Y-4586376D01*
X5732627Y-4599330D01*
X5738672Y-4611624D01*
X5746292Y-4623003D01*
X5755335Y-4633264D01*
X5765596Y-4642307D01*
X5776976Y-4649927D01*
X5778804Y-4650790D01*
X5781852Y-4653127D01*
X5783834Y-4656378D01*
X5784443Y-4660188D01*
X5783630Y-4663948D01*
X5781497Y-4667097D01*
X5663946Y-4784598D01*
X5660694Y-4786833D01*
X5656783Y-4787595D01*
X3677716Y-4787595D01*
X3673805Y-4786833D01*
X3670554Y-4784598D01*
X3272942Y-4387037D01*
X3270808Y-4383836D01*
X3269996Y-4380026D01*
X3270656Y-4376216D01*
X3271723Y-4373422D01*
X3274872Y-4360265D01*
X3276244Y-4346803D01*
X3275787Y-4333240D01*
X3273501Y-4319930D01*
X3269538Y-4306976D01*
X3263798Y-4294733D01*
X3256534Y-4283303D01*
X3247796Y-4272991D01*
X3237788Y-4263898D01*
X3226612Y-4256278D01*
X3214522Y-4250131D01*
X3201771Y-4245711D01*
X3188512Y-4243019D01*
X3175000Y-4242104D01*
X3161487Y-4243019D01*
X3148228Y-4245711D01*
X3135477Y-4250131D01*
X3123387Y-4256278D01*
X3112211Y-4263898D01*
X3102203Y-4272991D01*
X3093466Y-4283303D01*
X3086201Y-4294733D01*
X3080461Y-4306976D01*
X3076498Y-4319930D01*
X3074212Y-4333240D01*
X3073755Y-4346803D01*
X3075127Y-4360265D01*
X3078276Y-4373422D01*
X3083102Y-4386021D01*
X3089605Y-4397908D01*
X3097631Y-4408779D01*
X3107080Y-4418533D01*
X3117697Y-4426915D01*
X3129330Y-4433824D01*
X3141776Y-4439056D01*
X3154832Y-4442663D01*
X3168243Y-4444441D01*
X3181756Y-4444441D01*
X3195167Y-4442663D01*
X3208934Y-4438904D01*
X3212439Y-4438548D01*
X3215894Y-4439462D01*
X3218789Y-4441494D01*
X3630066Y-4852822D01*
X3636264Y-4857902D01*
X3642918Y-4861458D01*
X3650132Y-4863642D01*
G37*
G36*
X4699000Y-4705858D02*
G01*
X4713173Y-4704892D01*
X4727041Y-4702149D01*
X4740503Y-4697577D01*
X4753203Y-4691329D01*
X4764989Y-4683404D01*
X4775657Y-4674057D01*
X4785004Y-4663389D01*
X4792929Y-4651603D01*
X4799177Y-4638903D01*
X4803749Y-4625441D01*
X4806492Y-4611573D01*
X4807458Y-4597400D01*
X4806492Y-4583226D01*
X4803749Y-4569358D01*
X4799177Y-4555896D01*
X4792929Y-4543196D01*
X4785004Y-4531410D01*
X4775657Y-4520742D01*
X4764989Y-4511395D01*
X4753203Y-4503470D01*
X4740503Y-4497222D01*
X4727041Y-4492650D01*
X4713173Y-4489907D01*
X4699000Y-4488942D01*
X4684826Y-4489907D01*
X4670958Y-4492650D01*
X4657496Y-4497222D01*
X4644796Y-4503470D01*
X4633010Y-4511395D01*
X4622342Y-4520742D01*
X4612995Y-4531410D01*
X4605070Y-4543196D01*
X4598822Y-4555896D01*
X4594250Y-4569358D01*
X4591507Y-4583226D01*
X4590542Y-4597400D01*
X4591507Y-4611573D01*
X4594250Y-4625441D01*
X4598822Y-4638903D01*
X4605070Y-4651603D01*
X4612995Y-4663389D01*
X4622342Y-4674057D01*
X4633010Y-4683404D01*
X4644796Y-4691329D01*
X4657496Y-4697577D01*
X4670958Y-4702149D01*
X4684826Y-4704892D01*
G37*
G36*
X3175000Y-4705858D02*
G01*
X3189173Y-4704892D01*
X3203041Y-4702149D01*
X3216503Y-4697577D01*
X3229203Y-4691329D01*
X3240989Y-4683404D01*
X3251657Y-4674057D01*
X3261004Y-4663389D01*
X3268929Y-4651603D01*
X3275177Y-4638903D01*
X3279749Y-4625441D01*
X3282492Y-4611573D01*
X3283458Y-4597400D01*
X3282492Y-4583226D01*
X3279749Y-4569358D01*
X3275177Y-4555896D01*
X3268929Y-4543196D01*
X3261004Y-4531410D01*
X3251657Y-4520742D01*
X3240989Y-4511395D01*
X3229203Y-4503470D01*
X3216503Y-4497222D01*
X3203041Y-4492650D01*
X3189173Y-4489907D01*
X3175000Y-4488942D01*
X3160826Y-4489907D01*
X3146958Y-4492650D01*
X3133496Y-4497222D01*
X3120796Y-4503470D01*
X3109010Y-4511395D01*
X3098342Y-4520742D01*
X3088995Y-4531410D01*
X3081070Y-4543196D01*
X3074822Y-4555896D01*
X3070250Y-4569358D01*
X3067507Y-4583226D01*
X3066542Y-4597400D01*
X3067507Y-4611573D01*
X3070250Y-4625441D01*
X3074822Y-4638903D01*
X3081070Y-4651603D01*
X3088995Y-4663389D01*
X3098342Y-4674057D01*
X3109010Y-4683404D01*
X3120796Y-4691329D01*
X3133496Y-4697577D01*
X3146958Y-4702149D01*
X3160826Y-4704892D01*
G37*
G36*
X1422400Y-4676648D02*
G01*
X1436065Y-4675733D01*
X1449476Y-4673041D01*
X1462430Y-4668672D01*
X1474724Y-4662627D01*
X1486103Y-4655007D01*
X1496364Y-4645964D01*
X1505407Y-4635703D01*
X1513027Y-4624324D01*
X1519072Y-4612030D01*
X1523441Y-4599076D01*
X1526133Y-4585665D01*
X1527048Y-4572000D01*
X1526133Y-4558334D01*
X1523441Y-4544923D01*
X1519072Y-4531969D01*
X1513027Y-4519676D01*
X1505407Y-4508296D01*
X1496364Y-4498035D01*
X1486103Y-4488992D01*
X1474724Y-4481372D01*
X1462430Y-4475327D01*
X1449476Y-4470958D01*
X1436065Y-4468266D01*
X1422400Y-4467352D01*
X1408734Y-4468266D01*
X1395323Y-4470958D01*
X1382369Y-4475327D01*
X1370076Y-4481372D01*
X1358696Y-4488992D01*
X1348435Y-4498035D01*
X1339392Y-4508296D01*
X1331772Y-4519676D01*
X1325727Y-4531969D01*
X1321358Y-4544923D01*
X1318666Y-4558334D01*
X1317752Y-4572000D01*
X1318666Y-4585665D01*
X1321358Y-4599076D01*
X1325727Y-4612030D01*
X1331772Y-4624324D01*
X1339392Y-4635703D01*
X1348435Y-4645964D01*
X1358696Y-4655007D01*
X1370076Y-4662627D01*
X1382369Y-4668672D01*
X1395323Y-4673041D01*
X1408734Y-4675733D01*
G37*
G36*
X1168400Y-4676648D02*
G01*
X1182065Y-4675733D01*
X1195476Y-4673041D01*
X1208430Y-4668672D01*
X1220724Y-4662627D01*
X1232103Y-4655007D01*
X1242364Y-4645964D01*
X1251407Y-4635703D01*
X1259027Y-4624324D01*
X1265072Y-4612030D01*
X1269441Y-4599076D01*
X1272133Y-4585665D01*
X1273048Y-4572000D01*
X1272133Y-4558334D01*
X1269441Y-4544923D01*
X1265072Y-4531969D01*
X1259027Y-4519676D01*
X1251407Y-4508296D01*
X1242364Y-4498035D01*
X1232103Y-4488992D01*
X1220724Y-4481372D01*
X1208430Y-4475327D01*
X1195476Y-4470958D01*
X1182065Y-4468266D01*
X1168400Y-4467352D01*
X1154734Y-4468266D01*
X1141323Y-4470958D01*
X1128369Y-4475327D01*
X1116076Y-4481372D01*
X1104696Y-4488992D01*
X1094435Y-4498035D01*
X1085392Y-4508296D01*
X1077772Y-4519676D01*
X1071727Y-4531969D01*
X1067358Y-4544923D01*
X1064666Y-4558334D01*
X1063752Y-4572000D01*
X1064666Y-4585665D01*
X1067358Y-4599076D01*
X1071727Y-4612030D01*
X1077772Y-4624324D01*
X1085392Y-4635703D01*
X1094435Y-4645964D01*
X1104696Y-4655007D01*
X1116076Y-4662627D01*
X1128369Y-4668672D01*
X1141323Y-4673041D01*
X1154734Y-4675733D01*
G37*
G36*
X836218Y-4676648D02*
G01*
X992581Y-4676648D01*
X998880Y-4675936D01*
X1004366Y-4674006D01*
X1009243Y-4670958D01*
X1013358Y-4666843D01*
X1016406Y-4661966D01*
X1018336Y-4656480D01*
X1019048Y-4650181D01*
X1019048Y-4493818D01*
X1018336Y-4487519D01*
X1016406Y-4482033D01*
X1013358Y-4477156D01*
X1009243Y-4473041D01*
X1004366Y-4469993D01*
X998880Y-4468063D01*
X992581Y-4467352D01*
X836218Y-4467352D01*
X829919Y-4468063D01*
X824433Y-4469993D01*
X819607Y-4472990D01*
X816457Y-4474311D01*
X813104Y-4474514D01*
X809802Y-4473549D01*
X807059Y-4471568D01*
X739292Y-4403852D01*
X737057Y-4400550D01*
X736295Y-4396638D01*
X736295Y-2448661D01*
X737057Y-2444750D01*
X739292Y-2441448D01*
X904748Y-2275992D01*
X908050Y-2273757D01*
X911961Y-2272995D01*
X962304Y-2272995D01*
X966368Y-2273858D01*
X969721Y-2276195D01*
X974750Y-2281580D01*
X985977Y-2290876D01*
X998270Y-2298649D01*
X1011428Y-2304846D01*
X1025296Y-2309368D01*
X1039571Y-2312060D01*
X1054100Y-2312974D01*
X1068628Y-2312060D01*
X1082903Y-2309368D01*
X1096772Y-2304846D01*
X1109929Y-2298649D01*
X1122222Y-2290876D01*
X1133449Y-2281580D01*
X1143406Y-2270963D01*
X1151940Y-2259177D01*
X1158951Y-2246426D01*
X1164336Y-2232914D01*
X1167942Y-2218791D01*
X1169771Y-2204364D01*
X1169771Y-2189835D01*
X1167942Y-2175408D01*
X1164336Y-2161286D01*
X1158951Y-2147773D01*
X1151940Y-2135022D01*
X1143406Y-2123236D01*
X1133449Y-2112619D01*
X1122222Y-2103323D01*
X1109929Y-2095550D01*
X1096772Y-2089353D01*
X1082903Y-2084832D01*
X1068628Y-2082139D01*
X1054100Y-2081225D01*
X1039571Y-2082139D01*
X1025296Y-2084832D01*
X1011428Y-2089353D01*
X998270Y-2095550D01*
X985977Y-2103323D01*
X974750Y-2112619D01*
X969721Y-2118004D01*
X966368Y-2120341D01*
X962304Y-2121204D01*
X873658Y-2121255D01*
X864819Y-2122068D01*
X862380Y-2122474D01*
X853744Y-2124608D01*
X851408Y-2125370D01*
X843178Y-2128774D01*
X840994Y-2129891D01*
X833374Y-2134514D01*
X824534Y-2141575D01*
X604875Y-2361234D01*
X597814Y-2370074D01*
X593191Y-2377694D01*
X592074Y-2379878D01*
X588670Y-2388108D01*
X587908Y-2390444D01*
X585774Y-2399080D01*
X585368Y-2401519D01*
X584555Y-2410358D01*
X584555Y-4434941D01*
X585368Y-4443780D01*
X585774Y-4446219D01*
X587908Y-4454855D01*
X588670Y-4457192D01*
X592074Y-4465421D01*
X593191Y-4467606D01*
X597814Y-4475226D01*
X604875Y-4484065D01*
X748334Y-4627524D01*
X757174Y-4634585D01*
X764794Y-4639208D01*
X766978Y-4640326D01*
X775208Y-4643729D01*
X777544Y-4644491D01*
X786180Y-4646625D01*
X788619Y-4647031D01*
X797458Y-4647844D01*
X800608Y-4647895D01*
X804621Y-4648809D01*
X807974Y-4651298D01*
X810056Y-4654905D01*
X812444Y-4662017D01*
X815441Y-4666843D01*
X819556Y-4670958D01*
X824433Y-4674006D01*
X829919Y-4675936D01*
G37*
G36*
X6678218Y-4663948D02*
G01*
X6710680Y-4663948D01*
X6710680Y-4605020D01*
X6651752Y-4605020D01*
X6651752Y-4637481D01*
X6652463Y-4643780D01*
X6654393Y-4649266D01*
X6657441Y-4654143D01*
X6661556Y-4658258D01*
X6666433Y-4661306D01*
X6671919Y-4663236D01*
G37*
G36*
X6802120Y-4663948D02*
G01*
X6834581Y-4663948D01*
X6840880Y-4663236D01*
X6846366Y-4661306D01*
X6851243Y-4658258D01*
X6855358Y-4654143D01*
X6858406Y-4649266D01*
X6860336Y-4643780D01*
X6861048Y-4637481D01*
X6861048Y-4605020D01*
X6802120Y-4605020D01*
G37*
G36*
X7010400Y-4663948D02*
G01*
X7024065Y-4663033D01*
X7037476Y-4660341D01*
X7050430Y-4655972D01*
X7062724Y-4649927D01*
X7074103Y-4642307D01*
X7084364Y-4633264D01*
X7093407Y-4623003D01*
X7101027Y-4611624D01*
X7107072Y-4599330D01*
X7111441Y-4586376D01*
X7114133Y-4572965D01*
X7115048Y-4559300D01*
X7114133Y-4545634D01*
X7111441Y-4532223D01*
X7107072Y-4519269D01*
X7101027Y-4506976D01*
X7093407Y-4495596D01*
X7084364Y-4485335D01*
X7074103Y-4476292D01*
X7062724Y-4468672D01*
X7050430Y-4462627D01*
X7037476Y-4458258D01*
X7024065Y-4455566D01*
X7010400Y-4454652D01*
X6996734Y-4455566D01*
X6983323Y-4458258D01*
X6970369Y-4462627D01*
X6958075Y-4468672D01*
X6946696Y-4476292D01*
X6936435Y-4485335D01*
X6927392Y-4495596D01*
X6919772Y-4506976D01*
X6913727Y-4519269D01*
X6909358Y-4532223D01*
X6906666Y-4545634D01*
X6905752Y-4559300D01*
X6906666Y-4572965D01*
X6909358Y-4586376D01*
X6913727Y-4599330D01*
X6919772Y-4611624D01*
X6927392Y-4623003D01*
X6936435Y-4633264D01*
X6946696Y-4642307D01*
X6958075Y-4649927D01*
X6970369Y-4655972D01*
X6983323Y-4660341D01*
X6996734Y-4663033D01*
G37*
G36*
X6083300Y-4663948D02*
G01*
X6096965Y-4663033D01*
X6110376Y-4660341D01*
X6123330Y-4655972D01*
X6135624Y-4649927D01*
X6147003Y-4642307D01*
X6157264Y-4633264D01*
X6166307Y-4623003D01*
X6173927Y-4611624D01*
X6179972Y-4599330D01*
X6184341Y-4586376D01*
X6187033Y-4572965D01*
X6187948Y-4559300D01*
X6187033Y-4545634D01*
X6184341Y-4532223D01*
X6179972Y-4519269D01*
X6173927Y-4506976D01*
X6166307Y-4495596D01*
X6157264Y-4485335D01*
X6147003Y-4476292D01*
X6135624Y-4468672D01*
X6123330Y-4462627D01*
X6110376Y-4458258D01*
X6096965Y-4455566D01*
X6083300Y-4454652D01*
X6069634Y-4455566D01*
X6056223Y-4458258D01*
X6043269Y-4462627D01*
X6030976Y-4468672D01*
X6019596Y-4476292D01*
X6009335Y-4485335D01*
X6000292Y-4495596D01*
X5992672Y-4506976D01*
X5986627Y-4519269D01*
X5982258Y-4532223D01*
X5979566Y-4545634D01*
X5978652Y-4559300D01*
X5979566Y-4572965D01*
X5982258Y-4586376D01*
X5986627Y-4599330D01*
X5992672Y-4611624D01*
X6000292Y-4623003D01*
X6009335Y-4633264D01*
X6019596Y-4642307D01*
X6030976Y-4649927D01*
X6043269Y-4655972D01*
X6056223Y-4660341D01*
X6069634Y-4663033D01*
G37*
G36*
X5575300Y-4663948D02*
G01*
X5588965Y-4663033D01*
X5602376Y-4660341D01*
X5615330Y-4655972D01*
X5627624Y-4649927D01*
X5639003Y-4642307D01*
X5649264Y-4633264D01*
X5658307Y-4623003D01*
X5665927Y-4611624D01*
X5671972Y-4599330D01*
X5676341Y-4586376D01*
X5679033Y-4572965D01*
X5679948Y-4559300D01*
X5679033Y-4545634D01*
X5676341Y-4532223D01*
X5671972Y-4519269D01*
X5665927Y-4506976D01*
X5658307Y-4495596D01*
X5649264Y-4485335D01*
X5639003Y-4476292D01*
X5627624Y-4468672D01*
X5615330Y-4462627D01*
X5602376Y-4458258D01*
X5588965Y-4455566D01*
X5575300Y-4454652D01*
X5561634Y-4455566D01*
X5548223Y-4458258D01*
X5535269Y-4462627D01*
X5522976Y-4468672D01*
X5511596Y-4476292D01*
X5501335Y-4485335D01*
X5492292Y-4495596D01*
X5484672Y-4506976D01*
X5478627Y-4519269D01*
X5474258Y-4532223D01*
X5471566Y-4545634D01*
X5470652Y-4559300D01*
X5471566Y-4572965D01*
X5474258Y-4586376D01*
X5478627Y-4599330D01*
X5484672Y-4611624D01*
X5492292Y-4623003D01*
X5501335Y-4633264D01*
X5511596Y-4642307D01*
X5522976Y-4649927D01*
X5535269Y-4655972D01*
X5548223Y-4660341D01*
X5561634Y-4663033D01*
G37*
G36*
X5243118Y-4663948D02*
G01*
X5399481Y-4663948D01*
X5405780Y-4663236D01*
X5411266Y-4661306D01*
X5416143Y-4658258D01*
X5420258Y-4654143D01*
X5423306Y-4649266D01*
X5425236Y-4643780D01*
X5425948Y-4637481D01*
X5425948Y-4481118D01*
X5425236Y-4474819D01*
X5423306Y-4469333D01*
X5420258Y-4464456D01*
X5416143Y-4460341D01*
X5411266Y-4457293D01*
X5405780Y-4455363D01*
X5399481Y-4454652D01*
X5243118Y-4454652D01*
X5236819Y-4455363D01*
X5231333Y-4457293D01*
X5226456Y-4460341D01*
X5222341Y-4464456D01*
X5219293Y-4469333D01*
X5217363Y-4474819D01*
X5216652Y-4481118D01*
X5216652Y-4637481D01*
X5217363Y-4643780D01*
X5219293Y-4649266D01*
X5222341Y-4654143D01*
X5226456Y-4658258D01*
X5231333Y-4661306D01*
X5236819Y-4663236D01*
G37*
G36*
X7264400Y-4663948D02*
G01*
X7278065Y-4663033D01*
X7291476Y-4660341D01*
X7304430Y-4655972D01*
X7316724Y-4649927D01*
X7328103Y-4642307D01*
X7338364Y-4633264D01*
X7347407Y-4623003D01*
X7355027Y-4611624D01*
X7361072Y-4599330D01*
X7365441Y-4586376D01*
X7368133Y-4572965D01*
X7369048Y-4559300D01*
X7368133Y-4545634D01*
X7365441Y-4532223D01*
X7361072Y-4519269D01*
X7355027Y-4506976D01*
X7347407Y-4495596D01*
X7338364Y-4485335D01*
X7328103Y-4476292D01*
X7316724Y-4468672D01*
X7308494Y-4464608D01*
X7305497Y-4462373D01*
X7303516Y-4459224D01*
X7302804Y-4455515D01*
X7302804Y-4382008D01*
X7302042Y-4374032D01*
X7299858Y-4366818D01*
X7296302Y-4360164D01*
X7291222Y-4353966D01*
X7247483Y-4310227D01*
X7245248Y-4306976D01*
X7244486Y-4303064D01*
X7245248Y-4299204D01*
X7247483Y-4295902D01*
X7250785Y-4293666D01*
X7254646Y-4292904D01*
X7383983Y-4292904D01*
X7387894Y-4293666D01*
X7391146Y-4295902D01*
X7476998Y-4381754D01*
X7479233Y-4385005D01*
X7479995Y-4388916D01*
X7479995Y-4455515D01*
X7479284Y-4459224D01*
X7477302Y-4462373D01*
X7474305Y-4464608D01*
X7466075Y-4468672D01*
X7454696Y-4476292D01*
X7444435Y-4485335D01*
X7435392Y-4495596D01*
X7427772Y-4506976D01*
X7421727Y-4519269D01*
X7417358Y-4532223D01*
X7414666Y-4545634D01*
X7413752Y-4559300D01*
X7414666Y-4572965D01*
X7417358Y-4586376D01*
X7421727Y-4599330D01*
X7427772Y-4611624D01*
X7435392Y-4623003D01*
X7444435Y-4633264D01*
X7454696Y-4642307D01*
X7466075Y-4649927D01*
X7478369Y-4655972D01*
X7491323Y-4660341D01*
X7504734Y-4663033D01*
X7518400Y-4663948D01*
X7532065Y-4663033D01*
X7545476Y-4660341D01*
X7558430Y-4655972D01*
X7570724Y-4649927D01*
X7582103Y-4642307D01*
X7592364Y-4633264D01*
X7601407Y-4623003D01*
X7609027Y-4611624D01*
X7615072Y-4599330D01*
X7619441Y-4586376D01*
X7622133Y-4572965D01*
X7623048Y-4559300D01*
X7622133Y-4545634D01*
X7619441Y-4532223D01*
X7615072Y-4519269D01*
X7609027Y-4506976D01*
X7601407Y-4495596D01*
X7592364Y-4485335D01*
X7582103Y-4476292D01*
X7570724Y-4468672D01*
X7562494Y-4464608D01*
X7559497Y-4462373D01*
X7557516Y-4459224D01*
X7556804Y-4455515D01*
X7556804Y-4369308D01*
X7556042Y-4361332D01*
X7553858Y-4354118D01*
X7550302Y-4347464D01*
X7545222Y-4341266D01*
X7431633Y-4227677D01*
X7425436Y-4222597D01*
X7418781Y-4219041D01*
X7411567Y-4216857D01*
X7403592Y-4216095D01*
X6179616Y-4216095D01*
X6175705Y-4215333D01*
X6172454Y-4213098D01*
X6073902Y-4114546D01*
X6071666Y-4111294D01*
X6070904Y-4107383D01*
X6070904Y-3239008D01*
X6070142Y-3231032D01*
X6067958Y-3223818D01*
X6064402Y-3217164D01*
X6059322Y-3210966D01*
X5856833Y-3008477D01*
X5850636Y-3003397D01*
X5843981Y-2999841D01*
X5836767Y-2997657D01*
X5828792Y-2996895D01*
X5443016Y-2996895D01*
X5439105Y-2996133D01*
X5435854Y-2993898D01*
X4796942Y-2355037D01*
X4794808Y-2351836D01*
X4793996Y-2348026D01*
X4794656Y-2344216D01*
X4795723Y-2341422D01*
X4798872Y-2328265D01*
X4800244Y-2314803D01*
X4799787Y-2301240D01*
X4797501Y-2287930D01*
X4793538Y-2274976D01*
X4787798Y-2262733D01*
X4780534Y-2251303D01*
X4771796Y-2240991D01*
X4768850Y-2237232D01*
X4767935Y-2233320D01*
X4768596Y-2229307D01*
X4770780Y-2225903D01*
X4774133Y-2223617D01*
X4778095Y-2222804D01*
X4939792Y-2222804D01*
X4947767Y-2222042D01*
X4954981Y-2219858D01*
X4961636Y-2216302D01*
X4967833Y-2211222D01*
X5142128Y-2036876D01*
X5145430Y-2034692D01*
X5149291Y-2033930D01*
X5153202Y-2034692D01*
X5156911Y-2037334D01*
X5168900Y-2046681D01*
X5181904Y-2054555D01*
X5195773Y-2060803D01*
X5210251Y-2065324D01*
X5225237Y-2068068D01*
X5240426Y-2068982D01*
X5255564Y-2068068D01*
X5270550Y-2065324D01*
X5285028Y-2060803D01*
X5298897Y-2054555D01*
X5311902Y-2046681D01*
X5323890Y-2037334D01*
X5334609Y-2026564D01*
X5344007Y-2014626D01*
X5351881Y-2001621D01*
X5358130Y-1987753D01*
X5362651Y-1973224D01*
X5365394Y-1958289D01*
X5366308Y-1943100D01*
X5365394Y-1927910D01*
X5362651Y-1912975D01*
X5358130Y-1898446D01*
X5351881Y-1884578D01*
X5344007Y-1871573D01*
X5334609Y-1859635D01*
X5323890Y-1848866D01*
X5311902Y-1839518D01*
X5298897Y-1831644D01*
X5285028Y-1825396D01*
X5270550Y-1820875D01*
X5255564Y-1818132D01*
X5240426Y-1817217D01*
X5225237Y-1818132D01*
X5210251Y-1820875D01*
X5195773Y-1825396D01*
X5181904Y-1831644D01*
X5168900Y-1839518D01*
X5156911Y-1848866D01*
X5146192Y-1859635D01*
X5136794Y-1871573D01*
X5128920Y-1884578D01*
X5122672Y-1898446D01*
X5118150Y-1912975D01*
X5115407Y-1927910D01*
X5114493Y-1943100D01*
X5114950Y-1950567D01*
X5114340Y-1954784D01*
X5112004Y-1958390D01*
X4927346Y-2142998D01*
X4924094Y-2145233D01*
X4920183Y-2145995D01*
X4777892Y-2145995D01*
X4774031Y-2145233D01*
X4770729Y-2143048D01*
X4768494Y-2139797D01*
X4767732Y-2135936D01*
X4768443Y-2132076D01*
X4770577Y-2128774D01*
X4776368Y-2122779D01*
X4784394Y-2111908D01*
X4790897Y-2100021D01*
X4795723Y-2087422D01*
X4798872Y-2074265D01*
X4800244Y-2060803D01*
X4799787Y-2047239D01*
X4797501Y-2033930D01*
X4793538Y-2020976D01*
X4787798Y-2008733D01*
X4780534Y-1997303D01*
X4771796Y-1986991D01*
X4761788Y-1977898D01*
X4750612Y-1970278D01*
X4738522Y-1964131D01*
X4725771Y-1959711D01*
X4712512Y-1957019D01*
X4699000Y-1956104D01*
X4685487Y-1957019D01*
X4672228Y-1959711D01*
X4659477Y-1964131D01*
X4647387Y-1970278D01*
X4636211Y-1977898D01*
X4626203Y-1986991D01*
X4617466Y-1997303D01*
X4610201Y-2008733D01*
X4604461Y-2020976D01*
X4600498Y-2033930D01*
X4598212Y-2047239D01*
X4597755Y-2060803D01*
X4599127Y-2074265D01*
X4602276Y-2087422D01*
X4607102Y-2100021D01*
X4613605Y-2111908D01*
X4621631Y-2122779D01*
X4627422Y-2128774D01*
X4629556Y-2132076D01*
X4630267Y-2135936D01*
X4629505Y-2139797D01*
X4627270Y-2143048D01*
X4623968Y-2145233D01*
X4620107Y-2145995D01*
X3556508Y-2145995D01*
X3548532Y-2146757D01*
X3541318Y-2148941D01*
X3534664Y-2152497D01*
X3528466Y-2157577D01*
X3218586Y-2467508D01*
X3215487Y-2469642D01*
X3211779Y-2470454D01*
X3208070Y-2469896D01*
X3201771Y-2467711D01*
X3188512Y-2465019D01*
X3175000Y-2464104D01*
X3161487Y-2465019D01*
X3148228Y-2467711D01*
X3135477Y-2472131D01*
X3123387Y-2478278D01*
X3112211Y-2485898D01*
X3102203Y-2494991D01*
X3093466Y-2505303D01*
X3086201Y-2516733D01*
X3080461Y-2528976D01*
X3076498Y-2541930D01*
X3074212Y-2555240D01*
X3073755Y-2568803D01*
X3075127Y-2582265D01*
X3078276Y-2595422D01*
X3083102Y-2608021D01*
X3089605Y-2619908D01*
X3097631Y-2630779D01*
X3107080Y-2640533D01*
X3117697Y-2648915D01*
X3129330Y-2655824D01*
X3141776Y-2661056D01*
X3154832Y-2664663D01*
X3168243Y-2666441D01*
X3181756Y-2666441D01*
X3195167Y-2664663D01*
X3208223Y-2661056D01*
X3220669Y-2655824D01*
X3232302Y-2648915D01*
X3242919Y-2640533D01*
X3252368Y-2630779D01*
X3260394Y-2619908D01*
X3266897Y-2608021D01*
X3271723Y-2595422D01*
X3274872Y-2582265D01*
X3276244Y-2568803D01*
X3275787Y-2555240D01*
X3273501Y-2541930D01*
X3270453Y-2531973D01*
X3269996Y-2528316D01*
X3270859Y-2524760D01*
X3272942Y-2521762D01*
X3568954Y-2225802D01*
X3572205Y-2223566D01*
X3576116Y-2222804D01*
X4619904Y-2222804D01*
X4623866Y-2223617D01*
X4627219Y-2225903D01*
X4629404Y-2229307D01*
X4630064Y-2233320D01*
X4629150Y-2237232D01*
X4626203Y-2240991D01*
X4617466Y-2251303D01*
X4610201Y-2262733D01*
X4604461Y-2274976D01*
X4600498Y-2287930D01*
X4598212Y-2301240D01*
X4597755Y-2314803D01*
X4599127Y-2328265D01*
X4602276Y-2341422D01*
X4607102Y-2354021D01*
X4613605Y-2365908D01*
X4621631Y-2376779D01*
X4631080Y-2386533D01*
X4641697Y-2394915D01*
X4653330Y-2401824D01*
X4665776Y-2407056D01*
X4678832Y-2410663D01*
X4692243Y-2412441D01*
X4705756Y-2412441D01*
X4719167Y-2410663D01*
X4732934Y-2406904D01*
X4736439Y-2406548D01*
X4739894Y-2407462D01*
X4742789Y-2409494D01*
X5395366Y-3062122D01*
X5402275Y-3067761D01*
X5404866Y-3071012D01*
X5405983Y-3074974D01*
X5405424Y-3079038D01*
X5403291Y-3082594D01*
X5399887Y-3084931D01*
X5395874Y-3085795D01*
X5277916Y-3085795D01*
X5274005Y-3085033D01*
X5270754Y-3082798D01*
X4796942Y-2609037D01*
X4794808Y-2605836D01*
X4793996Y-2602026D01*
X4794656Y-2598216D01*
X4795723Y-2595422D01*
X4798872Y-2582265D01*
X4800244Y-2568803D01*
X4799787Y-2555240D01*
X4797501Y-2541930D01*
X4793538Y-2528976D01*
X4787798Y-2516733D01*
X4780534Y-2505303D01*
X4771796Y-2494991D01*
X4761788Y-2485898D01*
X4750612Y-2478278D01*
X4738522Y-2472131D01*
X4725771Y-2467711D01*
X4712512Y-2465019D01*
X4699000Y-2464104D01*
X4685487Y-2465019D01*
X4672228Y-2467711D01*
X4659477Y-2472131D01*
X4647387Y-2478278D01*
X4636211Y-2485898D01*
X4626203Y-2494991D01*
X4617466Y-2505303D01*
X4610201Y-2516733D01*
X4604461Y-2528976D01*
X4600498Y-2541930D01*
X4598212Y-2555240D01*
X4597755Y-2568803D01*
X4599127Y-2582265D01*
X4602276Y-2595422D01*
X4607102Y-2608021D01*
X4613605Y-2619908D01*
X4621631Y-2630779D01*
X4631080Y-2640533D01*
X4641697Y-2648915D01*
X4653330Y-2655824D01*
X4665776Y-2661056D01*
X4678832Y-2664663D01*
X4692243Y-2666441D01*
X4705756Y-2666441D01*
X4719167Y-2664663D01*
X4732934Y-2660904D01*
X4736439Y-2660548D01*
X4739894Y-2661462D01*
X4742789Y-2663494D01*
X5230266Y-3151022D01*
X5236464Y-3156102D01*
X5243118Y-3159658D01*
X5250332Y-3161842D01*
X5258308Y-3162604D01*
X5771083Y-3162604D01*
X5774994Y-3163366D01*
X5778246Y-3165602D01*
X5889498Y-3276854D01*
X5891733Y-3280105D01*
X5892495Y-3284016D01*
X5892495Y-4203192D01*
X5893257Y-4211167D01*
X5895441Y-4218381D01*
X5898997Y-4225036D01*
X5904077Y-4231233D01*
X6017666Y-4344822D01*
X6023864Y-4349902D01*
X6030518Y-4353458D01*
X6037732Y-4355642D01*
X6045708Y-4356404D01*
X7180783Y-4356404D01*
X7184694Y-4357166D01*
X7187946Y-4359402D01*
X7222998Y-4394454D01*
X7225233Y-4397705D01*
X7225995Y-4401616D01*
X7225995Y-4455515D01*
X7225284Y-4459224D01*
X7223302Y-4462373D01*
X7220305Y-4464608D01*
X7212075Y-4468672D01*
X7200696Y-4476292D01*
X7190435Y-4485335D01*
X7181392Y-4495596D01*
X7173772Y-4506976D01*
X7167727Y-4519269D01*
X7163358Y-4532223D01*
X7160666Y-4545634D01*
X7159752Y-4559300D01*
X7160666Y-4572965D01*
X7163358Y-4586376D01*
X7167727Y-4599330D01*
X7173772Y-4611624D01*
X7181392Y-4623003D01*
X7190435Y-4633264D01*
X7200696Y-4642307D01*
X7212075Y-4649927D01*
X7224369Y-4655972D01*
X7237323Y-4660341D01*
X7250734Y-4663033D01*
G37*
G36*
X6383020Y-4653178D02*
G01*
X6389624Y-4649927D01*
X6401003Y-4642307D01*
X6411264Y-4633264D01*
X6420307Y-4623003D01*
X6427927Y-4611624D01*
X6431178Y-4605020D01*
X6383020Y-4605020D01*
G37*
G36*
X6291580Y-4653178D02*
G01*
X6291580Y-4605020D01*
X6243421Y-4605020D01*
X6246672Y-4611624D01*
X6254292Y-4623003D01*
X6263335Y-4633264D01*
X6273596Y-4642307D01*
X6284976Y-4649927D01*
G37*
G36*
X2786024Y-4583582D02*
G01*
X2801162Y-4582668D01*
X2816148Y-4579924D01*
X2830626Y-4575403D01*
X2844495Y-4569155D01*
X2857500Y-4561281D01*
X2869488Y-4551934D01*
X2880207Y-4541164D01*
X2889605Y-4529226D01*
X2897479Y-4516221D01*
X2903728Y-4502353D01*
X2908249Y-4487824D01*
X2910992Y-4472889D01*
X2911906Y-4457700D01*
X2910992Y-4442510D01*
X2908249Y-4427575D01*
X2903728Y-4413046D01*
X2897479Y-4399178D01*
X2889605Y-4386173D01*
X2880207Y-4374235D01*
X2869488Y-4363466D01*
X2857500Y-4354118D01*
X2844495Y-4346244D01*
X2830626Y-4339996D01*
X2816148Y-4335475D01*
X2801162Y-4332732D01*
X2786024Y-4331817D01*
X2770835Y-4332732D01*
X2755849Y-4335475D01*
X2741371Y-4339996D01*
X2727502Y-4346244D01*
X2714498Y-4354118D01*
X2702509Y-4363466D01*
X2691790Y-4374235D01*
X2682392Y-4386173D01*
X2674518Y-4399178D01*
X2668270Y-4413046D01*
X2663748Y-4427575D01*
X2661005Y-4442510D01*
X2660091Y-4457700D01*
X2661005Y-4472889D01*
X2663748Y-4487824D01*
X2668270Y-4502353D01*
X2674518Y-4516221D01*
X2682392Y-4529226D01*
X2691790Y-4541164D01*
X2702509Y-4551934D01*
X2714498Y-4561281D01*
X2727502Y-4569155D01*
X2741371Y-4575403D01*
X2755849Y-4579924D01*
X2770835Y-4582668D01*
G37*
G36*
X1786026Y-4583582D02*
G01*
X1801164Y-4582668D01*
X1816150Y-4579924D01*
X1830628Y-4575403D01*
X1844497Y-4569155D01*
X1857502Y-4561281D01*
X1869490Y-4551934D01*
X1880209Y-4541164D01*
X1889607Y-4529226D01*
X1897481Y-4516221D01*
X1903730Y-4502353D01*
X1908251Y-4487824D01*
X1910994Y-4472889D01*
X1911908Y-4457700D01*
X1910994Y-4442510D01*
X1908251Y-4427575D01*
X1903730Y-4413046D01*
X1897481Y-4399178D01*
X1889607Y-4386173D01*
X1880209Y-4374235D01*
X1869490Y-4363466D01*
X1857502Y-4354118D01*
X1844497Y-4346244D01*
X1830628Y-4339996D01*
X1816150Y-4335475D01*
X1801164Y-4332732D01*
X1786026Y-4331817D01*
X1770837Y-4332732D01*
X1755851Y-4335475D01*
X1741373Y-4339996D01*
X1727504Y-4346244D01*
X1714500Y-4354118D01*
X1702511Y-4363466D01*
X1691792Y-4374235D01*
X1682394Y-4386173D01*
X1674520Y-4399178D01*
X1668272Y-4413046D01*
X1663750Y-4427575D01*
X1661007Y-4442510D01*
X1660093Y-4457700D01*
X1661007Y-4472889D01*
X1663750Y-4487824D01*
X1668272Y-4502353D01*
X1674520Y-4516221D01*
X1682394Y-4529226D01*
X1691792Y-4541164D01*
X1702511Y-4551934D01*
X1714500Y-4561281D01*
X1727504Y-4569155D01*
X1741373Y-4575403D01*
X1755851Y-4579924D01*
X1770837Y-4582668D01*
G37*
G36*
X6383020Y-4513580D02*
G01*
X6431178Y-4513580D01*
X6427927Y-4506976D01*
X6420307Y-4495596D01*
X6411264Y-4485335D01*
X6401003Y-4476292D01*
X6389624Y-4468672D01*
X6383020Y-4465421D01*
G37*
G36*
X6243421Y-4513580D02*
G01*
X6291580Y-4513580D01*
X6291580Y-4465421D01*
X6284976Y-4468672D01*
X6273596Y-4476292D01*
X6263335Y-4485335D01*
X6254292Y-4495596D01*
X6246672Y-4506976D01*
G37*
G36*
X6802120Y-4513580D02*
G01*
X6861048Y-4513580D01*
X6861048Y-4481118D01*
X6860336Y-4474819D01*
X6858406Y-4469333D01*
X6855358Y-4464456D01*
X6851243Y-4460341D01*
X6846366Y-4457293D01*
X6840880Y-4455363D01*
X6834581Y-4454652D01*
X6802120Y-4454652D01*
G37*
G36*
X6651752Y-4513580D02*
G01*
X6710680Y-4513580D01*
X6710680Y-4454652D01*
X6678218Y-4454652D01*
X6671919Y-4455363D01*
X6666433Y-4457293D01*
X6661556Y-4460341D01*
X6657441Y-4464456D01*
X6654393Y-4469333D01*
X6652463Y-4474819D01*
X6651752Y-4481118D01*
G37*
G36*
X4692243Y-4444441D02*
G01*
X4705756Y-4444441D01*
X4719167Y-4442663D01*
X4732223Y-4439056D01*
X4744669Y-4433824D01*
X4756302Y-4426915D01*
X4766919Y-4418533D01*
X4776368Y-4408779D01*
X4784394Y-4397908D01*
X4790897Y-4386021D01*
X4795723Y-4373422D01*
X4798872Y-4360265D01*
X4800244Y-4346803D01*
X4799787Y-4333240D01*
X4797501Y-4319930D01*
X4793538Y-4306976D01*
X4787798Y-4294733D01*
X4780534Y-4283303D01*
X4771796Y-4272991D01*
X4768850Y-4269232D01*
X4767935Y-4265320D01*
X4768596Y-4261307D01*
X4770780Y-4257903D01*
X4774133Y-4255617D01*
X4778095Y-4254804D01*
X5079492Y-4254804D01*
X5087467Y-4254042D01*
X5094681Y-4251858D01*
X5101336Y-4248302D01*
X5107533Y-4243222D01*
X5335422Y-4015333D01*
X5342839Y-4006087D01*
X5345988Y-4004208D01*
X5349544Y-4003548D01*
X5386781Y-4003548D01*
X5393080Y-4002836D01*
X5398566Y-4000906D01*
X5403443Y-3997858D01*
X5407558Y-3993743D01*
X5410606Y-3988866D01*
X5412536Y-3983380D01*
X5413248Y-3977081D01*
X5413248Y-3820718D01*
X5412536Y-3814419D01*
X5410606Y-3808933D01*
X5407558Y-3804056D01*
X5403443Y-3799941D01*
X5398566Y-3796893D01*
X5393080Y-3794963D01*
X5386781Y-3794251D01*
X5230418Y-3794251D01*
X5224119Y-3794963D01*
X5218633Y-3796893D01*
X5213756Y-3799941D01*
X5209641Y-3804056D01*
X5206593Y-3808933D01*
X5204663Y-3814419D01*
X5203952Y-3820718D01*
X5203952Y-3977081D01*
X5204663Y-3983380D01*
X5206593Y-3988866D01*
X5209641Y-3993743D01*
X5213756Y-3997858D01*
X5218633Y-4000906D01*
X5223560Y-4003497D01*
X5225948Y-4006799D01*
X5226862Y-4010761D01*
X5226151Y-4014774D01*
X5223865Y-4018178D01*
X5067046Y-4174998D01*
X5063794Y-4177233D01*
X5059883Y-4177995D01*
X4777892Y-4177995D01*
X4774031Y-4177233D01*
X4770729Y-4175048D01*
X4768494Y-4171797D01*
X4767732Y-4167936D01*
X4768443Y-4164076D01*
X4770577Y-4160774D01*
X4776368Y-4154779D01*
X4784394Y-4143908D01*
X4790897Y-4132021D01*
X4795723Y-4119422D01*
X4798872Y-4106265D01*
X4800244Y-4092803D01*
X4799787Y-4079240D01*
X4797501Y-4065930D01*
X4793538Y-4052976D01*
X4787798Y-4040733D01*
X4780534Y-4029303D01*
X4771796Y-4018991D01*
X4768850Y-4015232D01*
X4767935Y-4011320D01*
X4768596Y-4007307D01*
X4770780Y-4003903D01*
X4774133Y-4001617D01*
X4778095Y-4000804D01*
X4876292Y-4000804D01*
X4884267Y-4000042D01*
X4891481Y-3997858D01*
X4898136Y-3994302D01*
X4904333Y-3989222D01*
X5186934Y-3706571D01*
X5190032Y-3704437D01*
X5193741Y-3703624D01*
X5197449Y-3704183D01*
X5200751Y-3706063D01*
X5203088Y-3709009D01*
X5204206Y-3712616D01*
X5204663Y-3716680D01*
X5206593Y-3722166D01*
X5209641Y-3727043D01*
X5213756Y-3731158D01*
X5218633Y-3734206D01*
X5224119Y-3736136D01*
X5230418Y-3736848D01*
X5386781Y-3736848D01*
X5393080Y-3736136D01*
X5398566Y-3734206D01*
X5403443Y-3731158D01*
X5407558Y-3727043D01*
X5410606Y-3722166D01*
X5412536Y-3716680D01*
X5413248Y-3710381D01*
X5413248Y-3554018D01*
X5412536Y-3547719D01*
X5410606Y-3542233D01*
X5407558Y-3537356D01*
X5403443Y-3533241D01*
X5398566Y-3530193D01*
X5393080Y-3528263D01*
X5386781Y-3527551D01*
X5230418Y-3527551D01*
X5224119Y-3528263D01*
X5218633Y-3530193D01*
X5213756Y-3533241D01*
X5209641Y-3537356D01*
X5206593Y-3542233D01*
X5204663Y-3547719D01*
X5203952Y-3554018D01*
X5203952Y-3585718D01*
X5203037Y-3589883D01*
X5200497Y-3593337D01*
X5196738Y-3595420D01*
X5192318Y-3596741D01*
X5185664Y-3600297D01*
X5179466Y-3605377D01*
X4863846Y-3920998D01*
X4860594Y-3923233D01*
X4856683Y-3923995D01*
X4777892Y-3923995D01*
X4774031Y-3923233D01*
X4770729Y-3921048D01*
X4768494Y-3917797D01*
X4767732Y-3913936D01*
X4768443Y-3910076D01*
X4770577Y-3906774D01*
X4776368Y-3900779D01*
X4784394Y-3889908D01*
X4790897Y-3878021D01*
X4795723Y-3865422D01*
X4798872Y-3852265D01*
X4800244Y-3838803D01*
X4799787Y-3825240D01*
X4797501Y-3811930D01*
X4793538Y-3798976D01*
X4787798Y-3786733D01*
X4780534Y-3775303D01*
X4771796Y-3764991D01*
X4761788Y-3755898D01*
X4750612Y-3748278D01*
X4738522Y-3742131D01*
X4725771Y-3737711D01*
X4712512Y-3735019D01*
X4699000Y-3734104D01*
X4685487Y-3735019D01*
X4672228Y-3737711D01*
X4659477Y-3742131D01*
X4647387Y-3748278D01*
X4636211Y-3755898D01*
X4626203Y-3764991D01*
X4617466Y-3775303D01*
X4610201Y-3786733D01*
X4604461Y-3798976D01*
X4600498Y-3811930D01*
X4598212Y-3825240D01*
X4597755Y-3838803D01*
X4599127Y-3852265D01*
X4602276Y-3865422D01*
X4607102Y-3878021D01*
X4613605Y-3889908D01*
X4621631Y-3900779D01*
X4627422Y-3906774D01*
X4629556Y-3910076D01*
X4630267Y-3913936D01*
X4629505Y-3917797D01*
X4627270Y-3921048D01*
X4623968Y-3923233D01*
X4620107Y-3923995D01*
X4403547Y-3923995D01*
X4399229Y-3923029D01*
X4395774Y-3920337D01*
X4394200Y-3917391D01*
X4392625Y-3920337D01*
X4389170Y-3923029D01*
X4384852Y-3923995D01*
X3322116Y-3923995D01*
X3318205Y-3923233D01*
X3314954Y-3920998D01*
X3272942Y-3879037D01*
X3270808Y-3875836D01*
X3269996Y-3872026D01*
X3270656Y-3868216D01*
X3271723Y-3865422D01*
X3274872Y-3852265D01*
X3276244Y-3838803D01*
X3275787Y-3825240D01*
X3273501Y-3811930D01*
X3269538Y-3798976D01*
X3263798Y-3786733D01*
X3256534Y-3775303D01*
X3247796Y-3764991D01*
X3237788Y-3755898D01*
X3226612Y-3748278D01*
X3214522Y-3742131D01*
X3201771Y-3737711D01*
X3188512Y-3735019D01*
X3175000Y-3734104D01*
X3161487Y-3735019D01*
X3148228Y-3737711D01*
X3135477Y-3742131D01*
X3123387Y-3748278D01*
X3112211Y-3755898D01*
X3102203Y-3764991D01*
X3093466Y-3775303D01*
X3086201Y-3786733D01*
X3080461Y-3798976D01*
X3076498Y-3811930D01*
X3074212Y-3825240D01*
X3073755Y-3838803D01*
X3075127Y-3852265D01*
X3078276Y-3865422D01*
X3083102Y-3878021D01*
X3089605Y-3889908D01*
X3097631Y-3900779D01*
X3107080Y-3910533D01*
X3117697Y-3918915D01*
X3129330Y-3925824D01*
X3141776Y-3931056D01*
X3154832Y-3934663D01*
X3168243Y-3936441D01*
X3181756Y-3936441D01*
X3195167Y-3934663D01*
X3208934Y-3930904D01*
X3212439Y-3930548D01*
X3215894Y-3931462D01*
X3218789Y-3933494D01*
X3274466Y-3989222D01*
X3280664Y-3994302D01*
X3287318Y-3997858D01*
X3294532Y-4000042D01*
X3302508Y-4000804D01*
X4619904Y-4000804D01*
X4623866Y-4001617D01*
X4627219Y-4003903D01*
X4629404Y-4007307D01*
X4630064Y-4011320D01*
X4629150Y-4015232D01*
X4626203Y-4018991D01*
X4617466Y-4029303D01*
X4610201Y-4040733D01*
X4604461Y-4052976D01*
X4600498Y-4065930D01*
X4598212Y-4079240D01*
X4597755Y-4092803D01*
X4599127Y-4106265D01*
X4602276Y-4119422D01*
X4607102Y-4132021D01*
X4613605Y-4143908D01*
X4621631Y-4154779D01*
X4627422Y-4160774D01*
X4629556Y-4164076D01*
X4630267Y-4167936D01*
X4629505Y-4171797D01*
X4627270Y-4175048D01*
X4623968Y-4177233D01*
X4620107Y-4177995D01*
X3322116Y-4177995D01*
X3318205Y-4177233D01*
X3314954Y-4174998D01*
X3272942Y-4133037D01*
X3270808Y-4129836D01*
X3269996Y-4126026D01*
X3270656Y-4122216D01*
X3271723Y-4119422D01*
X3274872Y-4106265D01*
X3276244Y-4092803D01*
X3275787Y-4079240D01*
X3273501Y-4065930D01*
X3269538Y-4052976D01*
X3263798Y-4040733D01*
X3256534Y-4029303D01*
X3247796Y-4018991D01*
X3237788Y-4009898D01*
X3226612Y-4002278D01*
X3214522Y-3996131D01*
X3201771Y-3991711D01*
X3188512Y-3989019D01*
X3175000Y-3988104D01*
X3161487Y-3989019D01*
X3148228Y-3991711D01*
X3135477Y-3996131D01*
X3123387Y-4002278D01*
X3112211Y-4009898D01*
X3102203Y-4018991D01*
X3093466Y-4029303D01*
X3086201Y-4040733D01*
X3080461Y-4052976D01*
X3076498Y-4065930D01*
X3074212Y-4079240D01*
X3073755Y-4092803D01*
X3075127Y-4106265D01*
X3078276Y-4119422D01*
X3083102Y-4132021D01*
X3089605Y-4143908D01*
X3097631Y-4154779D01*
X3107080Y-4164533D01*
X3117697Y-4172915D01*
X3129330Y-4179824D01*
X3141776Y-4185056D01*
X3154832Y-4188663D01*
X3168243Y-4190441D01*
X3181756Y-4190441D01*
X3195167Y-4188663D01*
X3208934Y-4184904D01*
X3212439Y-4184548D01*
X3215894Y-4185462D01*
X3218789Y-4187494D01*
X3274466Y-4243222D01*
X3280664Y-4248302D01*
X3287318Y-4251858D01*
X3294532Y-4254042D01*
X3302508Y-4254804D01*
X4619904Y-4254804D01*
X4623866Y-4255617D01*
X4627219Y-4257903D01*
X4629404Y-4261307D01*
X4630064Y-4265320D01*
X4629150Y-4269232D01*
X4626203Y-4272991D01*
X4617466Y-4283303D01*
X4610201Y-4294733D01*
X4604461Y-4306976D01*
X4600498Y-4319930D01*
X4598212Y-4333240D01*
X4597755Y-4346803D01*
X4599127Y-4360265D01*
X4602276Y-4373422D01*
X4607102Y-4386021D01*
X4613605Y-4397908D01*
X4621631Y-4408779D01*
X4631080Y-4418533D01*
X4641697Y-4426915D01*
X4653330Y-4433824D01*
X4665776Y-4439056D01*
X4678832Y-4442663D01*
G37*
G36*
X1422400Y-4409948D02*
G01*
X1436065Y-4409033D01*
X1449476Y-4406341D01*
X1462430Y-4401972D01*
X1474724Y-4395927D01*
X1486103Y-4388307D01*
X1496364Y-4379264D01*
X1505407Y-4369003D01*
X1513027Y-4357624D01*
X1519072Y-4345330D01*
X1523441Y-4332376D01*
X1526133Y-4318965D01*
X1527048Y-4305300D01*
X1526133Y-4291634D01*
X1523441Y-4278223D01*
X1519072Y-4265269D01*
X1513027Y-4252976D01*
X1505407Y-4241596D01*
X1496364Y-4231335D01*
X1486103Y-4222292D01*
X1474724Y-4214672D01*
X1462430Y-4208627D01*
X1449476Y-4204258D01*
X1436065Y-4201566D01*
X1422400Y-4200652D01*
X1408734Y-4201566D01*
X1395323Y-4204258D01*
X1382369Y-4208627D01*
X1370076Y-4214672D01*
X1358696Y-4222292D01*
X1348435Y-4231335D01*
X1339392Y-4241596D01*
X1331772Y-4252976D01*
X1325727Y-4265269D01*
X1321358Y-4278223D01*
X1318666Y-4291634D01*
X1317752Y-4305300D01*
X1318666Y-4318965D01*
X1321358Y-4332376D01*
X1325727Y-4345330D01*
X1331772Y-4357624D01*
X1339392Y-4369003D01*
X1348435Y-4379264D01*
X1358696Y-4388307D01*
X1370076Y-4395927D01*
X1382369Y-4401972D01*
X1395323Y-4406341D01*
X1408734Y-4409033D01*
G37*
G36*
X1168400Y-4409948D02*
G01*
X1182065Y-4409033D01*
X1195476Y-4406341D01*
X1208430Y-4401972D01*
X1220724Y-4395927D01*
X1232103Y-4388307D01*
X1242364Y-4379264D01*
X1251407Y-4369003D01*
X1259027Y-4357624D01*
X1265072Y-4345330D01*
X1269441Y-4332376D01*
X1272133Y-4318965D01*
X1273048Y-4305300D01*
X1272133Y-4291634D01*
X1269441Y-4278223D01*
X1265072Y-4265269D01*
X1259027Y-4252976D01*
X1251407Y-4241596D01*
X1242364Y-4231335D01*
X1232103Y-4222292D01*
X1220724Y-4214672D01*
X1208430Y-4208627D01*
X1195476Y-4204258D01*
X1182065Y-4201566D01*
X1168400Y-4200652D01*
X1154734Y-4201566D01*
X1141323Y-4204258D01*
X1128369Y-4208627D01*
X1116076Y-4214672D01*
X1104696Y-4222292D01*
X1094435Y-4231335D01*
X1085392Y-4241596D01*
X1077772Y-4252976D01*
X1071727Y-4265269D01*
X1067358Y-4278223D01*
X1064666Y-4291634D01*
X1063752Y-4305300D01*
X1064666Y-4318965D01*
X1067358Y-4332376D01*
X1071727Y-4345330D01*
X1077772Y-4357624D01*
X1085392Y-4369003D01*
X1094435Y-4379264D01*
X1104696Y-4388307D01*
X1116076Y-4395927D01*
X1128369Y-4401972D01*
X1141323Y-4406341D01*
X1154734Y-4409033D01*
G37*
G36*
X836218Y-4409948D02*
G01*
X992581Y-4409948D01*
X998880Y-4409236D01*
X1004366Y-4407306D01*
X1009243Y-4404258D01*
X1013358Y-4400143D01*
X1016406Y-4395266D01*
X1018336Y-4389780D01*
X1019048Y-4383481D01*
X1019048Y-4227118D01*
X1018336Y-4220819D01*
X1016406Y-4215333D01*
X1013358Y-4210456D01*
X1009243Y-4206341D01*
X1004366Y-4203293D01*
X998880Y-4201363D01*
X992581Y-4200652D01*
X836218Y-4200652D01*
X829919Y-4201363D01*
X824433Y-4203293D01*
X819556Y-4206341D01*
X815441Y-4210456D01*
X812393Y-4215333D01*
X810463Y-4220819D01*
X809752Y-4227118D01*
X809752Y-4383481D01*
X810463Y-4389780D01*
X812393Y-4395266D01*
X815441Y-4400143D01*
X819556Y-4404258D01*
X824433Y-4407306D01*
X829919Y-4409236D01*
G37*
G36*
X6243726Y-4088282D02*
G01*
X6258864Y-4087368D01*
X6273850Y-4084624D01*
X6288328Y-4080103D01*
X6302197Y-4073855D01*
X6315202Y-4065981D01*
X6327190Y-4056634D01*
X6337909Y-4045864D01*
X6347307Y-4033926D01*
X6355181Y-4020921D01*
X6361430Y-4007053D01*
X6365951Y-3992524D01*
X6368694Y-3977589D01*
X6369608Y-3962400D01*
X6368694Y-3947210D01*
X6365951Y-3932275D01*
X6361430Y-3917746D01*
X6355181Y-3903878D01*
X6347307Y-3890873D01*
X6337909Y-3878935D01*
X6327190Y-3868165D01*
X6315202Y-3858818D01*
X6302197Y-3850944D01*
X6288328Y-3844696D01*
X6273850Y-3840175D01*
X6258864Y-3837432D01*
X6243726Y-3836517D01*
X6228537Y-3837432D01*
X6213551Y-3840175D01*
X6199073Y-3844696D01*
X6185204Y-3850944D01*
X6172200Y-3858818D01*
X6160211Y-3868165D01*
X6149492Y-3878935D01*
X6140094Y-3890873D01*
X6132220Y-3903878D01*
X6125972Y-3917746D01*
X6121450Y-3932275D01*
X6118707Y-3947210D01*
X6117793Y-3962400D01*
X6118707Y-3977589D01*
X6121450Y-3992524D01*
X6125972Y-4007053D01*
X6132220Y-4020921D01*
X6140094Y-4033926D01*
X6149492Y-4045864D01*
X6160211Y-4056634D01*
X6172200Y-4065981D01*
X6185204Y-4073855D01*
X6199073Y-4080103D01*
X6213551Y-4084624D01*
X6228537Y-4087368D01*
G37*
G36*
X7300061Y-4074820D02*
G01*
X7302195Y-4073855D01*
X7315200Y-4065981D01*
X7327188Y-4056634D01*
X7337907Y-4045864D01*
X7347305Y-4033926D01*
X7355179Y-4020921D01*
X7356144Y-4018737D01*
X7300061Y-4018737D01*
G37*
G36*
X7187336Y-4074820D02*
G01*
X7187336Y-4018737D01*
X7131253Y-4018737D01*
X7132218Y-4020921D01*
X7140092Y-4033926D01*
X7149490Y-4045864D01*
X7160209Y-4056634D01*
X7172198Y-4065981D01*
X7185202Y-4073855D01*
G37*
G36*
X5608320Y-3992778D02*
G01*
X5614924Y-3989527D01*
X5626303Y-3981907D01*
X5636564Y-3972864D01*
X5645607Y-3962603D01*
X5653227Y-3951224D01*
X5656478Y-3944620D01*
X5608320Y-3944620D01*
G37*
G36*
X5516880Y-3992778D02*
G01*
X5516880Y-3944620D01*
X5468721Y-3944620D01*
X5471972Y-3951224D01*
X5479592Y-3962603D01*
X5488635Y-3972864D01*
X5498896Y-3981907D01*
X5510276Y-3989527D01*
G37*
G36*
X4394200Y-3910431D02*
G01*
X4395216Y-3907993D01*
X4398467Y-3905046D01*
X4413453Y-3901033D01*
X4422394Y-3896918D01*
X4430420Y-3891279D01*
X4437380Y-3884320D01*
X4443018Y-3876294D01*
X4447133Y-3867353D01*
X4449673Y-3857904D01*
X4450537Y-3848100D01*
X4449673Y-3838295D01*
X4447133Y-3828846D01*
X4443018Y-3819906D01*
X4437380Y-3811879D01*
X4430420Y-3804920D01*
X4422394Y-3799281D01*
X4413453Y-3795166D01*
X4404004Y-3792626D01*
X4394200Y-3791762D01*
X4384395Y-3792626D01*
X4374946Y-3795166D01*
X4366006Y-3799281D01*
X4357979Y-3804920D01*
X4356201Y-3806698D01*
X4352899Y-3808933D01*
X4349038Y-3809695D01*
X3461816Y-3809695D01*
X3457905Y-3808933D01*
X3454654Y-3806698D01*
X3272942Y-3625037D01*
X3270808Y-3621836D01*
X3269996Y-3618026D01*
X3270656Y-3614216D01*
X3271723Y-3611422D01*
X3274872Y-3598265D01*
X3276244Y-3584803D01*
X3275787Y-3571240D01*
X3273501Y-3557930D01*
X3269538Y-3544976D01*
X3263798Y-3532733D01*
X3256534Y-3521303D01*
X3247796Y-3510991D01*
X3237788Y-3501898D01*
X3226612Y-3494278D01*
X3214522Y-3488131D01*
X3201771Y-3483711D01*
X3188512Y-3481019D01*
X3175000Y-3480104D01*
X3161487Y-3481019D01*
X3148228Y-3483711D01*
X3135477Y-3488131D01*
X3123387Y-3494278D01*
X3112211Y-3501898D01*
X3102203Y-3510991D01*
X3093466Y-3521303D01*
X3086201Y-3532733D01*
X3080461Y-3544976D01*
X3076498Y-3557930D01*
X3074212Y-3571240D01*
X3073755Y-3584803D01*
X3075127Y-3598265D01*
X3078276Y-3611422D01*
X3083102Y-3624021D01*
X3089605Y-3635908D01*
X3097631Y-3646779D01*
X3107080Y-3656533D01*
X3117697Y-3664915D01*
X3129330Y-3671824D01*
X3141776Y-3677056D01*
X3154832Y-3680663D01*
X3168243Y-3682441D01*
X3181756Y-3682441D01*
X3195167Y-3680663D01*
X3208934Y-3676904D01*
X3212439Y-3676548D01*
X3215894Y-3677462D01*
X3218789Y-3679494D01*
X3414166Y-3874922D01*
X3420364Y-3880002D01*
X3427018Y-3883558D01*
X3434232Y-3885742D01*
X3442208Y-3886504D01*
X4349038Y-3886504D01*
X4352899Y-3887266D01*
X4356201Y-3889501D01*
X4357979Y-3891279D01*
X4366006Y-3896918D01*
X4374946Y-3901033D01*
X4389932Y-3905046D01*
X4393184Y-3907993D01*
G37*
G36*
X7131253Y-3906062D02*
G01*
X7187336Y-3906062D01*
X7187336Y-3849979D01*
X7185202Y-3850944D01*
X7172198Y-3858818D01*
X7160209Y-3868165D01*
X7149490Y-3878935D01*
X7140092Y-3890873D01*
X7132218Y-3903878D01*
G37*
G36*
X7300061Y-3906062D02*
G01*
X7356144Y-3906062D01*
X7355179Y-3903878D01*
X7347305Y-3890873D01*
X7337907Y-3878935D01*
X7327188Y-3868165D01*
X7315200Y-3858818D01*
X7302195Y-3850944D01*
X7300061Y-3849979D01*
G37*
G36*
X5468721Y-3853179D02*
G01*
X5516880Y-3853179D01*
X5516880Y-3805021D01*
X5510276Y-3808272D01*
X5498896Y-3815892D01*
X5488635Y-3824935D01*
X5479592Y-3835196D01*
X5471972Y-3846576D01*
G37*
G36*
X5608320Y-3853179D02*
G01*
X5656478Y-3853179D01*
X5653227Y-3846576D01*
X5645607Y-3835196D01*
X5636564Y-3824935D01*
X5626303Y-3815892D01*
X5614924Y-3808272D01*
X5608320Y-3805021D01*
G37*
G36*
X964692Y-3837025D02*
G01*
X1143508Y-3837025D01*
X1149858Y-3836314D01*
X1155293Y-3834384D01*
X1160221Y-3831285D01*
X1164285Y-3827221D01*
X1167384Y-3822293D01*
X1169314Y-3816858D01*
X1170025Y-3810508D01*
X1170025Y-3631692D01*
X1169314Y-3625342D01*
X1167384Y-3619906D01*
X1164285Y-3614978D01*
X1160221Y-3610914D01*
X1155293Y-3607815D01*
X1149858Y-3605885D01*
X1143508Y-3605174D01*
X964692Y-3605174D01*
X958342Y-3605885D01*
X952906Y-3607815D01*
X947978Y-3610914D01*
X943914Y-3614978D01*
X940816Y-3619906D01*
X938885Y-3625342D01*
X938174Y-3631692D01*
X938174Y-3810508D01*
X938885Y-3816858D01*
X940816Y-3822293D01*
X943914Y-3827221D01*
X947978Y-3831285D01*
X952906Y-3834384D01*
X958342Y-3836314D01*
G37*
G36*
X2234692Y-3837025D02*
G01*
X2413508Y-3837025D01*
X2419858Y-3836314D01*
X2425293Y-3834384D01*
X2430221Y-3831285D01*
X2434285Y-3827221D01*
X2437384Y-3822293D01*
X2439314Y-3816858D01*
X2440025Y-3810508D01*
X2440025Y-3631692D01*
X2439314Y-3625342D01*
X2437384Y-3619906D01*
X2434285Y-3614978D01*
X2430221Y-3610914D01*
X2425293Y-3607815D01*
X2419858Y-3605885D01*
X2413508Y-3605174D01*
X2234692Y-3605174D01*
X2228342Y-3605885D01*
X2222906Y-3607815D01*
X2217978Y-3610914D01*
X2213914Y-3614978D01*
X2210816Y-3619906D01*
X2208885Y-3625342D01*
X2208174Y-3631692D01*
X2208174Y-3810508D01*
X2208885Y-3816858D01*
X2210816Y-3822293D01*
X2213914Y-3827221D01*
X2217978Y-3831285D01*
X2222906Y-3834384D01*
X2228342Y-3836314D01*
G37*
G36*
X7243724Y-3770782D02*
G01*
X7258862Y-3769868D01*
X7273848Y-3767124D01*
X7288326Y-3762603D01*
X7302195Y-3756355D01*
X7315200Y-3748481D01*
X7327188Y-3739134D01*
X7337907Y-3728364D01*
X7347305Y-3716426D01*
X7355179Y-3703421D01*
X7361428Y-3689553D01*
X7365949Y-3675024D01*
X7368692Y-3660089D01*
X7369606Y-3644900D01*
X7368692Y-3629710D01*
X7365949Y-3614775D01*
X7361428Y-3600246D01*
X7355179Y-3586378D01*
X7347305Y-3573373D01*
X7337907Y-3561435D01*
X7327188Y-3550665D01*
X7315200Y-3541318D01*
X7302195Y-3533444D01*
X7288326Y-3527196D01*
X7273848Y-3522675D01*
X7258862Y-3519932D01*
X7243724Y-3519017D01*
X7228535Y-3519932D01*
X7213549Y-3522675D01*
X7199071Y-3527196D01*
X7185202Y-3533444D01*
X7172198Y-3541318D01*
X7160209Y-3550665D01*
X7149490Y-3561435D01*
X7140092Y-3573373D01*
X7132218Y-3586378D01*
X7125970Y-3600246D01*
X7121448Y-3614775D01*
X7118705Y-3629710D01*
X7117791Y-3644900D01*
X7118705Y-3660089D01*
X7121448Y-3675024D01*
X7125970Y-3689553D01*
X7132218Y-3703421D01*
X7140092Y-3716426D01*
X7149490Y-3728364D01*
X7160209Y-3739134D01*
X7172198Y-3748481D01*
X7185202Y-3756355D01*
X7199071Y-3762603D01*
X7213549Y-3767124D01*
X7228535Y-3769868D01*
G37*
G36*
X6243726Y-3770782D02*
G01*
X6258864Y-3769868D01*
X6273850Y-3767124D01*
X6288328Y-3762603D01*
X6302197Y-3756355D01*
X6315202Y-3748481D01*
X6327190Y-3739134D01*
X6337909Y-3728364D01*
X6347307Y-3716426D01*
X6355181Y-3703421D01*
X6361531Y-3689299D01*
X6363766Y-3686149D01*
X6366967Y-3684066D01*
X6370777Y-3683304D01*
X6476492Y-3683304D01*
X6484467Y-3682542D01*
X6491681Y-3680358D01*
X6498336Y-3676802D01*
X6504533Y-3671722D01*
X6567322Y-3608933D01*
X6572402Y-3602736D01*
X6575958Y-3596081D01*
X6578142Y-3588867D01*
X6578904Y-3580892D01*
X6578904Y-3309416D01*
X6579666Y-3305505D01*
X6581902Y-3302254D01*
X6726174Y-3157982D01*
X6729069Y-3155950D01*
X6732473Y-3155035D01*
X6740804Y-3154273D01*
X6750253Y-3151733D01*
X6759194Y-3147618D01*
X6767220Y-3141980D01*
X6774180Y-3135020D01*
X6779818Y-3126994D01*
X6783933Y-3118053D01*
X6786473Y-3108604D01*
X6787337Y-3098800D01*
X6786473Y-3088995D01*
X6783933Y-3079546D01*
X6779818Y-3070606D01*
X6774180Y-3062579D01*
X6767220Y-3055620D01*
X6759194Y-3049981D01*
X6750253Y-3045866D01*
X6740804Y-3043326D01*
X6731000Y-3042462D01*
X6721195Y-3043326D01*
X6711746Y-3045866D01*
X6702806Y-3049981D01*
X6694779Y-3055620D01*
X6687820Y-3062579D01*
X6682181Y-3070606D01*
X6678066Y-3079546D01*
X6675526Y-3088995D01*
X6674764Y-3097326D01*
X6673850Y-3100730D01*
X6671818Y-3103626D01*
X6513677Y-3261766D01*
X6508597Y-3267964D01*
X6505041Y-3274618D01*
X6502857Y-3281832D01*
X6502095Y-3289808D01*
X6502095Y-3561283D01*
X6501333Y-3565194D01*
X6499098Y-3568446D01*
X6464046Y-3603498D01*
X6460794Y-3605733D01*
X6456883Y-3606495D01*
X6370777Y-3606495D01*
X6366967Y-3605733D01*
X6363766Y-3603650D01*
X6361531Y-3600500D01*
X6355181Y-3586378D01*
X6347307Y-3573373D01*
X6337909Y-3561435D01*
X6327190Y-3550665D01*
X6315202Y-3541318D01*
X6302197Y-3533444D01*
X6288328Y-3527196D01*
X6273850Y-3522675D01*
X6258864Y-3519932D01*
X6243726Y-3519017D01*
X6228537Y-3519932D01*
X6213551Y-3522675D01*
X6199073Y-3527196D01*
X6185204Y-3533444D01*
X6172200Y-3541318D01*
X6160211Y-3550665D01*
X6149492Y-3561435D01*
X6140094Y-3573373D01*
X6132220Y-3586378D01*
X6125972Y-3600246D01*
X6121450Y-3614775D01*
X6118707Y-3629710D01*
X6117793Y-3644900D01*
X6118707Y-3660089D01*
X6121450Y-3675024D01*
X6125972Y-3689553D01*
X6132220Y-3703421D01*
X6140094Y-3716426D01*
X6149492Y-3728364D01*
X6160211Y-3739134D01*
X6172200Y-3748481D01*
X6185204Y-3756355D01*
X6199073Y-3762603D01*
X6213551Y-3767124D01*
X6228537Y-3769868D01*
G37*
G36*
X4394200Y-3764737D02*
G01*
X4404004Y-3763873D01*
X4413453Y-3761333D01*
X4422394Y-3757218D01*
X4430420Y-3751579D01*
X4437380Y-3744620D01*
X4443018Y-3736594D01*
X4447133Y-3727653D01*
X4449673Y-3718204D01*
X4450537Y-3708400D01*
X4449673Y-3698595D01*
X4447133Y-3689146D01*
X4443018Y-3680206D01*
X4437380Y-3672179D01*
X4430420Y-3665220D01*
X4422394Y-3659581D01*
X4413453Y-3655466D01*
X4404004Y-3652926D01*
X4394200Y-3652062D01*
X4384395Y-3652926D01*
X4374946Y-3655466D01*
X4366006Y-3659581D01*
X4357979Y-3665220D01*
X4356201Y-3666998D01*
X4352899Y-3669233D01*
X4349038Y-3669995D01*
X3576116Y-3669995D01*
X3572205Y-3669233D01*
X3568954Y-3666998D01*
X3272942Y-3371037D01*
X3270808Y-3367836D01*
X3269996Y-3364026D01*
X3270656Y-3360216D01*
X3271723Y-3357422D01*
X3274872Y-3344265D01*
X3276244Y-3330803D01*
X3275787Y-3317240D01*
X3273501Y-3303930D01*
X3269538Y-3290976D01*
X3263798Y-3278733D01*
X3256534Y-3267303D01*
X3247796Y-3256991D01*
X3237788Y-3247898D01*
X3226612Y-3240278D01*
X3214522Y-3234131D01*
X3201771Y-3229711D01*
X3188512Y-3227019D01*
X3175000Y-3226104D01*
X3161487Y-3227019D01*
X3148228Y-3229711D01*
X3135477Y-3234131D01*
X3123387Y-3240278D01*
X3112211Y-3247898D01*
X3102203Y-3256991D01*
X3093466Y-3267303D01*
X3086201Y-3278733D01*
X3080461Y-3290976D01*
X3076498Y-3303930D01*
X3074212Y-3317240D01*
X3073755Y-3330803D01*
X3075127Y-3344265D01*
X3078276Y-3357422D01*
X3083102Y-3370021D01*
X3089605Y-3381908D01*
X3097631Y-3392779D01*
X3107080Y-3402533D01*
X3117697Y-3410915D01*
X3129330Y-3417824D01*
X3141776Y-3423056D01*
X3154832Y-3426663D01*
X3168243Y-3428441D01*
X3181756Y-3428441D01*
X3195167Y-3426663D01*
X3208934Y-3422904D01*
X3212439Y-3422548D01*
X3215894Y-3423462D01*
X3218789Y-3425494D01*
X3528466Y-3735222D01*
X3534664Y-3740302D01*
X3541318Y-3743858D01*
X3548532Y-3746042D01*
X3556508Y-3746804D01*
X4349038Y-3746804D01*
X4352899Y-3747566D01*
X4356201Y-3749801D01*
X4357979Y-3751579D01*
X4366006Y-3757218D01*
X4374946Y-3761333D01*
X4384395Y-3763873D01*
G37*
G36*
X5608320Y-3726078D02*
G01*
X5614924Y-3722827D01*
X5626303Y-3715207D01*
X5636564Y-3706164D01*
X5645607Y-3695903D01*
X5653227Y-3684524D01*
X5656478Y-3677920D01*
X5608320Y-3677920D01*
G37*
G36*
X5516880Y-3726078D02*
G01*
X5516880Y-3677920D01*
X5468721Y-3677920D01*
X5471972Y-3684524D01*
X5479592Y-3695903D01*
X5488635Y-3706164D01*
X5498896Y-3715207D01*
X5510276Y-3722827D01*
G37*
G36*
X4692243Y-3682441D02*
G01*
X4705756Y-3682441D01*
X4719167Y-3680663D01*
X4732223Y-3677056D01*
X4744669Y-3671824D01*
X4756302Y-3664915D01*
X4766919Y-3656533D01*
X4776368Y-3646779D01*
X4784394Y-3635908D01*
X4790897Y-3624021D01*
X4795723Y-3611422D01*
X4798872Y-3598265D01*
X4800244Y-3584803D01*
X4799787Y-3571240D01*
X4797501Y-3557930D01*
X4793538Y-3544976D01*
X4787798Y-3532733D01*
X4780534Y-3521303D01*
X4771796Y-3510991D01*
X4761788Y-3501898D01*
X4750612Y-3494278D01*
X4738522Y-3488131D01*
X4725771Y-3483711D01*
X4712512Y-3481019D01*
X4699000Y-3480104D01*
X4685487Y-3481019D01*
X4672228Y-3483711D01*
X4659477Y-3488131D01*
X4647387Y-3494278D01*
X4636211Y-3501898D01*
X4626203Y-3510991D01*
X4617466Y-3521303D01*
X4610201Y-3532733D01*
X4604461Y-3544976D01*
X4600498Y-3557930D01*
X4598212Y-3571240D01*
X4597755Y-3584803D01*
X4599127Y-3598265D01*
X4602276Y-3611422D01*
X4607102Y-3624021D01*
X4613605Y-3635908D01*
X4621631Y-3646779D01*
X4631080Y-3656533D01*
X4641697Y-3664915D01*
X4653330Y-3671824D01*
X4665776Y-3677056D01*
X4678832Y-3680663D01*
G37*
G36*
X5608320Y-3586479D02*
G01*
X5656478Y-3586479D01*
X5653227Y-3579876D01*
X5645607Y-3568496D01*
X5636564Y-3558235D01*
X5626303Y-3549192D01*
X5614924Y-3541572D01*
X5608320Y-3538321D01*
G37*
G36*
X5468721Y-3586479D02*
G01*
X5516880Y-3586479D01*
X5516880Y-3538321D01*
X5510276Y-3541572D01*
X5498896Y-3549192D01*
X5488635Y-3558235D01*
X5479592Y-3568496D01*
X5471972Y-3579876D01*
G37*
G36*
X2324100Y-3582974D02*
G01*
X2338628Y-3582060D01*
X2352903Y-3579368D01*
X2366772Y-3574846D01*
X2379929Y-3568649D01*
X2392222Y-3560876D01*
X2403449Y-3551580D01*
X2413406Y-3540963D01*
X2421940Y-3529177D01*
X2428951Y-3516426D01*
X2434336Y-3502914D01*
X2437942Y-3488791D01*
X2439771Y-3474364D01*
X2439771Y-3459835D01*
X2437942Y-3445408D01*
X2434336Y-3431286D01*
X2428951Y-3417773D01*
X2421940Y-3405022D01*
X2413406Y-3393236D01*
X2403449Y-3382619D01*
X2392222Y-3373323D01*
X2379929Y-3365550D01*
X2366772Y-3359353D01*
X2352903Y-3354832D01*
X2338628Y-3352139D01*
X2324100Y-3351225D01*
X2309571Y-3352139D01*
X2295296Y-3354832D01*
X2281428Y-3359353D01*
X2268270Y-3365550D01*
X2255977Y-3373323D01*
X2244750Y-3382619D01*
X2234793Y-3393236D01*
X2226259Y-3405022D01*
X2219248Y-3417773D01*
X2213864Y-3431286D01*
X2210257Y-3445408D01*
X2208428Y-3459835D01*
X2208428Y-3474364D01*
X2210257Y-3488791D01*
X2213864Y-3502914D01*
X2219248Y-3516426D01*
X2226259Y-3529177D01*
X2234793Y-3540963D01*
X2244750Y-3551580D01*
X2255977Y-3560876D01*
X2268270Y-3568649D01*
X2281428Y-3574846D01*
X2295296Y-3579368D01*
X2309571Y-3582060D01*
G37*
G36*
X1105458Y-3570782D02*
G01*
X1109929Y-3568649D01*
X1122222Y-3560876D01*
X1133449Y-3551580D01*
X1143406Y-3540963D01*
X1151940Y-3529177D01*
X1157833Y-3518458D01*
X1105458Y-3518458D01*
G37*
G36*
X1002741Y-3570782D02*
G01*
X1002741Y-3518458D01*
X950366Y-3518458D01*
X956259Y-3529177D01*
X964793Y-3540963D01*
X974750Y-3551580D01*
X985977Y-3560876D01*
X998270Y-3568649D01*
G37*
G36*
X7305852Y-3492804D02*
G01*
X7759192Y-3492804D01*
X7767167Y-3492042D01*
X7774381Y-3489858D01*
X7781036Y-3486302D01*
X7787233Y-3481222D01*
X7900822Y-3367633D01*
X7905902Y-3361436D01*
X7909458Y-3354781D01*
X7911642Y-3347567D01*
X7912404Y-3339592D01*
X7912404Y-2578608D01*
X7911642Y-2570632D01*
X7909458Y-2563418D01*
X7905902Y-2556764D01*
X7900822Y-2550566D01*
X7799425Y-2449169D01*
X7797038Y-2445512D01*
X7796479Y-2441244D01*
X7797698Y-2437079D01*
X7803337Y-2426970D01*
X7810347Y-2410612D01*
X7815681Y-2393594D01*
X7819288Y-2376119D01*
X7821066Y-2358390D01*
X7821066Y-2340610D01*
X7819288Y-2322880D01*
X7815681Y-2305405D01*
X7810347Y-2288387D01*
X7803337Y-2272030D01*
X7794650Y-2256434D01*
X7784490Y-2241854D01*
X7772908Y-2228291D01*
X7759953Y-2216048D01*
X7745882Y-2205126D01*
X7730744Y-2195728D01*
X7714742Y-2187854D01*
X7698079Y-2181656D01*
X7680807Y-2177186D01*
X7663180Y-2174494D01*
X7645146Y-2173579D01*
X7570063Y-2173579D01*
X7566202Y-2172817D01*
X7562900Y-2170633D01*
X7494066Y-2101799D01*
X7491882Y-2098497D01*
X7491120Y-2094636D01*
X7491120Y-1519580D01*
X7491882Y-1515668D01*
X7494066Y-1512366D01*
X7497368Y-1510182D01*
X7501280Y-1509420D01*
X7632446Y-1509420D01*
X7650480Y-1508506D01*
X7668107Y-1505813D01*
X7685379Y-1501343D01*
X7702042Y-1495145D01*
X7718044Y-1487271D01*
X7733182Y-1477873D01*
X7747253Y-1466951D01*
X7760208Y-1454708D01*
X7771790Y-1441145D01*
X7781950Y-1426565D01*
X7790637Y-1410970D01*
X7797647Y-1394612D01*
X7802981Y-1377594D01*
X7806588Y-1360119D01*
X7808366Y-1342390D01*
X7808366Y-1324610D01*
X7806588Y-1306880D01*
X7802981Y-1289405D01*
X7797647Y-1272387D01*
X7790637Y-1256030D01*
X7781950Y-1240434D01*
X7771790Y-1225854D01*
X7760208Y-1212291D01*
X7747253Y-1200048D01*
X7733182Y-1189126D01*
X7718044Y-1179728D01*
X7702042Y-1171854D01*
X7685379Y-1165656D01*
X7668107Y-1161186D01*
X7650480Y-1158494D01*
X7632446Y-1157579D01*
X7391603Y-1157579D01*
X7377938Y-1158087D01*
X7373721Y-1158494D01*
X7360259Y-1160373D01*
X7356094Y-1161186D01*
X7342886Y-1164437D01*
X7338872Y-1165606D01*
X7326020Y-1170178D01*
X7322159Y-1171803D01*
X7309866Y-1177645D01*
X7306157Y-1179626D01*
X7294473Y-1186688D01*
X7291019Y-1189024D01*
X7280148Y-1197254D01*
X7276896Y-1199946D01*
X7266889Y-1209243D01*
X7190943Y-1285189D01*
X7181646Y-1295196D01*
X7178954Y-1298448D01*
X7170724Y-1309319D01*
X7168388Y-1312773D01*
X7161326Y-1324457D01*
X7159345Y-1328166D01*
X7153503Y-1340459D01*
X7151878Y-1344320D01*
X7147306Y-1357172D01*
X7146137Y-1361186D01*
X7142886Y-1374394D01*
X7142073Y-1378559D01*
X7140194Y-1392021D01*
X7139787Y-1396238D01*
X7139279Y-1409903D01*
X7139279Y-1561338D01*
X7138517Y-1565249D01*
X7136333Y-1568551D01*
X7133031Y-1570736D01*
X7129119Y-1571498D01*
X7125258Y-1570736D01*
X7121956Y-1568551D01*
X6690461Y-1137056D01*
X6688226Y-1133652D01*
X6687515Y-1129639D01*
X6688429Y-1125626D01*
X6690817Y-1122324D01*
X6694322Y-1120241D01*
X6698386Y-1119733D01*
X6702348Y-1120851D01*
X6705498Y-1122476D01*
X6717842Y-1126896D01*
X6730644Y-1129538D01*
X6743700Y-1130452D01*
X6756755Y-1129538D01*
X6769557Y-1126896D01*
X6781901Y-1122476D01*
X6793534Y-1116482D01*
X6804202Y-1108913D01*
X6813753Y-1099972D01*
X6822033Y-1089863D01*
X6828840Y-1078636D01*
X6834073Y-1066647D01*
X6837578Y-1054049D01*
X6839356Y-1041095D01*
X6839356Y-1027988D01*
X6837578Y-1015034D01*
X6834073Y-1002436D01*
X6828840Y-990447D01*
X6822033Y-979220D01*
X6813753Y-969111D01*
X6804202Y-960170D01*
X6793534Y-952601D01*
X6781901Y-946607D01*
X6769557Y-942187D01*
X6760260Y-940257D01*
X6756349Y-938580D01*
X6753504Y-935431D01*
X6752234Y-931418D01*
X6752640Y-927201D01*
X6754774Y-923544D01*
X6758178Y-921054D01*
X6762292Y-920191D01*
X6948220Y-920191D01*
X6952081Y-920953D01*
X6955383Y-923137D01*
X7104684Y-1072438D01*
X7110323Y-1077772D01*
X7116165Y-1082598D01*
X7122312Y-1087120D01*
X7128662Y-1091234D01*
X7135317Y-1094994D01*
X7142124Y-1098346D01*
X7149185Y-1101242D01*
X7156348Y-1103731D01*
X7163663Y-1105763D01*
X7171131Y-1107338D01*
X7178649Y-1108506D01*
X7186218Y-1109167D01*
X7193991Y-1109421D01*
X7612837Y-1109421D01*
X7617307Y-1110081D01*
X7632700Y-1110996D01*
X7648092Y-1110081D01*
X7663230Y-1107287D01*
X7677912Y-1102715D01*
X7691932Y-1096416D01*
X7705140Y-1088440D01*
X7717231Y-1078941D01*
X7728102Y-1068070D01*
X7737602Y-1055928D01*
X7745577Y-1042771D01*
X7751927Y-1028700D01*
X7756499Y-1014018D01*
X7759242Y-998880D01*
X7760208Y-983538D01*
X7759242Y-968146D01*
X7756499Y-953008D01*
X7751927Y-938326D01*
X7745577Y-924255D01*
X7737602Y-911098D01*
X7728102Y-898956D01*
X7717231Y-888085D01*
X7705140Y-878586D01*
X7691932Y-870610D01*
X7677912Y-864311D01*
X7663230Y-859739D01*
X7648092Y-856945D01*
X7632700Y-856030D01*
X7617307Y-856945D01*
X7612837Y-857605D01*
X7250175Y-857605D01*
X7246264Y-856843D01*
X7243013Y-854608D01*
X7099147Y-710793D01*
X7096963Y-707491D01*
X7096201Y-703630D01*
X7096201Y-554888D01*
X7097014Y-550926D01*
X7097877Y-549605D01*
X7096963Y-548182D01*
X7096201Y-544271D01*
X7096201Y-482396D01*
X7095236Y-466953D01*
X7092340Y-451510D01*
X7087971Y-437438D01*
X7086295Y-433781D01*
X7085431Y-430225D01*
X7085279Y-427583D01*
X7082536Y-413258D01*
X7078065Y-399440D01*
X7071868Y-386283D01*
X7064044Y-373989D01*
X7054799Y-362762D01*
X7044181Y-352806D01*
X7032396Y-344271D01*
X7019645Y-337261D01*
X7006132Y-331876D01*
X6992010Y-328269D01*
X6977583Y-326440D01*
X6963003Y-326440D01*
X6948576Y-328269D01*
X6934504Y-331876D01*
X6920941Y-337261D01*
X6908190Y-344271D01*
X6896404Y-352806D01*
X6885838Y-362762D01*
X6876542Y-373989D01*
X6868769Y-386283D01*
X6862572Y-399440D01*
X6858050Y-413258D01*
X6855307Y-427583D01*
X6855155Y-430072D01*
X6854291Y-433578D01*
X6852056Y-439013D01*
X6850075Y-442620D01*
X6846874Y-445109D01*
X6842912Y-446176D01*
X6838848Y-445566D01*
X6835394Y-443382D01*
X6833006Y-440029D01*
X6832193Y-436016D01*
X6832193Y-352653D01*
X6831482Y-346354D01*
X6829602Y-340868D01*
X6826503Y-335991D01*
X6822389Y-331876D01*
X6817512Y-328828D01*
X6812025Y-326898D01*
X6805726Y-326186D01*
X6626859Y-326186D01*
X6620560Y-326898D01*
X6615074Y-328828D01*
X6610197Y-331876D01*
X6606082Y-335991D01*
X6603034Y-340868D01*
X6601104Y-346354D01*
X6600393Y-352653D01*
X6600393Y-433527D01*
X6599631Y-437388D01*
X6597396Y-440690D01*
X6594094Y-442925D01*
X6590233Y-443687D01*
X6541007Y-443687D01*
X6533032Y-444449D01*
X6525818Y-446633D01*
X6519164Y-450189D01*
X6513372Y-454964D01*
X6508597Y-460756D01*
X6505041Y-467410D01*
X6502857Y-474624D01*
X6502095Y-482600D01*
X6502095Y-1013053D01*
X6501333Y-1016914D01*
X6499098Y-1020216D01*
X6495796Y-1022451D01*
X6491935Y-1023213D01*
X6488023Y-1022451D01*
X6484772Y-1020216D01*
X6446621Y-982116D01*
X6444234Y-978408D01*
X6443675Y-974039D01*
X6444437Y-965200D01*
X6443573Y-955395D01*
X6441033Y-945946D01*
X6436918Y-937006D01*
X6431280Y-928979D01*
X6424320Y-922019D01*
X6416294Y-916381D01*
X6407353Y-912266D01*
X6397904Y-909726D01*
X6388100Y-908862D01*
X6378295Y-909726D01*
X6368846Y-912266D01*
X6359906Y-916381D01*
X6351879Y-922019D01*
X6344920Y-928979D01*
X6339281Y-937006D01*
X6335166Y-945946D01*
X6332626Y-955395D01*
X6331762Y-965200D01*
X6332626Y-975004D01*
X6335166Y-984453D01*
X6339281Y-993394D01*
X6344920Y-1001420D01*
X6351879Y-1008380D01*
X6359906Y-1014018D01*
X6368846Y-1018133D01*
X6373317Y-1019352D01*
X6375755Y-1020368D01*
X6377838Y-1021994D01*
X6943598Y-1587754D01*
X6945833Y-1591005D01*
X6946595Y-1594916D01*
X6946595Y-2103170D01*
X6946087Y-2106371D01*
X6944563Y-2109266D01*
X6942277Y-2111502D01*
X6936079Y-2115820D01*
X6929120Y-2122779D01*
X6923481Y-2130806D01*
X6919366Y-2139746D01*
X6916826Y-2149195D01*
X6915962Y-2159000D01*
X6916826Y-2168804D01*
X6919366Y-2178253D01*
X6923481Y-2187194D01*
X6929120Y-2195220D01*
X6936079Y-2202180D01*
X6944106Y-2207818D01*
X6953046Y-2211933D01*
X6962495Y-2214473D01*
X6972300Y-2215337D01*
X6982104Y-2214473D01*
X6991553Y-2211933D01*
X7000494Y-2207818D01*
X7008520Y-2202180D01*
X7015480Y-2195220D01*
X7021118Y-2187194D01*
X7025233Y-2178253D01*
X7027773Y-2168804D01*
X7028637Y-2159000D01*
X7027773Y-2149195D01*
X7025233Y-2139746D01*
X7024370Y-2137816D01*
X7023404Y-2133549D01*
X7023404Y-1603146D01*
X7024166Y-1599285D01*
X7026402Y-1595983D01*
X7029703Y-1593748D01*
X7033564Y-1592986D01*
X7037476Y-1593748D01*
X7040727Y-1595983D01*
X7057898Y-1613154D01*
X7060133Y-1616405D01*
X7060895Y-1620316D01*
X7060895Y-2164638D01*
X7060133Y-2168499D01*
X7057898Y-2171801D01*
X7056120Y-2173579D01*
X7050481Y-2181606D01*
X7046366Y-2190546D01*
X7043826Y-2199995D01*
X7042962Y-2209800D01*
X7043826Y-2219604D01*
X7046366Y-2229053D01*
X7050481Y-2237994D01*
X7056120Y-2246020D01*
X7063079Y-2252980D01*
X7071106Y-2258618D01*
X7080046Y-2262733D01*
X7089495Y-2265273D01*
X7099300Y-2266137D01*
X7109104Y-2265273D01*
X7118553Y-2262733D01*
X7127494Y-2258618D01*
X7135520Y-2252980D01*
X7141413Y-2247087D01*
X7144562Y-2244953D01*
X7148271Y-2244140D01*
X7152030Y-2244699D01*
X7155281Y-2246680D01*
X7157618Y-2249678D01*
X7161377Y-2257044D01*
X7168388Y-2268626D01*
X7170724Y-2272080D01*
X7178954Y-2282952D01*
X7181646Y-2286203D01*
X7190943Y-2296210D01*
X7368489Y-2473756D01*
X7378496Y-2483053D01*
X7381748Y-2485745D01*
X7392619Y-2493975D01*
X7396073Y-2496312D01*
X7407757Y-2503373D01*
X7411466Y-2505354D01*
X7423759Y-2511196D01*
X7427620Y-2512822D01*
X7440472Y-2517394D01*
X7444486Y-2518562D01*
X7457694Y-2521813D01*
X7461859Y-2522626D01*
X7475321Y-2524506D01*
X7479538Y-2524912D01*
X7493203Y-2525420D01*
X7645146Y-2525420D01*
X7663180Y-2524506D01*
X7680807Y-2521813D01*
X7698079Y-2517343D01*
X7714742Y-2511145D01*
X7730744Y-2503271D01*
X7732623Y-2502154D01*
X7736890Y-2500680D01*
X7741361Y-2501188D01*
X7745171Y-2503576D01*
X7832598Y-2591054D01*
X7834833Y-2594305D01*
X7835595Y-2598216D01*
X7835595Y-3319983D01*
X7834833Y-3323894D01*
X7832598Y-3327146D01*
X7746746Y-3412998D01*
X7743494Y-3415233D01*
X7739583Y-3415995D01*
X7354773Y-3415995D01*
X7350404Y-3414979D01*
X7346848Y-3412185D01*
X7344918Y-3408121D01*
X7344867Y-3403650D01*
X7347305Y-3398926D01*
X7355179Y-3385921D01*
X7361428Y-3372053D01*
X7365949Y-3357524D01*
X7368692Y-3342589D01*
X7369606Y-3327400D01*
X7368692Y-3312210D01*
X7365949Y-3297275D01*
X7361428Y-3282746D01*
X7355179Y-3268878D01*
X7347305Y-3255873D01*
X7337907Y-3243935D01*
X7327188Y-3233166D01*
X7315200Y-3223818D01*
X7302195Y-3215944D01*
X7288326Y-3209696D01*
X7273848Y-3205175D01*
X7258862Y-3202432D01*
X7243724Y-3201517D01*
X7228535Y-3202432D01*
X7213549Y-3205175D01*
X7199071Y-3209696D01*
X7185202Y-3215944D01*
X7172198Y-3223818D01*
X7160209Y-3233166D01*
X7149490Y-3243935D01*
X7140092Y-3255873D01*
X7132218Y-3268878D01*
X7125970Y-3282746D01*
X7121448Y-3297275D01*
X7118705Y-3312210D01*
X7117791Y-3327400D01*
X7118705Y-3342589D01*
X7121448Y-3357524D01*
X7125970Y-3372053D01*
X7132218Y-3385921D01*
X7140092Y-3398926D01*
X7149490Y-3410864D01*
X7160209Y-3421634D01*
X7172198Y-3430981D01*
X7185202Y-3438855D01*
X7199071Y-3445103D01*
X7213549Y-3449624D01*
X7228535Y-3452368D01*
X7243724Y-3453282D01*
X7252970Y-3452723D01*
X7256576Y-3453180D01*
X7259828Y-3454857D01*
X7262266Y-3457549D01*
X7273239Y-3475482D01*
X7278217Y-3481527D01*
X7284008Y-3486302D01*
X7290663Y-3489858D01*
X7297877Y-3492042D01*
G37*
G36*
X5230418Y-3470148D02*
G01*
X5386781Y-3470148D01*
X5393080Y-3469436D01*
X5398566Y-3467506D01*
X5403443Y-3464458D01*
X5407558Y-3460343D01*
X5410606Y-3455466D01*
X5412536Y-3449980D01*
X5413248Y-3443681D01*
X5413248Y-3287318D01*
X5412536Y-3281019D01*
X5411368Y-3277717D01*
X5410809Y-3273907D01*
X5411724Y-3270148D01*
X5413959Y-3267049D01*
X5417210Y-3264915D01*
X5420969Y-3264204D01*
X5492800Y-3264204D01*
X5496763Y-3265017D01*
X5500116Y-3267354D01*
X5502300Y-3270808D01*
X5502910Y-3274822D01*
X5501944Y-3278784D01*
X5499455Y-3282035D01*
X5488635Y-3291535D01*
X5479592Y-3301796D01*
X5471972Y-3313176D01*
X5468721Y-3319779D01*
X5516880Y-3319779D01*
X5516880Y-3274364D01*
X5517642Y-3270503D01*
X5519877Y-3267202D01*
X5523128Y-3264966D01*
X5527040Y-3264204D01*
X5598160Y-3264204D01*
X5602071Y-3264966D01*
X5605322Y-3267202D01*
X5607558Y-3270503D01*
X5608320Y-3274364D01*
X5608320Y-3319779D01*
X5656478Y-3319779D01*
X5653227Y-3313176D01*
X5645607Y-3301796D01*
X5636564Y-3291535D01*
X5625744Y-3282035D01*
X5623255Y-3278784D01*
X5622290Y-3274822D01*
X5622899Y-3270808D01*
X5625084Y-3267354D01*
X5628436Y-3265017D01*
X5632399Y-3264204D01*
X5732983Y-3264204D01*
X5736894Y-3264966D01*
X5740146Y-3267202D01*
X5762498Y-3289554D01*
X5764733Y-3292805D01*
X5765495Y-3296716D01*
X5765495Y-3345738D01*
X5764733Y-3349599D01*
X5762498Y-3352901D01*
X5760720Y-3354679D01*
X5755081Y-3362706D01*
X5750966Y-3371646D01*
X5748426Y-3381095D01*
X5747562Y-3390900D01*
X5748426Y-3400704D01*
X5750966Y-3410153D01*
X5755081Y-3419094D01*
X5760720Y-3427120D01*
X5767679Y-3434079D01*
X5775706Y-3439718D01*
X5784646Y-3443833D01*
X5794095Y-3446373D01*
X5803900Y-3447237D01*
X5813704Y-3446373D01*
X5823153Y-3443833D01*
X5832094Y-3439718D01*
X5840120Y-3434079D01*
X5847080Y-3427120D01*
X5852718Y-3419094D01*
X5856833Y-3410153D01*
X5859373Y-3400704D01*
X5860237Y-3390900D01*
X5859373Y-3381095D01*
X5856833Y-3371646D01*
X5852718Y-3362706D01*
X5847080Y-3354679D01*
X5845302Y-3352901D01*
X5843066Y-3349599D01*
X5842304Y-3345738D01*
X5842304Y-3277108D01*
X5841542Y-3269132D01*
X5839358Y-3261918D01*
X5835802Y-3255264D01*
X5830722Y-3249066D01*
X5780633Y-3198977D01*
X5774436Y-3193897D01*
X5767781Y-3190341D01*
X5760567Y-3188157D01*
X5752592Y-3187395D01*
X5176316Y-3187395D01*
X5172405Y-3186633D01*
X5169154Y-3184398D01*
X4917033Y-2932277D01*
X4910836Y-2927197D01*
X4904181Y-2923641D01*
X4896967Y-2921457D01*
X4888992Y-2920695D01*
X4763058Y-2920695D01*
X4758994Y-2919831D01*
X4755591Y-2917444D01*
X4753457Y-2913888D01*
X4752949Y-2909722D01*
X4754118Y-2905760D01*
X4756759Y-2902559D01*
X4766919Y-2894533D01*
X4776368Y-2884779D01*
X4784394Y-2873908D01*
X4790897Y-2862021D01*
X4795723Y-2849422D01*
X4798872Y-2836265D01*
X4800244Y-2822803D01*
X4799787Y-2809240D01*
X4797501Y-2795930D01*
X4793538Y-2782976D01*
X4787798Y-2770733D01*
X4780534Y-2759303D01*
X4771796Y-2748991D01*
X4761788Y-2739898D01*
X4750612Y-2732278D01*
X4738522Y-2726131D01*
X4725771Y-2721711D01*
X4712512Y-2719019D01*
X4699000Y-2718104D01*
X4685487Y-2719019D01*
X4672228Y-2721711D01*
X4659477Y-2726131D01*
X4647387Y-2732278D01*
X4636211Y-2739898D01*
X4626203Y-2748991D01*
X4617466Y-2759303D01*
X4610201Y-2770733D01*
X4604461Y-2782976D01*
X4600498Y-2795930D01*
X4598212Y-2809240D01*
X4597755Y-2822803D01*
X4599127Y-2836265D01*
X4602276Y-2849422D01*
X4607102Y-2862021D01*
X4613605Y-2873908D01*
X4621631Y-2884779D01*
X4631080Y-2894533D01*
X4641240Y-2902559D01*
X4643882Y-2905760D01*
X4645050Y-2909722D01*
X4644542Y-2913888D01*
X4642408Y-2917444D01*
X4639005Y-2919831D01*
X4634941Y-2920695D01*
X3334816Y-2920695D01*
X3330905Y-2919933D01*
X3327654Y-2917698D01*
X3272942Y-2863037D01*
X3270808Y-2859836D01*
X3269996Y-2856026D01*
X3270656Y-2852216D01*
X3271723Y-2849422D01*
X3274872Y-2836265D01*
X3276244Y-2822803D01*
X3275787Y-2809240D01*
X3273501Y-2795930D01*
X3269538Y-2782976D01*
X3263798Y-2770733D01*
X3256534Y-2759303D01*
X3247796Y-2748991D01*
X3237788Y-2739898D01*
X3226612Y-2732278D01*
X3214522Y-2726131D01*
X3201771Y-2721711D01*
X3188512Y-2719019D01*
X3175000Y-2718104D01*
X3161487Y-2719019D01*
X3148228Y-2721711D01*
X3135477Y-2726131D01*
X3123387Y-2732278D01*
X3112211Y-2739898D01*
X3102203Y-2748991D01*
X3093466Y-2759303D01*
X3086201Y-2770733D01*
X3080461Y-2782976D01*
X3076498Y-2795930D01*
X3074212Y-2809240D01*
X3073755Y-2822803D01*
X3075127Y-2836265D01*
X3078276Y-2849422D01*
X3083102Y-2862021D01*
X3089605Y-2873908D01*
X3097631Y-2884779D01*
X3107080Y-2894533D01*
X3117697Y-2902915D01*
X3129330Y-2909824D01*
X3141776Y-2915056D01*
X3154832Y-2918663D01*
X3168243Y-2920441D01*
X3181756Y-2920441D01*
X3195167Y-2918663D01*
X3208934Y-2914904D01*
X3212439Y-2914548D01*
X3215894Y-2915462D01*
X3218789Y-2917494D01*
X3287166Y-2985922D01*
X3293364Y-2991002D01*
X3300018Y-2994558D01*
X3307232Y-2996742D01*
X3315208Y-2997504D01*
X4609033Y-2997504D01*
X4613249Y-2998419D01*
X4616704Y-3001010D01*
X4618736Y-3004769D01*
X4619091Y-3009087D01*
X4617567Y-3013151D01*
X4610201Y-3024733D01*
X4604461Y-3036976D01*
X4600498Y-3049930D01*
X4598212Y-3063240D01*
X4597755Y-3076803D01*
X4599127Y-3090265D01*
X4602276Y-3103422D01*
X4607102Y-3116021D01*
X4613605Y-3127908D01*
X4621631Y-3138779D01*
X4627422Y-3144774D01*
X4629556Y-3148076D01*
X4630267Y-3151936D01*
X4629505Y-3155797D01*
X4627270Y-3159048D01*
X4623968Y-3161233D01*
X4620107Y-3161995D01*
X3322116Y-3161995D01*
X3318205Y-3161233D01*
X3314954Y-3158998D01*
X3272942Y-3117037D01*
X3270808Y-3113836D01*
X3269996Y-3110026D01*
X3270656Y-3106216D01*
X3271723Y-3103422D01*
X3274872Y-3090265D01*
X3276244Y-3076803D01*
X3275787Y-3063240D01*
X3273501Y-3049930D01*
X3269538Y-3036976D01*
X3263798Y-3024733D01*
X3256534Y-3013303D01*
X3247796Y-3002991D01*
X3237788Y-2993898D01*
X3226612Y-2986278D01*
X3214522Y-2980131D01*
X3201771Y-2975711D01*
X3188512Y-2973019D01*
X3175000Y-2972104D01*
X3161487Y-2973019D01*
X3148228Y-2975711D01*
X3135477Y-2980131D01*
X3123387Y-2986278D01*
X3112211Y-2993898D01*
X3102203Y-3002991D01*
X3093466Y-3013303D01*
X3086201Y-3024733D01*
X3080461Y-3036976D01*
X3076498Y-3049930D01*
X3074212Y-3063240D01*
X3073755Y-3076803D01*
X3075127Y-3090265D01*
X3078276Y-3103422D01*
X3083102Y-3116021D01*
X3089605Y-3127908D01*
X3097631Y-3138779D01*
X3107080Y-3148533D01*
X3117697Y-3156915D01*
X3129330Y-3163824D01*
X3141776Y-3169056D01*
X3154832Y-3172663D01*
X3168243Y-3174441D01*
X3181756Y-3174441D01*
X3195167Y-3172663D01*
X3208934Y-3168904D01*
X3212439Y-3168548D01*
X3215894Y-3169462D01*
X3218789Y-3171494D01*
X3274466Y-3227222D01*
X3280664Y-3232302D01*
X3287318Y-3235858D01*
X3294532Y-3238042D01*
X3302508Y-3238804D01*
X4619904Y-3238804D01*
X4623866Y-3239617D01*
X4627219Y-3241903D01*
X4629404Y-3245307D01*
X4630064Y-3249320D01*
X4629150Y-3253232D01*
X4626203Y-3256991D01*
X4617466Y-3267303D01*
X4610201Y-3278733D01*
X4604461Y-3290976D01*
X4600498Y-3303930D01*
X4598212Y-3317240D01*
X4597755Y-3330803D01*
X4599127Y-3344265D01*
X4602276Y-3357422D01*
X4607102Y-3370021D01*
X4613605Y-3381908D01*
X4621631Y-3392779D01*
X4631080Y-3402533D01*
X4641697Y-3410915D01*
X4653330Y-3417824D01*
X4665776Y-3423056D01*
X4678832Y-3426663D01*
X4692243Y-3428441D01*
X4705756Y-3428441D01*
X4719167Y-3426663D01*
X4732223Y-3423056D01*
X4744669Y-3417824D01*
X4756302Y-3410915D01*
X4766919Y-3402533D01*
X4776368Y-3392779D01*
X4784394Y-3381908D01*
X4790897Y-3370021D01*
X4795723Y-3357422D01*
X4798872Y-3344265D01*
X4800244Y-3330803D01*
X4799787Y-3317240D01*
X4797501Y-3303930D01*
X4793538Y-3290976D01*
X4787798Y-3278733D01*
X4780534Y-3267303D01*
X4771796Y-3256991D01*
X4768850Y-3253232D01*
X4767935Y-3249320D01*
X4768596Y-3245307D01*
X4770780Y-3241903D01*
X4774133Y-3239617D01*
X4778095Y-3238804D01*
X4894783Y-3238804D01*
X4898694Y-3239566D01*
X4901946Y-3241802D01*
X5052466Y-3392322D01*
X5058664Y-3397402D01*
X5065318Y-3400958D01*
X5072532Y-3403142D01*
X5080508Y-3403904D01*
X5193792Y-3403904D01*
X5197703Y-3404666D01*
X5200954Y-3406901D01*
X5203190Y-3410204D01*
X5203952Y-3414064D01*
X5203952Y-3443681D01*
X5204663Y-3449980D01*
X5206593Y-3455466D01*
X5209641Y-3460343D01*
X5213756Y-3464458D01*
X5218633Y-3467506D01*
X5224119Y-3469436D01*
G37*
G36*
X5608320Y-3459378D02*
G01*
X5614924Y-3456127D01*
X5626303Y-3448507D01*
X5636564Y-3439464D01*
X5645607Y-3429203D01*
X5653227Y-3417824D01*
X5656478Y-3411220D01*
X5608320Y-3411220D01*
G37*
G36*
X5516880Y-3459378D02*
G01*
X5516880Y-3411220D01*
X5468721Y-3411220D01*
X5471972Y-3417824D01*
X5479592Y-3429203D01*
X5488635Y-3439464D01*
X5498896Y-3448507D01*
X5510276Y-3456127D01*
G37*
G36*
X6243726Y-3453282D02*
G01*
X6258864Y-3452368D01*
X6273850Y-3449624D01*
X6288328Y-3445103D01*
X6302197Y-3438855D01*
X6315202Y-3430981D01*
X6327190Y-3421634D01*
X6337909Y-3410864D01*
X6347307Y-3398926D01*
X6355181Y-3385921D01*
X6361430Y-3372053D01*
X6365951Y-3357524D01*
X6368694Y-3342589D01*
X6369608Y-3327400D01*
X6368694Y-3312210D01*
X6365951Y-3297275D01*
X6361430Y-3282746D01*
X6355181Y-3268878D01*
X6347307Y-3255873D01*
X6337909Y-3243935D01*
X6327190Y-3233166D01*
X6315202Y-3223818D01*
X6302197Y-3215944D01*
X6288328Y-3209696D01*
X6273850Y-3205175D01*
X6269736Y-3204413D01*
X6266434Y-3203194D01*
X6263741Y-3200908D01*
X6262014Y-3197860D01*
X6261404Y-3194405D01*
X6261404Y-2547061D01*
X6262166Y-2543200D01*
X6264402Y-2539898D01*
X6266180Y-2538120D01*
X6271818Y-2530094D01*
X6275933Y-2521153D01*
X6278473Y-2511704D01*
X6279337Y-2501900D01*
X6278473Y-2492095D01*
X6275933Y-2482646D01*
X6271818Y-2473706D01*
X6266180Y-2465679D01*
X6259220Y-2458720D01*
X6251194Y-2453081D01*
X6242253Y-2448966D01*
X6232804Y-2446426D01*
X6223000Y-2445562D01*
X6213195Y-2446426D01*
X6203746Y-2448966D01*
X6194806Y-2453081D01*
X6186779Y-2458720D01*
X6179820Y-2465679D01*
X6174181Y-2473706D01*
X6170066Y-2482646D01*
X6167526Y-2492095D01*
X6166662Y-2501900D01*
X6167526Y-2511704D01*
X6170066Y-2521153D01*
X6174181Y-2530094D01*
X6179820Y-2538120D01*
X6181598Y-2539898D01*
X6183833Y-2543200D01*
X6184595Y-2547061D01*
X6184595Y-3210560D01*
X6183985Y-3213963D01*
X6182309Y-3217011D01*
X6179667Y-3219246D01*
X6172200Y-3223818D01*
X6160211Y-3233166D01*
X6149492Y-3243935D01*
X6140094Y-3255873D01*
X6132220Y-3268878D01*
X6125972Y-3282746D01*
X6121450Y-3297275D01*
X6118707Y-3312210D01*
X6117793Y-3327400D01*
X6118707Y-3342589D01*
X6121450Y-3357524D01*
X6125972Y-3372053D01*
X6132220Y-3385921D01*
X6140094Y-3398926D01*
X6149492Y-3410864D01*
X6160211Y-3421634D01*
X6172200Y-3430981D01*
X6185204Y-3438855D01*
X6199073Y-3445103D01*
X6213551Y-3449624D01*
X6228537Y-3452368D01*
G37*
G36*
X950366Y-3415741D02*
G01*
X1002741Y-3415741D01*
X1002741Y-3363417D01*
X998270Y-3365550D01*
X985977Y-3373323D01*
X974750Y-3382619D01*
X964793Y-3393236D01*
X956259Y-3405022D01*
G37*
G36*
X1105458Y-3415741D02*
G01*
X1157833Y-3415741D01*
X1151940Y-3405022D01*
X1143406Y-3393236D01*
X1133449Y-3382619D01*
X1122222Y-3373323D01*
X1109929Y-3365550D01*
X1105458Y-3363417D01*
G37*
G36*
X1054100Y-3328974D02*
G01*
X1068628Y-3328060D01*
X1082903Y-3325368D01*
X1096772Y-3320846D01*
X1109929Y-3314649D01*
X1122222Y-3306876D01*
X1133449Y-3297580D01*
X1143406Y-3286963D01*
X1151940Y-3275177D01*
X1158951Y-3262426D01*
X1164336Y-3248914D01*
X1167942Y-3234791D01*
X1169771Y-3220364D01*
X1169771Y-3205835D01*
X1167942Y-3191408D01*
X1164336Y-3177286D01*
X1158951Y-3163773D01*
X1151940Y-3151022D01*
X1143406Y-3139236D01*
X1133449Y-3128619D01*
X1122222Y-3119323D01*
X1109929Y-3111550D01*
X1096772Y-3105353D01*
X1082903Y-3100832D01*
X1068628Y-3098139D01*
X1054100Y-3097225D01*
X1039571Y-3098139D01*
X1025296Y-3100832D01*
X1011428Y-3105353D01*
X998270Y-3111550D01*
X985977Y-3119323D01*
X974750Y-3128619D01*
X964793Y-3139236D01*
X956259Y-3151022D01*
X949248Y-3163773D01*
X943864Y-3177286D01*
X940257Y-3191408D01*
X938428Y-3205835D01*
X938428Y-3220364D01*
X940257Y-3234791D01*
X943864Y-3248914D01*
X949248Y-3262426D01*
X956259Y-3275177D01*
X964793Y-3286963D01*
X974750Y-3297580D01*
X985977Y-3306876D01*
X998270Y-3314649D01*
X1011428Y-3320846D01*
X1025296Y-3325368D01*
X1039571Y-3328060D01*
G37*
G36*
X2324100Y-3328974D02*
G01*
X2338628Y-3328060D01*
X2352903Y-3325368D01*
X2366772Y-3320846D01*
X2379929Y-3314649D01*
X2392222Y-3306876D01*
X2403449Y-3297580D01*
X2413406Y-3286963D01*
X2421940Y-3275177D01*
X2428951Y-3262426D01*
X2434336Y-3248914D01*
X2437942Y-3234791D01*
X2439771Y-3220364D01*
X2439771Y-3205835D01*
X2437942Y-3191408D01*
X2434336Y-3177286D01*
X2428951Y-3163773D01*
X2421940Y-3151022D01*
X2413406Y-3139236D01*
X2403449Y-3128619D01*
X2392222Y-3119323D01*
X2379929Y-3111550D01*
X2366772Y-3105353D01*
X2352903Y-3100832D01*
X2338628Y-3098139D01*
X2324100Y-3097225D01*
X2309571Y-3098139D01*
X2295296Y-3100832D01*
X2281428Y-3105353D01*
X2268270Y-3111550D01*
X2255977Y-3119323D01*
X2244750Y-3128619D01*
X2234793Y-3139236D01*
X2226259Y-3151022D01*
X2219248Y-3163773D01*
X2213864Y-3177286D01*
X2210257Y-3191408D01*
X2208428Y-3205835D01*
X2208428Y-3220364D01*
X2210257Y-3234791D01*
X2213864Y-3248914D01*
X2219248Y-3262426D01*
X2226259Y-3275177D01*
X2234793Y-3286963D01*
X2244750Y-3297580D01*
X2255977Y-3306876D01*
X2268270Y-3314649D01*
X2281428Y-3320846D01*
X2295296Y-3325368D01*
X2309571Y-3328060D01*
G37*
G36*
X302818Y-3317748D02*
G01*
X459181Y-3317748D01*
X465480Y-3317036D01*
X470966Y-3315106D01*
X475843Y-3312058D01*
X479958Y-3307943D01*
X483006Y-3303066D01*
X484936Y-3297580D01*
X485648Y-3291281D01*
X485648Y-3134918D01*
X484936Y-3128619D01*
X483006Y-3123133D01*
X479958Y-3118256D01*
X475843Y-3114141D01*
X470966Y-3111093D01*
X465480Y-3109163D01*
X459181Y-3108452D01*
X302818Y-3108452D01*
X296519Y-3109163D01*
X291033Y-3111093D01*
X286156Y-3114141D01*
X282041Y-3118256D01*
X278993Y-3123133D01*
X277063Y-3128619D01*
X276352Y-3134918D01*
X276352Y-3291281D01*
X277063Y-3297580D01*
X278993Y-3303066D01*
X282041Y-3307943D01*
X286156Y-3312058D01*
X291033Y-3315106D01*
X296519Y-3317036D01*
G37*
G36*
X7691120Y-3285896D02*
G01*
X7723581Y-3285896D01*
X7729880Y-3285185D01*
X7735366Y-3283305D01*
X7740243Y-3280206D01*
X7744358Y-3276092D01*
X7747406Y-3271215D01*
X7749336Y-3265728D01*
X7750048Y-3259429D01*
X7750048Y-3223869D01*
X7691120Y-3223869D01*
G37*
G36*
X7567218Y-3285896D02*
G01*
X7599680Y-3285896D01*
X7599680Y-3223869D01*
X7540752Y-3223869D01*
X7540752Y-3259429D01*
X7541463Y-3265728D01*
X7543393Y-3271215D01*
X7546441Y-3276092D01*
X7550556Y-3280206D01*
X7555433Y-3283305D01*
X7560919Y-3285185D01*
G37*
G36*
X7691120Y-3126130D02*
G01*
X7750048Y-3126130D01*
X7750048Y-3090570D01*
X7749336Y-3084271D01*
X7747406Y-3078784D01*
X7744358Y-3073908D01*
X7740243Y-3069793D01*
X7735366Y-3066694D01*
X7729880Y-3064814D01*
X7723581Y-3064103D01*
X7691120Y-3064103D01*
G37*
G36*
X7540752Y-3126130D02*
G01*
X7599680Y-3126130D01*
X7599680Y-3064103D01*
X7567218Y-3064103D01*
X7560919Y-3064814D01*
X7555433Y-3066694D01*
X7550556Y-3069793D01*
X7546441Y-3073908D01*
X7543393Y-3078784D01*
X7541463Y-3084271D01*
X7540752Y-3090570D01*
G37*
G36*
X1054100Y-3074974D02*
G01*
X1068628Y-3074060D01*
X1082903Y-3071368D01*
X1096772Y-3066846D01*
X1109929Y-3060649D01*
X1122222Y-3052876D01*
X1133449Y-3043580D01*
X1143406Y-3032963D01*
X1151940Y-3021177D01*
X1158951Y-3008426D01*
X1164336Y-2994914D01*
X1167942Y-2980791D01*
X1169771Y-2966364D01*
X1169771Y-2951835D01*
X1167942Y-2937408D01*
X1164336Y-2923286D01*
X1158951Y-2909773D01*
X1151940Y-2897022D01*
X1143406Y-2885236D01*
X1133449Y-2874619D01*
X1122222Y-2865323D01*
X1109929Y-2857550D01*
X1096772Y-2851353D01*
X1082903Y-2846832D01*
X1068628Y-2844139D01*
X1054100Y-2843225D01*
X1039571Y-2844139D01*
X1025296Y-2846832D01*
X1011428Y-2851353D01*
X998270Y-2857550D01*
X985977Y-2865323D01*
X974750Y-2874619D01*
X964793Y-2885236D01*
X956259Y-2897022D01*
X949248Y-2909773D01*
X943864Y-2923286D01*
X940257Y-2937408D01*
X938428Y-2951835D01*
X938428Y-2966364D01*
X940257Y-2980791D01*
X943864Y-2994914D01*
X949248Y-3008426D01*
X956259Y-3021177D01*
X964793Y-3032963D01*
X974750Y-3043580D01*
X985977Y-3052876D01*
X998270Y-3060649D01*
X1011428Y-3066846D01*
X1025296Y-3071368D01*
X1039571Y-3074060D01*
G37*
G36*
X2324100Y-3074974D02*
G01*
X2338628Y-3074060D01*
X2352903Y-3071368D01*
X2366772Y-3066846D01*
X2379929Y-3060649D01*
X2392222Y-3052876D01*
X2403449Y-3043580D01*
X2413406Y-3032963D01*
X2421940Y-3021177D01*
X2428951Y-3008426D01*
X2434336Y-2994914D01*
X2437942Y-2980791D01*
X2439771Y-2966364D01*
X2439771Y-2951835D01*
X2437942Y-2937408D01*
X2434336Y-2923286D01*
X2428951Y-2909773D01*
X2421940Y-2897022D01*
X2413406Y-2885236D01*
X2403449Y-2874619D01*
X2392222Y-2865323D01*
X2379929Y-2857550D01*
X2366772Y-2851353D01*
X2352903Y-2846832D01*
X2338628Y-2844139D01*
X2324100Y-2843225D01*
X2309571Y-2844139D01*
X2295296Y-2846832D01*
X2281428Y-2851353D01*
X2268270Y-2857550D01*
X2255977Y-2865323D01*
X2244750Y-2874619D01*
X2234793Y-2885236D01*
X2226259Y-2897022D01*
X2219248Y-2909773D01*
X2213864Y-2923286D01*
X2210257Y-2937408D01*
X2208428Y-2951835D01*
X2208428Y-2966364D01*
X2210257Y-2980791D01*
X2213864Y-2994914D01*
X2219248Y-3008426D01*
X2226259Y-3021177D01*
X2234793Y-3032963D01*
X2244750Y-3043580D01*
X2255977Y-3052876D01*
X2268270Y-3060649D01*
X2281428Y-3066846D01*
X2295296Y-3071368D01*
X2309571Y-3074060D01*
G37*
G36*
X381000Y-3063748D02*
G01*
X394665Y-3062833D01*
X408076Y-3060141D01*
X421030Y-3055772D01*
X433324Y-3049727D01*
X444703Y-3042107D01*
X454964Y-3033064D01*
X464007Y-3022803D01*
X471627Y-3011424D01*
X477672Y-2999130D01*
X482041Y-2986176D01*
X484733Y-2972765D01*
X485648Y-2959100D01*
X484733Y-2945434D01*
X482041Y-2932023D01*
X477672Y-2919069D01*
X471627Y-2906776D01*
X464007Y-2895396D01*
X454964Y-2885135D01*
X444703Y-2876092D01*
X433324Y-2868472D01*
X421030Y-2862427D01*
X408076Y-2858058D01*
X394665Y-2855366D01*
X381000Y-2854452D01*
X367334Y-2855366D01*
X353923Y-2858058D01*
X340969Y-2862427D01*
X328676Y-2868472D01*
X317296Y-2876092D01*
X307035Y-2885135D01*
X297992Y-2895396D01*
X290372Y-2906776D01*
X284327Y-2919069D01*
X279958Y-2932023D01*
X277266Y-2945434D01*
X276352Y-2959100D01*
X277266Y-2972765D01*
X279958Y-2986176D01*
X284327Y-2999130D01*
X290372Y-3011424D01*
X297992Y-3022803D01*
X307035Y-3033064D01*
X317296Y-3042107D01*
X328676Y-3049727D01*
X340969Y-3055772D01*
X353923Y-3060141D01*
X367334Y-3062833D01*
G37*
G36*
X7638288Y-3031642D02*
G01*
X7652512Y-3031642D01*
X7666583Y-3029864D01*
X7680350Y-3026257D01*
X7693507Y-3020923D01*
X7705902Y-3013913D01*
X7717281Y-3005429D01*
X7727492Y-2995574D01*
X7736331Y-2984449D01*
X7743698Y-2972308D01*
X7749489Y-2959303D01*
X7753502Y-2945688D01*
X7755788Y-2931668D01*
X7756245Y-2917444D01*
X7754874Y-2903321D01*
X7751724Y-2889453D01*
X7746796Y-2876092D01*
X7740243Y-2863494D01*
X7732115Y-2851861D01*
X7722565Y-2841345D01*
X7711744Y-2832150D01*
X7699806Y-2824378D01*
X7687005Y-2818231D01*
X7673543Y-2813761D01*
X7659573Y-2811018D01*
X7645400Y-2810103D01*
X7631226Y-2811018D01*
X7617256Y-2813761D01*
X7604607Y-2817926D01*
X7600899Y-2818434D01*
X7597292Y-2817622D01*
X7594193Y-2815488D01*
X7382002Y-2603296D01*
X7375804Y-2598216D01*
X7369149Y-2594660D01*
X7361986Y-2592476D01*
X7354011Y-2591663D01*
X6927951Y-2591663D01*
X6924395Y-2591054D01*
X6921296Y-2589225D01*
X6919061Y-2586380D01*
X6917537Y-2583688D01*
X6910222Y-2573883D01*
X6901535Y-2565196D01*
X6891731Y-2557830D01*
X6880961Y-2551988D01*
X6869480Y-2547670D01*
X6857542Y-2545080D01*
X6845300Y-2544216D01*
X6833057Y-2545080D01*
X6821119Y-2547670D01*
X6809638Y-2551988D01*
X6798868Y-2557830D01*
X6789064Y-2565196D01*
X6780377Y-2573883D01*
X6773062Y-2583688D01*
X6767169Y-2594406D01*
X6762902Y-2605887D01*
X6760311Y-2617876D01*
X6759397Y-2630119D01*
X6760311Y-2642311D01*
X6762902Y-2654300D01*
X6767169Y-2665780D01*
X6773062Y-2676550D01*
X6780377Y-2686354D01*
X6789064Y-2694990D01*
X6791706Y-2696972D01*
X6794195Y-2699715D01*
X6795566Y-2703220D01*
X6795566Y-2706979D01*
X6794195Y-2710484D01*
X6791706Y-2713228D01*
X6789064Y-2715209D01*
X6780377Y-2723845D01*
X6773062Y-2733649D01*
X6767525Y-2743758D01*
X6808927Y-2743758D01*
X6808927Y-2722473D01*
X6809943Y-2718104D01*
X6812737Y-2714548D01*
X6816750Y-2712567D01*
X6821271Y-2712516D01*
X6833057Y-2715107D01*
X6845300Y-2715971D01*
X6857542Y-2715107D01*
X6869328Y-2712516D01*
X6873849Y-2712567D01*
X6877862Y-2714548D01*
X6880656Y-2718104D01*
X6881672Y-2722473D01*
X6881672Y-2743758D01*
X6923074Y-2743758D01*
X6917537Y-2733649D01*
X6910222Y-2723845D01*
X6901535Y-2715209D01*
X6898894Y-2713228D01*
X6896404Y-2710484D01*
X6895033Y-2706979D01*
X6895033Y-2703220D01*
X6896404Y-2699715D01*
X6898894Y-2696972D01*
X6901535Y-2694990D01*
X6910222Y-2686354D01*
X6917537Y-2676550D01*
X6919061Y-2673807D01*
X6921296Y-2670962D01*
X6924395Y-2669133D01*
X6927951Y-2668524D01*
X7334351Y-2668524D01*
X7338263Y-2669286D01*
X7341565Y-2671470D01*
X7539990Y-2869895D01*
X7542123Y-2873095D01*
X7542987Y-2876854D01*
X7542326Y-2880614D01*
X7539075Y-2889453D01*
X7535925Y-2903321D01*
X7534554Y-2917444D01*
X7535011Y-2931668D01*
X7537297Y-2945688D01*
X7541361Y-2959303D01*
X7547102Y-2972308D01*
X7554468Y-2984449D01*
X7563307Y-2995574D01*
X7573518Y-3005429D01*
X7584897Y-3013913D01*
X7597292Y-3020923D01*
X7610449Y-3026257D01*
X7624216Y-3029864D01*
G37*
G36*
X5456326Y-2932582D02*
G01*
X5471464Y-2931668D01*
X5486450Y-2928924D01*
X5500928Y-2924403D01*
X5514797Y-2918155D01*
X5527802Y-2910281D01*
X5539790Y-2900934D01*
X5550509Y-2890164D01*
X5559907Y-2878226D01*
X5567781Y-2865221D01*
X5574030Y-2851353D01*
X5578551Y-2836824D01*
X5581294Y-2821889D01*
X5582208Y-2806700D01*
X5581294Y-2791510D01*
X5578551Y-2776575D01*
X5574030Y-2762046D01*
X5567781Y-2748178D01*
X5559907Y-2735173D01*
X5550509Y-2723235D01*
X5539790Y-2712466D01*
X5527802Y-2703118D01*
X5514797Y-2695244D01*
X5500928Y-2688996D01*
X5486450Y-2684475D01*
X5471464Y-2681732D01*
X5456326Y-2680817D01*
X5441137Y-2681732D01*
X5426151Y-2684475D01*
X5411673Y-2688996D01*
X5397804Y-2695244D01*
X5384800Y-2703118D01*
X5372811Y-2712466D01*
X5362092Y-2723235D01*
X5352694Y-2735173D01*
X5344820Y-2748178D01*
X5338572Y-2762046D01*
X5334050Y-2776575D01*
X5331307Y-2791510D01*
X5330393Y-2806700D01*
X5331307Y-2821889D01*
X5334050Y-2836824D01*
X5338572Y-2851353D01*
X5344820Y-2865221D01*
X5352694Y-2878226D01*
X5362092Y-2890164D01*
X5372811Y-2900934D01*
X5384800Y-2910281D01*
X5397804Y-2918155D01*
X5411673Y-2924403D01*
X5426151Y-2928924D01*
X5441137Y-2931668D01*
G37*
G36*
X6456324Y-2932582D02*
G01*
X6471462Y-2931668D01*
X6486448Y-2928924D01*
X6500926Y-2924403D01*
X6514795Y-2918155D01*
X6527800Y-2910281D01*
X6539788Y-2900934D01*
X6550507Y-2890164D01*
X6559905Y-2878226D01*
X6567779Y-2865221D01*
X6574028Y-2851353D01*
X6578549Y-2836824D01*
X6581292Y-2821889D01*
X6582206Y-2806700D01*
X6581292Y-2791510D01*
X6578549Y-2776575D01*
X6574028Y-2762046D01*
X6567779Y-2748178D01*
X6559905Y-2735173D01*
X6550507Y-2723235D01*
X6539788Y-2712466D01*
X6527800Y-2703118D01*
X6514795Y-2695244D01*
X6500926Y-2688996D01*
X6486448Y-2684475D01*
X6471462Y-2681732D01*
X6456324Y-2680817D01*
X6441135Y-2681732D01*
X6426149Y-2684475D01*
X6411671Y-2688996D01*
X6397802Y-2695244D01*
X6384798Y-2703118D01*
X6372809Y-2712466D01*
X6362090Y-2723235D01*
X6352692Y-2735173D01*
X6344818Y-2748178D01*
X6338570Y-2762046D01*
X6334048Y-2776575D01*
X6331305Y-2791510D01*
X6330391Y-2806700D01*
X6331305Y-2821889D01*
X6334048Y-2836824D01*
X6338570Y-2851353D01*
X6344818Y-2865221D01*
X6352692Y-2878226D01*
X6362090Y-2890164D01*
X6372809Y-2900934D01*
X6384798Y-2910281D01*
X6397802Y-2918155D01*
X6411671Y-2924403D01*
X6426149Y-2928924D01*
X6441135Y-2931668D01*
G37*
G36*
X6881672Y-2857855D02*
G01*
X6891731Y-2852369D01*
X6901535Y-2845003D01*
X6910222Y-2836367D01*
X6917537Y-2826512D01*
X6923074Y-2816453D01*
X6881672Y-2816453D01*
G37*
G36*
X6808927Y-2857855D02*
G01*
X6808927Y-2816453D01*
X6767525Y-2816453D01*
X6773062Y-2826512D01*
X6780377Y-2836367D01*
X6789064Y-2845003D01*
X6798868Y-2852369D01*
G37*
G36*
X1054100Y-2820974D02*
G01*
X1068628Y-2820060D01*
X1082903Y-2817368D01*
X1096772Y-2812846D01*
X1109929Y-2806649D01*
X1122222Y-2798876D01*
X1133449Y-2789580D01*
X1143406Y-2778963D01*
X1151940Y-2767177D01*
X1158951Y-2754426D01*
X1164336Y-2740914D01*
X1167942Y-2726791D01*
X1169771Y-2712364D01*
X1169771Y-2697835D01*
X1167942Y-2683408D01*
X1164336Y-2669286D01*
X1158951Y-2655773D01*
X1151940Y-2643022D01*
X1143406Y-2631236D01*
X1133449Y-2620619D01*
X1122222Y-2611323D01*
X1109929Y-2603550D01*
X1096772Y-2597353D01*
X1082903Y-2592832D01*
X1068628Y-2590139D01*
X1054100Y-2589225D01*
X1039571Y-2590139D01*
X1025296Y-2592832D01*
X1011428Y-2597353D01*
X998270Y-2603550D01*
X985977Y-2611323D01*
X974750Y-2620619D01*
X964793Y-2631236D01*
X956259Y-2643022D01*
X949248Y-2655773D01*
X943864Y-2669286D01*
X940257Y-2683408D01*
X938428Y-2697835D01*
X938428Y-2712364D01*
X940257Y-2726791D01*
X943864Y-2740914D01*
X949248Y-2754426D01*
X956259Y-2767177D01*
X964793Y-2778963D01*
X974750Y-2789580D01*
X985977Y-2798876D01*
X998270Y-2806649D01*
X1011428Y-2812846D01*
X1025296Y-2817368D01*
X1039571Y-2820060D01*
G37*
G36*
X2324100Y-2820974D02*
G01*
X2338628Y-2820060D01*
X2352903Y-2817368D01*
X2366772Y-2812846D01*
X2379929Y-2806649D01*
X2392222Y-2798876D01*
X2403449Y-2789580D01*
X2413406Y-2778963D01*
X2421940Y-2767177D01*
X2428951Y-2754426D01*
X2434336Y-2740914D01*
X2437942Y-2726791D01*
X2439771Y-2712364D01*
X2439771Y-2697835D01*
X2437942Y-2683408D01*
X2434336Y-2669286D01*
X2428951Y-2655773D01*
X2421940Y-2643022D01*
X2413406Y-2631236D01*
X2403449Y-2620619D01*
X2392222Y-2611323D01*
X2379929Y-2603550D01*
X2368346Y-2598115D01*
X2365248Y-2595880D01*
X2363216Y-2592628D01*
X2362504Y-2588920D01*
X2362504Y-2567279D01*
X2363216Y-2563571D01*
X2365248Y-2560320D01*
X2368346Y-2558084D01*
X2379929Y-2552649D01*
X2392222Y-2544876D01*
X2403449Y-2535580D01*
X2413406Y-2524963D01*
X2421940Y-2513177D01*
X2428951Y-2500426D01*
X2434336Y-2486914D01*
X2437942Y-2472791D01*
X2439771Y-2458364D01*
X2439771Y-2443835D01*
X2437942Y-2429408D01*
X2434336Y-2415286D01*
X2428951Y-2401773D01*
X2421940Y-2389022D01*
X2414422Y-2378659D01*
X2412644Y-2374595D01*
X2412796Y-2370124D01*
X2414828Y-2366213D01*
X2418334Y-2363470D01*
X2422652Y-2362504D01*
X3081985Y-2362504D01*
X3085134Y-2363012D01*
X3087928Y-2364435D01*
X3090164Y-2366619D01*
X3097631Y-2376779D01*
X3107080Y-2386533D01*
X3117697Y-2394915D01*
X3129330Y-2401824D01*
X3141776Y-2407056D01*
X3154832Y-2410663D01*
X3168243Y-2412441D01*
X3181756Y-2412441D01*
X3195167Y-2410663D01*
X3208223Y-2407056D01*
X3220669Y-2401824D01*
X3232302Y-2394915D01*
X3242919Y-2386533D01*
X3252368Y-2376779D01*
X3260394Y-2365908D01*
X3266897Y-2354021D01*
X3271723Y-2341422D01*
X3274872Y-2328265D01*
X3276244Y-2314803D01*
X3275787Y-2301240D01*
X3273501Y-2287930D01*
X3269538Y-2274976D01*
X3263798Y-2262733D01*
X3256534Y-2251303D01*
X3247796Y-2240991D01*
X3237788Y-2231898D01*
X3226612Y-2224278D01*
X3214522Y-2218131D01*
X3201771Y-2213711D01*
X3188512Y-2211019D01*
X3175000Y-2210104D01*
X3161487Y-2211019D01*
X3148228Y-2213711D01*
X3135477Y-2218131D01*
X3123387Y-2224278D01*
X3112211Y-2231898D01*
X3102203Y-2240991D01*
X3093466Y-2251303D01*
X3086201Y-2262733D01*
X3080461Y-2274976D01*
X3079394Y-2278532D01*
X3077311Y-2282240D01*
X3073857Y-2284780D01*
X3069691Y-2285695D01*
X2422652Y-2285695D01*
X2418334Y-2284730D01*
X2414828Y-2281986D01*
X2412796Y-2278075D01*
X2412644Y-2273604D01*
X2414422Y-2269540D01*
X2421940Y-2259177D01*
X2428951Y-2246426D01*
X2430729Y-2241905D01*
X2432913Y-2238552D01*
X2436266Y-2236317D01*
X2440178Y-2235504D01*
X3034792Y-2235504D01*
X3042767Y-2234742D01*
X3049981Y-2232558D01*
X3056636Y-2229002D01*
X3062833Y-2223922D01*
X3131210Y-2155494D01*
X3134106Y-2153462D01*
X3137560Y-2152548D01*
X3141065Y-2152904D01*
X3154832Y-2156663D01*
X3168243Y-2158441D01*
X3181756Y-2158441D01*
X3195167Y-2156663D01*
X3208223Y-2153056D01*
X3220669Y-2147824D01*
X3232302Y-2140915D01*
X3242919Y-2132533D01*
X3252368Y-2122779D01*
X3260394Y-2111908D01*
X3266897Y-2100021D01*
X3271723Y-2087422D01*
X3274872Y-2074265D01*
X3276244Y-2060803D01*
X3275787Y-2047239D01*
X3273501Y-2033930D01*
X3269538Y-2020976D01*
X3263798Y-2008733D01*
X3256534Y-1997303D01*
X3247796Y-1986991D01*
X3237788Y-1977898D01*
X3226612Y-1970278D01*
X3214522Y-1964131D01*
X3201771Y-1959711D01*
X3188512Y-1957019D01*
X3175000Y-1956104D01*
X3161487Y-1957019D01*
X3148228Y-1959711D01*
X3135477Y-1964131D01*
X3123387Y-1970278D01*
X3112211Y-1977898D01*
X3102203Y-1986991D01*
X3093466Y-1997303D01*
X3086201Y-2008733D01*
X3080461Y-2020976D01*
X3076498Y-2033930D01*
X3074212Y-2047239D01*
X3073755Y-2060803D01*
X3075127Y-2074265D01*
X3078276Y-2087422D01*
X3079343Y-2090216D01*
X3080004Y-2094026D01*
X3079191Y-2097836D01*
X3077057Y-2101037D01*
X3022346Y-2155698D01*
X3019094Y-2157933D01*
X3015183Y-2158695D01*
X2440178Y-2158695D01*
X2436266Y-2157882D01*
X2432913Y-2155647D01*
X2430729Y-2152294D01*
X2428951Y-2147773D01*
X2421940Y-2135022D01*
X2413406Y-2123236D01*
X2403449Y-2112619D01*
X2392222Y-2103323D01*
X2379929Y-2095550D01*
X2366772Y-2089353D01*
X2352903Y-2084832D01*
X2338628Y-2082139D01*
X2324100Y-2081225D01*
X2309571Y-2082139D01*
X2295296Y-2084832D01*
X2281428Y-2089353D01*
X2268270Y-2095550D01*
X2255977Y-2103323D01*
X2244750Y-2112619D01*
X2234793Y-2123236D01*
X2226259Y-2135022D01*
X2219248Y-2147773D01*
X2213864Y-2161286D01*
X2210257Y-2175408D01*
X2208428Y-2189835D01*
X2208428Y-2204364D01*
X2210257Y-2218791D01*
X2213864Y-2232914D01*
X2219248Y-2246426D01*
X2226259Y-2259177D01*
X2233777Y-2269540D01*
X2235555Y-2273604D01*
X2235403Y-2278075D01*
X2233371Y-2281986D01*
X2229866Y-2284730D01*
X2225548Y-2285695D01*
X2217216Y-2285695D01*
X2213305Y-2284933D01*
X2210054Y-2282698D01*
X2098802Y-2171446D01*
X2096566Y-2168194D01*
X2095804Y-2164283D01*
X2095804Y-2026716D01*
X2096566Y-2022805D01*
X2098802Y-2019554D01*
X2133854Y-1984502D01*
X2137105Y-1982266D01*
X2141016Y-1981504D01*
X2208022Y-1981504D01*
X2211933Y-1982317D01*
X2215286Y-1984552D01*
X2217470Y-1987905D01*
X2219248Y-1992426D01*
X2226259Y-2005177D01*
X2234793Y-2016963D01*
X2244750Y-2027580D01*
X2255977Y-2036876D01*
X2268270Y-2044649D01*
X2281428Y-2050846D01*
X2295296Y-2055368D01*
X2309571Y-2058060D01*
X2324100Y-2058974D01*
X2338628Y-2058060D01*
X2352903Y-2055368D01*
X2366772Y-2050846D01*
X2379929Y-2044649D01*
X2392222Y-2036876D01*
X2403449Y-2027580D01*
X2413406Y-2016963D01*
X2421940Y-2005177D01*
X2428951Y-1992426D01*
X2434336Y-1978914D01*
X2437942Y-1964791D01*
X2439771Y-1950364D01*
X2439771Y-1935835D01*
X2437942Y-1921408D01*
X2434336Y-1907286D01*
X2428951Y-1893773D01*
X2421940Y-1881022D01*
X2413406Y-1869236D01*
X2403449Y-1858619D01*
X2392222Y-1849323D01*
X2379929Y-1841550D01*
X2366772Y-1835353D01*
X2352903Y-1830832D01*
X2338628Y-1828139D01*
X2324100Y-1827225D01*
X2309571Y-1828139D01*
X2295296Y-1830832D01*
X2281428Y-1835353D01*
X2268270Y-1841550D01*
X2255977Y-1849323D01*
X2244750Y-1858619D01*
X2234793Y-1869236D01*
X2226259Y-1881022D01*
X2219248Y-1893773D01*
X2217470Y-1898294D01*
X2215286Y-1901647D01*
X2211933Y-1903882D01*
X2208022Y-1904695D01*
X2121408Y-1904695D01*
X2113432Y-1905457D01*
X2106218Y-1907641D01*
X2099564Y-1911197D01*
X2093366Y-1916277D01*
X2030577Y-1979066D01*
X2025497Y-1985264D01*
X2021941Y-1991918D01*
X2019757Y-1999132D01*
X2018995Y-2007107D01*
X2018995Y-2183892D01*
X2019757Y-2191867D01*
X2021941Y-2199081D01*
X2025497Y-2205736D01*
X2030577Y-2211933D01*
X2169566Y-2350922D01*
X2175764Y-2356002D01*
X2182418Y-2359558D01*
X2189632Y-2361742D01*
X2197608Y-2362504D01*
X2225548Y-2362504D01*
X2229866Y-2363470D01*
X2233371Y-2366213D01*
X2235403Y-2370124D01*
X2235555Y-2374595D01*
X2233777Y-2378659D01*
X2226259Y-2389022D01*
X2219248Y-2401773D01*
X2213864Y-2415286D01*
X2210257Y-2429408D01*
X2208428Y-2443835D01*
X2208428Y-2458364D01*
X2210257Y-2472791D01*
X2213864Y-2486914D01*
X2219248Y-2500426D01*
X2226259Y-2513177D01*
X2234793Y-2524963D01*
X2244750Y-2535580D01*
X2255977Y-2544876D01*
X2268270Y-2552649D01*
X2279853Y-2558084D01*
X2282952Y-2560320D01*
X2284984Y-2563571D01*
X2285695Y-2567279D01*
X2285695Y-2588920D01*
X2284984Y-2592628D01*
X2282952Y-2595880D01*
X2279853Y-2598115D01*
X2268270Y-2603550D01*
X2255977Y-2611323D01*
X2244750Y-2620619D01*
X2234793Y-2631236D01*
X2226259Y-2643022D01*
X2219248Y-2655773D01*
X2213864Y-2669286D01*
X2210257Y-2683408D01*
X2208428Y-2697835D01*
X2208428Y-2712364D01*
X2210257Y-2726791D01*
X2213864Y-2740914D01*
X2219248Y-2754426D01*
X2226259Y-2767177D01*
X2234793Y-2778963D01*
X2244750Y-2789580D01*
X2255977Y-2798876D01*
X2268270Y-2806649D01*
X2281428Y-2812846D01*
X2295296Y-2817368D01*
X2309571Y-2820060D01*
G37*
G36*
X381000Y-2809748D02*
G01*
X394665Y-2808833D01*
X408076Y-2806141D01*
X421030Y-2801772D01*
X433324Y-2795727D01*
X444703Y-2788107D01*
X454964Y-2779064D01*
X464007Y-2768803D01*
X471627Y-2757424D01*
X477672Y-2745130D01*
X482041Y-2732176D01*
X484733Y-2718765D01*
X485648Y-2705100D01*
X484733Y-2691434D01*
X482041Y-2678023D01*
X477672Y-2665069D01*
X471627Y-2652776D01*
X464007Y-2641396D01*
X454964Y-2631135D01*
X444703Y-2622092D01*
X433324Y-2614472D01*
X421030Y-2608427D01*
X408076Y-2604058D01*
X394665Y-2601366D01*
X381000Y-2600452D01*
X367334Y-2601366D01*
X353923Y-2604058D01*
X340969Y-2608427D01*
X328676Y-2614472D01*
X317296Y-2622092D01*
X307035Y-2631135D01*
X297992Y-2641396D01*
X290372Y-2652776D01*
X284327Y-2665069D01*
X279958Y-2678023D01*
X277266Y-2691434D01*
X276352Y-2705100D01*
X277266Y-2718765D01*
X279958Y-2732176D01*
X284327Y-2745130D01*
X290372Y-2757424D01*
X297992Y-2768803D01*
X307035Y-2779064D01*
X317296Y-2788107D01*
X328676Y-2795727D01*
X340969Y-2801772D01*
X353923Y-2806141D01*
X367334Y-2808833D01*
G37*
G36*
X1054100Y-2566974D02*
G01*
X1068628Y-2566060D01*
X1082903Y-2563368D01*
X1096772Y-2558846D01*
X1109929Y-2552649D01*
X1122222Y-2544876D01*
X1133449Y-2535580D01*
X1143406Y-2524963D01*
X1151940Y-2513177D01*
X1158951Y-2500426D01*
X1164336Y-2486914D01*
X1167942Y-2472791D01*
X1169771Y-2458364D01*
X1169771Y-2443835D01*
X1167942Y-2429408D01*
X1164336Y-2415286D01*
X1158951Y-2401773D01*
X1151940Y-2389022D01*
X1143406Y-2377236D01*
X1133449Y-2366619D01*
X1122222Y-2357323D01*
X1109929Y-2349550D01*
X1096772Y-2343353D01*
X1082903Y-2338832D01*
X1068628Y-2336139D01*
X1054100Y-2335225D01*
X1039571Y-2336139D01*
X1025296Y-2338832D01*
X1011428Y-2343353D01*
X998270Y-2349550D01*
X985977Y-2357323D01*
X974750Y-2366619D01*
X964793Y-2377236D01*
X956259Y-2389022D01*
X949248Y-2401773D01*
X943864Y-2415286D01*
X940257Y-2429408D01*
X938428Y-2443835D01*
X938428Y-2458364D01*
X940257Y-2472791D01*
X943864Y-2486914D01*
X949248Y-2500426D01*
X956259Y-2513177D01*
X964793Y-2524963D01*
X974750Y-2535580D01*
X985977Y-2544876D01*
X998270Y-2552649D01*
X1011428Y-2558846D01*
X1025296Y-2563368D01*
X1039571Y-2566060D01*
G37*
G36*
X381000Y-2555748D02*
G01*
X394665Y-2554833D01*
X408076Y-2552141D01*
X421030Y-2547772D01*
X433324Y-2541727D01*
X444703Y-2534107D01*
X454964Y-2525064D01*
X464007Y-2514803D01*
X471627Y-2503424D01*
X477672Y-2491130D01*
X482041Y-2478176D01*
X484733Y-2464765D01*
X485648Y-2451100D01*
X484733Y-2437434D01*
X482041Y-2424023D01*
X477672Y-2411069D01*
X471627Y-2398776D01*
X464007Y-2387396D01*
X454964Y-2377135D01*
X444703Y-2368092D01*
X433324Y-2360472D01*
X421030Y-2354427D01*
X408076Y-2350058D01*
X394665Y-2347366D01*
X381000Y-2346452D01*
X367334Y-2347366D01*
X353923Y-2350058D01*
X340969Y-2354427D01*
X328676Y-2360472D01*
X317296Y-2368092D01*
X307035Y-2377135D01*
X297992Y-2387396D01*
X290372Y-2398776D01*
X284327Y-2411069D01*
X279958Y-2424023D01*
X277266Y-2437434D01*
X276352Y-2451100D01*
X277266Y-2464765D01*
X279958Y-2478176D01*
X284327Y-2491130D01*
X290372Y-2503424D01*
X297992Y-2514803D01*
X307035Y-2525064D01*
X317296Y-2534107D01*
X328676Y-2541727D01*
X340969Y-2547772D01*
X353923Y-2552141D01*
X367334Y-2554833D01*
G37*
G36*
X5240426Y-2386482D02*
G01*
X5255564Y-2385568D01*
X5270550Y-2382824D01*
X5285028Y-2378303D01*
X5298897Y-2372055D01*
X5311902Y-2364181D01*
X5323890Y-2354834D01*
X5334609Y-2344064D01*
X5344007Y-2332126D01*
X5351881Y-2319121D01*
X5358130Y-2305253D01*
X5362651Y-2290724D01*
X5365394Y-2275789D01*
X5366308Y-2260600D01*
X5365394Y-2245410D01*
X5362651Y-2230475D01*
X5358130Y-2215946D01*
X5351881Y-2202078D01*
X5344007Y-2189073D01*
X5334609Y-2177135D01*
X5323890Y-2166366D01*
X5311902Y-2157018D01*
X5298897Y-2149144D01*
X5285028Y-2142896D01*
X5270550Y-2138375D01*
X5255564Y-2135632D01*
X5240426Y-2134717D01*
X5225237Y-2135632D01*
X5210251Y-2138375D01*
X5195773Y-2142896D01*
X5181904Y-2149144D01*
X5168900Y-2157018D01*
X5156911Y-2166366D01*
X5146192Y-2177135D01*
X5136794Y-2189073D01*
X5128920Y-2202078D01*
X5122672Y-2215946D01*
X5118150Y-2230475D01*
X5115407Y-2245410D01*
X5114493Y-2260600D01*
X5115407Y-2275789D01*
X5118150Y-2290724D01*
X5122672Y-2305253D01*
X5128920Y-2319121D01*
X5136794Y-2332126D01*
X5146192Y-2344064D01*
X5156911Y-2354834D01*
X5168900Y-2364181D01*
X5181904Y-2372055D01*
X5195773Y-2378303D01*
X5210251Y-2382824D01*
X5225237Y-2385568D01*
G37*
G36*
X6296761Y-2373020D02*
G01*
X6298895Y-2372055D01*
X6311900Y-2364181D01*
X6323888Y-2354834D01*
X6334607Y-2344064D01*
X6344005Y-2332126D01*
X6351879Y-2319121D01*
X6352844Y-2316937D01*
X6296761Y-2316937D01*
G37*
G36*
X6184036Y-2373020D02*
G01*
X6184036Y-2316937D01*
X6127953Y-2316937D01*
X6128918Y-2319121D01*
X6136792Y-2332126D01*
X6146190Y-2344064D01*
X6156909Y-2354834D01*
X6168898Y-2364181D01*
X6181902Y-2372055D01*
G37*
G36*
X6127953Y-2204262D02*
G01*
X6184036Y-2204262D01*
X6184036Y-2148179D01*
X6181902Y-2149144D01*
X6168898Y-2157018D01*
X6156909Y-2166366D01*
X6146190Y-2177135D01*
X6136792Y-2189073D01*
X6128918Y-2202078D01*
G37*
G36*
X6296761Y-2204262D02*
G01*
X6352844Y-2204262D01*
X6351879Y-2202078D01*
X6344005Y-2189073D01*
X6334607Y-2177135D01*
X6323888Y-2166366D01*
X6311900Y-2157018D01*
X6298895Y-2149144D01*
X6296761Y-2148179D01*
G37*
G36*
X7645400Y-2126996D02*
G01*
X7660792Y-2126081D01*
X7675930Y-2123287D01*
X7690612Y-2118715D01*
X7704632Y-2112416D01*
X7717840Y-2104440D01*
X7729931Y-2094941D01*
X7740802Y-2084070D01*
X7750302Y-2071928D01*
X7758277Y-2058771D01*
X7764627Y-2044700D01*
X7769199Y-2030018D01*
X7771942Y-2014880D01*
X7772908Y-1999538D01*
X7771942Y-1984146D01*
X7769199Y-1969007D01*
X7764627Y-1954326D01*
X7758277Y-1940255D01*
X7750302Y-1927098D01*
X7740802Y-1914956D01*
X7729931Y-1904085D01*
X7717840Y-1894586D01*
X7704632Y-1886610D01*
X7690612Y-1880311D01*
X7675930Y-1875739D01*
X7660792Y-1872945D01*
X7645400Y-1872030D01*
X7630007Y-1872945D01*
X7614869Y-1875739D01*
X7600188Y-1880311D01*
X7586167Y-1886610D01*
X7572959Y-1894586D01*
X7560868Y-1904085D01*
X7549997Y-1914956D01*
X7540498Y-1927098D01*
X7532522Y-1940255D01*
X7526172Y-1954326D01*
X7521600Y-1969007D01*
X7518857Y-1984146D01*
X7517892Y-1999538D01*
X7518857Y-2014880D01*
X7521600Y-2030018D01*
X7526172Y-2044700D01*
X7532522Y-2058771D01*
X7540498Y-2071928D01*
X7549997Y-2084070D01*
X7560868Y-2094941D01*
X7572959Y-2104440D01*
X7586167Y-2112416D01*
X7600188Y-2118715D01*
X7614869Y-2123287D01*
X7630007Y-2126081D01*
G37*
G36*
X6240424Y-2068982D02*
G01*
X6255562Y-2068068D01*
X6270548Y-2065324D01*
X6285026Y-2060803D01*
X6298895Y-2054555D01*
X6311900Y-2046681D01*
X6323888Y-2037334D01*
X6334607Y-2026564D01*
X6344005Y-2014626D01*
X6351879Y-2001621D01*
X6358128Y-1987753D01*
X6362649Y-1973224D01*
X6365392Y-1958289D01*
X6366306Y-1943100D01*
X6365392Y-1927910D01*
X6362649Y-1912975D01*
X6358128Y-1898446D01*
X6351879Y-1884578D01*
X6344005Y-1871573D01*
X6334607Y-1859635D01*
X6323888Y-1848866D01*
X6311900Y-1839518D01*
X6298895Y-1831644D01*
X6285026Y-1825396D01*
X6270548Y-1820875D01*
X6255562Y-1818132D01*
X6240424Y-1817217D01*
X6225235Y-1818132D01*
X6210249Y-1820875D01*
X6195771Y-1825396D01*
X6189319Y-1828292D01*
X6185357Y-1829206D01*
X6181344Y-1828444D01*
X6177940Y-1826209D01*
X5692902Y-1341120D01*
X5690666Y-1337868D01*
X5689904Y-1333957D01*
X5689904Y-866190D01*
X5690768Y-862126D01*
X5693156Y-858774D01*
X5696712Y-856589D01*
X5700826Y-856030D01*
X5704789Y-857199D01*
X5707989Y-859840D01*
X5709869Y-863498D01*
X5712256Y-872337D01*
X5716778Y-885037D01*
X5718403Y-888898D01*
X5724245Y-901192D01*
X5726226Y-904900D01*
X5733288Y-916584D01*
X5735624Y-920038D01*
X5743854Y-930910D01*
X5746546Y-934161D01*
X5755843Y-944168D01*
X6308598Y-1496923D01*
X6310833Y-1500276D01*
X6311595Y-1504238D01*
X6310782Y-1508150D01*
X6308496Y-1511452D01*
X6305092Y-1513586D01*
X6301181Y-1514297D01*
X6297269Y-1513382D01*
X6285026Y-1507896D01*
X6270548Y-1503375D01*
X6255562Y-1500632D01*
X6240424Y-1499717D01*
X6225235Y-1500632D01*
X6210249Y-1503375D01*
X6195771Y-1507896D01*
X6181902Y-1514144D01*
X6168898Y-1522018D01*
X6156909Y-1531366D01*
X6146190Y-1542135D01*
X6136792Y-1554073D01*
X6128918Y-1567078D01*
X6122670Y-1580946D01*
X6118148Y-1595475D01*
X6115405Y-1610410D01*
X6114491Y-1625600D01*
X6115405Y-1640789D01*
X6118148Y-1655724D01*
X6122670Y-1670253D01*
X6128918Y-1684121D01*
X6136792Y-1697126D01*
X6146190Y-1709064D01*
X6156909Y-1719834D01*
X6168898Y-1729181D01*
X6181902Y-1737055D01*
X6195771Y-1743303D01*
X6210249Y-1747824D01*
X6225235Y-1750568D01*
X6240424Y-1751482D01*
X6255562Y-1750568D01*
X6270548Y-1747824D01*
X6285026Y-1743303D01*
X6298895Y-1737055D01*
X6311900Y-1729181D01*
X6323888Y-1719834D01*
X6334607Y-1709064D01*
X6344005Y-1697126D01*
X6351879Y-1684121D01*
X6358128Y-1670253D01*
X6362649Y-1655724D01*
X6365392Y-1640789D01*
X6366306Y-1625600D01*
X6365392Y-1610410D01*
X6362649Y-1595475D01*
X6358128Y-1580946D01*
X6352590Y-1568754D01*
X6351727Y-1564843D01*
X6352387Y-1560880D01*
X6354572Y-1557528D01*
X6357874Y-1555242D01*
X6361785Y-1554429D01*
X6365697Y-1555191D01*
X6369050Y-1557375D01*
X6606438Y-1794764D01*
X6619849Y-1806854D01*
X6634225Y-1817420D01*
X6649567Y-1826463D01*
X6657136Y-1829917D01*
X6660134Y-1832051D01*
X6662216Y-1835099D01*
X6663029Y-1838706D01*
X6662521Y-1842363D01*
X6660743Y-1845564D01*
X6652666Y-1855520D01*
X6645859Y-1866747D01*
X6640626Y-1878736D01*
X6637121Y-1891334D01*
X6635343Y-1904288D01*
X6635343Y-1917395D01*
X6637121Y-1930349D01*
X6640626Y-1942947D01*
X6645859Y-1954936D01*
X6652666Y-1966163D01*
X6660946Y-1976272D01*
X6670497Y-1985213D01*
X6681165Y-1992782D01*
X6692798Y-1998776D01*
X6705142Y-2003196D01*
X6717944Y-2005838D01*
X6731000Y-2006752D01*
X6744055Y-2005838D01*
X6756857Y-2003196D01*
X6769201Y-1998776D01*
X6780834Y-1992782D01*
X6791502Y-1985213D01*
X6801053Y-1976272D01*
X6809333Y-1966163D01*
X6816140Y-1954936D01*
X6821373Y-1942947D01*
X6824878Y-1930349D01*
X6826656Y-1917395D01*
X6826656Y-1904288D01*
X6824878Y-1891334D01*
X6821373Y-1878736D01*
X6816140Y-1866747D01*
X6809333Y-1855520D01*
X6801358Y-1845767D01*
X6799376Y-1841754D01*
X6799275Y-1837283D01*
X6801154Y-1833219D01*
X6804558Y-1830324D01*
X6820255Y-1822145D01*
X6835089Y-1812340D01*
X6848906Y-1801063D01*
X6861505Y-1788464D01*
X6872782Y-1774647D01*
X6882587Y-1759813D01*
X6890816Y-1744014D01*
X6897420Y-1727454D01*
X6902348Y-1710334D01*
X6905498Y-1692757D01*
X6906818Y-1675028D01*
X6906361Y-1657197D01*
X6904126Y-1639519D01*
X6900113Y-1622145D01*
X6894322Y-1605330D01*
X6886905Y-1589125D01*
X6877862Y-1573784D01*
X6867296Y-1559407D01*
X6855206Y-1545996D01*
X6058966Y-749757D01*
X6056782Y-746455D01*
X6056020Y-742594D01*
X6056020Y-635203D01*
X6056884Y-631139D01*
X6059322Y-627735D01*
X6062929Y-625602D01*
X6067044Y-625094D01*
X6072073Y-626872D01*
X6072073Y-554431D01*
X6048806Y-554431D01*
X6045149Y-553770D01*
X6041948Y-551789D01*
X6039713Y-548741D01*
X6033871Y-536956D01*
X6024473Y-521817D01*
X6013551Y-507746D01*
X6001308Y-494792D01*
X5987745Y-483209D01*
X5985662Y-481736D01*
X5983325Y-479501D01*
X5981801Y-476605D01*
X5981293Y-473405D01*
X5981293Y-442417D01*
X5980379Y-427583D01*
X5977636Y-413258D01*
X5973165Y-399440D01*
X5966968Y-386283D01*
X5959144Y-373989D01*
X5949899Y-362762D01*
X5939282Y-352806D01*
X5927496Y-344271D01*
X5914745Y-337261D01*
X5901232Y-331876D01*
X5887110Y-328269D01*
X5872683Y-326440D01*
X5858103Y-326440D01*
X5843676Y-328269D01*
X5829604Y-331876D01*
X5816041Y-337261D01*
X5803290Y-344271D01*
X5791504Y-352806D01*
X5780938Y-362762D01*
X5771642Y-373989D01*
X5763869Y-386283D01*
X5757672Y-399440D01*
X5753150Y-413258D01*
X5750407Y-427583D01*
X5749493Y-442417D01*
X5749493Y-500684D01*
X5748934Y-504037D01*
X5747258Y-507034D01*
X5745378Y-509371D01*
X5742178Y-511962D01*
X5738164Y-513130D01*
X5734100Y-512572D01*
X5730544Y-510387D01*
X5728157Y-507034D01*
X5727293Y-502970D01*
X5727293Y-352653D01*
X5726582Y-346354D01*
X5724702Y-340868D01*
X5721604Y-335991D01*
X5717489Y-331876D01*
X5712612Y-328828D01*
X5707126Y-326898D01*
X5700826Y-326186D01*
X5521960Y-326186D01*
X5515660Y-326898D01*
X5510174Y-328828D01*
X5505297Y-331876D01*
X5501182Y-335991D01*
X5498134Y-340868D01*
X5496204Y-346354D01*
X5495493Y-352653D01*
X5495493Y-611530D01*
X5496204Y-617829D01*
X5498134Y-623316D01*
X5501182Y-628192D01*
X5505297Y-632307D01*
X5510174Y-635406D01*
X5515660Y-637286D01*
X5521960Y-637997D01*
X5602935Y-637997D01*
X5606796Y-638759D01*
X5610098Y-640994D01*
X5612333Y-644296D01*
X5613095Y-648157D01*
X5613095Y-1353566D01*
X5613857Y-1361541D01*
X5616041Y-1368755D01*
X5619597Y-1375410D01*
X5624677Y-1381607D01*
X6123584Y-1880463D01*
X6125819Y-1883867D01*
X6126581Y-1887880D01*
X6125667Y-1891842D01*
X6122670Y-1898446D01*
X6118148Y-1912975D01*
X6115405Y-1927910D01*
X6114491Y-1943100D01*
X6115405Y-1958289D01*
X6118148Y-1973224D01*
X6122670Y-1987753D01*
X6128918Y-2001621D01*
X6136792Y-2014626D01*
X6146190Y-2026564D01*
X6156909Y-2037334D01*
X6168898Y-2046681D01*
X6181902Y-2054555D01*
X6195771Y-2060803D01*
X6210249Y-2065324D01*
X6225235Y-2068068D01*
G37*
G36*
X1105458Y-2046782D02*
G01*
X1109929Y-2044649D01*
X1122222Y-2036876D01*
X1133449Y-2027580D01*
X1143406Y-2016963D01*
X1151940Y-2005177D01*
X1157833Y-1994458D01*
X1105458Y-1994458D01*
G37*
G36*
X1002741Y-2046782D02*
G01*
X1002741Y-1994458D01*
X950366Y-1994458D01*
X956259Y-2005177D01*
X964793Y-2016963D01*
X974750Y-2027580D01*
X985977Y-2036876D01*
X998270Y-2044649D01*
G37*
G36*
X4692243Y-1904441D02*
G01*
X4705756Y-1904441D01*
X4719167Y-1902663D01*
X4732223Y-1899056D01*
X4744669Y-1893824D01*
X4756302Y-1886915D01*
X4766919Y-1878533D01*
X4776368Y-1868779D01*
X4784394Y-1857908D01*
X4790897Y-1846021D01*
X4795723Y-1833422D01*
X4798872Y-1820265D01*
X4800244Y-1806803D01*
X4799787Y-1793239D01*
X4797501Y-1779930D01*
X4793538Y-1766976D01*
X4787798Y-1754733D01*
X4780534Y-1743303D01*
X4771796Y-1732991D01*
X4761788Y-1723898D01*
X4750612Y-1716278D01*
X4738522Y-1710131D01*
X4725771Y-1705711D01*
X4712512Y-1703019D01*
X4699000Y-1702104D01*
X4685487Y-1703019D01*
X4672228Y-1705711D01*
X4659477Y-1710131D01*
X4647387Y-1716278D01*
X4636211Y-1723898D01*
X4626203Y-1732991D01*
X4617466Y-1743303D01*
X4610201Y-1754733D01*
X4604461Y-1766976D01*
X4600498Y-1779930D01*
X4598212Y-1793239D01*
X4597755Y-1806803D01*
X4599127Y-1820265D01*
X4602276Y-1833422D01*
X4607102Y-1846021D01*
X4613605Y-1857908D01*
X4621631Y-1868779D01*
X4631080Y-1878533D01*
X4641697Y-1886915D01*
X4653330Y-1893824D01*
X4665776Y-1899056D01*
X4678832Y-1902663D01*
G37*
G36*
X3168243Y-1904441D02*
G01*
X3181756Y-1904441D01*
X3195167Y-1902663D01*
X3208223Y-1899056D01*
X3220669Y-1893824D01*
X3232302Y-1886915D01*
X3242919Y-1878533D01*
X3252368Y-1868779D01*
X3260394Y-1857908D01*
X3266897Y-1846021D01*
X3271723Y-1833422D01*
X3274872Y-1820265D01*
X3276244Y-1806803D01*
X3275787Y-1793239D01*
X3273501Y-1779930D01*
X3269538Y-1766976D01*
X3263798Y-1754733D01*
X3256534Y-1743303D01*
X3247796Y-1732991D01*
X3237788Y-1723898D01*
X3226612Y-1716278D01*
X3214522Y-1710131D01*
X3201771Y-1705711D01*
X3188512Y-1703019D01*
X3175000Y-1702104D01*
X3161487Y-1703019D01*
X3148228Y-1705711D01*
X3135477Y-1710131D01*
X3123387Y-1716278D01*
X3112211Y-1723898D01*
X3102203Y-1732991D01*
X3093466Y-1743303D01*
X3086201Y-1754733D01*
X3080461Y-1766976D01*
X3076498Y-1779930D01*
X3074212Y-1793239D01*
X3073755Y-1806803D01*
X3075127Y-1820265D01*
X3078276Y-1833422D01*
X3083102Y-1846021D01*
X3089605Y-1857908D01*
X3097631Y-1868779D01*
X3107080Y-1878533D01*
X3117697Y-1886915D01*
X3129330Y-1893824D01*
X3141776Y-1899056D01*
X3154832Y-1902663D01*
G37*
G36*
X1105458Y-1891741D02*
G01*
X1157833Y-1891741D01*
X1151940Y-1881022D01*
X1143406Y-1869236D01*
X1133449Y-1858619D01*
X1122222Y-1849323D01*
X1109929Y-1841550D01*
X1105458Y-1839417D01*
G37*
G36*
X950366Y-1891741D02*
G01*
X1002741Y-1891741D01*
X1002741Y-1839417D01*
X998270Y-1841550D01*
X985977Y-1849323D01*
X974750Y-1858619D01*
X964793Y-1869236D01*
X956259Y-1881022D01*
G37*
G36*
X5240426Y-1751482D02*
G01*
X5255564Y-1750568D01*
X5270550Y-1747824D01*
X5285028Y-1743303D01*
X5298897Y-1737055D01*
X5311902Y-1729181D01*
X5323890Y-1719834D01*
X5334609Y-1709064D01*
X5344007Y-1697126D01*
X5351881Y-1684121D01*
X5358130Y-1670253D01*
X5362651Y-1655724D01*
X5365394Y-1640789D01*
X5366308Y-1625600D01*
X5365394Y-1610410D01*
X5362651Y-1595475D01*
X5358130Y-1580946D01*
X5351881Y-1567078D01*
X5344007Y-1554073D01*
X5334609Y-1542135D01*
X5323890Y-1531366D01*
X5311902Y-1522018D01*
X5298897Y-1514144D01*
X5285028Y-1507896D01*
X5270550Y-1503375D01*
X5255564Y-1500632D01*
X5240426Y-1499717D01*
X5225237Y-1500632D01*
X5210251Y-1503375D01*
X5195773Y-1507896D01*
X5181904Y-1514144D01*
X5168900Y-1522018D01*
X5156911Y-1531366D01*
X5146192Y-1542135D01*
X5136794Y-1554073D01*
X5128920Y-1567078D01*
X5122672Y-1580946D01*
X5118150Y-1595475D01*
X5115407Y-1610410D01*
X5114493Y-1625600D01*
X5115407Y-1640789D01*
X5118150Y-1655724D01*
X5122672Y-1670253D01*
X5128920Y-1684121D01*
X5136794Y-1697126D01*
X5146192Y-1709064D01*
X5156911Y-1719834D01*
X5168900Y-1729181D01*
X5181904Y-1737055D01*
X5195773Y-1743303D01*
X5210251Y-1747824D01*
X5225237Y-1750568D01*
G37*
G36*
X4692243Y-1650441D02*
G01*
X4705756Y-1650441D01*
X4719167Y-1648663D01*
X4732223Y-1645056D01*
X4744669Y-1639824D01*
X4756302Y-1632915D01*
X4766919Y-1624533D01*
X4776368Y-1614779D01*
X4784394Y-1603908D01*
X4790897Y-1592021D01*
X4795723Y-1579422D01*
X4798872Y-1566265D01*
X4800244Y-1552803D01*
X4799787Y-1539240D01*
X4797501Y-1525930D01*
X4793538Y-1512976D01*
X4787798Y-1500733D01*
X4780534Y-1489303D01*
X4771796Y-1478991D01*
X4761788Y-1469898D01*
X4750612Y-1462278D01*
X4738522Y-1456131D01*
X4725771Y-1451711D01*
X4712512Y-1449019D01*
X4699000Y-1448104D01*
X4685487Y-1449019D01*
X4672228Y-1451711D01*
X4659477Y-1456131D01*
X4647387Y-1462278D01*
X4636211Y-1469898D01*
X4626203Y-1478991D01*
X4617466Y-1489303D01*
X4610201Y-1500733D01*
X4604461Y-1512976D01*
X4600498Y-1525930D01*
X4598212Y-1539240D01*
X4597755Y-1552803D01*
X4599127Y-1566265D01*
X4602276Y-1579422D01*
X4607102Y-1592021D01*
X4613605Y-1603908D01*
X4621631Y-1614779D01*
X4631080Y-1624533D01*
X4641697Y-1632915D01*
X4653330Y-1639824D01*
X4665776Y-1645056D01*
X4678832Y-1648663D01*
G37*
G36*
X3219043Y-1640484D02*
G01*
X3220669Y-1639824D01*
X3232302Y-1632915D01*
X3242919Y-1624533D01*
X3252368Y-1614779D01*
X3260394Y-1603908D01*
X3266084Y-1593443D01*
X3219043Y-1593443D01*
G37*
G36*
X3130956Y-1640484D02*
G01*
X3130956Y-1593443D01*
X3083915Y-1593443D01*
X3089605Y-1603908D01*
X3097631Y-1614779D01*
X3107080Y-1624533D01*
X3117697Y-1632915D01*
X3129330Y-1639824D01*
G37*
G36*
X3219043Y-1505356D02*
G01*
X3265982Y-1505356D01*
X3263798Y-1500733D01*
X3256534Y-1489303D01*
X3247796Y-1478991D01*
X3237788Y-1469898D01*
X3226612Y-1462278D01*
X3219043Y-1458417D01*
G37*
G36*
X3084017Y-1505356D02*
G01*
X3130956Y-1505356D01*
X3130956Y-1458417D01*
X3123387Y-1462278D01*
X3112211Y-1469898D01*
X3102203Y-1478991D01*
X3093466Y-1489303D01*
X3086201Y-1500733D01*
G37*
G36*
X4692243Y-1396441D02*
G01*
X4705756Y-1396441D01*
X4719167Y-1394663D01*
X4732223Y-1391056D01*
X4744669Y-1385824D01*
X4756302Y-1378915D01*
X4766919Y-1370533D01*
X4776368Y-1360779D01*
X4784394Y-1349908D01*
X4790897Y-1338021D01*
X4795723Y-1325422D01*
X4798872Y-1312265D01*
X4800244Y-1298803D01*
X4799787Y-1285240D01*
X4797501Y-1271930D01*
X4793538Y-1258976D01*
X4787798Y-1246733D01*
X4780534Y-1235303D01*
X4771796Y-1224991D01*
X4761788Y-1215898D01*
X4750612Y-1208278D01*
X4738522Y-1202131D01*
X4725771Y-1197711D01*
X4712512Y-1195019D01*
X4699000Y-1194104D01*
X4685487Y-1195019D01*
X4672228Y-1197711D01*
X4659477Y-1202131D01*
X4647387Y-1208278D01*
X4636211Y-1215898D01*
X4626203Y-1224991D01*
X4617466Y-1235303D01*
X4610201Y-1246733D01*
X4604461Y-1258976D01*
X4600498Y-1271930D01*
X4598212Y-1285240D01*
X4597755Y-1298803D01*
X4599127Y-1312265D01*
X4602276Y-1325422D01*
X4607102Y-1338021D01*
X4613605Y-1349908D01*
X4621631Y-1360779D01*
X4631080Y-1370533D01*
X4641697Y-1378915D01*
X4653330Y-1385824D01*
X4665776Y-1391056D01*
X4678832Y-1394663D01*
G37*
G36*
X3168243Y-1396441D02*
G01*
X3181756Y-1396441D01*
X3195167Y-1394663D01*
X3208223Y-1391056D01*
X3220669Y-1385824D01*
X3232302Y-1378915D01*
X3242919Y-1370533D01*
X3252368Y-1360779D01*
X3260394Y-1349908D01*
X3266897Y-1338021D01*
X3271723Y-1325422D01*
X3274872Y-1312265D01*
X3276244Y-1298803D01*
X3275787Y-1285240D01*
X3273501Y-1271930D01*
X3269538Y-1258976D01*
X3263798Y-1246733D01*
X3256534Y-1235303D01*
X3247796Y-1224991D01*
X3237788Y-1215898D01*
X3226612Y-1208278D01*
X3214522Y-1202131D01*
X3201771Y-1197711D01*
X3188512Y-1195019D01*
X3175000Y-1194104D01*
X3161487Y-1195019D01*
X3148228Y-1197711D01*
X3135477Y-1202131D01*
X3123387Y-1208278D01*
X3112211Y-1215898D01*
X3102203Y-1224991D01*
X3093466Y-1235303D01*
X3086201Y-1246733D01*
X3080461Y-1258976D01*
X3076498Y-1271930D01*
X3074212Y-1285240D01*
X3073755Y-1298803D01*
X3075127Y-1312265D01*
X3078276Y-1325422D01*
X3083102Y-1338021D01*
X3089605Y-1349908D01*
X3097631Y-1360779D01*
X3107080Y-1370533D01*
X3117697Y-1378915D01*
X3129330Y-1385824D01*
X3141776Y-1391056D01*
X3154832Y-1394663D01*
G37*
G36*
X1519529Y-1336751D02*
G01*
X1526133Y-1333500D01*
X1537665Y-1325829D01*
X1548079Y-1316685D01*
X1557223Y-1306271D01*
X1564894Y-1294739D01*
X1568145Y-1288135D01*
X1519529Y-1288135D01*
G37*
G36*
X1426870Y-1336751D02*
G01*
X1426870Y-1288135D01*
X1378254Y-1288135D01*
X1381506Y-1294739D01*
X1389176Y-1306271D01*
X1398320Y-1316685D01*
X1408734Y-1325829D01*
X1420266Y-1333500D01*
G37*
G36*
X2383129Y-1336751D02*
G01*
X2389733Y-1333500D01*
X2401265Y-1325829D01*
X2411679Y-1316685D01*
X2420823Y-1306271D01*
X2428494Y-1294739D01*
X2431745Y-1288135D01*
X2383129Y-1288135D01*
G37*
G36*
X2290470Y-1336751D02*
G01*
X2290470Y-1288135D01*
X2241854Y-1288135D01*
X2245106Y-1294739D01*
X2252776Y-1306271D01*
X2261920Y-1316685D01*
X2272334Y-1325829D01*
X2283866Y-1333500D01*
G37*
G36*
X1519529Y-1195476D02*
G01*
X1568145Y-1195476D01*
X1564894Y-1188872D01*
X1557223Y-1177340D01*
X1548079Y-1166926D01*
X1537665Y-1157782D01*
X1526133Y-1150112D01*
X1519529Y-1146860D01*
G37*
G36*
X1378254Y-1195476D02*
G01*
X1426870Y-1195476D01*
X1426870Y-1146860D01*
X1420266Y-1150112D01*
X1408734Y-1157782D01*
X1398320Y-1166926D01*
X1389176Y-1177340D01*
X1381506Y-1188872D01*
G37*
G36*
X2241854Y-1195476D02*
G01*
X2290470Y-1195476D01*
X2290470Y-1146860D01*
X2283866Y-1150112D01*
X2272334Y-1157782D01*
X2261920Y-1166926D01*
X2252776Y-1177340D01*
X2245106Y-1188872D01*
G37*
G36*
X2383129Y-1195476D02*
G01*
X2431745Y-1195476D01*
X2428494Y-1188872D01*
X2420823Y-1177340D01*
X2411679Y-1166926D01*
X2401265Y-1157782D01*
X2389733Y-1150112D01*
X2383129Y-1146860D01*
G37*
G36*
X3168243Y-1142441D02*
G01*
X3181756Y-1142441D01*
X3195167Y-1140663D01*
X3208223Y-1137056D01*
X3220669Y-1131824D01*
X3232302Y-1124915D01*
X3242919Y-1116533D01*
X3252368Y-1106779D01*
X3260394Y-1095908D01*
X3266897Y-1084021D01*
X3271723Y-1071422D01*
X3274872Y-1058265D01*
X3276244Y-1044803D01*
X3275787Y-1031240D01*
X3273501Y-1017930D01*
X3269538Y-1004976D01*
X3263798Y-992733D01*
X3256534Y-981303D01*
X3247796Y-970991D01*
X3237788Y-961898D01*
X3226612Y-954278D01*
X3214522Y-948131D01*
X3201771Y-943711D01*
X3188512Y-941019D01*
X3175000Y-940104D01*
X3161487Y-941019D01*
X3148228Y-943711D01*
X3135477Y-948131D01*
X3123387Y-954278D01*
X3112211Y-961898D01*
X3102203Y-970991D01*
X3093466Y-981303D01*
X3086201Y-992733D01*
X3080461Y-1004976D01*
X3076498Y-1017930D01*
X3074212Y-1031240D01*
X3073755Y-1044803D01*
X3075127Y-1058265D01*
X3078276Y-1071422D01*
X3083102Y-1084021D01*
X3089605Y-1095908D01*
X3097631Y-1106779D01*
X3107080Y-1116533D01*
X3117697Y-1124915D01*
X3129330Y-1131824D01*
X3141776Y-1137056D01*
X3154832Y-1140663D01*
G37*
G36*
X4654956Y-1132484D02*
G01*
X4654956Y-1085443D01*
X4607915Y-1085443D01*
X4613605Y-1095908D01*
X4621631Y-1106779D01*
X4631080Y-1116533D01*
X4641697Y-1124915D01*
X4653330Y-1131824D01*
G37*
G36*
X4743043Y-1132484D02*
G01*
X4744669Y-1131824D01*
X4756302Y-1124915D01*
X4766919Y-1116533D01*
X4776368Y-1106779D01*
X4784394Y-1095908D01*
X4790084Y-1085443D01*
X4743043Y-1085443D01*
G37*
G36*
X431800Y-1010869D02*
G01*
X447192Y-1009954D01*
X462330Y-1007160D01*
X477012Y-1002588D01*
X491032Y-996289D01*
X504240Y-988314D01*
X516331Y-978814D01*
X527202Y-967943D01*
X536702Y-955802D01*
X544677Y-942644D01*
X551027Y-928573D01*
X555599Y-913892D01*
X558342Y-898753D01*
X559308Y-883412D01*
X558342Y-868019D01*
X555599Y-852881D01*
X551027Y-838200D01*
X544677Y-824128D01*
X536702Y-810971D01*
X527202Y-798830D01*
X516331Y-787958D01*
X504240Y-778459D01*
X491032Y-770483D01*
X477012Y-764184D01*
X462330Y-759612D01*
X447192Y-756818D01*
X431800Y-755904D01*
X416407Y-756818D01*
X401269Y-759612D01*
X386588Y-764184D01*
X372567Y-770483D01*
X359359Y-778459D01*
X347268Y-787958D01*
X336397Y-798830D01*
X326898Y-810971D01*
X318922Y-824128D01*
X312572Y-838200D01*
X308000Y-852881D01*
X305257Y-868019D01*
X304292Y-883412D01*
X305257Y-898753D01*
X308000Y-913892D01*
X312572Y-928573D01*
X318922Y-942644D01*
X326898Y-955802D01*
X336397Y-967943D01*
X347268Y-978814D01*
X359359Y-988314D01*
X372567Y-996289D01*
X386588Y-1002588D01*
X401269Y-1007160D01*
X416407Y-1009954D01*
G37*
G36*
X1473200Y-997661D02*
G01*
X1487017Y-996797D01*
X1500581Y-994054D01*
X1513738Y-989634D01*
X1526133Y-983487D01*
X1537665Y-975817D01*
X1548079Y-966673D01*
X1557223Y-956259D01*
X1564894Y-944727D01*
X1571040Y-932332D01*
X1575460Y-919175D01*
X1578203Y-905611D01*
X1579067Y-891794D01*
X1578203Y-877976D01*
X1575460Y-864412D01*
X1571040Y-851255D01*
X1564894Y-838860D01*
X1557223Y-827328D01*
X1548079Y-816914D01*
X1537665Y-807770D01*
X1526133Y-800100D01*
X1513738Y-793953D01*
X1500581Y-789533D01*
X1487017Y-786790D01*
X1473200Y-785926D01*
X1459382Y-786790D01*
X1445818Y-789533D01*
X1432661Y-793953D01*
X1420266Y-800100D01*
X1408734Y-807770D01*
X1398320Y-816914D01*
X1389176Y-827328D01*
X1381506Y-838860D01*
X1375359Y-851255D01*
X1370939Y-864412D01*
X1368196Y-877976D01*
X1367332Y-891794D01*
X1368196Y-905611D01*
X1370939Y-919175D01*
X1375359Y-932332D01*
X1381506Y-944727D01*
X1389176Y-956259D01*
X1398320Y-966673D01*
X1408734Y-975817D01*
X1420266Y-983487D01*
X1432661Y-989634D01*
X1445818Y-994054D01*
X1459382Y-996797D01*
G37*
G36*
X2336800Y-997661D02*
G01*
X2350617Y-996797D01*
X2364181Y-994054D01*
X2377338Y-989634D01*
X2389733Y-983487D01*
X2401265Y-975817D01*
X2411679Y-966673D01*
X2420823Y-956259D01*
X2428494Y-944727D01*
X2434640Y-932332D01*
X2439060Y-919175D01*
X2441803Y-905611D01*
X2442667Y-891794D01*
X2441803Y-877976D01*
X2439060Y-864412D01*
X2434640Y-851255D01*
X2428494Y-838860D01*
X2420823Y-827328D01*
X2411679Y-816914D01*
X2401265Y-807770D01*
X2389733Y-800100D01*
X2377338Y-793953D01*
X2364181Y-789533D01*
X2350617Y-786790D01*
X2336800Y-785926D01*
X2322982Y-786790D01*
X2309418Y-789533D01*
X2296261Y-793953D01*
X2283866Y-800100D01*
X2272334Y-807770D01*
X2261920Y-816914D01*
X2252776Y-827328D01*
X2245106Y-838860D01*
X2238959Y-851255D01*
X2234539Y-864412D01*
X2231796Y-877976D01*
X2230932Y-891794D01*
X2231796Y-905611D01*
X2234539Y-919175D01*
X2238959Y-932332D01*
X2245106Y-944727D01*
X2252776Y-956259D01*
X2261920Y-966673D01*
X2272334Y-975817D01*
X2283866Y-983487D01*
X2296261Y-989634D01*
X2309418Y-994054D01*
X2322982Y-996797D01*
G37*
G36*
X4743043Y-997356D02*
G01*
X4789982Y-997356D01*
X4787798Y-992733D01*
X4780534Y-981303D01*
X4771796Y-970991D01*
X4761788Y-961898D01*
X4750612Y-954278D01*
X4743043Y-950417D01*
G37*
G36*
X4608017Y-997356D02*
G01*
X4654956Y-997356D01*
X4654956Y-950417D01*
X4647387Y-954278D01*
X4636211Y-961898D01*
X4626203Y-970991D01*
X4617466Y-981303D01*
X4610201Y-992733D01*
G37*
G36*
X3100171Y-888695D02*
G01*
X3249828Y-888695D01*
X3256127Y-887984D01*
X3261614Y-886104D01*
X3266490Y-883005D01*
X3270605Y-878890D01*
X3273704Y-874014D01*
X3275584Y-868527D01*
X3276295Y-862228D01*
X3276295Y-712571D01*
X3275584Y-706272D01*
X3273704Y-700786D01*
X3270605Y-695909D01*
X3266490Y-691794D01*
X3261614Y-688695D01*
X3256127Y-686816D01*
X3249828Y-686104D01*
X3100171Y-686104D01*
X3093872Y-686816D01*
X3088386Y-688695D01*
X3083509Y-691794D01*
X3079394Y-695909D01*
X3076295Y-700786D01*
X3074416Y-706272D01*
X3073704Y-712571D01*
X3073704Y-862228D01*
X3074416Y-868527D01*
X3076295Y-874014D01*
X3079394Y-878890D01*
X3083509Y-883005D01*
X3088386Y-886104D01*
X3093872Y-887984D01*
G37*
G36*
X4692243Y-888441D02*
G01*
X4705756Y-888441D01*
X4719167Y-886663D01*
X4732223Y-883056D01*
X4744669Y-877824D01*
X4756302Y-870915D01*
X4766919Y-862533D01*
X4776368Y-852779D01*
X4784394Y-841908D01*
X4790897Y-830021D01*
X4795723Y-817422D01*
X4798872Y-804265D01*
X4800244Y-790803D01*
X4799787Y-777240D01*
X4797501Y-763930D01*
X4793538Y-750976D01*
X4787798Y-738733D01*
X4780534Y-727303D01*
X4771796Y-716991D01*
X4761788Y-707898D01*
X4750612Y-700278D01*
X4738522Y-694131D01*
X4725771Y-689711D01*
X4712512Y-687019D01*
X4699000Y-686104D01*
X4685487Y-687019D01*
X4672228Y-689711D01*
X4659477Y-694131D01*
X4647387Y-700278D01*
X4636211Y-707898D01*
X4626203Y-716991D01*
X4617466Y-727303D01*
X4610201Y-738733D01*
X4604461Y-750976D01*
X4600498Y-763930D01*
X4598212Y-777240D01*
X4597755Y-790803D01*
X4599127Y-804265D01*
X4602276Y-817422D01*
X4607102Y-830021D01*
X4613605Y-841908D01*
X4621631Y-852779D01*
X4631080Y-862533D01*
X4641697Y-870915D01*
X4653330Y-877824D01*
X4665776Y-883056D01*
X4678832Y-886663D01*
G37*
G36*
X488950Y-660908D02*
G01*
X532841Y-660908D01*
X539140Y-660196D01*
X544626Y-658266D01*
X549503Y-655218D01*
X553618Y-651103D01*
X556666Y-646226D01*
X558596Y-640740D01*
X559308Y-634441D01*
X559308Y-590550D01*
X488950Y-590550D01*
G37*
G36*
X330758Y-660908D02*
G01*
X374650Y-660908D01*
X374650Y-590550D01*
X304292Y-590550D01*
X304292Y-634441D01*
X305003Y-640740D01*
X306933Y-646226D01*
X309981Y-651103D01*
X314096Y-655218D01*
X318973Y-658266D01*
X324459Y-660196D01*
G37*
G36*
X3175000Y-641858D02*
G01*
X3189173Y-640892D01*
X3203041Y-638149D01*
X3216503Y-633577D01*
X3229203Y-627329D01*
X3240989Y-619404D01*
X3251657Y-610057D01*
X3261004Y-599389D01*
X3268929Y-587603D01*
X3275177Y-574903D01*
X3279749Y-561441D01*
X3282492Y-547573D01*
X3283458Y-533400D01*
X3282492Y-519226D01*
X3279749Y-505358D01*
X3275177Y-491896D01*
X3268929Y-479196D01*
X3261004Y-467410D01*
X3251657Y-456742D01*
X3240989Y-447395D01*
X3229203Y-439470D01*
X3216503Y-433222D01*
X3203041Y-428650D01*
X3189173Y-425907D01*
X3175000Y-424942D01*
X3160826Y-425907D01*
X3146958Y-428650D01*
X3133496Y-433222D01*
X3120796Y-439470D01*
X3109010Y-447395D01*
X3098342Y-456742D01*
X3088995Y-467410D01*
X3081070Y-479196D01*
X3074822Y-491896D01*
X3070250Y-505358D01*
X3067507Y-519226D01*
X3066542Y-533400D01*
X3067507Y-547573D01*
X3070250Y-561441D01*
X3074822Y-574903D01*
X3081070Y-587603D01*
X3088995Y-599389D01*
X3098342Y-610057D01*
X3109010Y-619404D01*
X3120796Y-627329D01*
X3133496Y-633577D01*
X3146958Y-638149D01*
X3160826Y-640892D01*
G37*
G36*
X4699000Y-641858D02*
G01*
X4713173Y-640892D01*
X4727041Y-638149D01*
X4740503Y-633577D01*
X4753203Y-627329D01*
X4764989Y-619404D01*
X4775657Y-610057D01*
X4785004Y-599389D01*
X4792929Y-587603D01*
X4799177Y-574903D01*
X4803749Y-561441D01*
X4806492Y-547573D01*
X4807458Y-533400D01*
X4806492Y-519226D01*
X4803749Y-505358D01*
X4799177Y-491896D01*
X4792929Y-479196D01*
X4785004Y-467410D01*
X4775657Y-456742D01*
X4764989Y-447395D01*
X4753203Y-439470D01*
X4740503Y-433222D01*
X4727041Y-428650D01*
X4713173Y-425907D01*
X4699000Y-424942D01*
X4684826Y-425907D01*
X4670958Y-428650D01*
X4657496Y-433222D01*
X4644796Y-439470D01*
X4633010Y-447395D01*
X4622342Y-456742D01*
X4612995Y-467410D01*
X4605070Y-479196D01*
X4598822Y-491896D01*
X4594250Y-505358D01*
X4591507Y-519226D01*
X4590542Y-533400D01*
X4591507Y-547573D01*
X4594250Y-561441D01*
X4598822Y-574903D01*
X4605070Y-587603D01*
X4612995Y-599389D01*
X4622342Y-610057D01*
X4633010Y-619404D01*
X4644796Y-627329D01*
X4657496Y-633577D01*
X4670958Y-638149D01*
X4684826Y-640892D01*
G37*
G36*
X7176973Y-626872D02*
G01*
X7176973Y-554431D01*
X7116876Y-554431D01*
X7120534Y-565759D01*
X7126731Y-578916D01*
X7134555Y-591210D01*
X7143800Y-602437D01*
X7154418Y-612394D01*
X7166203Y-620928D01*
G37*
G36*
X6174740Y-626872D02*
G01*
X6185509Y-620928D01*
X6197244Y-612394D01*
X6207861Y-602437D01*
X6217158Y-591210D01*
X6224930Y-578916D01*
X6231128Y-565759D01*
X6234836Y-554431D01*
X6174740Y-554431D01*
G37*
G36*
X7279640Y-626872D02*
G01*
X7290409Y-620928D01*
X7302144Y-612394D01*
X7312761Y-602437D01*
X7322058Y-591210D01*
X7329830Y-578916D01*
X7336028Y-565759D01*
X7339736Y-554431D01*
X7279640Y-554431D01*
G37*
G36*
X488950Y-476250D02*
G01*
X559308Y-476250D01*
X559308Y-432358D01*
X558596Y-426059D01*
X556666Y-420573D01*
X553618Y-415696D01*
X549503Y-411581D01*
X544626Y-408533D01*
X539140Y-406603D01*
X532841Y-405892D01*
X488950Y-405892D01*
G37*
G36*
X304292Y-476250D02*
G01*
X374650Y-476250D01*
X374650Y-405892D01*
X330758Y-405892D01*
X324459Y-406603D01*
X318973Y-408533D01*
X314096Y-411581D01*
X309981Y-415696D01*
X306933Y-420573D01*
X305003Y-426059D01*
X304292Y-432358D01*
G37*
G36*
X7116876Y-411734D02*
G01*
X7176973Y-411734D01*
X7176973Y-339344D01*
X7166203Y-345236D01*
X7154418Y-353822D01*
X7143800Y-363778D01*
X7134555Y-375005D01*
X7126731Y-387248D01*
X7120534Y-400456D01*
G37*
G36*
X6174740Y-411734D02*
G01*
X6234836Y-411734D01*
X6231128Y-400456D01*
X6224930Y-387248D01*
X6217158Y-375005D01*
X6207861Y-363778D01*
X6197244Y-353822D01*
X6185509Y-345236D01*
X6174740Y-339344D01*
G37*
G36*
X6011976Y-411734D02*
G01*
X6072073Y-411734D01*
X6072073Y-339344D01*
X6061303Y-345236D01*
X6049518Y-353822D01*
X6038900Y-363778D01*
X6029655Y-375005D01*
X6021832Y-387248D01*
X6015634Y-400456D01*
G37*
G36*
X7279640Y-411734D02*
G01*
X7339736Y-411734D01*
X7336028Y-400456D01*
X7329830Y-387248D01*
X7322058Y-375005D01*
X7312761Y-363778D01*
X7302144Y-353822D01*
X7290409Y-345236D01*
X7279640Y-339344D01*
G37*
G36*
X1562100Y-371348D02*
G01*
X1575765Y-370433D01*
X1589176Y-367741D01*
X1602130Y-363372D01*
X1614424Y-357327D01*
X1625803Y-349707D01*
X1636064Y-340664D01*
X1645107Y-330403D01*
X1652727Y-319024D01*
X1658772Y-306730D01*
X1663141Y-293776D01*
X1665833Y-280365D01*
X1666748Y-266700D01*
X1665833Y-253034D01*
X1663141Y-239623D01*
X1658772Y-226669D01*
X1652727Y-214375D01*
X1645107Y-202996D01*
X1636064Y-192735D01*
X1625803Y-183692D01*
X1614424Y-176072D01*
X1602130Y-170027D01*
X1589176Y-165658D01*
X1575765Y-162966D01*
X1562100Y-162052D01*
X1548434Y-162966D01*
X1535023Y-165658D01*
X1522069Y-170027D01*
X1509776Y-176072D01*
X1498396Y-183692D01*
X1488135Y-192735D01*
X1479092Y-202996D01*
X1471472Y-214375D01*
X1465427Y-226669D01*
X1461058Y-239623D01*
X1458366Y-253034D01*
X1457452Y-266700D01*
X1458366Y-280365D01*
X1461058Y-293776D01*
X1465427Y-306730D01*
X1471472Y-319024D01*
X1479092Y-330403D01*
X1488135Y-340664D01*
X1498396Y-349707D01*
X1509776Y-357327D01*
X1522069Y-363372D01*
X1535023Y-367741D01*
X1548434Y-370433D01*
G37*
G36*
X1229918Y-371348D02*
G01*
X1386281Y-371348D01*
X1392580Y-370636D01*
X1398066Y-368706D01*
X1402943Y-365658D01*
X1407058Y-361543D01*
X1410106Y-356666D01*
X1412036Y-351180D01*
X1412748Y-344881D01*
X1412748Y-188518D01*
X1412036Y-182219D01*
X1410106Y-176733D01*
X1407058Y-171856D01*
X1402943Y-167741D01*
X1398066Y-164693D01*
X1392580Y-162763D01*
X1386281Y-162052D01*
X1229918Y-162052D01*
X1223619Y-162763D01*
X1218133Y-164693D01*
X1213256Y-167741D01*
X1209141Y-171856D01*
X1206093Y-176733D01*
X1204163Y-182219D01*
X1203452Y-188518D01*
X1203452Y-344881D01*
X1204163Y-351180D01*
X1206093Y-356666D01*
X1209141Y-361543D01*
X1213256Y-365658D01*
X1218133Y-368706D01*
X1223619Y-370636D01*
G37*

%LPD*%
D10*
X7645400Y-2349500D02*
G01*
X7493000Y-2349500D01*
X7315200Y-2171700D01*
X7315200Y-1409700D01*
X7391400Y-1333500D01*
X7632700Y-1333500D01*
X6731000Y-1670557D02*
G01*
X5880100Y-819657D01*
X5880100Y-622300D01*
D11*
X7632700Y-983513D02*
G01*
X7193813Y-983513D01*
X7004558Y-794257D01*
X6743700Y-794257D01*
D12*
X6845300Y-2780106D02*
G01*
X6760029Y-2780106D01*
X6240523Y-2260600D01*
D13*
X7645400Y-2349500D02*
G01*
X7874000Y-2578100D01*
X7874000Y-3340100D01*
X7759700Y-3454400D01*
X7305339Y-3454400D01*
X7239261Y-3346363D01*
X7243823Y-3327400D01*
D11*
X6743700Y-794257D02*
G01*
X6889241Y-794257D01*
X6970268Y-713231D01*
X6970268Y-482092D01*
D13*
X6716268Y-482092D02*
G01*
X6540500Y-482092D01*
X6540500Y-1041400D01*
X7099300Y-1600200D01*
X7099300Y-2209800D01*
X5611368Y-482092D02*
G01*
X5651500Y-482092D01*
X5651500Y-1354073D01*
X6240525Y-1943100D01*
D10*
X6197600Y-152400D02*
G01*
X6223000Y-177800D01*
X6223000Y-495300D01*
X6197600Y-152400D02*
G01*
X7175500Y-152400D01*
X7327900Y-304800D01*
X7327900Y-482600D01*
X2336800Y-1241805D02*
G01*
X2491993Y-1241805D01*
X2730500Y-1003300D01*
X2730500Y-546100D01*
X3149600Y-152400D01*
X6197600Y-152400D01*
D11*
X6240525Y-2260600D02*
G01*
X5969000Y-2260600D01*
X5499100Y-1790700D01*
X5499100Y-1358900D01*
X5001768Y-861568D01*
X5001768Y-127000D01*
D13*
X3175000Y-4089400D02*
G01*
X3302000Y-4216400D01*
X5080000Y-4216400D01*
X5308600Y-3987800D01*
X5308600Y-3898900D01*
X3175000Y-3835400D02*
G01*
X3302000Y-3962400D01*
X4876800Y-3962400D01*
X5207000Y-3632200D01*
X5308600Y-3632200D01*
X3175000Y-2565400D02*
G01*
X3556000Y-2184400D01*
X4940300Y-2184400D01*
X5181600Y-1943100D01*
X5240274Y-1943100D01*
X3175000Y-3073400D02*
G01*
X3302000Y-3200400D01*
X4914900Y-3200400D01*
X5080000Y-3365500D01*
X5308600Y-3365500D01*
X3175000Y-2819400D02*
G01*
X3314700Y-2959100D01*
X4889500Y-2959100D01*
X5156200Y-3225800D01*
X5753100Y-3225800D01*
X5803900Y-3276600D01*
X5803900Y-3390900D01*
D12*
X7645400Y-3175000D02*
G01*
X7250506Y-2780106D01*
X6845300Y-2780106D01*
D11*
X4699000Y-1041400D02*
G01*
X4709871Y-1052271D01*
X5192476Y-1052271D01*
D14*
X1473200Y-1241805D02*
G01*
X2336800Y-1241805D01*
X482600Y-431800D02*
G01*
X1066800Y-856742D01*
X1066800Y-1155700D01*
X1155700Y-1244600D01*
X1470405Y-1244600D01*
X1473200Y-1241805D01*
D13*
X6972300Y-2159000D02*
G01*
X6985000Y-2146300D01*
X6985000Y-1574800D01*
X6388100Y-977900D01*
X6388100Y-965200D01*
X6243698Y-3327400D02*
G01*
X6223000Y-3306701D01*
X6223000Y-2501900D01*
X6731000Y-3098800D02*
G01*
X6540500Y-3289300D01*
X6540500Y-3581400D01*
X6477000Y-3644900D01*
X6243700Y-3644900D01*
X7645400Y-2921000D02*
G01*
X7354493Y-2630093D01*
X6845300Y-2630093D01*
X4699000Y-2311400D02*
G01*
X5422900Y-3035300D01*
X5829300Y-3035300D01*
X6032500Y-3238500D01*
X6032500Y-4127500D01*
X6159500Y-4254500D01*
X7404100Y-4254500D01*
X7518400Y-4368800D01*
X7518400Y-4559300D01*
X4699000Y-2565400D02*
G01*
X5257800Y-3124200D01*
X5791200Y-3124200D01*
X5930900Y-3263900D01*
X5930900Y-4203700D01*
X6045200Y-4318000D01*
X7200900Y-4318000D01*
X7264400Y-4381500D01*
X7264400Y-4559300D01*
X3175000Y-3327400D02*
G01*
X3556000Y-3708400D01*
X4394200Y-3708400D01*
X3175000Y-3581400D02*
G01*
X3441700Y-3848100D01*
X4394200Y-3848100D01*
X3175000Y-4343400D02*
G01*
X3657600Y-4826000D01*
X5676900Y-4826000D01*
X5829300Y-4673600D01*
X5829300Y-4559300D01*
D12*
X1054100Y-2197100D02*
G01*
X876300Y-2197100D01*
X660400Y-2413000D01*
X660400Y-4432300D01*
X800100Y-4572000D01*
X914400Y-4572000D01*
D13*
X3175000Y-2311400D02*
G01*
X3162300Y-2324100D01*
X2197100Y-2324100D01*
X2057400Y-2184400D01*
X2057400Y-2006600D01*
X2120900Y-1943100D01*
X2324100Y-1943100D01*
X2324100Y-2451100D02*
G01*
X2324100Y-2705100D01*
X3175000Y-2057400D02*
G01*
X3035300Y-2197100D01*
X2324100Y-2197100D01*
D15*
G01*
X6845300Y-2780106D03*
G01*
X6845300Y-2630093D03*
D16*
G01*
X1473200Y-1241805D03*
G01*
X1473200Y-891794D03*
G01*
X2336800Y-1241805D03*
G01*
X2336800Y-891794D03*
D17*
G01*
X381000Y-3213100D03*
D18*
G01*
X381000Y-2959100D03*
G01*
X381000Y-2705100D03*
G01*
X381000Y-2451100D03*
D17*
G01*
X1308100Y-266700D03*
D18*
G01*
X1562100Y-266700D03*
D17*
G01*
X5308600Y-3365500D03*
D18*
G01*
X5562600Y-3365500D03*
D17*
G01*
X5308600Y-3632200D03*
D18*
G01*
X5562600Y-3632200D03*
D17*
G01*
X5308600Y-3898900D03*
D18*
G01*
X5562600Y-3898900D03*
G01*
X6337300Y-4559300D03*
G01*
X6083300Y-4559300D03*
G01*
X5829300Y-4559300D03*
G01*
X5575300Y-4559300D03*
G36*
X5242559Y-4480560D02*
G01*
X5400040Y-4480560D01*
X5400040Y-4638039D01*
X5242559Y-4638039D01*
G37*
D19*
G01*
X1054100Y-3721100D03*
D20*
G01*
X1054100Y-3467100D03*
G01*
X1054100Y-3213100D03*
G01*
X1054100Y-2959100D03*
G01*
X1054100Y-2705100D03*
G01*
X1054100Y-2451100D03*
G01*
X1054100Y-2197100D03*
G01*
X1054100Y-1943100D03*
G01*
X2324100Y-1943100D03*
G01*
X2324100Y-2197100D03*
G01*
X2324100Y-2451100D03*
G01*
X2324100Y-2705100D03*
G01*
X2324100Y-2959100D03*
G01*
X2324100Y-3213100D03*
G01*
X2324100Y-3467100D03*
D19*
G01*
X2324100Y-3721100D03*
D21*
G01*
X7645400Y-3175000D03*
D22*
G01*
X7645400Y-2921000D03*
D18*
G01*
X1422400Y-4305300D03*
G01*
X1168400Y-4305300D03*
G36*
X835660Y-4226560D02*
G01*
X993139Y-4226560D01*
X993139Y-4384039D01*
X835660Y-4384039D01*
G37*
G01*
X1422400Y-4572000D03*
G01*
X1168400Y-4572000D03*
G36*
X835660Y-4493260D02*
G01*
X993139Y-4493260D01*
X993139Y-4650739D01*
X835660Y-4650739D01*
G37*
D23*
G01*
X431800Y-533400D03*
D24*
G01*
X431800Y-883386D03*
D23*
G01*
X7645400Y-2349500D03*
D24*
G01*
X7645400Y-1999513D03*
D23*
G01*
X7632700Y-1333500D03*
D24*
G01*
X7632700Y-983513D03*
D25*
G01*
X6731000Y-1910842D03*
G01*
X6731000Y-1670557D03*
G01*
X6743700Y-1034542D03*
G01*
X6743700Y-794257D03*
D26*
G01*
X3175000Y-787400D03*
D27*
G01*
X3175000Y-1041400D03*
G01*
X3175000Y-1295400D03*
G01*
X3175000Y-1549400D03*
G01*
X3175000Y-1803400D03*
G01*
X3175000Y-2057400D03*
G01*
X3175000Y-2311400D03*
G01*
X3175000Y-2565400D03*
G01*
X3175000Y-2819400D03*
G01*
X3175000Y-3073400D03*
G01*
X3175000Y-3327400D03*
G01*
X3175000Y-3581400D03*
G01*
X4699000Y-787400D03*
G01*
X4699000Y-1041400D03*
G01*
X4699000Y-1295400D03*
G01*
X4699000Y-1549400D03*
G01*
X4699000Y-1803400D03*
G01*
X4699000Y-2057400D03*
G01*
X4699000Y-2565400D03*
G01*
X4699000Y-2819400D03*
G01*
X4699000Y-3327400D03*
G01*
X4699000Y-3581400D03*
G01*
X4699000Y-3073400D03*
G01*
X4699000Y-2311400D03*
G01*
X3175000Y-3835400D03*
G01*
X3175000Y-4089400D03*
G01*
X3175000Y-4343400D03*
G01*
X4699000Y-3835400D03*
G01*
X4699000Y-4089400D03*
G01*
X4699000Y-4343400D03*
G36*
X6626298Y-352099D02*
G01*
X6806298Y-352099D01*
X6806298Y-612099D01*
X6626298Y-612099D01*
G37*
G36*
X5521398Y-352099D02*
G01*
X5701398Y-352099D01*
X5701398Y-612099D01*
X5521398Y-612099D01*
G37*
D11*
G01*
X5456300Y-2806700D03*
G01*
X6456299Y-2806700D03*
G01*
X2785999Y-4457700D03*
G01*
X1786001Y-4457700D03*
G01*
X6240399Y-1943100D03*
G01*
X5240400Y-1943100D03*
G01*
X5240400Y-2260600D03*
G01*
X6240399Y-2260600D03*
G01*
X6243700Y-3327400D03*
G01*
X7243699Y-3327400D03*
G01*
X6243700Y-3644900D03*
G01*
X7243699Y-3644900D03*
G01*
X6243700Y-3962400D03*
G01*
X7243699Y-3962400D03*
G01*
X5240400Y-1625600D03*
G01*
X6240399Y-1625600D03*
G36*
X6677659Y-4480560D02*
G01*
X6835140Y-4480560D01*
X6835140Y-4638039D01*
X6677659Y-4638039D01*
G37*
D18*
G01*
X7010400Y-4559300D03*
G01*
X7264400Y-4559300D03*
G01*
X7518400Y-4559300D03*
D28*
G01*
X889000Y-203200D03*
G01*
X482600Y-4699000D03*
G01*
X7797800Y-4000500D03*
G01*
X7734300Y-520700D03*
D29*
G01*
X4394200Y-3848100D03*
G01*
X4394200Y-3708400D03*
G01*
X5803900Y-3390900D03*
G01*
X7099300Y-2209800D03*
G01*
X6731000Y-3098800D03*
G01*
X6223000Y-2501900D03*
G01*
X6972300Y-2159000D03*
G01*
X6388100Y-965200D03*
D20*
X6970293Y-442092D02*
G01*
X6970293Y-522091D01*
X7228306Y-443082D02*
G01*
X7228306Y-523082D01*
X5865393Y-442092D02*
G01*
X5865393Y-522091D01*
X6123406Y-443082D02*
G01*
X6123406Y-523082D01*
M02*
