G04 Layer: TopLayer*
G04 EasyEDA v6.5.9, 2022-07-29 15:21:59*
G04 d62bb8ad4e154c8097677c42ea29ab51,674c0623d3a246009f606e19fc16e94a,10*
G04 Gerber Generator version 0.2*
G04 Scale: 100 percent, Rotated: No, Reflected: No *
G04 Dimensions in millimeters *
G04 leading zeros omitted , absolute positions ,4 integer and 5 decimal *
%FSLAX45Y45*%
%MOMM*%

%ADD10C,3.0000*%
%ADD11C,2.0000*%
%ADD12C,0.2500*%
%ADD13C,1.0000*%
%ADD14C,1.2000*%
%ADD15C,1.6000*%
%ADD16R,1.5748X1.5748*%
%ADD17C,1.5748*%
%ADD18R,1.8000X1.8000*%
%ADD19C,1.8000*%
%ADD20R,1.5748X1.7000*%
%ADD21C,1.7000*%
%ADD22R,2.0320X2.0320*%
%ADD23C,2.0320*%
%ADD24C,1.4000*%
%ADD25R,1.5080X1.5080*%
%ADD26C,1.5080*%
%ADD27C,3.2000*%
%ADD28C,0.6096*%
%ADD29C,0.0142*%

%LPD*%
G36*
X800201Y-4974082D02*
G01*
X761746Y-4973116D01*
X723900Y-4970322D01*
X686155Y-4965649D01*
X648716Y-4959146D01*
X611682Y-4950815D01*
X575056Y-4940655D01*
X538988Y-4928768D01*
X503529Y-4915052D01*
X478840Y-4904079D01*
X475589Y-4901844D01*
X473506Y-4898542D01*
X472795Y-4894681D01*
X473608Y-4890820D01*
X475792Y-4887569D01*
X479094Y-4885436D01*
X482955Y-4884674D01*
X491998Y-4884674D01*
X510743Y-4882743D01*
X529183Y-4878984D01*
X547166Y-4873345D01*
X564489Y-4865878D01*
X580948Y-4856734D01*
X596392Y-4846015D01*
X610666Y-4833721D01*
X623671Y-4820107D01*
X635152Y-4805172D01*
X645160Y-4789220D01*
X653440Y-4772304D01*
X659993Y-4754626D01*
X664667Y-4736439D01*
X667562Y-4717796D01*
X668477Y-4699000D01*
X667562Y-4680204D01*
X664667Y-4661560D01*
X659993Y-4643374D01*
X653440Y-4625695D01*
X645160Y-4608779D01*
X635152Y-4592828D01*
X623671Y-4577892D01*
X610666Y-4564278D01*
X596392Y-4551984D01*
X580948Y-4541266D01*
X564489Y-4532122D01*
X547166Y-4524654D01*
X529183Y-4519015D01*
X510743Y-4515256D01*
X491998Y-4513326D01*
X473201Y-4513326D01*
X454456Y-4515256D01*
X436016Y-4519015D01*
X418033Y-4524654D01*
X400710Y-4532122D01*
X384251Y-4541266D01*
X368808Y-4551984D01*
X354533Y-4564278D01*
X341528Y-4577892D01*
X330047Y-4592828D01*
X320040Y-4608779D01*
X311759Y-4625695D01*
X305206Y-4643374D01*
X300532Y-4661560D01*
X297637Y-4680204D01*
X296722Y-4699000D01*
X297637Y-4717796D01*
X300532Y-4736439D01*
X305206Y-4754626D01*
X311759Y-4772304D01*
X314096Y-4777079D01*
X315112Y-4780889D01*
X314604Y-4784801D01*
X312674Y-4788255D01*
X309524Y-4790643D01*
X305714Y-4791710D01*
X301802Y-4791202D01*
X298348Y-4789271D01*
X279958Y-4773371D01*
X252475Y-4747158D01*
X226263Y-4719675D01*
X201472Y-4690872D01*
X178104Y-4660900D01*
X156260Y-4629861D01*
X135940Y-4597755D01*
X117195Y-4564684D01*
X100126Y-4530750D01*
X84734Y-4496003D01*
X71069Y-4460544D01*
X59182Y-4424476D01*
X49072Y-4387850D01*
X40741Y-4350766D01*
X34239Y-4313326D01*
X29616Y-4275632D01*
X26822Y-4237736D01*
X25908Y-4199585D01*
X25908Y-800404D01*
X26873Y-761746D01*
X29667Y-723900D01*
X34340Y-686155D01*
X40843Y-648716D01*
X49174Y-611682D01*
X59334Y-575056D01*
X71272Y-538988D01*
X84937Y-503529D01*
X100330Y-468833D01*
X117449Y-434898D01*
X136194Y-401828D01*
X156514Y-369722D01*
X178409Y-338683D01*
X201777Y-308762D01*
X226618Y-279958D01*
X252831Y-252475D01*
X280365Y-226263D01*
X309118Y-201472D01*
X339090Y-178104D01*
X370128Y-156260D01*
X402234Y-135940D01*
X435305Y-117195D01*
X469239Y-100126D01*
X503986Y-84734D01*
X539445Y-71069D01*
X575513Y-59182D01*
X612140Y-49072D01*
X649224Y-40741D01*
X686663Y-34239D01*
X724357Y-29616D01*
X762254Y-26822D01*
X785723Y-26263D01*
X790092Y-27127D01*
X793699Y-29819D01*
X795782Y-33731D01*
X795985Y-38201D01*
X794258Y-42316D01*
X790651Y-45466D01*
X775208Y-56184D01*
X760933Y-68478D01*
X747928Y-82092D01*
X736447Y-97028D01*
X726440Y-112979D01*
X718159Y-129895D01*
X711606Y-147574D01*
X706932Y-165760D01*
X704037Y-184404D01*
X703122Y-203200D01*
X704037Y-221996D01*
X706932Y-240639D01*
X711606Y-258825D01*
X718159Y-276504D01*
X726440Y-293420D01*
X736447Y-309372D01*
X747928Y-324307D01*
X760933Y-337921D01*
X775208Y-350215D01*
X790651Y-360934D01*
X807110Y-370078D01*
X824433Y-377545D01*
X842416Y-383184D01*
X860856Y-386943D01*
X879602Y-388874D01*
X898398Y-388874D01*
X913180Y-387350D01*
X917295Y-387807D01*
X920902Y-389788D01*
X923391Y-393090D01*
X924356Y-397103D01*
X923645Y-401167D01*
X921359Y-404672D01*
X621538Y-704494D01*
X618236Y-706729D01*
X614324Y-707491D01*
X432054Y-707491D01*
X414020Y-708406D01*
X396392Y-711098D01*
X379120Y-715568D01*
X362458Y-721766D01*
X346456Y-729589D01*
X331317Y-739038D01*
X317246Y-749909D01*
X304292Y-762203D01*
X292709Y-775716D01*
X282549Y-790346D01*
X273862Y-805942D01*
X266852Y-822299D01*
X261518Y-839317D01*
X257911Y-856742D01*
X256133Y-874471D01*
X256133Y-892302D01*
X257911Y-910031D01*
X261518Y-927455D01*
X266852Y-944473D01*
X273862Y-960831D01*
X282549Y-976426D01*
X292709Y-991057D01*
X304292Y-1004569D01*
X317246Y-1016863D01*
X331317Y-1027734D01*
X346456Y-1037183D01*
X362458Y-1045006D01*
X379120Y-1051204D01*
X396392Y-1055674D01*
X414020Y-1058367D01*
X432054Y-1059281D01*
X691235Y-1059281D01*
X704900Y-1058773D01*
X709066Y-1058418D01*
X722579Y-1056487D01*
X726694Y-1055725D01*
X739952Y-1052474D01*
X743966Y-1051255D01*
X756767Y-1046683D01*
X760679Y-1045108D01*
X772972Y-1039266D01*
X776681Y-1037234D01*
X788314Y-1030173D01*
X791819Y-1027836D01*
X802690Y-1019657D01*
X805891Y-1016965D01*
X815949Y-1007618D01*
X1432306Y-391261D01*
X1444396Y-377850D01*
X1454962Y-363474D01*
X1464005Y-348132D01*
X1465122Y-345694D01*
X1467510Y-342442D01*
X1470914Y-340360D01*
X1474876Y-339801D01*
X1478737Y-340766D01*
X1481937Y-343154D01*
X1483969Y-346608D01*
X1487932Y-358089D01*
X1495450Y-374243D01*
X1504543Y-389534D01*
X1515160Y-403860D01*
X1527352Y-417220D01*
X1811121Y-698500D01*
X1813356Y-701802D01*
X1814169Y-705713D01*
X1813407Y-709574D01*
X1811172Y-712876D01*
X1807870Y-715111D01*
X1804009Y-715873D01*
X1473454Y-715873D01*
X1455420Y-716788D01*
X1437792Y-719480D01*
X1420520Y-723950D01*
X1403858Y-730148D01*
X1387856Y-738022D01*
X1372717Y-747420D01*
X1358646Y-758342D01*
X1345692Y-770585D01*
X1334109Y-784148D01*
X1323949Y-798728D01*
X1315262Y-814324D01*
X1308252Y-830681D01*
X1302918Y-847699D01*
X1299311Y-865174D01*
X1297533Y-882903D01*
X1297533Y-900684D01*
X1299311Y-918413D01*
X1302918Y-935888D01*
X1308252Y-952906D01*
X1315262Y-969264D01*
X1323949Y-984859D01*
X1334109Y-999439D01*
X1345692Y-1013002D01*
X1358646Y-1025245D01*
X1372717Y-1036167D01*
X1387856Y-1045565D01*
X1403858Y-1053439D01*
X1420520Y-1059637D01*
X1437792Y-1064107D01*
X1455420Y-1066800D01*
X1473454Y-1067714D01*
X1641957Y-1067714D01*
X1645818Y-1068476D01*
X1649120Y-1070660D01*
X1651304Y-1073962D01*
X1652117Y-1077874D01*
X1652117Y-3144062D01*
X1651304Y-3147923D01*
X1649120Y-3151225D01*
X1208125Y-3592220D01*
X1204823Y-3594404D01*
X1200962Y-3595217D01*
X1054404Y-3595217D01*
X1038910Y-3596132D01*
X1023975Y-3598875D01*
X1009446Y-3603396D01*
X1007465Y-3604310D01*
X1003300Y-3605174D01*
X964692Y-3605174D01*
X958342Y-3605885D01*
X952906Y-3607815D01*
X947978Y-3610914D01*
X943914Y-3614978D01*
X940816Y-3619906D01*
X938885Y-3625342D01*
X938174Y-3631692D01*
X938174Y-3670300D01*
X937310Y-3674465D01*
X936396Y-3676446D01*
X931875Y-3690975D01*
X929132Y-3705910D01*
X928217Y-3721100D01*
X929132Y-3736289D01*
X931875Y-3751224D01*
X936396Y-3765753D01*
X937310Y-3767734D01*
X938174Y-3771900D01*
X938174Y-3810508D01*
X938885Y-3816858D01*
X940816Y-3822293D01*
X943914Y-3827221D01*
X947978Y-3831285D01*
X952906Y-3834384D01*
X958342Y-3836314D01*
X964692Y-3837025D01*
X1003300Y-3837025D01*
X1007465Y-3837889D01*
X1009446Y-3838803D01*
X1023975Y-3843324D01*
X1038910Y-3846068D01*
X1054404Y-3847033D01*
X1257147Y-3847033D01*
X1264920Y-3846779D01*
X1272489Y-3846068D01*
X1280007Y-3844950D01*
X1287424Y-3843324D01*
X1294739Y-3841292D01*
X1301953Y-3838803D01*
X1308963Y-3835908D01*
X1315821Y-3832606D01*
X1322425Y-3828846D01*
X1328826Y-3824732D01*
X1334922Y-3820210D01*
X1340764Y-3815334D01*
X1346454Y-3810000D01*
X1866900Y-3289554D01*
X1872234Y-3283864D01*
X1877110Y-3278022D01*
X1881632Y-3271926D01*
X1885746Y-3265525D01*
X1889506Y-3258921D01*
X1892807Y-3252063D01*
X1895703Y-3245053D01*
X1898192Y-3237839D01*
X1900224Y-3230524D01*
X1901850Y-3223107D01*
X1902968Y-3215589D01*
X1903679Y-3208020D01*
X1903933Y-3200247D01*
X1903933Y-1077874D01*
X1904695Y-1073962D01*
X1906879Y-1070660D01*
X1910181Y-1068476D01*
X1914093Y-1067714D01*
X2336647Y-1067714D01*
X2345690Y-1067460D01*
X2354580Y-1066800D01*
X2363419Y-1065682D01*
X2372207Y-1064107D01*
X2380894Y-1062075D01*
X2389479Y-1059637D01*
X2397912Y-1056741D01*
X2406192Y-1053439D01*
X2414270Y-1049731D01*
X2422144Y-1045616D01*
X2429865Y-1041095D01*
X2437282Y-1036167D01*
X2444496Y-1030884D01*
X2451404Y-1025245D01*
X2458008Y-1019302D01*
X2464308Y-1013002D01*
X2470251Y-1006398D01*
X2475890Y-999490D01*
X2481173Y-992276D01*
X2486101Y-984859D01*
X2490622Y-977137D01*
X2494737Y-969264D01*
X2498445Y-961186D01*
X2501747Y-952906D01*
X2504643Y-944473D01*
X2507081Y-935888D01*
X2509113Y-927201D01*
X2510688Y-918413D01*
X2511806Y-909574D01*
X2512466Y-900684D01*
X2512720Y-891692D01*
X2512720Y-826363D01*
X2513482Y-822502D01*
X2515666Y-819200D01*
X2952800Y-382066D01*
X2956102Y-379882D01*
X2959963Y-379120D01*
X4685436Y-379120D01*
X4689297Y-379882D01*
X4692599Y-382066D01*
X4718964Y-408432D01*
X4721199Y-411835D01*
X4721961Y-415848D01*
X4721047Y-419811D01*
X4718659Y-423113D01*
X4715154Y-425196D01*
X4711141Y-425754D01*
X4699000Y-424942D01*
X4684826Y-425907D01*
X4670958Y-428650D01*
X4657496Y-433222D01*
X4644796Y-439470D01*
X4633010Y-447395D01*
X4622342Y-456742D01*
X4612995Y-467410D01*
X4605070Y-479196D01*
X4598822Y-491896D01*
X4594250Y-505358D01*
X4591507Y-519226D01*
X4590542Y-533400D01*
X4591507Y-547573D01*
X4594250Y-561441D01*
X4598822Y-574903D01*
X4605070Y-587603D01*
X4612995Y-599389D01*
X4622342Y-610057D01*
X4633010Y-619404D01*
X4644796Y-627329D01*
X4657496Y-633577D01*
X4670958Y-638149D01*
X4684826Y-640892D01*
X4699000Y-641858D01*
X4713173Y-640892D01*
X4727041Y-638149D01*
X4740503Y-633577D01*
X4753203Y-627329D01*
X4764989Y-619404D01*
X4775657Y-610057D01*
X4785004Y-599389D01*
X4792929Y-587603D01*
X4799177Y-574903D01*
X4803749Y-561441D01*
X4806492Y-547573D01*
X4807458Y-533400D01*
X4806645Y-521309D01*
X4807204Y-517245D01*
X4809286Y-513740D01*
X4812588Y-511352D01*
X4816551Y-510438D01*
X4820564Y-511200D01*
X4823968Y-513435D01*
X5034788Y-724255D01*
X5037023Y-727557D01*
X5037785Y-731469D01*
X5037023Y-735330D01*
X5034788Y-738632D01*
X5031486Y-740867D01*
X5027625Y-741629D01*
X4795215Y-741629D01*
X4791913Y-741070D01*
X4788916Y-739444D01*
X4786680Y-736904D01*
X4780534Y-727303D01*
X4771796Y-716991D01*
X4761788Y-707898D01*
X4750612Y-700278D01*
X4738522Y-694131D01*
X4725771Y-689711D01*
X4712512Y-687019D01*
X4699000Y-686104D01*
X4685487Y-687019D01*
X4672228Y-689711D01*
X4659477Y-694131D01*
X4647387Y-700278D01*
X4636211Y-707898D01*
X4626203Y-716991D01*
X4617466Y-727303D01*
X4610201Y-738733D01*
X4604461Y-750976D01*
X4600498Y-763930D01*
X4598212Y-777240D01*
X4597755Y-790803D01*
X4599127Y-804265D01*
X4602276Y-817422D01*
X4607102Y-830021D01*
X4613605Y-841908D01*
X4621631Y-852779D01*
X4631080Y-862533D01*
X4641697Y-870915D01*
X4653330Y-877824D01*
X4665776Y-883056D01*
X4678832Y-886663D01*
X4692243Y-888441D01*
X4700371Y-888441D01*
X4703622Y-889000D01*
X4706620Y-890016D01*
X4715205Y-892149D01*
X4717643Y-892556D01*
X4726482Y-893368D01*
X5199735Y-893419D01*
X5203647Y-894181D01*
X5206949Y-896416D01*
X5768289Y-1457756D01*
X5778296Y-1467053D01*
X5781548Y-1469745D01*
X5792419Y-1477975D01*
X5795873Y-1480312D01*
X5807557Y-1487373D01*
X5811266Y-1489354D01*
X5823559Y-1495196D01*
X5827420Y-1496822D01*
X5840272Y-1501394D01*
X5844286Y-1502562D01*
X5857494Y-1505813D01*
X5861659Y-1506626D01*
X5875121Y-1508506D01*
X5879338Y-1508912D01*
X5893003Y-1509420D01*
X6155486Y-1509420D01*
X6159601Y-1510284D01*
X6162954Y-1512671D01*
X6165138Y-1516278D01*
X6165646Y-1520393D01*
X6164478Y-1524355D01*
X6161786Y-1527556D01*
X6156909Y-1531366D01*
X6146190Y-1542135D01*
X6136792Y-1554073D01*
X6128918Y-1567078D01*
X6122670Y-1580946D01*
X6118148Y-1595475D01*
X6115405Y-1610410D01*
X6114491Y-1625600D01*
X6115405Y-1640789D01*
X6118148Y-1655724D01*
X6122670Y-1670253D01*
X6128918Y-1684121D01*
X6136792Y-1697126D01*
X6146190Y-1709064D01*
X6156909Y-1719834D01*
X6158992Y-1721408D01*
X6161633Y-1724609D01*
X6162852Y-1728622D01*
X6162294Y-1732737D01*
X6160160Y-1736343D01*
X6156756Y-1738731D01*
X6152692Y-1739595D01*
X5412892Y-1739595D01*
X5409031Y-1738833D01*
X5405729Y-1736598D01*
X5357266Y-1688134D01*
X5355031Y-1684731D01*
X5354269Y-1680718D01*
X5355183Y-1676755D01*
X5358130Y-1670253D01*
X5362651Y-1655724D01*
X5365394Y-1640789D01*
X5366308Y-1625600D01*
X5365394Y-1610410D01*
X5362651Y-1595475D01*
X5358130Y-1580946D01*
X5351881Y-1567078D01*
X5344007Y-1554073D01*
X5334609Y-1542135D01*
X5323890Y-1531366D01*
X5311902Y-1522018D01*
X5298897Y-1514144D01*
X5285028Y-1507896D01*
X5270550Y-1503375D01*
X5255564Y-1500632D01*
X5240426Y-1499717D01*
X5225237Y-1500632D01*
X5210251Y-1503375D01*
X5195773Y-1507896D01*
X5181904Y-1514144D01*
X5168900Y-1522018D01*
X5156911Y-1531366D01*
X5146192Y-1542135D01*
X5136794Y-1554073D01*
X5128920Y-1567078D01*
X5122672Y-1580946D01*
X5118150Y-1595475D01*
X5115407Y-1610410D01*
X5114493Y-1625600D01*
X5115407Y-1640789D01*
X5118150Y-1655724D01*
X5122672Y-1670253D01*
X5128920Y-1684121D01*
X5136794Y-1697126D01*
X5146192Y-1709064D01*
X5156911Y-1719834D01*
X5168900Y-1729181D01*
X5181904Y-1737055D01*
X5195773Y-1743303D01*
X5210251Y-1747824D01*
X5225237Y-1750568D01*
X5240426Y-1751482D01*
X5255564Y-1750568D01*
X5270550Y-1747824D01*
X5285028Y-1743303D01*
X5291582Y-1740357D01*
X5295544Y-1739493D01*
X5299557Y-1740204D01*
X5302910Y-1742439D01*
X5365292Y-1804822D01*
X5371490Y-1809902D01*
X5378094Y-1813458D01*
X5385308Y-1815642D01*
X5393283Y-1816404D01*
X6170625Y-1816404D01*
X6174892Y-1817370D01*
X6178346Y-1819960D01*
X6180429Y-1823821D01*
X6180683Y-1828190D01*
X6179058Y-1832254D01*
X6175908Y-1835251D01*
X6168898Y-1839518D01*
X6156909Y-1848866D01*
X6146190Y-1859635D01*
X6136792Y-1871573D01*
X6128918Y-1884578D01*
X6122670Y-1898446D01*
X6118148Y-1912975D01*
X6115405Y-1927910D01*
X6114491Y-1943100D01*
X6115405Y-1958289D01*
X6118148Y-1973224D01*
X6122670Y-1987753D01*
X6125616Y-1994255D01*
X6126530Y-1998218D01*
X6125768Y-2002231D01*
X6123533Y-2005634D01*
X5909970Y-2219198D01*
X5906668Y-2221433D01*
X5902756Y-2222195D01*
X5367477Y-2222195D01*
X5363667Y-2221433D01*
X5360466Y-2219350D01*
X5358231Y-2216200D01*
X5351881Y-2202078D01*
X5344007Y-2189073D01*
X5334609Y-2177135D01*
X5323890Y-2166366D01*
X5311902Y-2157018D01*
X5298897Y-2149144D01*
X5285028Y-2142896D01*
X5270550Y-2138375D01*
X5255564Y-2135632D01*
X5240426Y-2134717D01*
X5225237Y-2135632D01*
X5210251Y-2138375D01*
X5195773Y-2142896D01*
X5181904Y-2149144D01*
X5168900Y-2157018D01*
X5156911Y-2166366D01*
X5146192Y-2177135D01*
X5136794Y-2189073D01*
X5128920Y-2202078D01*
X5122672Y-2215946D01*
X5118150Y-2230475D01*
X5115407Y-2245410D01*
X5114493Y-2260600D01*
X5115407Y-2275789D01*
X5118150Y-2290724D01*
X5122672Y-2305253D01*
X5128920Y-2319121D01*
X5136794Y-2332126D01*
X5146192Y-2344064D01*
X5156911Y-2354834D01*
X5168900Y-2364181D01*
X5181904Y-2372055D01*
X5195773Y-2378303D01*
X5210251Y-2382824D01*
X5225237Y-2385568D01*
X5240426Y-2386482D01*
X5255564Y-2385568D01*
X5270550Y-2382824D01*
X5285028Y-2378303D01*
X5298897Y-2372055D01*
X5311902Y-2364181D01*
X5323890Y-2354834D01*
X5334609Y-2344064D01*
X5344007Y-2332126D01*
X5351881Y-2319121D01*
X5358231Y-2304999D01*
X5360466Y-2301849D01*
X5363667Y-2299766D01*
X5367477Y-2299004D01*
X5922416Y-2299004D01*
X5930392Y-2298242D01*
X5937554Y-2296058D01*
X5944209Y-2292502D01*
X5950407Y-2287422D01*
X6177889Y-2059939D01*
X6181242Y-2057704D01*
X6185255Y-2056993D01*
X6189218Y-2057857D01*
X6195771Y-2060803D01*
X6210249Y-2065324D01*
X6225235Y-2068068D01*
X6240424Y-2068982D01*
X6255562Y-2068068D01*
X6270548Y-2065324D01*
X6285026Y-2060803D01*
X6298895Y-2054555D01*
X6311900Y-2046681D01*
X6323888Y-2037334D01*
X6334607Y-2026564D01*
X6344005Y-2014626D01*
X6351879Y-2001621D01*
X6358128Y-1987753D01*
X6362649Y-1973224D01*
X6365392Y-1958289D01*
X6366306Y-1943100D01*
X6365392Y-1927910D01*
X6362649Y-1912975D01*
X6358128Y-1898446D01*
X6351879Y-1884578D01*
X6344005Y-1871573D01*
X6334607Y-1859635D01*
X6323888Y-1848866D01*
X6311900Y-1839518D01*
X6304889Y-1835251D01*
X6301740Y-1832254D01*
X6300114Y-1828190D01*
X6300368Y-1823821D01*
X6302451Y-1819960D01*
X6305905Y-1817370D01*
X6310172Y-1816404D01*
X6558483Y-1816404D01*
X6562394Y-1817166D01*
X6565646Y-1819402D01*
X6633616Y-1887321D01*
X6635445Y-1889861D01*
X6636461Y-1892807D01*
X6636512Y-1895906D01*
X6635343Y-1904288D01*
X6635343Y-1917395D01*
X6637121Y-1930349D01*
X6640626Y-1942947D01*
X6645859Y-1954936D01*
X6652666Y-1966163D01*
X6660946Y-1976272D01*
X6670497Y-1985213D01*
X6681165Y-1992782D01*
X6692798Y-1998776D01*
X6705142Y-2003196D01*
X6717944Y-2005838D01*
X6731000Y-2006752D01*
X6744055Y-2005838D01*
X6756857Y-2003196D01*
X6769201Y-1998776D01*
X6780834Y-1992782D01*
X6791502Y-1985213D01*
X6801053Y-1976272D01*
X6809333Y-1966163D01*
X6816140Y-1954936D01*
X6821373Y-1942947D01*
X6824878Y-1930349D01*
X6826656Y-1917395D01*
X6826656Y-1904288D01*
X6824878Y-1891334D01*
X6821373Y-1878736D01*
X6816140Y-1866747D01*
X6813194Y-1861921D01*
X6811822Y-1857857D01*
X6812178Y-1853641D01*
X6814261Y-1849882D01*
X6817715Y-1847342D01*
X6821881Y-1846478D01*
X7239355Y-1846478D01*
X7243267Y-1847240D01*
X7246569Y-1849424D01*
X7520838Y-2123694D01*
X7534249Y-2135835D01*
X7548625Y-2146401D01*
X7563967Y-2155444D01*
X7580172Y-2162860D01*
X7596987Y-2168601D01*
X7614361Y-2172665D01*
X7632039Y-2174900D01*
X7649870Y-2175357D01*
X7667599Y-2173986D01*
X7685176Y-2170836D01*
X7702296Y-2165959D01*
X7718856Y-2159355D01*
X7734655Y-2151075D01*
X7749489Y-2141270D01*
X7763306Y-2130044D01*
X7775905Y-2117445D01*
X7787182Y-2103628D01*
X7796987Y-2088743D01*
X7805216Y-2072944D01*
X7811820Y-2056384D01*
X7816748Y-2039264D01*
X7819898Y-2021738D01*
X7821218Y-2003958D01*
X7820761Y-1986178D01*
X7818526Y-1968500D01*
X7814513Y-1951126D01*
X7808722Y-1934260D01*
X7801305Y-1918055D01*
X7792262Y-1902714D01*
X7781696Y-1888337D01*
X7769606Y-1874926D01*
X7440980Y-1546301D01*
X7430922Y-1537004D01*
X7427722Y-1534312D01*
X7418933Y-1527657D01*
X7416139Y-1524508D01*
X7414920Y-1520494D01*
X7415377Y-1516329D01*
X7417511Y-1512722D01*
X7420914Y-1510284D01*
X7425029Y-1509420D01*
X7632446Y-1509420D01*
X7650480Y-1508506D01*
X7668107Y-1505813D01*
X7685379Y-1501343D01*
X7702042Y-1495145D01*
X7718044Y-1487271D01*
X7733182Y-1477873D01*
X7747253Y-1466951D01*
X7760208Y-1454708D01*
X7771790Y-1441145D01*
X7781950Y-1426565D01*
X7790637Y-1410970D01*
X7797647Y-1394612D01*
X7802981Y-1377594D01*
X7806588Y-1360119D01*
X7808366Y-1342390D01*
X7808366Y-1324610D01*
X7806588Y-1306880D01*
X7802981Y-1289405D01*
X7797647Y-1272387D01*
X7790637Y-1256030D01*
X7781950Y-1240434D01*
X7771790Y-1225854D01*
X7760208Y-1212291D01*
X7747253Y-1200048D01*
X7733182Y-1189126D01*
X7718044Y-1179728D01*
X7702042Y-1171854D01*
X7685379Y-1165656D01*
X7668107Y-1161186D01*
X7650480Y-1158494D01*
X7632446Y-1157579D01*
X5969863Y-1157579D01*
X5966002Y-1156817D01*
X5962700Y-1154633D01*
X4887010Y-78943D01*
X4877003Y-69646D01*
X4873752Y-66954D01*
X4862880Y-58724D01*
X4859426Y-56388D01*
X4847894Y-49428D01*
X4839411Y-45161D01*
X4835956Y-42265D01*
X4834077Y-38201D01*
X4834128Y-33731D01*
X4836109Y-29667D01*
X4839614Y-26924D01*
X4843983Y-25908D01*
X7199579Y-25908D01*
X7238238Y-26873D01*
X7276134Y-29667D01*
X7313828Y-34340D01*
X7351268Y-40843D01*
X7388352Y-49174D01*
X7424928Y-59334D01*
X7460996Y-71272D01*
X7496454Y-84937D01*
X7531201Y-100330D01*
X7565136Y-117449D01*
X7598156Y-136194D01*
X7630261Y-156514D01*
X7661300Y-178409D01*
X7691272Y-201777D01*
X7720025Y-226618D01*
X7747508Y-252831D01*
X7773720Y-280365D01*
X7798511Y-309118D01*
X7817713Y-333756D01*
X7819644Y-337718D01*
X7819644Y-342188D01*
X7817764Y-346202D01*
X7814360Y-348996D01*
X7810093Y-350113D01*
X7805724Y-349300D01*
X7798866Y-346354D01*
X7780883Y-340715D01*
X7762443Y-336956D01*
X7743698Y-335026D01*
X7724902Y-335026D01*
X7706156Y-336956D01*
X7687716Y-340715D01*
X7669733Y-346354D01*
X7652410Y-353822D01*
X7635951Y-362966D01*
X7620508Y-373684D01*
X7606233Y-385978D01*
X7593228Y-399592D01*
X7581747Y-414528D01*
X7571740Y-430479D01*
X7563459Y-447395D01*
X7556906Y-465074D01*
X7552232Y-483260D01*
X7549337Y-501904D01*
X7548422Y-520700D01*
X7549337Y-539496D01*
X7552232Y-558139D01*
X7556906Y-576326D01*
X7563459Y-594004D01*
X7571740Y-610920D01*
X7581747Y-626872D01*
X7593228Y-641807D01*
X7606233Y-655421D01*
X7620508Y-667715D01*
X7635951Y-678434D01*
X7652410Y-687578D01*
X7669733Y-695045D01*
X7687716Y-700684D01*
X7706156Y-704443D01*
X7724902Y-706374D01*
X7743698Y-706374D01*
X7762443Y-704443D01*
X7780883Y-700684D01*
X7798866Y-695045D01*
X7816189Y-687578D01*
X7832648Y-678434D01*
X7848092Y-667715D01*
X7862366Y-655421D01*
X7875371Y-641807D01*
X7886852Y-626872D01*
X7896859Y-610920D01*
X7905140Y-594004D01*
X7911693Y-576326D01*
X7915960Y-559816D01*
X7917891Y-555955D01*
X7921244Y-553262D01*
X7925460Y-552196D01*
X7929676Y-553008D01*
X7933232Y-555447D01*
X7935417Y-559206D01*
X7940802Y-575513D01*
X7950962Y-612140D01*
X7959242Y-649224D01*
X7965744Y-686663D01*
X7970367Y-724357D01*
X7973161Y-762254D01*
X7974075Y-800404D01*
X7974075Y-3896868D01*
X7973161Y-3901084D01*
X7970570Y-3904538D01*
X7966709Y-3906621D01*
X7962392Y-3906875D01*
X7958328Y-3905351D01*
X7955330Y-3902201D01*
X7950352Y-3894328D01*
X7938871Y-3879392D01*
X7925866Y-3865778D01*
X7911592Y-3853484D01*
X7896148Y-3842765D01*
X7879689Y-3833622D01*
X7862366Y-3826154D01*
X7844383Y-3820515D01*
X7825943Y-3816756D01*
X7807198Y-3814826D01*
X7788402Y-3814826D01*
X7769656Y-3816756D01*
X7751216Y-3820515D01*
X7733233Y-3826154D01*
X7715910Y-3833622D01*
X7699451Y-3842765D01*
X7684008Y-3853484D01*
X7669733Y-3865778D01*
X7656728Y-3879392D01*
X7645247Y-3894328D01*
X7635240Y-3910279D01*
X7626959Y-3927195D01*
X7620406Y-3944874D01*
X7615732Y-3963060D01*
X7612837Y-3981704D01*
X7611922Y-4000500D01*
X7612837Y-4019296D01*
X7615732Y-4037939D01*
X7620406Y-4056126D01*
X7626959Y-4073804D01*
X7635240Y-4090720D01*
X7645247Y-4106672D01*
X7656728Y-4121607D01*
X7669733Y-4135221D01*
X7684008Y-4147515D01*
X7699451Y-4158234D01*
X7715910Y-4167378D01*
X7733233Y-4174845D01*
X7751216Y-4180484D01*
X7769656Y-4184243D01*
X7788402Y-4186174D01*
X7807198Y-4186174D01*
X7825943Y-4184243D01*
X7844383Y-4180484D01*
X7862366Y-4174845D01*
X7879689Y-4167378D01*
X7896148Y-4158234D01*
X7911592Y-4147515D01*
X7925866Y-4135221D01*
X7938871Y-4121607D01*
X7950352Y-4106672D01*
X7955330Y-4098798D01*
X7958328Y-4095648D01*
X7962392Y-4094124D01*
X7966709Y-4094378D01*
X7970570Y-4096461D01*
X7973161Y-4099915D01*
X7974075Y-4104132D01*
X7974075Y-4199839D01*
X7973110Y-4238244D01*
X7970316Y-4276140D01*
X7965643Y-4313834D01*
X7959140Y-4351274D01*
X7950809Y-4388307D01*
X7940649Y-4424934D01*
X7928762Y-4461002D01*
X7915046Y-4496460D01*
X7899653Y-4531207D01*
X7882534Y-4565142D01*
X7863840Y-4598162D01*
X7843469Y-4630267D01*
X7821574Y-4661306D01*
X7798206Y-4691278D01*
X7773365Y-4720031D01*
X7747203Y-4747514D01*
X7719669Y-4773726D01*
X7690866Y-4798517D01*
X7660894Y-4821885D01*
X7629855Y-4843780D01*
X7597749Y-4864100D01*
X7564678Y-4882794D01*
X7530744Y-4899863D01*
X7495997Y-4915255D01*
X7460538Y-4928920D01*
X7424470Y-4940808D01*
X7387844Y-4950917D01*
X7350759Y-4959248D01*
X7313320Y-4965750D01*
X7275626Y-4970373D01*
X7237730Y-4973167D01*
X7199579Y-4974082D01*
G37*

%LPC*%
G36*
X6388201Y-4939995D02*
G01*
X6911441Y-4939944D01*
X6920280Y-4939131D01*
X6922719Y-4938725D01*
X6931355Y-4936591D01*
X6933692Y-4935829D01*
X6941921Y-4932426D01*
X6944106Y-4931308D01*
X6951725Y-4926685D01*
X6960565Y-4919624D01*
X7065924Y-4814265D01*
X7072985Y-4805426D01*
X7077608Y-4797806D01*
X7078725Y-4795621D01*
X7082129Y-4787392D01*
X7082891Y-4785055D01*
X7085025Y-4776419D01*
X7085431Y-4773980D01*
X7086244Y-4765141D01*
X7086295Y-4634890D01*
X7086955Y-4631334D01*
X7088835Y-4628235D01*
X7093407Y-4623003D01*
X7101027Y-4611624D01*
X7107072Y-4599330D01*
X7111441Y-4586376D01*
X7114133Y-4572965D01*
X7115048Y-4559300D01*
X7114133Y-4545634D01*
X7111441Y-4532223D01*
X7107072Y-4519269D01*
X7101027Y-4506976D01*
X7093407Y-4495596D01*
X7084364Y-4485335D01*
X7074103Y-4476292D01*
X7062724Y-4468672D01*
X7050430Y-4462627D01*
X7037476Y-4458258D01*
X7024065Y-4455566D01*
X7010400Y-4454652D01*
X6996734Y-4455566D01*
X6983323Y-4458258D01*
X6970369Y-4462627D01*
X6958075Y-4468672D01*
X6946696Y-4476292D01*
X6936435Y-4485335D01*
X6927392Y-4495596D01*
X6919772Y-4506976D01*
X6913727Y-4519269D01*
X6909358Y-4532223D01*
X6906666Y-4545634D01*
X6905752Y-4559300D01*
X6906666Y-4572965D01*
X6909358Y-4586376D01*
X6913727Y-4599330D01*
X6919772Y-4611624D01*
X6927392Y-4623003D01*
X6931964Y-4628235D01*
X6933844Y-4631334D01*
X6934504Y-4634890D01*
X6934504Y-4726838D01*
X6933742Y-4730750D01*
X6931507Y-4734052D01*
X6880352Y-4785207D01*
X6877050Y-4787442D01*
X6873138Y-4788204D01*
X6423761Y-4788204D01*
X6419850Y-4787442D01*
X6416548Y-4785207D01*
X6294577Y-4663186D01*
X6292342Y-4659934D01*
X6291580Y-4656023D01*
X6291580Y-4605020D01*
X6240576Y-4605020D01*
X6236665Y-4604258D01*
X6233414Y-4602022D01*
X6190437Y-4559096D01*
X6188354Y-4556099D01*
X6187490Y-4552594D01*
X6187033Y-4545634D01*
X6184341Y-4532223D01*
X6179972Y-4519269D01*
X6173927Y-4506976D01*
X6166307Y-4495596D01*
X6157264Y-4485335D01*
X6147003Y-4476292D01*
X6135624Y-4468672D01*
X6123330Y-4462627D01*
X6110376Y-4458258D01*
X6096965Y-4455566D01*
X6083300Y-4454652D01*
X6069634Y-4455566D01*
X6056223Y-4458258D01*
X6043269Y-4462627D01*
X6030976Y-4468672D01*
X6019596Y-4476292D01*
X6009335Y-4485335D01*
X6000292Y-4495596D01*
X5992672Y-4506976D01*
X5986627Y-4519269D01*
X5982258Y-4532223D01*
X5979566Y-4545634D01*
X5979109Y-4552594D01*
X5978245Y-4556099D01*
X5976162Y-4559096D01*
X5949442Y-4585817D01*
X5945835Y-4588103D01*
X5941618Y-4588764D01*
X5937453Y-4587595D01*
X5934202Y-4584801D01*
X5932373Y-4580940D01*
X5932322Y-4576622D01*
X5933033Y-4572965D01*
X5933948Y-4559300D01*
X5933033Y-4545634D01*
X5930341Y-4532223D01*
X5925972Y-4519269D01*
X5919927Y-4506976D01*
X5912307Y-4495596D01*
X5903264Y-4485335D01*
X5893003Y-4476292D01*
X5881624Y-4468672D01*
X5869330Y-4462627D01*
X5856376Y-4458258D01*
X5842965Y-4455566D01*
X5829300Y-4454652D01*
X5815634Y-4455566D01*
X5802223Y-4458258D01*
X5789269Y-4462627D01*
X5776976Y-4468672D01*
X5765596Y-4476292D01*
X5755335Y-4485335D01*
X5746292Y-4495596D01*
X5738672Y-4506976D01*
X5732627Y-4519269D01*
X5728258Y-4532223D01*
X5725566Y-4545634D01*
X5724652Y-4559300D01*
X5725566Y-4572965D01*
X5728258Y-4586376D01*
X5732627Y-4599330D01*
X5738672Y-4611624D01*
X5746292Y-4623003D01*
X5755335Y-4633264D01*
X5765596Y-4642307D01*
X5776976Y-4649927D01*
X5789269Y-4655972D01*
X5802223Y-4660341D01*
X5815634Y-4663033D01*
X5829300Y-4663948D01*
X5842965Y-4663033D01*
X5846622Y-4662322D01*
X5850940Y-4662373D01*
X5854801Y-4664202D01*
X5857595Y-4667453D01*
X5858764Y-4671618D01*
X5858103Y-4675835D01*
X5855817Y-4679442D01*
X5762752Y-4772507D01*
X5759450Y-4774742D01*
X5755538Y-4775504D01*
X4119372Y-4775504D01*
X4115511Y-4774742D01*
X4112209Y-4772507D01*
X4110024Y-4769205D01*
X4109212Y-4765344D01*
X4110024Y-4761433D01*
X4112209Y-4758131D01*
X4233824Y-4636465D01*
X4240885Y-4627626D01*
X4245508Y-4620006D01*
X4246626Y-4617821D01*
X4250029Y-4609592D01*
X4250791Y-4607255D01*
X4252925Y-4598619D01*
X4253331Y-4596180D01*
X4254144Y-4587341D01*
X4254195Y-2755493D01*
X4254957Y-2751632D01*
X4257192Y-2748330D01*
X4260494Y-2746146D01*
X4264355Y-2745333D01*
X4607814Y-2745333D01*
X4612030Y-2746248D01*
X4615484Y-2748838D01*
X4617567Y-2752648D01*
X4617872Y-2756916D01*
X4616399Y-2760980D01*
X4610201Y-2770733D01*
X4604461Y-2782976D01*
X4600498Y-2795930D01*
X4598212Y-2809240D01*
X4597755Y-2822803D01*
X4599127Y-2836265D01*
X4602276Y-2849422D01*
X4607102Y-2862021D01*
X4613605Y-2873908D01*
X4621631Y-2884779D01*
X4631080Y-2894533D01*
X4641697Y-2902915D01*
X4653330Y-2909824D01*
X4665776Y-2915056D01*
X4678832Y-2918663D01*
X4692243Y-2920441D01*
X4705756Y-2920441D01*
X4719167Y-2918663D01*
X4732223Y-2915056D01*
X4744669Y-2909824D01*
X4756302Y-2902915D01*
X4766919Y-2894533D01*
X4776368Y-2884779D01*
X4784394Y-2873908D01*
X4790897Y-2862021D01*
X4795723Y-2849422D01*
X4798872Y-2836265D01*
X4800244Y-2822803D01*
X4799787Y-2809240D01*
X4797501Y-2795930D01*
X4793538Y-2782976D01*
X4787798Y-2770733D01*
X4781600Y-2760980D01*
X4780127Y-2756916D01*
X4780432Y-2752648D01*
X4782515Y-2748838D01*
X4785969Y-2746248D01*
X4790186Y-2745333D01*
X5330393Y-2745333D01*
X5334355Y-2746146D01*
X5337657Y-2748432D01*
X5339842Y-2751785D01*
X5340553Y-2755747D01*
X5339638Y-2759710D01*
X5338572Y-2762046D01*
X5334050Y-2776575D01*
X5331307Y-2791510D01*
X5330393Y-2806700D01*
X5331307Y-2821889D01*
X5334050Y-2836824D01*
X5338572Y-2851353D01*
X5344820Y-2865221D01*
X5352694Y-2878226D01*
X5362092Y-2890164D01*
X5372811Y-2900934D01*
X5384800Y-2910281D01*
X5397804Y-2918155D01*
X5411673Y-2924403D01*
X5426151Y-2928924D01*
X5441137Y-2931668D01*
X5456326Y-2932582D01*
X5471464Y-2931668D01*
X5486450Y-2928924D01*
X5500928Y-2924403D01*
X5514797Y-2918155D01*
X5527802Y-2910281D01*
X5539790Y-2900934D01*
X5550509Y-2890164D01*
X5559907Y-2878226D01*
X5567781Y-2865221D01*
X5574030Y-2851353D01*
X5578551Y-2836824D01*
X5581294Y-2821889D01*
X5582208Y-2806700D01*
X5581294Y-2791510D01*
X5578551Y-2776575D01*
X5574030Y-2762046D01*
X5567781Y-2748178D01*
X5559907Y-2735173D01*
X5550509Y-2723235D01*
X5539790Y-2712466D01*
X5527802Y-2703118D01*
X5514797Y-2695244D01*
X5500928Y-2688996D01*
X5486450Y-2684475D01*
X5471464Y-2681732D01*
X5456326Y-2680817D01*
X5441137Y-2681732D01*
X5426151Y-2684475D01*
X5411673Y-2688996D01*
X5405120Y-2691942D01*
X5401157Y-2692806D01*
X5397144Y-2692095D01*
X5393791Y-2689860D01*
X5384038Y-2680157D01*
X5377840Y-2675077D01*
X5371236Y-2671521D01*
X5364022Y-2669336D01*
X5356047Y-2668524D01*
X4760264Y-2668524D01*
X4755997Y-2667609D01*
X4752492Y-2664917D01*
X4750460Y-2661056D01*
X4750257Y-2656687D01*
X4751882Y-2652623D01*
X4755083Y-2649626D01*
X4756302Y-2648915D01*
X4766919Y-2640533D01*
X4776368Y-2630779D01*
X4784394Y-2619908D01*
X4790897Y-2608021D01*
X4795723Y-2595422D01*
X4798872Y-2582265D01*
X4800244Y-2568803D01*
X4799787Y-2555240D01*
X4797501Y-2541930D01*
X4793538Y-2528976D01*
X4787798Y-2516733D01*
X4780534Y-2505303D01*
X4771796Y-2494991D01*
X4761788Y-2485898D01*
X4750612Y-2478278D01*
X4738522Y-2472131D01*
X4725771Y-2467711D01*
X4712512Y-2465019D01*
X4699000Y-2464104D01*
X4685487Y-2465019D01*
X4672228Y-2467711D01*
X4659477Y-2472131D01*
X4647387Y-2478278D01*
X4636211Y-2485898D01*
X4626203Y-2494991D01*
X4617466Y-2505303D01*
X4610201Y-2516733D01*
X4604461Y-2528976D01*
X4600498Y-2541930D01*
X4598212Y-2555240D01*
X4597755Y-2568803D01*
X4599127Y-2582265D01*
X4602276Y-2595422D01*
X4607102Y-2608021D01*
X4613605Y-2619908D01*
X4621631Y-2630779D01*
X4631080Y-2640533D01*
X4641697Y-2648915D01*
X4642916Y-2649626D01*
X4646117Y-2652623D01*
X4647742Y-2656687D01*
X4647539Y-2661056D01*
X4645507Y-2664917D01*
X4642002Y-2667609D01*
X4637735Y-2668524D01*
X4264355Y-2668524D01*
X4260494Y-2667762D01*
X4257192Y-2665577D01*
X4254957Y-2662275D01*
X4254195Y-2658364D01*
X4254195Y-1826361D01*
X4254957Y-1822450D01*
X4257192Y-1819148D01*
X4448048Y-1628292D01*
X4451350Y-1626057D01*
X4455261Y-1625295D01*
X4628540Y-1625295D01*
X4631842Y-1625854D01*
X4634839Y-1627479D01*
X4641697Y-1632915D01*
X4653330Y-1639824D01*
X4665776Y-1645056D01*
X4678832Y-1648663D01*
X4692243Y-1650441D01*
X4705756Y-1650441D01*
X4719167Y-1648663D01*
X4732223Y-1645056D01*
X4744669Y-1639824D01*
X4756302Y-1632915D01*
X4766919Y-1624533D01*
X4776368Y-1614779D01*
X4784394Y-1603908D01*
X4790897Y-1592021D01*
X4795723Y-1579422D01*
X4798872Y-1566265D01*
X4800244Y-1552803D01*
X4799787Y-1539240D01*
X4797501Y-1525930D01*
X4793538Y-1512976D01*
X4787798Y-1500733D01*
X4780534Y-1489303D01*
X4771796Y-1478991D01*
X4761788Y-1469898D01*
X4750612Y-1462278D01*
X4738522Y-1456131D01*
X4725771Y-1451711D01*
X4712512Y-1449019D01*
X4699000Y-1448104D01*
X4685487Y-1449019D01*
X4672228Y-1451711D01*
X4659477Y-1456131D01*
X4647387Y-1462278D01*
X4631994Y-1472793D01*
X4628337Y-1473504D01*
X4416958Y-1473555D01*
X4408119Y-1474368D01*
X4405680Y-1474774D01*
X4397044Y-1476908D01*
X4394708Y-1477670D01*
X4386478Y-1481074D01*
X4384294Y-1482191D01*
X4376674Y-1486814D01*
X4367834Y-1493875D01*
X4122775Y-1738934D01*
X4115714Y-1747774D01*
X4111091Y-1755393D01*
X4109974Y-1757578D01*
X4106570Y-1765807D01*
X4105808Y-1768144D01*
X4103674Y-1776780D01*
X4103268Y-1779219D01*
X4102455Y-1788058D01*
X4102404Y-4549038D01*
X4101642Y-4552950D01*
X4099407Y-4556252D01*
X3883151Y-4772507D01*
X3879850Y-4774742D01*
X3875938Y-4775504D01*
X3215335Y-4775504D01*
X3211474Y-4774742D01*
X3208172Y-4772507D01*
X3158236Y-4722571D01*
X3156000Y-4719167D01*
X3155238Y-4715154D01*
X3156153Y-4711192D01*
X3158540Y-4707890D01*
X3162046Y-4705807D01*
X3166059Y-4705248D01*
X3175000Y-4705858D01*
X3189173Y-4704892D01*
X3203041Y-4702149D01*
X3216503Y-4697577D01*
X3229203Y-4691329D01*
X3240989Y-4683404D01*
X3251657Y-4674057D01*
X3261004Y-4663389D01*
X3268929Y-4651603D01*
X3275177Y-4638903D01*
X3279749Y-4625441D01*
X3282492Y-4611573D01*
X3283458Y-4597400D01*
X3282492Y-4583226D01*
X3279749Y-4569358D01*
X3275177Y-4555896D01*
X3268929Y-4543196D01*
X3261004Y-4531410D01*
X3251657Y-4520742D01*
X3240989Y-4511395D01*
X3229203Y-4503470D01*
X3216503Y-4497222D01*
X3203041Y-4492650D01*
X3189173Y-4489907D01*
X3175000Y-4488942D01*
X3160826Y-4489907D01*
X3146958Y-4492650D01*
X3133496Y-4497222D01*
X3120796Y-4503470D01*
X3109010Y-4511395D01*
X3098342Y-4520742D01*
X3088995Y-4531410D01*
X3081070Y-4543196D01*
X3074822Y-4555896D01*
X3070250Y-4569358D01*
X3067507Y-4583226D01*
X3066542Y-4597400D01*
X3067151Y-4606340D01*
X3066592Y-4610354D01*
X3064510Y-4613859D01*
X3061208Y-4616246D01*
X3057245Y-4617161D01*
X3053232Y-4616399D01*
X3049828Y-4614164D01*
X2914040Y-4478426D01*
X2911754Y-4474819D01*
X2911094Y-4470603D01*
X2911906Y-4457700D01*
X2910992Y-4442510D01*
X2908249Y-4427575D01*
X2903728Y-4413046D01*
X2897479Y-4399178D01*
X2889605Y-4386173D01*
X2880207Y-4374235D01*
X2869488Y-4363466D01*
X2857500Y-4354118D01*
X2844495Y-4346244D01*
X2830626Y-4339996D01*
X2816148Y-4335475D01*
X2801162Y-4332732D01*
X2786024Y-4331817D01*
X2770835Y-4332732D01*
X2755849Y-4335475D01*
X2741371Y-4339996D01*
X2727502Y-4346244D01*
X2714498Y-4354118D01*
X2702509Y-4363466D01*
X2691790Y-4374235D01*
X2682392Y-4386173D01*
X2674518Y-4399178D01*
X2668270Y-4413046D01*
X2663748Y-4427575D01*
X2661005Y-4442510D01*
X2660091Y-4457700D01*
X2661005Y-4472889D01*
X2663748Y-4487824D01*
X2668270Y-4502353D01*
X2674518Y-4516221D01*
X2682392Y-4529226D01*
X2691790Y-4541164D01*
X2702509Y-4551934D01*
X2706217Y-4554829D01*
X2708300Y-4557014D01*
X2709621Y-4559808D01*
X2710078Y-4562805D01*
X2710078Y-4607864D01*
X2709316Y-4611725D01*
X2707132Y-4615027D01*
X2638552Y-4683607D01*
X2635250Y-4685842D01*
X2631338Y-4686604D01*
X1648561Y-4686604D01*
X1644650Y-4685842D01*
X1641348Y-4683607D01*
X1529537Y-4571796D01*
X1527454Y-4568799D01*
X1526590Y-4565294D01*
X1526133Y-4558334D01*
X1523441Y-4544923D01*
X1519072Y-4531969D01*
X1513027Y-4519676D01*
X1505407Y-4508296D01*
X1496364Y-4498035D01*
X1486103Y-4488992D01*
X1474724Y-4481372D01*
X1462430Y-4475327D01*
X1449476Y-4470958D01*
X1436065Y-4468266D01*
X1422400Y-4467352D01*
X1408734Y-4468266D01*
X1395323Y-4470958D01*
X1382369Y-4475327D01*
X1370076Y-4481372D01*
X1358696Y-4488992D01*
X1353464Y-4493564D01*
X1350365Y-4495444D01*
X1346809Y-4496104D01*
X1243990Y-4496104D01*
X1240434Y-4495444D01*
X1237335Y-4493564D01*
X1232103Y-4488992D01*
X1220724Y-4481372D01*
X1208430Y-4475327D01*
X1195476Y-4470958D01*
X1182065Y-4468266D01*
X1168400Y-4467352D01*
X1154734Y-4468266D01*
X1141323Y-4470958D01*
X1128369Y-4475327D01*
X1116076Y-4481372D01*
X1104696Y-4488992D01*
X1099464Y-4493564D01*
X1096365Y-4495444D01*
X1092809Y-4496104D01*
X1028395Y-4496104D01*
X1024280Y-4495241D01*
X1020876Y-4492752D01*
X1018743Y-4489094D01*
X1016355Y-4481982D01*
X1013358Y-4477156D01*
X1009243Y-4473041D01*
X1004366Y-4469993D01*
X998880Y-4468063D01*
X992581Y-4467352D01*
X836218Y-4467352D01*
X829919Y-4468063D01*
X824433Y-4469993D01*
X819556Y-4473041D01*
X815441Y-4477156D01*
X812393Y-4482033D01*
X810463Y-4487519D01*
X809752Y-4493818D01*
X809752Y-4650181D01*
X810463Y-4656480D01*
X812393Y-4661966D01*
X815441Y-4666843D01*
X819556Y-4670958D01*
X824433Y-4674006D01*
X829919Y-4675936D01*
X836218Y-4676648D01*
X992581Y-4676648D01*
X998880Y-4675936D01*
X1004366Y-4674006D01*
X1009243Y-4670958D01*
X1013358Y-4666843D01*
X1016355Y-4662017D01*
X1018743Y-4654905D01*
X1020876Y-4651248D01*
X1024280Y-4648758D01*
X1028395Y-4647895D01*
X1092809Y-4647895D01*
X1096365Y-4648555D01*
X1099464Y-4650435D01*
X1104696Y-4655007D01*
X1116076Y-4662627D01*
X1128369Y-4668672D01*
X1141323Y-4673041D01*
X1154734Y-4675733D01*
X1168400Y-4676648D01*
X1182065Y-4675733D01*
X1195476Y-4673041D01*
X1208430Y-4668672D01*
X1220724Y-4662627D01*
X1232103Y-4655007D01*
X1237335Y-4650435D01*
X1240434Y-4648555D01*
X1243990Y-4647895D01*
X1346809Y-4647895D01*
X1350365Y-4648555D01*
X1353464Y-4650435D01*
X1358696Y-4655007D01*
X1370076Y-4662627D01*
X1382369Y-4668672D01*
X1395323Y-4673041D01*
X1408734Y-4675733D01*
X1415694Y-4676190D01*
X1419199Y-4677054D01*
X1422196Y-4679137D01*
X1561134Y-4818024D01*
X1569974Y-4825085D01*
X1577594Y-4829708D01*
X1579778Y-4830826D01*
X1588008Y-4834229D01*
X1590344Y-4834991D01*
X1598980Y-4837125D01*
X1601419Y-4837531D01*
X1610258Y-4838344D01*
X2669641Y-4838344D01*
X2678480Y-4837531D01*
X2680919Y-4837125D01*
X2689555Y-4834991D01*
X2691892Y-4834229D01*
X2700121Y-4830826D01*
X2702306Y-4829708D01*
X2709926Y-4825085D01*
X2718765Y-4818024D01*
X2841498Y-4695291D01*
X2847187Y-4688433D01*
X2848610Y-4686401D01*
X2853182Y-4678781D01*
X2854299Y-4676597D01*
X2857703Y-4668367D01*
X2859735Y-4660696D01*
X2861564Y-4656836D01*
X2864866Y-4654092D01*
X2868980Y-4652873D01*
X2873197Y-4653534D01*
X2876804Y-4655870D01*
X3127959Y-4906924D01*
X3134766Y-4912563D01*
X3144418Y-4918608D01*
X3146602Y-4919726D01*
X3154832Y-4923129D01*
X3157169Y-4923891D01*
X3165754Y-4926025D01*
X3168192Y-4926431D01*
X3177032Y-4927244D01*
X5793841Y-4927244D01*
X5802680Y-4926431D01*
X5805119Y-4926025D01*
X5813755Y-4923891D01*
X5816092Y-4923129D01*
X5824321Y-4919726D01*
X5826506Y-4918608D01*
X5834126Y-4913985D01*
X5842965Y-4906924D01*
X6076137Y-4673854D01*
X6079388Y-4671618D01*
X6083300Y-4670856D01*
X6087211Y-4671618D01*
X6090462Y-4673854D01*
X6336334Y-4919624D01*
X6345174Y-4926685D01*
X6352794Y-4931308D01*
X6354978Y-4932426D01*
X6363208Y-4935829D01*
X6365544Y-4936591D01*
X6374180Y-4938725D01*
X6376619Y-4939131D01*
X6385458Y-4939944D01*
G37*
G36*
X4699000Y-4705858D02*
G01*
X4713173Y-4704892D01*
X4727041Y-4702149D01*
X4740503Y-4697577D01*
X4753203Y-4691329D01*
X4764989Y-4683404D01*
X4775657Y-4674057D01*
X4785004Y-4663389D01*
X4792929Y-4651603D01*
X4799177Y-4638903D01*
X4803749Y-4625441D01*
X4806492Y-4611573D01*
X4807458Y-4597400D01*
X4806492Y-4583226D01*
X4803749Y-4569358D01*
X4799177Y-4555896D01*
X4792929Y-4543196D01*
X4785004Y-4531410D01*
X4775657Y-4520742D01*
X4764989Y-4511395D01*
X4753203Y-4503470D01*
X4740503Y-4497222D01*
X4727041Y-4492650D01*
X4713173Y-4489907D01*
X4699000Y-4488942D01*
X4684826Y-4489907D01*
X4670958Y-4492650D01*
X4657496Y-4497222D01*
X4644796Y-4503470D01*
X4633010Y-4511395D01*
X4622342Y-4520742D01*
X4612995Y-4531410D01*
X4605070Y-4543196D01*
X4598822Y-4555896D01*
X4594250Y-4569358D01*
X4591507Y-4583226D01*
X4590542Y-4597400D01*
X4591507Y-4611573D01*
X4594250Y-4625441D01*
X4598822Y-4638903D01*
X4605070Y-4651603D01*
X4612995Y-4663389D01*
X4622342Y-4674057D01*
X4633010Y-4683404D01*
X4644796Y-4691329D01*
X4657496Y-4697577D01*
X4670958Y-4702149D01*
X4684826Y-4704892D01*
G37*
G36*
X6678218Y-4663948D02*
G01*
X6710680Y-4663948D01*
X6710680Y-4605020D01*
X6651752Y-4605020D01*
X6651752Y-4637481D01*
X6652463Y-4643780D01*
X6654393Y-4649266D01*
X6657441Y-4654143D01*
X6661556Y-4658258D01*
X6666433Y-4661306D01*
X6671919Y-4663236D01*
G37*
G36*
X6802120Y-4663948D02*
G01*
X6834581Y-4663948D01*
X6840880Y-4663236D01*
X6846366Y-4661306D01*
X6851243Y-4658258D01*
X6855358Y-4654143D01*
X6858406Y-4649266D01*
X6860336Y-4643780D01*
X6861048Y-4637481D01*
X6861048Y-4605020D01*
X6802120Y-4605020D01*
G37*
G36*
X7264400Y-4663948D02*
G01*
X7278065Y-4663033D01*
X7291476Y-4660341D01*
X7304430Y-4655972D01*
X7316724Y-4649927D01*
X7328103Y-4642307D01*
X7338364Y-4633264D01*
X7347407Y-4623003D01*
X7355027Y-4611624D01*
X7361072Y-4599330D01*
X7365441Y-4586376D01*
X7368133Y-4572965D01*
X7369048Y-4559300D01*
X7368133Y-4545634D01*
X7365441Y-4532223D01*
X7361072Y-4519269D01*
X7355027Y-4506976D01*
X7347407Y-4495596D01*
X7338364Y-4485335D01*
X7328103Y-4476292D01*
X7316724Y-4468672D01*
X7304430Y-4462627D01*
X7291476Y-4458258D01*
X7278065Y-4455566D01*
X7264400Y-4454652D01*
X7250734Y-4455566D01*
X7237323Y-4458258D01*
X7224369Y-4462627D01*
X7212075Y-4468672D01*
X7200696Y-4476292D01*
X7190435Y-4485335D01*
X7181392Y-4495596D01*
X7173772Y-4506976D01*
X7167727Y-4519269D01*
X7163358Y-4532223D01*
X7160666Y-4545634D01*
X7159752Y-4559300D01*
X7160666Y-4572965D01*
X7163358Y-4586376D01*
X7167727Y-4599330D01*
X7173772Y-4611624D01*
X7181392Y-4623003D01*
X7190435Y-4633264D01*
X7200696Y-4642307D01*
X7212075Y-4649927D01*
X7224369Y-4655972D01*
X7237323Y-4660341D01*
X7250734Y-4663033D01*
G37*
G36*
X7518400Y-4663948D02*
G01*
X7532065Y-4663033D01*
X7545476Y-4660341D01*
X7558430Y-4655972D01*
X7570724Y-4649927D01*
X7582103Y-4642307D01*
X7592364Y-4633264D01*
X7601407Y-4623003D01*
X7609027Y-4611624D01*
X7615072Y-4599330D01*
X7619441Y-4586376D01*
X7622133Y-4572965D01*
X7623048Y-4559300D01*
X7622133Y-4545634D01*
X7619441Y-4532223D01*
X7615072Y-4519269D01*
X7609027Y-4506976D01*
X7601407Y-4495596D01*
X7592364Y-4485335D01*
X7582103Y-4476292D01*
X7570724Y-4468672D01*
X7558430Y-4462627D01*
X7545476Y-4458258D01*
X7532065Y-4455566D01*
X7518400Y-4454652D01*
X7504734Y-4455566D01*
X7491323Y-4458258D01*
X7478369Y-4462627D01*
X7466075Y-4468672D01*
X7454696Y-4476292D01*
X7444435Y-4485335D01*
X7435392Y-4495596D01*
X7427772Y-4506976D01*
X7421727Y-4519269D01*
X7417358Y-4532223D01*
X7414666Y-4545634D01*
X7413752Y-4559300D01*
X7414666Y-4572965D01*
X7417358Y-4586376D01*
X7421727Y-4599330D01*
X7427772Y-4611624D01*
X7435392Y-4623003D01*
X7444435Y-4633264D01*
X7454696Y-4642307D01*
X7466075Y-4649927D01*
X7478369Y-4655972D01*
X7491323Y-4660341D01*
X7504734Y-4663033D01*
G37*
G36*
X5243118Y-4663948D02*
G01*
X5399481Y-4663948D01*
X5405780Y-4663236D01*
X5411266Y-4661306D01*
X5416143Y-4658258D01*
X5420258Y-4654143D01*
X5423306Y-4649266D01*
X5425236Y-4643780D01*
X5425948Y-4637481D01*
X5425948Y-4481118D01*
X5425236Y-4474819D01*
X5423306Y-4469333D01*
X5420258Y-4464456D01*
X5416143Y-4460341D01*
X5411266Y-4457293D01*
X5405780Y-4455363D01*
X5399481Y-4454652D01*
X5249773Y-4454652D01*
X5245912Y-4453890D01*
X5242610Y-4451654D01*
X4980533Y-4189577D01*
X4974336Y-4184497D01*
X4967681Y-4180941D01*
X4960467Y-4178757D01*
X4952492Y-4177995D01*
X4777892Y-4177995D01*
X4774031Y-4177233D01*
X4770729Y-4175048D01*
X4768494Y-4171797D01*
X4767732Y-4167936D01*
X4768443Y-4164076D01*
X4770577Y-4160774D01*
X4776368Y-4154779D01*
X4784394Y-4143908D01*
X4790897Y-4132021D01*
X4795723Y-4119422D01*
X4798872Y-4106265D01*
X4800244Y-4092803D01*
X4799787Y-4079240D01*
X4797501Y-4065930D01*
X4793538Y-4052976D01*
X4787798Y-4040733D01*
X4780534Y-4029303D01*
X4771796Y-4018991D01*
X4761788Y-4009898D01*
X4750612Y-4002278D01*
X4738522Y-3996131D01*
X4725771Y-3991711D01*
X4712512Y-3989019D01*
X4699000Y-3988104D01*
X4685487Y-3989019D01*
X4672228Y-3991711D01*
X4659477Y-3996131D01*
X4647387Y-4002278D01*
X4636211Y-4009898D01*
X4626203Y-4018991D01*
X4617466Y-4029303D01*
X4610201Y-4040733D01*
X4604461Y-4052976D01*
X4600498Y-4065930D01*
X4598212Y-4079240D01*
X4597755Y-4092803D01*
X4599127Y-4106265D01*
X4602276Y-4119422D01*
X4607102Y-4132021D01*
X4613605Y-4143908D01*
X4621631Y-4154779D01*
X4627422Y-4160774D01*
X4629556Y-4164076D01*
X4630267Y-4167936D01*
X4629505Y-4171797D01*
X4627270Y-4175048D01*
X4623968Y-4177233D01*
X4620107Y-4177995D01*
X4579416Y-4177995D01*
X4575505Y-4177233D01*
X4572254Y-4174998D01*
X4562602Y-4165346D01*
X4560366Y-4162094D01*
X4559604Y-4158183D01*
X4559604Y-3975608D01*
X4558842Y-3967632D01*
X4556658Y-3960418D01*
X4553102Y-3953764D01*
X4548022Y-3947566D01*
X4453382Y-3852926D01*
X4451350Y-3850030D01*
X4450435Y-3846626D01*
X4449673Y-3838295D01*
X4447133Y-3828846D01*
X4443018Y-3819906D01*
X4437380Y-3811879D01*
X4430420Y-3804920D01*
X4422394Y-3799281D01*
X4413453Y-3795166D01*
X4404004Y-3792626D01*
X4394200Y-3791762D01*
X4384395Y-3792626D01*
X4374946Y-3795166D01*
X4366006Y-3799281D01*
X4357979Y-3804920D01*
X4351020Y-3811879D01*
X4345381Y-3819906D01*
X4341266Y-3828846D01*
X4338726Y-3838295D01*
X4337862Y-3848100D01*
X4338726Y-3857904D01*
X4341266Y-3867353D01*
X4345381Y-3876294D01*
X4351020Y-3884320D01*
X4357979Y-3891279D01*
X4366006Y-3896918D01*
X4374946Y-3901033D01*
X4384395Y-3903573D01*
X4392726Y-3904335D01*
X4396130Y-3905250D01*
X4399026Y-3907282D01*
X4479798Y-3988054D01*
X4482033Y-3991305D01*
X4482795Y-3995216D01*
X4482795Y-4177792D01*
X4483557Y-4185767D01*
X4485741Y-4192981D01*
X4489297Y-4199636D01*
X4494377Y-4205833D01*
X4531766Y-4243222D01*
X4537964Y-4248302D01*
X4544618Y-4251858D01*
X4551832Y-4254042D01*
X4559808Y-4254804D01*
X4619904Y-4254804D01*
X4623866Y-4255617D01*
X4627219Y-4257903D01*
X4629404Y-4261307D01*
X4630064Y-4265320D01*
X4629150Y-4269232D01*
X4626203Y-4272991D01*
X4617466Y-4283303D01*
X4610201Y-4294733D01*
X4604461Y-4306976D01*
X4600498Y-4319930D01*
X4598212Y-4333240D01*
X4597755Y-4346803D01*
X4599127Y-4360265D01*
X4602276Y-4373422D01*
X4607102Y-4386021D01*
X4613605Y-4397908D01*
X4621631Y-4408779D01*
X4631080Y-4418533D01*
X4641697Y-4426915D01*
X4653330Y-4433824D01*
X4665776Y-4439056D01*
X4678832Y-4442663D01*
X4692243Y-4444441D01*
X4705756Y-4444441D01*
X4719167Y-4442663D01*
X4732223Y-4439056D01*
X4744669Y-4433824D01*
X4756302Y-4426915D01*
X4766919Y-4418533D01*
X4776368Y-4408779D01*
X4784394Y-4397908D01*
X4790897Y-4386021D01*
X4795723Y-4373422D01*
X4798872Y-4360265D01*
X4800244Y-4346803D01*
X4799787Y-4333240D01*
X4797501Y-4319930D01*
X4793538Y-4306976D01*
X4787798Y-4294733D01*
X4780534Y-4283303D01*
X4771796Y-4272991D01*
X4768850Y-4269232D01*
X4767935Y-4265320D01*
X4768596Y-4261307D01*
X4770780Y-4257903D01*
X4774133Y-4255617D01*
X4778095Y-4254804D01*
X4932883Y-4254804D01*
X4936794Y-4255566D01*
X4940046Y-4257802D01*
X5213654Y-4531410D01*
X5215890Y-4534712D01*
X5216652Y-4538573D01*
X5216652Y-4637481D01*
X5217363Y-4643780D01*
X5219293Y-4649266D01*
X5222341Y-4654143D01*
X5226456Y-4658258D01*
X5231333Y-4661306D01*
X5236819Y-4663236D01*
G37*
G36*
X5575300Y-4663948D02*
G01*
X5588965Y-4663033D01*
X5602376Y-4660341D01*
X5615330Y-4655972D01*
X5627624Y-4649927D01*
X5639003Y-4642307D01*
X5649264Y-4633264D01*
X5658307Y-4623003D01*
X5665927Y-4611624D01*
X5671972Y-4599330D01*
X5676341Y-4586376D01*
X5679033Y-4572965D01*
X5679948Y-4559300D01*
X5679033Y-4545634D01*
X5676341Y-4532223D01*
X5671972Y-4519269D01*
X5665927Y-4506976D01*
X5658307Y-4495596D01*
X5649264Y-4485335D01*
X5639003Y-4476292D01*
X5627624Y-4468672D01*
X5619140Y-4464507D01*
X5616397Y-4462526D01*
X5614416Y-4459681D01*
X5613552Y-4456379D01*
X5612942Y-4450232D01*
X5610758Y-4443018D01*
X5607202Y-4436364D01*
X5602122Y-4430166D01*
X4853533Y-3681577D01*
X4847336Y-3676497D01*
X4840681Y-3672941D01*
X4833467Y-3670757D01*
X4825492Y-3669995D01*
X4777892Y-3669995D01*
X4774031Y-3669233D01*
X4770729Y-3667048D01*
X4768494Y-3663797D01*
X4767732Y-3659936D01*
X4768443Y-3656076D01*
X4770577Y-3652774D01*
X4776368Y-3646779D01*
X4784394Y-3635908D01*
X4790897Y-3624021D01*
X4795723Y-3611422D01*
X4798872Y-3598265D01*
X4800244Y-3584803D01*
X4799787Y-3571240D01*
X4797501Y-3557930D01*
X4794453Y-3547973D01*
X4793996Y-3544315D01*
X4794859Y-3540760D01*
X4796942Y-3537762D01*
X5194554Y-3140202D01*
X5197805Y-3137966D01*
X5201716Y-3137204D01*
X6298692Y-3137204D01*
X6306667Y-3136442D01*
X6313881Y-3134258D01*
X6320536Y-3130702D01*
X6326733Y-3125622D01*
X6483096Y-2969209D01*
X6488176Y-2963011D01*
X6491732Y-2956356D01*
X6493916Y-2949194D01*
X6494729Y-2941218D01*
X6494729Y-2933801D01*
X6495440Y-2929991D01*
X6497523Y-2926740D01*
X6500723Y-2924505D01*
X6514795Y-2918155D01*
X6527800Y-2910281D01*
X6539788Y-2900934D01*
X6550507Y-2890164D01*
X6559905Y-2878226D01*
X6567779Y-2865221D01*
X6574028Y-2851353D01*
X6578549Y-2836824D01*
X6581292Y-2821889D01*
X6582206Y-2806700D01*
X6581292Y-2791510D01*
X6578549Y-2776575D01*
X6574028Y-2762046D01*
X6567779Y-2748178D01*
X6559905Y-2735173D01*
X6550609Y-2723337D01*
X6548932Y-2720086D01*
X6548475Y-2716428D01*
X6549339Y-2712872D01*
X6551422Y-2709875D01*
X6589826Y-2671470D01*
X6593128Y-2669286D01*
X6596989Y-2668524D01*
X6762648Y-2668524D01*
X6766204Y-2669133D01*
X6769303Y-2670962D01*
X6771538Y-2673807D01*
X6773062Y-2676550D01*
X6780377Y-2686354D01*
X6789064Y-2694990D01*
X6791706Y-2696972D01*
X6794195Y-2699715D01*
X6795566Y-2703220D01*
X6795566Y-2706979D01*
X6794195Y-2710484D01*
X6791706Y-2713228D01*
X6789064Y-2715209D01*
X6780377Y-2723845D01*
X6773062Y-2733649D01*
X6767525Y-2743758D01*
X6808927Y-2743758D01*
X6808927Y-2722473D01*
X6809943Y-2718104D01*
X6812737Y-2714548D01*
X6816750Y-2712567D01*
X6821271Y-2712516D01*
X6833057Y-2715107D01*
X6845300Y-2715971D01*
X6857542Y-2715107D01*
X6869328Y-2712516D01*
X6873849Y-2712567D01*
X6877862Y-2714548D01*
X6880656Y-2718104D01*
X6881672Y-2722473D01*
X6881672Y-2743758D01*
X6923074Y-2743758D01*
X6917537Y-2733649D01*
X6910222Y-2723845D01*
X6901535Y-2715209D01*
X6898894Y-2713228D01*
X6896404Y-2710484D01*
X6895033Y-2706979D01*
X6895033Y-2703220D01*
X6896404Y-2699715D01*
X6898894Y-2696972D01*
X6901535Y-2694990D01*
X6910222Y-2686354D01*
X6917537Y-2676550D01*
X6923430Y-2665780D01*
X6927697Y-2654300D01*
X6930288Y-2642311D01*
X6931202Y-2630119D01*
X6930288Y-2617876D01*
X6927697Y-2605887D01*
X6923430Y-2594406D01*
X6917537Y-2583688D01*
X6910222Y-2573883D01*
X6901535Y-2565196D01*
X6891731Y-2557830D01*
X6880961Y-2551988D01*
X6869480Y-2547670D01*
X6857542Y-2545080D01*
X6845300Y-2544216D01*
X6833057Y-2545080D01*
X6821119Y-2547670D01*
X6809638Y-2551988D01*
X6798868Y-2557830D01*
X6789064Y-2565196D01*
X6780377Y-2573883D01*
X6773062Y-2583688D01*
X6771538Y-2586380D01*
X6769303Y-2589225D01*
X6766204Y-2591054D01*
X6762648Y-2591663D01*
X6577380Y-2591663D01*
X6569405Y-2592476D01*
X6562191Y-2594660D01*
X6555587Y-2598216D01*
X6549390Y-2603296D01*
X6474206Y-2678480D01*
X6470599Y-2680766D01*
X6466382Y-2681427D01*
X6456324Y-2680817D01*
X6441135Y-2681732D01*
X6426149Y-2684475D01*
X6411671Y-2688996D01*
X6397802Y-2695244D01*
X6384798Y-2703118D01*
X6372809Y-2712466D01*
X6362090Y-2723235D01*
X6352692Y-2735173D01*
X6344818Y-2748178D01*
X6338570Y-2762046D01*
X6334048Y-2776575D01*
X6331305Y-2791510D01*
X6330391Y-2806700D01*
X6331305Y-2821889D01*
X6334048Y-2836824D01*
X6338570Y-2851353D01*
X6344818Y-2865221D01*
X6352692Y-2878226D01*
X6362090Y-2890164D01*
X6372809Y-2900934D01*
X6384798Y-2910281D01*
X6397802Y-2918155D01*
X6403492Y-2920746D01*
X6406692Y-2922981D01*
X6408775Y-2926283D01*
X6409486Y-2930144D01*
X6408674Y-2933954D01*
X6406489Y-2937205D01*
X6286246Y-3057398D01*
X6282994Y-3059633D01*
X6279083Y-3060395D01*
X5182108Y-3060395D01*
X5174132Y-3061157D01*
X5166918Y-3063341D01*
X5160264Y-3066897D01*
X5154066Y-3071977D01*
X4742586Y-3483508D01*
X4739487Y-3485642D01*
X4735779Y-3486454D01*
X4732070Y-3485896D01*
X4725771Y-3483711D01*
X4712512Y-3481019D01*
X4699000Y-3480104D01*
X4685487Y-3481019D01*
X4672228Y-3483711D01*
X4659477Y-3488131D01*
X4647387Y-3494278D01*
X4636211Y-3501898D01*
X4626203Y-3510991D01*
X4617466Y-3521303D01*
X4610201Y-3532733D01*
X4604461Y-3544976D01*
X4600498Y-3557930D01*
X4598212Y-3571240D01*
X4597755Y-3584803D01*
X4599127Y-3598265D01*
X4602276Y-3611422D01*
X4607102Y-3624021D01*
X4613605Y-3635908D01*
X4621631Y-3646779D01*
X4627422Y-3652774D01*
X4629556Y-3656076D01*
X4630267Y-3659936D01*
X4629505Y-3663797D01*
X4627270Y-3667048D01*
X4623968Y-3669233D01*
X4620107Y-3669995D01*
X4439361Y-3669995D01*
X4435500Y-3669233D01*
X4432198Y-3666998D01*
X4430420Y-3665220D01*
X4422394Y-3659581D01*
X4413453Y-3655466D01*
X4404004Y-3652926D01*
X4394200Y-3652062D01*
X4384395Y-3652926D01*
X4374946Y-3655466D01*
X4366006Y-3659581D01*
X4357979Y-3665220D01*
X4351020Y-3672179D01*
X4345381Y-3680206D01*
X4341266Y-3689146D01*
X4338726Y-3698595D01*
X4337862Y-3708400D01*
X4338726Y-3718204D01*
X4341266Y-3727653D01*
X4345381Y-3736594D01*
X4351020Y-3744620D01*
X4357979Y-3751579D01*
X4366006Y-3757218D01*
X4374946Y-3761333D01*
X4384395Y-3763873D01*
X4394200Y-3764737D01*
X4404004Y-3763873D01*
X4413453Y-3761333D01*
X4422394Y-3757218D01*
X4430420Y-3751579D01*
X4432198Y-3749801D01*
X4435500Y-3747566D01*
X4439361Y-3746804D01*
X4619904Y-3746804D01*
X4623866Y-3747617D01*
X4627219Y-3749903D01*
X4629404Y-3753307D01*
X4630064Y-3757320D01*
X4629150Y-3761232D01*
X4626203Y-3764991D01*
X4617466Y-3775303D01*
X4610201Y-3786733D01*
X4604461Y-3798976D01*
X4600498Y-3811930D01*
X4598212Y-3825240D01*
X4597755Y-3838803D01*
X4599127Y-3852265D01*
X4602276Y-3865422D01*
X4607102Y-3878021D01*
X4613605Y-3889908D01*
X4621631Y-3900779D01*
X4631080Y-3910533D01*
X4641697Y-3918915D01*
X4653330Y-3925824D01*
X4665776Y-3931056D01*
X4678832Y-3934663D01*
X4692243Y-3936441D01*
X4705756Y-3936441D01*
X4719167Y-3934663D01*
X4732223Y-3931056D01*
X4744669Y-3925824D01*
X4756302Y-3918915D01*
X4766919Y-3910533D01*
X4776368Y-3900779D01*
X4784394Y-3889908D01*
X4790897Y-3878021D01*
X4795723Y-3865422D01*
X4798872Y-3852265D01*
X4800244Y-3838803D01*
X4799787Y-3825240D01*
X4797501Y-3811930D01*
X4793538Y-3798976D01*
X4787798Y-3786733D01*
X4780534Y-3775303D01*
X4771796Y-3764991D01*
X4768850Y-3761232D01*
X4767935Y-3757320D01*
X4768596Y-3753307D01*
X4770780Y-3749903D01*
X4774133Y-3747617D01*
X4778095Y-3746804D01*
X4805883Y-3746804D01*
X4809794Y-3747566D01*
X4813046Y-3749801D01*
X5519623Y-4456328D01*
X5522010Y-4460087D01*
X5522569Y-4464507D01*
X5521147Y-4468723D01*
X5518099Y-4471974D01*
X5511596Y-4476292D01*
X5501335Y-4485335D01*
X5492292Y-4495596D01*
X5484672Y-4506976D01*
X5478627Y-4519269D01*
X5474258Y-4532223D01*
X5471566Y-4545634D01*
X5470652Y-4559300D01*
X5471566Y-4572965D01*
X5474258Y-4586376D01*
X5478627Y-4599330D01*
X5484672Y-4611624D01*
X5492292Y-4623003D01*
X5501335Y-4633264D01*
X5511596Y-4642307D01*
X5522976Y-4649927D01*
X5535269Y-4655972D01*
X5548223Y-4660341D01*
X5561634Y-4663033D01*
G37*
G36*
X6383020Y-4653178D02*
G01*
X6389624Y-4649927D01*
X6401003Y-4642307D01*
X6411264Y-4633264D01*
X6420307Y-4623003D01*
X6427927Y-4611624D01*
X6431178Y-4605020D01*
X6383020Y-4605020D01*
G37*
G36*
X1786026Y-4583582D02*
G01*
X1801164Y-4582668D01*
X1816150Y-4579924D01*
X1830628Y-4575403D01*
X1844497Y-4569155D01*
X1857502Y-4561281D01*
X1869490Y-4551934D01*
X1880209Y-4541164D01*
X1889607Y-4529226D01*
X1897481Y-4516221D01*
X1903831Y-4502099D01*
X1906066Y-4498949D01*
X1909267Y-4496866D01*
X1913077Y-4496104D01*
X2209292Y-4496104D01*
X2217267Y-4495342D01*
X2224481Y-4493158D01*
X2231136Y-4489602D01*
X2237333Y-4484522D01*
X2350922Y-4370933D01*
X2356002Y-4364736D01*
X2359558Y-4358081D01*
X2361742Y-4350867D01*
X2362504Y-4342892D01*
X2362504Y-3847185D01*
X2363266Y-3843274D01*
X2365502Y-3839972D01*
X2368804Y-3837787D01*
X2372664Y-3837025D01*
X2413508Y-3837025D01*
X2419858Y-3836314D01*
X2425293Y-3834384D01*
X2430221Y-3831285D01*
X2434285Y-3827221D01*
X2437384Y-3822293D01*
X2439314Y-3816858D01*
X2440025Y-3810508D01*
X2440025Y-3769664D01*
X2440787Y-3765804D01*
X2442972Y-3762501D01*
X2446274Y-3760266D01*
X2450185Y-3759504D01*
X2526792Y-3759504D01*
X2534767Y-3758742D01*
X2541981Y-3756558D01*
X2548636Y-3753002D01*
X2554833Y-3747922D01*
X2846222Y-3456533D01*
X2851302Y-3450336D01*
X2854858Y-3443681D01*
X2857042Y-3436467D01*
X2857804Y-3428492D01*
X2857804Y-2128316D01*
X2858566Y-2124405D01*
X2860802Y-2121154D01*
X3098647Y-1883308D01*
X3101644Y-1881225D01*
X3105200Y-1880311D01*
X3108858Y-1880768D01*
X3112109Y-1882495D01*
X3117697Y-1886915D01*
X3129330Y-1893824D01*
X3141776Y-1899056D01*
X3154832Y-1902663D01*
X3168243Y-1904441D01*
X3181756Y-1904441D01*
X3195167Y-1902663D01*
X3208223Y-1899056D01*
X3220669Y-1893824D01*
X3232302Y-1886915D01*
X3242919Y-1878533D01*
X3252368Y-1868779D01*
X3260394Y-1857908D01*
X3266897Y-1846021D01*
X3271723Y-1833422D01*
X3274872Y-1820265D01*
X3276244Y-1806803D01*
X3275787Y-1793239D01*
X3273501Y-1779930D01*
X3269538Y-1766976D01*
X3263798Y-1754733D01*
X3256534Y-1743303D01*
X3247796Y-1732991D01*
X3237788Y-1723898D01*
X3226612Y-1716278D01*
X3214522Y-1710131D01*
X3201771Y-1705711D01*
X3188512Y-1703019D01*
X3175000Y-1702104D01*
X3161487Y-1703019D01*
X3148228Y-1705711D01*
X3135477Y-1710131D01*
X3123387Y-1716278D01*
X3112211Y-1723898D01*
X3102203Y-1732991D01*
X3093466Y-1743303D01*
X3086201Y-1754733D01*
X3080461Y-1766976D01*
X3076498Y-1779930D01*
X3074212Y-1793239D01*
X3074162Y-1795272D01*
X3073298Y-1798980D01*
X3071164Y-1802079D01*
X2792577Y-2080666D01*
X2787497Y-2086864D01*
X2783941Y-2093518D01*
X2781757Y-2100732D01*
X2780995Y-2108708D01*
X2780995Y-3408883D01*
X2780233Y-3412794D01*
X2777998Y-3416046D01*
X2514346Y-3679698D01*
X2511094Y-3681933D01*
X2507183Y-3682695D01*
X2450185Y-3682695D01*
X2446274Y-3681933D01*
X2442972Y-3679698D01*
X2440787Y-3676396D01*
X2440025Y-3672535D01*
X2440025Y-3631692D01*
X2439314Y-3625342D01*
X2437384Y-3619906D01*
X2434285Y-3614978D01*
X2430221Y-3610914D01*
X2425293Y-3607815D01*
X2419858Y-3605885D01*
X2413508Y-3605174D01*
X2234692Y-3605174D01*
X2228342Y-3605885D01*
X2222906Y-3607815D01*
X2217978Y-3610914D01*
X2213914Y-3614978D01*
X2210816Y-3619906D01*
X2208885Y-3625342D01*
X2208174Y-3631692D01*
X2208174Y-3810508D01*
X2208885Y-3816858D01*
X2210816Y-3822293D01*
X2213914Y-3827221D01*
X2217978Y-3831285D01*
X2222906Y-3834384D01*
X2228342Y-3836314D01*
X2234692Y-3837025D01*
X2275535Y-3837025D01*
X2279396Y-3837787D01*
X2282698Y-3839972D01*
X2284933Y-3843274D01*
X2285695Y-3847185D01*
X2285695Y-4323283D01*
X2284933Y-4327194D01*
X2282698Y-4330446D01*
X2196846Y-4416298D01*
X2193594Y-4418533D01*
X2189683Y-4419295D01*
X1913077Y-4419295D01*
X1909267Y-4418533D01*
X1906066Y-4416450D01*
X1903831Y-4413300D01*
X1897481Y-4399178D01*
X1889607Y-4386173D01*
X1880209Y-4374235D01*
X1869490Y-4363466D01*
X1857502Y-4354118D01*
X1844497Y-4346244D01*
X1830628Y-4339996D01*
X1816150Y-4335475D01*
X1801164Y-4332732D01*
X1786026Y-4331817D01*
X1770837Y-4332732D01*
X1755851Y-4335475D01*
X1741373Y-4339996D01*
X1727504Y-4346244D01*
X1714500Y-4354118D01*
X1702511Y-4363466D01*
X1691792Y-4374235D01*
X1682394Y-4386173D01*
X1674520Y-4399178D01*
X1668272Y-4413046D01*
X1663750Y-4427575D01*
X1661007Y-4442510D01*
X1660093Y-4457700D01*
X1661007Y-4472889D01*
X1663750Y-4487824D01*
X1668272Y-4502353D01*
X1674520Y-4516221D01*
X1682394Y-4529226D01*
X1691792Y-4541164D01*
X1702511Y-4551934D01*
X1714500Y-4561281D01*
X1727504Y-4569155D01*
X1741373Y-4575403D01*
X1755851Y-4579924D01*
X1770837Y-4582668D01*
G37*
G36*
X6243421Y-4513580D02*
G01*
X6291580Y-4513580D01*
X6291580Y-4465421D01*
X6284976Y-4468672D01*
X6273596Y-4476292D01*
X6263335Y-4485335D01*
X6254292Y-4495596D01*
X6246672Y-4506976D01*
G37*
G36*
X6383020Y-4513580D02*
G01*
X6431178Y-4513580D01*
X6427927Y-4506976D01*
X6420307Y-4495596D01*
X6411264Y-4485335D01*
X6401003Y-4476292D01*
X6389624Y-4468672D01*
X6383020Y-4465421D01*
G37*
G36*
X6802120Y-4513580D02*
G01*
X6861048Y-4513580D01*
X6861048Y-4481118D01*
X6860336Y-4474819D01*
X6858406Y-4469333D01*
X6855358Y-4464456D01*
X6851243Y-4460341D01*
X6846366Y-4457293D01*
X6840880Y-4455363D01*
X6834581Y-4454652D01*
X6802120Y-4454652D01*
G37*
G36*
X6651752Y-4513580D02*
G01*
X6710680Y-4513580D01*
X6710680Y-4454652D01*
X6678218Y-4454652D01*
X6671919Y-4455363D01*
X6666433Y-4457293D01*
X6661556Y-4460341D01*
X6657441Y-4464456D01*
X6654393Y-4469333D01*
X6652463Y-4474819D01*
X6651752Y-4481118D01*
G37*
G36*
X3168243Y-4444441D02*
G01*
X3181756Y-4444441D01*
X3195167Y-4442663D01*
X3208223Y-4439056D01*
X3220669Y-4433824D01*
X3232302Y-4426915D01*
X3242919Y-4418533D01*
X3252368Y-4408779D01*
X3260394Y-4397908D01*
X3266897Y-4386021D01*
X3271723Y-4373422D01*
X3274872Y-4360265D01*
X3276244Y-4346803D01*
X3275787Y-4333240D01*
X3273501Y-4319930D01*
X3269538Y-4306976D01*
X3263798Y-4294733D01*
X3256534Y-4283303D01*
X3247796Y-4272991D01*
X3237788Y-4263898D01*
X3226612Y-4256278D01*
X3214522Y-4250131D01*
X3201771Y-4245711D01*
X3188512Y-4243019D01*
X3175000Y-4242104D01*
X3161487Y-4243019D01*
X3148228Y-4245711D01*
X3135477Y-4250131D01*
X3123387Y-4256278D01*
X3112211Y-4263898D01*
X3102203Y-4272991D01*
X3093466Y-4283303D01*
X3086201Y-4294733D01*
X3080461Y-4306976D01*
X3076498Y-4319930D01*
X3074212Y-4333240D01*
X3073755Y-4346803D01*
X3075127Y-4360265D01*
X3078276Y-4373422D01*
X3083102Y-4386021D01*
X3089605Y-4397908D01*
X3097631Y-4408779D01*
X3107080Y-4418533D01*
X3117697Y-4426915D01*
X3129330Y-4433824D01*
X3141776Y-4439056D01*
X3154832Y-4442663D01*
G37*
G36*
X836218Y-4409948D02*
G01*
X992581Y-4409948D01*
X998880Y-4409236D01*
X1004366Y-4407306D01*
X1009243Y-4404258D01*
X1013358Y-4400143D01*
X1016406Y-4395266D01*
X1018336Y-4389780D01*
X1019048Y-4383481D01*
X1019048Y-4335373D01*
X1019810Y-4331512D01*
X1022045Y-4328210D01*
X1046734Y-4303471D01*
X1049934Y-4301286D01*
X1053744Y-4300474D01*
X1057503Y-4301134D01*
X1060805Y-4303166D01*
X1063091Y-4306265D01*
X1064056Y-4309973D01*
X1064666Y-4318965D01*
X1067358Y-4332376D01*
X1071727Y-4345330D01*
X1077772Y-4357624D01*
X1085392Y-4369003D01*
X1094435Y-4379264D01*
X1104696Y-4388307D01*
X1116076Y-4395927D01*
X1128369Y-4401972D01*
X1141323Y-4406341D01*
X1154734Y-4409033D01*
X1168400Y-4409948D01*
X1182065Y-4409033D01*
X1195476Y-4406341D01*
X1208430Y-4401972D01*
X1220724Y-4395927D01*
X1232103Y-4388307D01*
X1242364Y-4379264D01*
X1251407Y-4369003D01*
X1259027Y-4357624D01*
X1265072Y-4345330D01*
X1269441Y-4332376D01*
X1271422Y-4322521D01*
X1272438Y-4319727D01*
X1274216Y-4317339D01*
X1300886Y-4290618D01*
X1304290Y-4288383D01*
X1308303Y-4287621D01*
X1312265Y-4288536D01*
X1315567Y-4290923D01*
X1317650Y-4294428D01*
X1318209Y-4298492D01*
X1317752Y-4305300D01*
X1318666Y-4318965D01*
X1321358Y-4332376D01*
X1325727Y-4345330D01*
X1331772Y-4357624D01*
X1339392Y-4369003D01*
X1348435Y-4379264D01*
X1358696Y-4388307D01*
X1370076Y-4395927D01*
X1382369Y-4401972D01*
X1395323Y-4406341D01*
X1408734Y-4409033D01*
X1422400Y-4409948D01*
X1436065Y-4409033D01*
X1449476Y-4406341D01*
X1462430Y-4401972D01*
X1474724Y-4395927D01*
X1486103Y-4388307D01*
X1496364Y-4379264D01*
X1505407Y-4369003D01*
X1513027Y-4357624D01*
X1519072Y-4345330D01*
X1523441Y-4332376D01*
X1526133Y-4318965D01*
X1527048Y-4305300D01*
X1526133Y-4291634D01*
X1523441Y-4278223D01*
X1520494Y-4269536D01*
X1519986Y-4265828D01*
X1520850Y-4262170D01*
X1522933Y-4259072D01*
X2230424Y-3551580D01*
X2233472Y-3549497D01*
X2237130Y-3548634D01*
X2240838Y-3549142D01*
X2244090Y-3550970D01*
X2255977Y-3560876D01*
X2268270Y-3568649D01*
X2281428Y-3574846D01*
X2295296Y-3579368D01*
X2309571Y-3582060D01*
X2324100Y-3582974D01*
X2338628Y-3582060D01*
X2352903Y-3579368D01*
X2366772Y-3574846D01*
X2379929Y-3568649D01*
X2392222Y-3560876D01*
X2403449Y-3551580D01*
X2413406Y-3540963D01*
X2421940Y-3529177D01*
X2428951Y-3516426D01*
X2434336Y-3502914D01*
X2437942Y-3488791D01*
X2439771Y-3474364D01*
X2439771Y-3459835D01*
X2437942Y-3445408D01*
X2434336Y-3431286D01*
X2428951Y-3417773D01*
X2421940Y-3405022D01*
X2413406Y-3393236D01*
X2403449Y-3382619D01*
X2392222Y-3373323D01*
X2379929Y-3365550D01*
X2366772Y-3359353D01*
X2352903Y-3354832D01*
X2338628Y-3352139D01*
X2324100Y-3351225D01*
X2309571Y-3352139D01*
X2295296Y-3354832D01*
X2281428Y-3359353D01*
X2268270Y-3365550D01*
X2255977Y-3373323D01*
X2244750Y-3382619D01*
X2234793Y-3393236D01*
X2226259Y-3405022D01*
X2219248Y-3417773D01*
X2213864Y-3431286D01*
X2210257Y-3445408D01*
X2207666Y-3464610D01*
X2205482Y-3467912D01*
X1468628Y-4204766D01*
X1465529Y-4206849D01*
X1461871Y-4207713D01*
X1458163Y-4207205D01*
X1449476Y-4204258D01*
X1436065Y-4201566D01*
X1422400Y-4200652D01*
X1415592Y-4201109D01*
X1411528Y-4200550D01*
X1408023Y-4198467D01*
X1405636Y-4195165D01*
X1404721Y-4191203D01*
X1405483Y-4187190D01*
X1407718Y-4183786D01*
X2269083Y-3322472D01*
X2272487Y-3320186D01*
X2276551Y-3319475D01*
X2281428Y-3320846D01*
X2295296Y-3325368D01*
X2309571Y-3328060D01*
X2324100Y-3328974D01*
X2338628Y-3328060D01*
X2352903Y-3325368D01*
X2366772Y-3320846D01*
X2379929Y-3314649D01*
X2392222Y-3306876D01*
X2403449Y-3297580D01*
X2413406Y-3286963D01*
X2421940Y-3275177D01*
X2428951Y-3262426D01*
X2434336Y-3248914D01*
X2437942Y-3234791D01*
X2439771Y-3220364D01*
X2439771Y-3205835D01*
X2437942Y-3191408D01*
X2434336Y-3177286D01*
X2428951Y-3163773D01*
X2421940Y-3151022D01*
X2413406Y-3139236D01*
X2403449Y-3128619D01*
X2392222Y-3119323D01*
X2379929Y-3111550D01*
X2366772Y-3105353D01*
X2352903Y-3100832D01*
X2338628Y-3098139D01*
X2324100Y-3097225D01*
X2309571Y-3098139D01*
X2295296Y-3100832D01*
X2281428Y-3105353D01*
X2268270Y-3111550D01*
X2264968Y-3113633D01*
X2261006Y-3115106D01*
X2256840Y-3114852D01*
X2253081Y-3112922D01*
X2250440Y-3109620D01*
X2249373Y-3105556D01*
X2250033Y-3101390D01*
X2252319Y-3097885D01*
X2278481Y-3071723D01*
X2281529Y-3069640D01*
X2285136Y-3068777D01*
X2288794Y-3069234D01*
X2295296Y-3071368D01*
X2309571Y-3074060D01*
X2324100Y-3074974D01*
X2338628Y-3074060D01*
X2352903Y-3071368D01*
X2366772Y-3066846D01*
X2379929Y-3060649D01*
X2392222Y-3052876D01*
X2403449Y-3043580D01*
X2413406Y-3032963D01*
X2421940Y-3021177D01*
X2428951Y-3008426D01*
X2434336Y-2994914D01*
X2437942Y-2980791D01*
X2439771Y-2966364D01*
X2439771Y-2951835D01*
X2437942Y-2937408D01*
X2434336Y-2923286D01*
X2428951Y-2909773D01*
X2421940Y-2897022D01*
X2413406Y-2885236D01*
X2403449Y-2874619D01*
X2392222Y-2865323D01*
X2379929Y-2857550D01*
X2366772Y-2851353D01*
X2352903Y-2846832D01*
X2338628Y-2844139D01*
X2324100Y-2843225D01*
X2309571Y-2844139D01*
X2295296Y-2846832D01*
X2281428Y-2851353D01*
X2268270Y-2857550D01*
X2255977Y-2865323D01*
X2244750Y-2874619D01*
X2234793Y-2885236D01*
X2226259Y-2897022D01*
X2219248Y-2909773D01*
X2213864Y-2923286D01*
X2210257Y-2937408D01*
X2208428Y-2951835D01*
X2208428Y-2966364D01*
X2210257Y-2980791D01*
X2213864Y-2994914D01*
X2219248Y-3008426D01*
X2220518Y-3010712D01*
X2221738Y-3014878D01*
X2221128Y-3019145D01*
X2218791Y-3022803D01*
X1029208Y-4212386D01*
X1026261Y-4214418D01*
X1022705Y-4215333D01*
X1019098Y-4214926D01*
X1015898Y-4213250D01*
X1009243Y-4206341D01*
X1004366Y-4203293D01*
X998880Y-4201363D01*
X992581Y-4200652D01*
X836218Y-4200652D01*
X829919Y-4201363D01*
X824433Y-4203293D01*
X819556Y-4206341D01*
X815441Y-4210456D01*
X812393Y-4215333D01*
X810463Y-4220819D01*
X809752Y-4227118D01*
X809752Y-4383481D01*
X810463Y-4389780D01*
X812393Y-4395266D01*
X815441Y-4400143D01*
X819556Y-4404258D01*
X824433Y-4407306D01*
X829919Y-4409236D01*
G37*
G36*
X3168243Y-4190441D02*
G01*
X3181756Y-4190441D01*
X3195167Y-4188663D01*
X3208223Y-4185056D01*
X3220669Y-4179824D01*
X3232302Y-4172915D01*
X3242919Y-4164533D01*
X3252368Y-4154779D01*
X3260394Y-4143908D01*
X3266897Y-4132021D01*
X3271723Y-4119422D01*
X3274872Y-4106265D01*
X3276244Y-4092803D01*
X3275787Y-4079240D01*
X3273501Y-4065930D01*
X3269538Y-4052976D01*
X3263798Y-4040733D01*
X3256534Y-4029303D01*
X3247796Y-4018991D01*
X3237788Y-4009898D01*
X3226612Y-4002278D01*
X3214522Y-3996131D01*
X3201771Y-3991711D01*
X3188512Y-3989019D01*
X3175000Y-3988104D01*
X3161487Y-3989019D01*
X3148228Y-3991711D01*
X3135477Y-3996131D01*
X3123387Y-4002278D01*
X3112211Y-4009898D01*
X3102203Y-4018991D01*
X3093466Y-4029303D01*
X3086201Y-4040733D01*
X3080461Y-4052976D01*
X3076498Y-4065930D01*
X3074212Y-4079240D01*
X3073755Y-4092803D01*
X3075127Y-4106265D01*
X3078276Y-4119422D01*
X3083102Y-4132021D01*
X3089605Y-4143908D01*
X3097631Y-4154779D01*
X3107080Y-4164533D01*
X3117697Y-4172915D01*
X3129330Y-4179824D01*
X3141776Y-4185056D01*
X3154832Y-4188663D01*
G37*
G36*
X6243726Y-4088282D02*
G01*
X6258864Y-4087368D01*
X6273850Y-4084624D01*
X6288328Y-4080103D01*
X6302197Y-4073855D01*
X6315202Y-4065981D01*
X6327190Y-4056634D01*
X6337909Y-4045864D01*
X6347307Y-4033926D01*
X6355181Y-4020921D01*
X6361430Y-4007053D01*
X6365951Y-3992524D01*
X6368694Y-3977589D01*
X6369608Y-3962400D01*
X6368694Y-3947210D01*
X6365951Y-3932275D01*
X6361430Y-3917746D01*
X6355181Y-3903878D01*
X6347307Y-3890873D01*
X6337909Y-3878935D01*
X6327190Y-3868165D01*
X6315202Y-3858818D01*
X6302197Y-3850944D01*
X6288074Y-3844594D01*
X6284925Y-3842359D01*
X6282842Y-3839108D01*
X6282131Y-3835298D01*
X6282131Y-3772001D01*
X6282842Y-3768191D01*
X6284925Y-3764940D01*
X6288074Y-3762705D01*
X6302197Y-3756355D01*
X6315202Y-3748481D01*
X6327190Y-3739134D01*
X6337909Y-3728364D01*
X6347307Y-3716426D01*
X6355181Y-3703421D01*
X6361430Y-3689553D01*
X6365951Y-3675024D01*
X6368694Y-3660089D01*
X6369608Y-3644900D01*
X6368694Y-3629710D01*
X6365951Y-3614775D01*
X6361430Y-3600246D01*
X6355181Y-3586378D01*
X6347307Y-3573373D01*
X6337909Y-3561435D01*
X6327190Y-3550665D01*
X6315202Y-3541318D01*
X6308191Y-3537051D01*
X6305042Y-3534054D01*
X6303416Y-3529990D01*
X6303670Y-3525621D01*
X6305753Y-3521760D01*
X6309207Y-3519170D01*
X6313474Y-3518204D01*
X6875983Y-3518204D01*
X6879894Y-3518966D01*
X6883146Y-3521201D01*
X7033666Y-3671722D01*
X7039864Y-3676802D01*
X7046518Y-3680358D01*
X7053732Y-3682542D01*
X7061708Y-3683304D01*
X7116622Y-3683304D01*
X7120432Y-3684066D01*
X7123633Y-3686149D01*
X7125868Y-3689299D01*
X7132218Y-3703421D01*
X7140092Y-3716426D01*
X7149490Y-3728364D01*
X7160209Y-3739134D01*
X7172198Y-3748481D01*
X7185202Y-3756355D01*
X7199071Y-3762603D01*
X7213549Y-3767124D01*
X7228535Y-3769868D01*
X7243724Y-3770782D01*
X7258862Y-3769868D01*
X7273848Y-3767124D01*
X7288326Y-3762603D01*
X7302195Y-3756355D01*
X7315200Y-3748481D01*
X7327188Y-3739134D01*
X7337907Y-3728364D01*
X7347305Y-3716426D01*
X7355179Y-3703421D01*
X7361428Y-3689553D01*
X7365949Y-3675024D01*
X7368692Y-3660089D01*
X7369606Y-3644900D01*
X7368692Y-3629710D01*
X7365949Y-3614775D01*
X7361428Y-3600246D01*
X7355179Y-3586378D01*
X7347305Y-3573373D01*
X7337907Y-3561435D01*
X7327188Y-3550665D01*
X7315200Y-3541318D01*
X7302195Y-3533444D01*
X7288326Y-3527196D01*
X7273848Y-3522675D01*
X7258862Y-3519932D01*
X7243724Y-3519017D01*
X7228535Y-3519932D01*
X7213549Y-3522675D01*
X7199071Y-3527196D01*
X7185202Y-3533444D01*
X7172198Y-3541318D01*
X7160209Y-3550665D01*
X7149490Y-3561435D01*
X7140092Y-3573373D01*
X7132218Y-3586378D01*
X7125868Y-3600500D01*
X7123633Y-3603650D01*
X7120432Y-3605733D01*
X7116622Y-3606495D01*
X7081316Y-3606495D01*
X7077405Y-3605733D01*
X7074153Y-3603498D01*
X6923633Y-3452977D01*
X6917436Y-3447897D01*
X6910781Y-3444341D01*
X6903567Y-3442157D01*
X6895592Y-3441395D01*
X6331407Y-3441395D01*
X6327343Y-3440531D01*
X6323939Y-3438144D01*
X6321806Y-3434537D01*
X6321247Y-3430422D01*
X6322466Y-3426409D01*
X6325158Y-3423208D01*
X6327190Y-3421634D01*
X6337909Y-3410864D01*
X6347307Y-3398926D01*
X6355181Y-3385921D01*
X6361430Y-3372053D01*
X6365951Y-3357524D01*
X6368694Y-3342589D01*
X6369608Y-3327400D01*
X6368694Y-3312210D01*
X6365951Y-3297275D01*
X6361430Y-3282746D01*
X6355181Y-3268878D01*
X6347307Y-3255873D01*
X6337909Y-3243935D01*
X6327190Y-3233166D01*
X6315202Y-3223818D01*
X6302197Y-3215944D01*
X6288328Y-3209696D01*
X6273850Y-3205175D01*
X6258864Y-3202432D01*
X6243726Y-3201517D01*
X6228537Y-3202432D01*
X6213551Y-3205175D01*
X6199073Y-3209696D01*
X6185204Y-3215944D01*
X6172200Y-3223818D01*
X6160211Y-3233166D01*
X6149492Y-3243935D01*
X6140094Y-3255873D01*
X6132220Y-3268878D01*
X6125972Y-3282746D01*
X6121450Y-3297275D01*
X6118707Y-3312210D01*
X6117793Y-3327400D01*
X6118707Y-3342589D01*
X6121450Y-3357524D01*
X6125972Y-3372053D01*
X6132220Y-3385921D01*
X6140094Y-3398926D01*
X6149492Y-3410864D01*
X6160211Y-3421634D01*
X6162294Y-3423208D01*
X6164935Y-3426409D01*
X6166154Y-3430422D01*
X6165596Y-3434537D01*
X6163462Y-3438144D01*
X6160058Y-3440531D01*
X6155994Y-3441395D01*
X5912916Y-3441395D01*
X5909005Y-3440633D01*
X5905754Y-3438398D01*
X5863082Y-3395726D01*
X5861050Y-3392830D01*
X5860135Y-3389426D01*
X5859373Y-3381095D01*
X5856833Y-3371646D01*
X5852718Y-3362706D01*
X5847080Y-3354679D01*
X5840120Y-3347720D01*
X5832094Y-3342081D01*
X5823153Y-3337966D01*
X5813704Y-3335426D01*
X5803900Y-3334562D01*
X5794095Y-3335426D01*
X5784646Y-3337966D01*
X5775706Y-3342081D01*
X5767679Y-3347720D01*
X5760720Y-3354679D01*
X5755081Y-3362706D01*
X5750966Y-3371646D01*
X5748426Y-3381095D01*
X5747562Y-3390900D01*
X5748426Y-3400704D01*
X5750966Y-3410153D01*
X5755081Y-3419094D01*
X5760720Y-3427120D01*
X5767679Y-3434079D01*
X5775706Y-3439718D01*
X5784646Y-3443833D01*
X5794095Y-3446373D01*
X5802426Y-3447135D01*
X5805830Y-3448050D01*
X5808726Y-3450082D01*
X5865266Y-3506622D01*
X5871464Y-3511702D01*
X5878118Y-3515258D01*
X5885332Y-3517442D01*
X5893308Y-3518204D01*
X6173927Y-3518204D01*
X6178194Y-3519170D01*
X6181648Y-3521760D01*
X6183731Y-3525621D01*
X6183985Y-3529990D01*
X6182360Y-3534054D01*
X6179210Y-3537051D01*
X6172200Y-3541318D01*
X6160211Y-3550665D01*
X6149492Y-3561435D01*
X6140094Y-3573373D01*
X6132220Y-3586378D01*
X6125972Y-3600246D01*
X6121450Y-3614775D01*
X6118707Y-3629710D01*
X6117793Y-3644900D01*
X6118707Y-3660089D01*
X6121450Y-3675024D01*
X6125972Y-3689553D01*
X6132220Y-3703421D01*
X6140094Y-3716426D01*
X6149492Y-3728364D01*
X6160211Y-3739134D01*
X6172200Y-3748481D01*
X6185204Y-3756355D01*
X6199327Y-3762705D01*
X6202476Y-3764940D01*
X6204559Y-3768191D01*
X6205270Y-3772001D01*
X6205270Y-3835298D01*
X6204559Y-3839108D01*
X6202476Y-3842359D01*
X6199327Y-3844594D01*
X6185204Y-3850944D01*
X6172200Y-3858818D01*
X6160211Y-3868165D01*
X6149492Y-3878935D01*
X6140094Y-3890873D01*
X6132220Y-3903878D01*
X6125972Y-3917746D01*
X6121450Y-3932275D01*
X6118707Y-3947210D01*
X6117793Y-3962400D01*
X6118707Y-3977589D01*
X6121450Y-3992524D01*
X6125972Y-4007053D01*
X6132220Y-4020921D01*
X6140094Y-4033926D01*
X6149492Y-4045864D01*
X6160211Y-4056634D01*
X6172200Y-4065981D01*
X6185204Y-4073855D01*
X6199073Y-4080103D01*
X6213551Y-4084624D01*
X6228537Y-4087368D01*
G37*
G36*
X7300061Y-4074820D02*
G01*
X7302195Y-4073855D01*
X7315200Y-4065981D01*
X7327188Y-4056634D01*
X7337907Y-4045864D01*
X7347305Y-4033926D01*
X7355179Y-4020921D01*
X7356144Y-4018737D01*
X7300061Y-4018737D01*
G37*
G36*
X7187336Y-4074820D02*
G01*
X7187336Y-4018737D01*
X7131253Y-4018737D01*
X7132218Y-4020921D01*
X7140092Y-4033926D01*
X7149490Y-4045864D01*
X7160209Y-4056634D01*
X7172198Y-4065981D01*
X7185202Y-4073855D01*
G37*
G36*
X5230418Y-4003548D02*
G01*
X5386781Y-4003548D01*
X5393080Y-4002836D01*
X5398566Y-4000906D01*
X5403443Y-3997858D01*
X5407558Y-3993743D01*
X5410606Y-3988866D01*
X5412536Y-3983380D01*
X5413248Y-3977081D01*
X5413248Y-3820718D01*
X5412536Y-3814419D01*
X5410606Y-3808933D01*
X5407558Y-3804056D01*
X5403443Y-3799941D01*
X5398566Y-3796893D01*
X5393080Y-3794963D01*
X5386781Y-3794251D01*
X5230418Y-3794251D01*
X5224119Y-3794963D01*
X5218633Y-3796893D01*
X5213756Y-3799941D01*
X5209641Y-3804056D01*
X5206593Y-3808933D01*
X5204663Y-3814419D01*
X5203952Y-3820718D01*
X5203952Y-3977081D01*
X5204663Y-3983380D01*
X5206593Y-3988866D01*
X5209641Y-3993743D01*
X5213756Y-3997858D01*
X5218633Y-4000906D01*
X5224119Y-4002836D01*
G37*
G36*
X5608320Y-3992778D02*
G01*
X5614924Y-3989527D01*
X5626303Y-3981907D01*
X5636564Y-3972864D01*
X5645607Y-3962603D01*
X5653227Y-3951224D01*
X5656478Y-3944620D01*
X5608320Y-3944620D01*
G37*
G36*
X5516880Y-3992778D02*
G01*
X5516880Y-3944620D01*
X5468721Y-3944620D01*
X5471972Y-3951224D01*
X5479592Y-3962603D01*
X5488635Y-3972864D01*
X5498896Y-3981907D01*
X5510276Y-3989527D01*
G37*
G36*
X3168243Y-3936441D02*
G01*
X3181756Y-3936441D01*
X3195167Y-3934663D01*
X3208223Y-3931056D01*
X3220669Y-3925824D01*
X3232302Y-3918915D01*
X3242919Y-3910533D01*
X3252368Y-3900779D01*
X3260394Y-3889908D01*
X3266897Y-3878021D01*
X3271723Y-3865422D01*
X3274872Y-3852265D01*
X3276244Y-3838803D01*
X3275787Y-3825240D01*
X3273501Y-3811930D01*
X3269538Y-3798976D01*
X3263798Y-3786733D01*
X3256534Y-3775303D01*
X3247796Y-3764991D01*
X3237788Y-3755898D01*
X3226612Y-3748278D01*
X3214522Y-3742131D01*
X3201771Y-3737711D01*
X3188512Y-3735019D01*
X3175000Y-3734104D01*
X3161487Y-3735019D01*
X3148228Y-3737711D01*
X3135477Y-3742131D01*
X3123387Y-3748278D01*
X3112211Y-3755898D01*
X3102203Y-3764991D01*
X3093466Y-3775303D01*
X3086201Y-3786733D01*
X3080461Y-3798976D01*
X3076498Y-3811930D01*
X3074212Y-3825240D01*
X3073755Y-3838803D01*
X3075127Y-3852265D01*
X3078276Y-3865422D01*
X3083102Y-3878021D01*
X3089605Y-3889908D01*
X3097631Y-3900779D01*
X3107080Y-3910533D01*
X3117697Y-3918915D01*
X3129330Y-3925824D01*
X3141776Y-3931056D01*
X3154832Y-3934663D01*
G37*
G36*
X7300061Y-3906062D02*
G01*
X7356144Y-3906062D01*
X7355179Y-3903878D01*
X7347305Y-3890873D01*
X7337907Y-3878935D01*
X7327188Y-3868165D01*
X7315200Y-3858818D01*
X7302195Y-3850944D01*
X7300061Y-3849979D01*
G37*
G36*
X7131253Y-3906062D02*
G01*
X7187336Y-3906062D01*
X7187336Y-3849979D01*
X7185202Y-3850944D01*
X7172198Y-3858818D01*
X7160209Y-3868165D01*
X7149490Y-3878935D01*
X7140092Y-3890873D01*
X7132218Y-3903878D01*
G37*
G36*
X5468721Y-3853179D02*
G01*
X5516880Y-3853179D01*
X5516880Y-3805021D01*
X5510276Y-3808272D01*
X5498896Y-3815892D01*
X5488635Y-3824935D01*
X5479592Y-3835196D01*
X5471972Y-3846576D01*
G37*
G36*
X5608320Y-3853179D02*
G01*
X5656478Y-3853179D01*
X5653227Y-3846576D01*
X5645607Y-3835196D01*
X5636564Y-3824935D01*
X5626303Y-3815892D01*
X5614924Y-3808272D01*
X5608320Y-3805021D01*
G37*
G36*
X5230418Y-3736848D02*
G01*
X5386781Y-3736848D01*
X5393080Y-3736136D01*
X5398566Y-3734206D01*
X5403443Y-3731158D01*
X5407558Y-3727043D01*
X5410606Y-3722166D01*
X5412536Y-3716680D01*
X5413248Y-3710381D01*
X5413248Y-3554018D01*
X5412536Y-3547719D01*
X5410606Y-3542233D01*
X5407558Y-3537356D01*
X5403443Y-3533241D01*
X5398566Y-3530193D01*
X5393080Y-3528263D01*
X5386781Y-3527551D01*
X5230418Y-3527551D01*
X5224119Y-3528263D01*
X5218633Y-3530193D01*
X5213756Y-3533241D01*
X5209641Y-3537356D01*
X5206593Y-3542233D01*
X5204663Y-3547719D01*
X5203952Y-3554018D01*
X5203952Y-3710381D01*
X5204663Y-3716680D01*
X5206593Y-3722166D01*
X5209641Y-3727043D01*
X5213756Y-3731158D01*
X5218633Y-3734206D01*
X5224119Y-3736136D01*
G37*
G36*
X5608320Y-3726078D02*
G01*
X5614924Y-3722827D01*
X5626303Y-3715207D01*
X5636564Y-3706164D01*
X5645607Y-3695903D01*
X5653227Y-3684524D01*
X5656478Y-3677920D01*
X5608320Y-3677920D01*
G37*
G36*
X5516880Y-3726078D02*
G01*
X5516880Y-3677920D01*
X5468721Y-3677920D01*
X5471972Y-3684524D01*
X5479592Y-3695903D01*
X5488635Y-3706164D01*
X5498896Y-3715207D01*
X5510276Y-3722827D01*
G37*
G36*
X3168243Y-3682441D02*
G01*
X3181756Y-3682441D01*
X3195167Y-3680663D01*
X3208223Y-3677056D01*
X3220669Y-3671824D01*
X3232302Y-3664915D01*
X3242919Y-3656533D01*
X3252368Y-3646779D01*
X3260394Y-3635908D01*
X3266897Y-3624021D01*
X3271723Y-3611422D01*
X3274872Y-3598265D01*
X3276244Y-3584803D01*
X3275787Y-3571240D01*
X3273501Y-3557930D01*
X3269538Y-3544976D01*
X3263798Y-3532733D01*
X3256534Y-3521303D01*
X3247796Y-3510991D01*
X3237788Y-3501898D01*
X3226612Y-3494278D01*
X3214522Y-3488131D01*
X3201771Y-3483711D01*
X3188512Y-3481019D01*
X3175000Y-3480104D01*
X3161487Y-3481019D01*
X3148228Y-3483711D01*
X3135477Y-3488131D01*
X3123387Y-3494278D01*
X3112211Y-3501898D01*
X3102203Y-3510991D01*
X3093466Y-3521303D01*
X3086201Y-3532733D01*
X3080461Y-3544976D01*
X3076498Y-3557930D01*
X3074212Y-3571240D01*
X3073755Y-3584803D01*
X3075127Y-3598265D01*
X3078276Y-3611422D01*
X3083102Y-3624021D01*
X3089605Y-3635908D01*
X3097631Y-3646779D01*
X3107080Y-3656533D01*
X3117697Y-3664915D01*
X3129330Y-3671824D01*
X3141776Y-3677056D01*
X3154832Y-3680663D01*
G37*
G36*
X5468721Y-3586479D02*
G01*
X5516880Y-3586479D01*
X5516880Y-3538321D01*
X5510276Y-3541572D01*
X5498896Y-3549192D01*
X5488635Y-3558235D01*
X5479592Y-3568496D01*
X5471972Y-3579876D01*
G37*
G36*
X5608320Y-3586479D02*
G01*
X5656478Y-3586479D01*
X5653227Y-3579876D01*
X5645607Y-3568496D01*
X5636564Y-3558235D01*
X5626303Y-3549192D01*
X5614924Y-3541572D01*
X5608320Y-3538321D01*
G37*
G36*
X1105458Y-3570782D02*
G01*
X1109929Y-3568649D01*
X1122222Y-3560876D01*
X1133449Y-3551580D01*
X1143406Y-3540963D01*
X1151940Y-3529177D01*
X1157833Y-3518458D01*
X1105458Y-3518458D01*
G37*
G36*
X1002741Y-3570782D02*
G01*
X1002741Y-3518458D01*
X950366Y-3518458D01*
X956259Y-3529177D01*
X964793Y-3540963D01*
X974750Y-3551580D01*
X985977Y-3560876D01*
X998270Y-3568649D01*
G37*
G36*
X5230418Y-3470148D02*
G01*
X5386781Y-3470148D01*
X5393080Y-3469436D01*
X5398566Y-3467506D01*
X5403443Y-3464458D01*
X5407558Y-3460343D01*
X5410606Y-3455466D01*
X5412536Y-3449980D01*
X5413248Y-3443681D01*
X5413248Y-3287318D01*
X5412536Y-3281019D01*
X5410606Y-3275533D01*
X5407558Y-3270656D01*
X5403443Y-3266541D01*
X5398566Y-3263493D01*
X5393080Y-3261563D01*
X5386781Y-3260852D01*
X5230418Y-3260852D01*
X5224119Y-3261563D01*
X5218633Y-3263493D01*
X5213756Y-3266541D01*
X5209641Y-3270656D01*
X5206593Y-3275533D01*
X5204663Y-3281019D01*
X5203952Y-3287318D01*
X5203952Y-3443681D01*
X5204663Y-3449980D01*
X5206593Y-3455466D01*
X5209641Y-3460343D01*
X5213756Y-3464458D01*
X5218633Y-3467506D01*
X5224119Y-3469436D01*
G37*
G36*
X5608320Y-3459378D02*
G01*
X5614924Y-3456127D01*
X5626303Y-3448507D01*
X5636564Y-3439464D01*
X5645607Y-3429203D01*
X5653227Y-3417824D01*
X5656478Y-3411220D01*
X5608320Y-3411220D01*
G37*
G36*
X5516880Y-3459378D02*
G01*
X5516880Y-3411220D01*
X5468721Y-3411220D01*
X5471972Y-3417824D01*
X5479592Y-3429203D01*
X5488635Y-3439464D01*
X5498896Y-3448507D01*
X5510276Y-3456127D01*
G37*
G36*
X7243724Y-3453282D02*
G01*
X7258862Y-3452368D01*
X7273848Y-3449624D01*
X7288326Y-3445103D01*
X7302195Y-3438855D01*
X7315200Y-3430981D01*
X7327188Y-3421634D01*
X7337907Y-3410864D01*
X7347305Y-3398926D01*
X7355179Y-3385921D01*
X7361428Y-3372053D01*
X7365949Y-3357524D01*
X7368692Y-3342589D01*
X7369606Y-3327400D01*
X7368692Y-3312210D01*
X7365949Y-3297275D01*
X7361428Y-3282746D01*
X7355179Y-3268878D01*
X7347305Y-3255873D01*
X7337907Y-3243935D01*
X7327188Y-3233166D01*
X7315200Y-3223818D01*
X7302195Y-3215944D01*
X7288326Y-3209696D01*
X7273848Y-3205175D01*
X7258862Y-3202432D01*
X7243724Y-3201517D01*
X7228535Y-3202432D01*
X7213549Y-3205175D01*
X7199071Y-3209696D01*
X7185202Y-3215944D01*
X7172198Y-3223818D01*
X7160209Y-3233166D01*
X7149490Y-3243935D01*
X7140092Y-3255873D01*
X7132218Y-3268878D01*
X7125970Y-3282746D01*
X7121448Y-3297275D01*
X7118705Y-3312210D01*
X7117791Y-3327400D01*
X7118705Y-3342589D01*
X7121448Y-3357524D01*
X7125970Y-3372053D01*
X7132218Y-3385921D01*
X7140092Y-3398926D01*
X7149490Y-3410864D01*
X7160209Y-3421634D01*
X7172198Y-3430981D01*
X7185202Y-3438855D01*
X7199071Y-3445103D01*
X7213549Y-3449624D01*
X7228535Y-3452368D01*
G37*
G36*
X4692243Y-3428441D02*
G01*
X4705756Y-3428441D01*
X4719167Y-3426663D01*
X4732223Y-3423056D01*
X4744669Y-3417824D01*
X4756302Y-3410915D01*
X4766919Y-3402533D01*
X4776368Y-3392779D01*
X4784394Y-3381908D01*
X4790897Y-3370021D01*
X4795723Y-3357422D01*
X4798872Y-3344265D01*
X4800244Y-3330803D01*
X4799787Y-3317240D01*
X4797501Y-3303930D01*
X4793538Y-3290976D01*
X4787798Y-3278733D01*
X4780534Y-3267303D01*
X4771796Y-3256991D01*
X4761788Y-3247898D01*
X4750612Y-3240278D01*
X4738522Y-3234131D01*
X4725771Y-3229711D01*
X4712512Y-3227019D01*
X4699000Y-3226104D01*
X4685487Y-3227019D01*
X4672228Y-3229711D01*
X4659477Y-3234131D01*
X4647387Y-3240278D01*
X4636211Y-3247898D01*
X4626203Y-3256991D01*
X4617466Y-3267303D01*
X4610201Y-3278733D01*
X4604461Y-3290976D01*
X4600498Y-3303930D01*
X4598212Y-3317240D01*
X4597755Y-3330803D01*
X4599127Y-3344265D01*
X4602276Y-3357422D01*
X4607102Y-3370021D01*
X4613605Y-3381908D01*
X4621631Y-3392779D01*
X4631080Y-3402533D01*
X4641697Y-3410915D01*
X4653330Y-3417824D01*
X4665776Y-3423056D01*
X4678832Y-3426663D01*
G37*
G36*
X3168243Y-3428441D02*
G01*
X3181756Y-3428441D01*
X3195167Y-3426663D01*
X3208223Y-3423056D01*
X3220669Y-3417824D01*
X3232302Y-3410915D01*
X3242919Y-3402533D01*
X3252368Y-3392779D01*
X3260394Y-3381908D01*
X3266897Y-3370021D01*
X3271723Y-3357422D01*
X3274872Y-3344265D01*
X3276244Y-3330803D01*
X3275787Y-3317240D01*
X3273501Y-3303930D01*
X3269538Y-3290976D01*
X3263798Y-3278733D01*
X3256534Y-3267303D01*
X3247796Y-3256991D01*
X3237788Y-3247898D01*
X3226612Y-3240278D01*
X3214522Y-3234131D01*
X3201771Y-3229711D01*
X3188512Y-3227019D01*
X3175000Y-3226104D01*
X3161487Y-3227019D01*
X3148228Y-3229711D01*
X3135477Y-3234131D01*
X3123387Y-3240278D01*
X3112211Y-3247898D01*
X3102203Y-3256991D01*
X3093466Y-3267303D01*
X3086201Y-3278733D01*
X3080461Y-3290976D01*
X3076498Y-3303930D01*
X3074212Y-3317240D01*
X3073755Y-3330803D01*
X3075127Y-3344265D01*
X3078276Y-3357422D01*
X3083102Y-3370021D01*
X3089605Y-3381908D01*
X3097631Y-3392779D01*
X3107080Y-3402533D01*
X3117697Y-3410915D01*
X3129330Y-3417824D01*
X3141776Y-3423056D01*
X3154832Y-3426663D01*
G37*
G36*
X950366Y-3415741D02*
G01*
X1002741Y-3415741D01*
X1002741Y-3363417D01*
X998270Y-3365550D01*
X985977Y-3373323D01*
X974750Y-3382619D01*
X964793Y-3393236D01*
X956259Y-3405022D01*
G37*
G36*
X1105458Y-3415741D02*
G01*
X1157833Y-3415741D01*
X1151940Y-3405022D01*
X1143406Y-3393236D01*
X1133449Y-3382619D01*
X1122222Y-3373323D01*
X1109929Y-3365550D01*
X1105458Y-3363417D01*
G37*
G36*
X1054100Y-3328974D02*
G01*
X1068628Y-3328060D01*
X1082903Y-3325368D01*
X1096772Y-3320846D01*
X1109929Y-3314649D01*
X1122222Y-3306876D01*
X1133449Y-3297580D01*
X1143406Y-3286963D01*
X1151940Y-3275177D01*
X1158951Y-3262426D01*
X1164336Y-3248914D01*
X1167942Y-3234791D01*
X1169771Y-3220364D01*
X1169771Y-3205835D01*
X1167942Y-3191408D01*
X1164336Y-3177286D01*
X1158951Y-3163773D01*
X1151940Y-3151022D01*
X1143406Y-3139236D01*
X1133449Y-3128619D01*
X1122222Y-3119323D01*
X1109929Y-3111550D01*
X1096772Y-3105353D01*
X1082903Y-3100832D01*
X1068628Y-3098139D01*
X1054100Y-3097225D01*
X1039571Y-3098139D01*
X1025296Y-3100832D01*
X1011428Y-3105353D01*
X998270Y-3111550D01*
X985977Y-3119323D01*
X974750Y-3128619D01*
X969721Y-3134004D01*
X966368Y-3136341D01*
X962304Y-3137204D01*
X494995Y-3137204D01*
X490880Y-3136341D01*
X487476Y-3133852D01*
X485343Y-3130194D01*
X482955Y-3123082D01*
X479958Y-3118256D01*
X475843Y-3114141D01*
X470966Y-3111093D01*
X465480Y-3109163D01*
X459181Y-3108452D01*
X302818Y-3108452D01*
X296519Y-3109163D01*
X291033Y-3111093D01*
X286156Y-3114141D01*
X282041Y-3118256D01*
X278993Y-3123133D01*
X277063Y-3128619D01*
X276352Y-3134918D01*
X276352Y-3291281D01*
X277063Y-3297580D01*
X278993Y-3303066D01*
X282041Y-3307943D01*
X286156Y-3312058D01*
X291033Y-3315106D01*
X296519Y-3317036D01*
X302818Y-3317748D01*
X459181Y-3317748D01*
X465480Y-3317036D01*
X470966Y-3315106D01*
X475843Y-3312058D01*
X479958Y-3307943D01*
X482955Y-3303117D01*
X485343Y-3296005D01*
X487476Y-3292348D01*
X490880Y-3289858D01*
X494995Y-3288995D01*
X962304Y-3288995D01*
X966368Y-3289858D01*
X969721Y-3292195D01*
X974750Y-3297580D01*
X985977Y-3306876D01*
X998270Y-3314649D01*
X1011428Y-3320846D01*
X1025296Y-3325368D01*
X1039571Y-3328060D01*
G37*
G36*
X5468721Y-3319779D02*
G01*
X5516880Y-3319779D01*
X5516880Y-3271621D01*
X5510276Y-3274872D01*
X5498896Y-3282492D01*
X5488635Y-3291535D01*
X5479592Y-3301796D01*
X5471972Y-3313176D01*
G37*
G36*
X5608320Y-3319779D02*
G01*
X5656478Y-3319779D01*
X5653227Y-3313176D01*
X5645607Y-3301796D01*
X5636564Y-3291535D01*
X5626303Y-3282492D01*
X5614924Y-3274872D01*
X5608320Y-3271621D01*
G37*
G36*
X7567218Y-3285896D02*
G01*
X7599680Y-3285896D01*
X7599680Y-3223869D01*
X7540752Y-3223869D01*
X7540752Y-3259429D01*
X7541463Y-3265728D01*
X7543393Y-3271215D01*
X7546441Y-3276092D01*
X7550556Y-3280206D01*
X7555433Y-3283305D01*
X7560919Y-3285185D01*
G37*
G36*
X7691120Y-3285896D02*
G01*
X7723581Y-3285896D01*
X7729880Y-3285185D01*
X7735366Y-3283305D01*
X7740243Y-3280206D01*
X7744358Y-3276092D01*
X7747406Y-3271215D01*
X7749336Y-3265728D01*
X7750048Y-3259429D01*
X7750048Y-3223869D01*
X7691120Y-3223869D01*
G37*
G36*
X4692243Y-3174441D02*
G01*
X4705756Y-3174441D01*
X4719167Y-3172663D01*
X4732223Y-3169056D01*
X4744669Y-3163824D01*
X4756302Y-3156915D01*
X4766919Y-3148533D01*
X4776368Y-3138779D01*
X4784394Y-3127908D01*
X4790897Y-3116021D01*
X4795723Y-3103422D01*
X4798872Y-3090265D01*
X4800244Y-3076803D01*
X4799787Y-3063240D01*
X4797501Y-3049930D01*
X4793538Y-3036976D01*
X4787798Y-3024733D01*
X4780534Y-3013303D01*
X4771796Y-3002991D01*
X4761788Y-2993898D01*
X4750612Y-2986278D01*
X4738522Y-2980131D01*
X4725771Y-2975711D01*
X4712512Y-2973019D01*
X4699000Y-2972104D01*
X4685487Y-2973019D01*
X4672228Y-2975711D01*
X4659477Y-2980131D01*
X4647387Y-2986278D01*
X4636211Y-2993898D01*
X4626203Y-3002991D01*
X4617466Y-3013303D01*
X4610201Y-3024733D01*
X4604461Y-3036976D01*
X4600498Y-3049930D01*
X4598212Y-3063240D01*
X4597755Y-3076803D01*
X4599127Y-3090265D01*
X4602276Y-3103422D01*
X4607102Y-3116021D01*
X4613605Y-3127908D01*
X4621631Y-3138779D01*
X4631080Y-3148533D01*
X4641697Y-3156915D01*
X4653330Y-3163824D01*
X4665776Y-3169056D01*
X4678832Y-3172663D01*
G37*
G36*
X3168243Y-3174441D02*
G01*
X3181756Y-3174441D01*
X3195167Y-3172663D01*
X3208223Y-3169056D01*
X3220669Y-3163824D01*
X3232302Y-3156915D01*
X3242919Y-3148533D01*
X3252368Y-3138779D01*
X3260394Y-3127908D01*
X3266897Y-3116021D01*
X3271723Y-3103422D01*
X3274872Y-3090265D01*
X3276244Y-3076803D01*
X3275787Y-3063240D01*
X3273501Y-3049930D01*
X3269538Y-3036976D01*
X3263798Y-3024733D01*
X3256534Y-3013303D01*
X3247796Y-3002991D01*
X3237788Y-2993898D01*
X3226612Y-2986278D01*
X3214522Y-2980131D01*
X3201771Y-2975711D01*
X3188512Y-2973019D01*
X3175000Y-2972104D01*
X3161487Y-2973019D01*
X3148228Y-2975711D01*
X3135477Y-2980131D01*
X3123387Y-2986278D01*
X3112211Y-2993898D01*
X3102203Y-3002991D01*
X3093466Y-3013303D01*
X3086201Y-3024733D01*
X3080461Y-3036976D01*
X3076498Y-3049930D01*
X3074212Y-3063240D01*
X3073755Y-3076803D01*
X3075127Y-3090265D01*
X3078276Y-3103422D01*
X3083102Y-3116021D01*
X3089605Y-3127908D01*
X3097631Y-3138779D01*
X3107080Y-3148533D01*
X3117697Y-3156915D01*
X3129330Y-3163824D01*
X3141776Y-3169056D01*
X3154832Y-3172663D01*
G37*
G36*
X6731000Y-3155137D02*
G01*
X6740804Y-3154273D01*
X6750253Y-3151733D01*
X6759194Y-3147618D01*
X6767220Y-3141980D01*
X6768998Y-3140202D01*
X6772300Y-3137966D01*
X6776161Y-3137204D01*
X7111492Y-3137204D01*
X7119467Y-3136442D01*
X7126681Y-3134258D01*
X7133336Y-3130702D01*
X7139533Y-3125622D01*
X7176922Y-3088233D01*
X7182002Y-3082036D01*
X7185558Y-3075381D01*
X7187742Y-3068167D01*
X7188504Y-3060192D01*
X7188504Y-2261108D01*
X7187742Y-2253132D01*
X7185558Y-2245918D01*
X7182002Y-2239264D01*
X7176922Y-2233066D01*
X7158481Y-2214626D01*
X7156450Y-2211730D01*
X7155535Y-2208326D01*
X7154773Y-2199995D01*
X7152233Y-2190546D01*
X7148118Y-2181606D01*
X7142480Y-2173579D01*
X7135520Y-2166620D01*
X7127494Y-2160981D01*
X7118553Y-2156866D01*
X7109104Y-2154326D01*
X7099300Y-2153462D01*
X7089495Y-2154326D01*
X7080046Y-2156866D01*
X7071106Y-2160981D01*
X7063079Y-2166620D01*
X7056120Y-2173579D01*
X7050481Y-2181606D01*
X7046366Y-2190546D01*
X7043826Y-2199995D01*
X7042962Y-2209800D01*
X7043826Y-2219604D01*
X7046366Y-2229053D01*
X7050481Y-2237994D01*
X7056120Y-2246020D01*
X7063079Y-2252980D01*
X7071106Y-2258618D01*
X7080046Y-2262733D01*
X7089495Y-2265273D01*
X7097826Y-2266035D01*
X7101230Y-2266950D01*
X7104125Y-2268982D01*
X7108698Y-2273554D01*
X7110933Y-2276805D01*
X7111695Y-2280716D01*
X7111695Y-3040583D01*
X7110933Y-3044494D01*
X7108698Y-3047746D01*
X7099046Y-3057398D01*
X7095794Y-3059633D01*
X7091883Y-3060395D01*
X6776161Y-3060395D01*
X6772300Y-3059633D01*
X6768998Y-3057398D01*
X6767220Y-3055620D01*
X6759194Y-3049981D01*
X6750253Y-3045866D01*
X6740804Y-3043326D01*
X6731000Y-3042462D01*
X6721195Y-3043326D01*
X6711746Y-3045866D01*
X6702806Y-3049981D01*
X6694779Y-3055620D01*
X6687820Y-3062579D01*
X6682181Y-3070606D01*
X6678066Y-3079546D01*
X6675526Y-3088995D01*
X6674662Y-3098800D01*
X6675526Y-3108604D01*
X6678066Y-3118053D01*
X6682181Y-3126994D01*
X6687820Y-3135020D01*
X6694779Y-3141980D01*
X6702806Y-3147618D01*
X6711746Y-3151733D01*
X6721195Y-3154273D01*
G37*
G36*
X7691120Y-3126130D02*
G01*
X7750048Y-3126130D01*
X7750048Y-3090570D01*
X7749336Y-3084271D01*
X7747406Y-3078784D01*
X7744358Y-3073908D01*
X7740243Y-3069793D01*
X7735366Y-3066694D01*
X7729880Y-3064814D01*
X7723581Y-3064103D01*
X7691120Y-3064103D01*
G37*
G36*
X7540752Y-3126130D02*
G01*
X7599680Y-3126130D01*
X7599680Y-3064103D01*
X7567218Y-3064103D01*
X7560919Y-3064814D01*
X7555433Y-3066694D01*
X7550556Y-3069793D01*
X7546441Y-3073908D01*
X7543393Y-3078784D01*
X7541463Y-3084271D01*
X7540752Y-3090570D01*
G37*
G36*
X1054100Y-3074974D02*
G01*
X1068628Y-3074060D01*
X1082903Y-3071368D01*
X1096772Y-3066846D01*
X1109929Y-3060649D01*
X1122222Y-3052876D01*
X1133449Y-3043580D01*
X1143406Y-3032963D01*
X1151940Y-3021177D01*
X1158951Y-3008426D01*
X1164336Y-2994914D01*
X1167942Y-2980791D01*
X1169771Y-2966364D01*
X1169771Y-2951835D01*
X1167942Y-2937408D01*
X1164336Y-2923286D01*
X1158951Y-2909773D01*
X1151940Y-2897022D01*
X1143406Y-2885236D01*
X1133449Y-2874619D01*
X1122222Y-2865323D01*
X1109929Y-2857550D01*
X1096772Y-2851353D01*
X1082903Y-2846832D01*
X1068628Y-2844139D01*
X1054100Y-2843225D01*
X1039571Y-2844139D01*
X1025296Y-2846832D01*
X1011428Y-2851353D01*
X998270Y-2857550D01*
X985977Y-2865323D01*
X974750Y-2874619D01*
X969721Y-2880004D01*
X966368Y-2882341D01*
X962304Y-2883204D01*
X456590Y-2883204D01*
X453034Y-2882544D01*
X449935Y-2880664D01*
X444703Y-2876092D01*
X433324Y-2868472D01*
X421030Y-2862427D01*
X408076Y-2858058D01*
X394665Y-2855366D01*
X381000Y-2854452D01*
X367334Y-2855366D01*
X353923Y-2858058D01*
X340969Y-2862427D01*
X328676Y-2868472D01*
X317296Y-2876092D01*
X307035Y-2885135D01*
X297992Y-2895396D01*
X290372Y-2906776D01*
X284327Y-2919069D01*
X279958Y-2932023D01*
X277266Y-2945434D01*
X276352Y-2959100D01*
X277266Y-2972765D01*
X279958Y-2986176D01*
X284327Y-2999130D01*
X290372Y-3011424D01*
X297992Y-3022803D01*
X307035Y-3033064D01*
X317296Y-3042107D01*
X328676Y-3049727D01*
X340969Y-3055772D01*
X353923Y-3060141D01*
X367334Y-3062833D01*
X381000Y-3063748D01*
X394665Y-3062833D01*
X408076Y-3060141D01*
X421030Y-3055772D01*
X433324Y-3049727D01*
X444703Y-3042107D01*
X449935Y-3037535D01*
X453034Y-3035655D01*
X456590Y-3034995D01*
X962304Y-3034995D01*
X966368Y-3035858D01*
X969721Y-3038195D01*
X974750Y-3043580D01*
X985977Y-3052876D01*
X998270Y-3060649D01*
X1011428Y-3066846D01*
X1025296Y-3071368D01*
X1039571Y-3074060D01*
G37*
G36*
X7638288Y-3031642D02*
G01*
X7652512Y-3031642D01*
X7666583Y-3029864D01*
X7680350Y-3026257D01*
X7693507Y-3020923D01*
X7705902Y-3013913D01*
X7717281Y-3005429D01*
X7727492Y-2995574D01*
X7736331Y-2984449D01*
X7743698Y-2972308D01*
X7749489Y-2959303D01*
X7753502Y-2945688D01*
X7755788Y-2931668D01*
X7756245Y-2917444D01*
X7754874Y-2903321D01*
X7751724Y-2889453D01*
X7746796Y-2876092D01*
X7740243Y-2863494D01*
X7732115Y-2851861D01*
X7722565Y-2841345D01*
X7711744Y-2832150D01*
X7699806Y-2824378D01*
X7687005Y-2818231D01*
X7673543Y-2813761D01*
X7659573Y-2811018D01*
X7645400Y-2810103D01*
X7631226Y-2811018D01*
X7617256Y-2813761D01*
X7603794Y-2818231D01*
X7590993Y-2824378D01*
X7579055Y-2832150D01*
X7568234Y-2841345D01*
X7558684Y-2851861D01*
X7550556Y-2863494D01*
X7544003Y-2876092D01*
X7539075Y-2889453D01*
X7535925Y-2903321D01*
X7534554Y-2917444D01*
X7535011Y-2931668D01*
X7537297Y-2945688D01*
X7541361Y-2959303D01*
X7547102Y-2972308D01*
X7554468Y-2984449D01*
X7563307Y-2995574D01*
X7573518Y-3005429D01*
X7584897Y-3013913D01*
X7597292Y-3020923D01*
X7610449Y-3026257D01*
X7624216Y-3029864D01*
G37*
G36*
X3168243Y-2920441D02*
G01*
X3181756Y-2920441D01*
X3195167Y-2918663D01*
X3208223Y-2915056D01*
X3220669Y-2909824D01*
X3232302Y-2902915D01*
X3242919Y-2894533D01*
X3252368Y-2884779D01*
X3260394Y-2873908D01*
X3266897Y-2862021D01*
X3271723Y-2849422D01*
X3274872Y-2836265D01*
X3276244Y-2822803D01*
X3275787Y-2809240D01*
X3273501Y-2795930D01*
X3269538Y-2782976D01*
X3263798Y-2770733D01*
X3256534Y-2759303D01*
X3247796Y-2748991D01*
X3237788Y-2739898D01*
X3226612Y-2732278D01*
X3214522Y-2726131D01*
X3201771Y-2721711D01*
X3188512Y-2719019D01*
X3175000Y-2718104D01*
X3161487Y-2719019D01*
X3148228Y-2721711D01*
X3135477Y-2726131D01*
X3123387Y-2732278D01*
X3112211Y-2739898D01*
X3102203Y-2748991D01*
X3093466Y-2759303D01*
X3086201Y-2770733D01*
X3080461Y-2782976D01*
X3076498Y-2795930D01*
X3074212Y-2809240D01*
X3073755Y-2822803D01*
X3075127Y-2836265D01*
X3078276Y-2849422D01*
X3083102Y-2862021D01*
X3089605Y-2873908D01*
X3097631Y-2884779D01*
X3107080Y-2894533D01*
X3117697Y-2902915D01*
X3129330Y-2909824D01*
X3141776Y-2915056D01*
X3154832Y-2918663D01*
G37*
G36*
X6881672Y-2857855D02*
G01*
X6891731Y-2852369D01*
X6901535Y-2845003D01*
X6910222Y-2836367D01*
X6917537Y-2826512D01*
X6923074Y-2816453D01*
X6881672Y-2816453D01*
G37*
G36*
X6808927Y-2857855D02*
G01*
X6808927Y-2816453D01*
X6767525Y-2816453D01*
X6773062Y-2826512D01*
X6780377Y-2836367D01*
X6789064Y-2845003D01*
X6798868Y-2852369D01*
G37*
G36*
X2324100Y-2820974D02*
G01*
X2338628Y-2820060D01*
X2352903Y-2817368D01*
X2366772Y-2812846D01*
X2379929Y-2806649D01*
X2392222Y-2798876D01*
X2403449Y-2789580D01*
X2413406Y-2778963D01*
X2421940Y-2767177D01*
X2428951Y-2754426D01*
X2434336Y-2740914D01*
X2437942Y-2726791D01*
X2439771Y-2712364D01*
X2439771Y-2697835D01*
X2437942Y-2683408D01*
X2434336Y-2669286D01*
X2428951Y-2655773D01*
X2421940Y-2643022D01*
X2413406Y-2631236D01*
X2403449Y-2620619D01*
X2392222Y-2611323D01*
X2379929Y-2603550D01*
X2366772Y-2597353D01*
X2352903Y-2592832D01*
X2338628Y-2590139D01*
X2324100Y-2589225D01*
X2309571Y-2590139D01*
X2295296Y-2592832D01*
X2281428Y-2597353D01*
X2268270Y-2603550D01*
X2255977Y-2611323D01*
X2244750Y-2620619D01*
X2234793Y-2631236D01*
X2226259Y-2643022D01*
X2219248Y-2655773D01*
X2213864Y-2669286D01*
X2210257Y-2683408D01*
X2208428Y-2697835D01*
X2208428Y-2712364D01*
X2210257Y-2726791D01*
X2213864Y-2740914D01*
X2219248Y-2754426D01*
X2226259Y-2767177D01*
X2234793Y-2778963D01*
X2244750Y-2789580D01*
X2255977Y-2798876D01*
X2268270Y-2806649D01*
X2281428Y-2812846D01*
X2295296Y-2817368D01*
X2309571Y-2820060D01*
G37*
G36*
X1054100Y-2820974D02*
G01*
X1068628Y-2820060D01*
X1082903Y-2817368D01*
X1096772Y-2812846D01*
X1109929Y-2806649D01*
X1122222Y-2798876D01*
X1133449Y-2789580D01*
X1143406Y-2778963D01*
X1151940Y-2767177D01*
X1158951Y-2754426D01*
X1164336Y-2740914D01*
X1167942Y-2726791D01*
X1169771Y-2712364D01*
X1169771Y-2697835D01*
X1167942Y-2683408D01*
X1164336Y-2669286D01*
X1158951Y-2655773D01*
X1151940Y-2643022D01*
X1143406Y-2631236D01*
X1133449Y-2620619D01*
X1122222Y-2611323D01*
X1109929Y-2603550D01*
X1096772Y-2597353D01*
X1082903Y-2592832D01*
X1068628Y-2590139D01*
X1054100Y-2589225D01*
X1039571Y-2590139D01*
X1025296Y-2592832D01*
X1011428Y-2597353D01*
X998270Y-2603550D01*
X985977Y-2611323D01*
X974750Y-2620619D01*
X969721Y-2626004D01*
X966368Y-2628341D01*
X962304Y-2629204D01*
X456590Y-2629204D01*
X453034Y-2628544D01*
X449935Y-2626664D01*
X444703Y-2622092D01*
X433324Y-2614472D01*
X421030Y-2608427D01*
X408076Y-2604058D01*
X394665Y-2601366D01*
X381000Y-2600452D01*
X367334Y-2601366D01*
X353923Y-2604058D01*
X340969Y-2608427D01*
X328676Y-2614472D01*
X317296Y-2622092D01*
X307035Y-2631135D01*
X297992Y-2641396D01*
X290372Y-2652776D01*
X284327Y-2665069D01*
X279958Y-2678023D01*
X277266Y-2691434D01*
X276352Y-2705100D01*
X277266Y-2718765D01*
X279958Y-2732176D01*
X284327Y-2745130D01*
X290372Y-2757424D01*
X297992Y-2768803D01*
X307035Y-2779064D01*
X317296Y-2788107D01*
X328676Y-2795727D01*
X340969Y-2801772D01*
X353923Y-2806141D01*
X367334Y-2808833D01*
X381000Y-2809748D01*
X394665Y-2808833D01*
X408076Y-2806141D01*
X421030Y-2801772D01*
X433324Y-2795727D01*
X444703Y-2788107D01*
X449935Y-2783535D01*
X453034Y-2781655D01*
X456590Y-2780995D01*
X962304Y-2780995D01*
X966368Y-2781858D01*
X969721Y-2784195D01*
X974750Y-2789580D01*
X985977Y-2798876D01*
X998270Y-2806649D01*
X1011428Y-2812846D01*
X1025296Y-2817368D01*
X1039571Y-2820060D01*
G37*
G36*
X3168243Y-2666441D02*
G01*
X3181756Y-2666441D01*
X3195167Y-2664663D01*
X3208223Y-2661056D01*
X3220669Y-2655824D01*
X3232302Y-2648915D01*
X3242919Y-2640533D01*
X3252368Y-2630779D01*
X3260394Y-2619908D01*
X3266897Y-2608021D01*
X3271723Y-2595422D01*
X3274872Y-2582265D01*
X3276244Y-2568803D01*
X3275787Y-2555240D01*
X3273501Y-2541930D01*
X3269538Y-2528976D01*
X3263798Y-2516733D01*
X3256534Y-2505303D01*
X3247796Y-2494991D01*
X3237788Y-2485898D01*
X3226612Y-2478278D01*
X3214522Y-2472131D01*
X3201771Y-2467711D01*
X3188512Y-2465019D01*
X3175000Y-2464104D01*
X3161487Y-2465019D01*
X3148228Y-2467711D01*
X3135477Y-2472131D01*
X3123387Y-2478278D01*
X3112211Y-2485898D01*
X3102203Y-2494991D01*
X3093466Y-2505303D01*
X3086201Y-2516733D01*
X3080461Y-2528976D01*
X3076498Y-2541930D01*
X3074212Y-2555240D01*
X3073755Y-2568803D01*
X3075127Y-2582265D01*
X3078276Y-2595422D01*
X3083102Y-2608021D01*
X3089605Y-2619908D01*
X3097631Y-2630779D01*
X3107080Y-2640533D01*
X3117697Y-2648915D01*
X3129330Y-2655824D01*
X3141776Y-2661056D01*
X3154832Y-2664663D01*
G37*
G36*
X2324100Y-2566974D02*
G01*
X2338628Y-2566060D01*
X2352903Y-2563368D01*
X2366772Y-2558846D01*
X2379929Y-2552649D01*
X2392222Y-2544876D01*
X2403449Y-2535580D01*
X2413406Y-2524963D01*
X2421940Y-2513177D01*
X2428951Y-2500426D01*
X2434336Y-2486914D01*
X2437942Y-2472791D01*
X2439771Y-2458364D01*
X2439771Y-2443835D01*
X2437942Y-2429408D01*
X2434336Y-2415286D01*
X2428951Y-2401773D01*
X2421940Y-2389022D01*
X2413406Y-2377236D01*
X2403449Y-2366619D01*
X2392222Y-2357323D01*
X2379929Y-2349550D01*
X2366772Y-2343353D01*
X2352903Y-2338832D01*
X2338628Y-2336139D01*
X2324100Y-2335225D01*
X2309571Y-2336139D01*
X2295296Y-2338832D01*
X2281428Y-2343353D01*
X2268270Y-2349550D01*
X2255977Y-2357323D01*
X2244750Y-2366619D01*
X2234793Y-2377236D01*
X2226259Y-2389022D01*
X2219248Y-2401773D01*
X2213864Y-2415286D01*
X2210257Y-2429408D01*
X2208428Y-2443835D01*
X2208428Y-2458364D01*
X2210257Y-2472791D01*
X2213864Y-2486914D01*
X2219248Y-2500426D01*
X2226259Y-2513177D01*
X2234793Y-2524963D01*
X2244750Y-2535580D01*
X2255977Y-2544876D01*
X2268270Y-2552649D01*
X2281428Y-2558846D01*
X2295296Y-2563368D01*
X2309571Y-2566060D01*
G37*
G36*
X1054100Y-2566974D02*
G01*
X1068628Y-2566060D01*
X1082903Y-2563368D01*
X1096772Y-2558846D01*
X1109929Y-2552649D01*
X1122222Y-2544876D01*
X1133449Y-2535580D01*
X1143406Y-2524963D01*
X1151940Y-2513177D01*
X1158951Y-2500426D01*
X1164336Y-2486914D01*
X1167942Y-2472791D01*
X1169771Y-2458364D01*
X1169771Y-2443835D01*
X1167942Y-2429408D01*
X1164336Y-2415286D01*
X1158951Y-2401773D01*
X1151940Y-2389022D01*
X1143406Y-2377236D01*
X1133449Y-2366619D01*
X1122222Y-2357323D01*
X1109929Y-2349550D01*
X1096772Y-2343353D01*
X1082903Y-2338832D01*
X1068628Y-2336139D01*
X1054100Y-2335225D01*
X1039571Y-2336139D01*
X1025296Y-2338832D01*
X1011428Y-2343353D01*
X998270Y-2349550D01*
X985977Y-2357323D01*
X974750Y-2366619D01*
X969721Y-2372004D01*
X966368Y-2374341D01*
X962304Y-2375204D01*
X456590Y-2375204D01*
X453034Y-2374544D01*
X449935Y-2372664D01*
X444703Y-2368092D01*
X433324Y-2360472D01*
X421030Y-2354427D01*
X408076Y-2350058D01*
X394665Y-2347366D01*
X381000Y-2346452D01*
X367334Y-2347366D01*
X353923Y-2350058D01*
X340969Y-2354427D01*
X328676Y-2360472D01*
X317296Y-2368092D01*
X307035Y-2377135D01*
X297992Y-2387396D01*
X290372Y-2398776D01*
X284327Y-2411069D01*
X279958Y-2424023D01*
X277266Y-2437434D01*
X276352Y-2451100D01*
X277266Y-2464765D01*
X279958Y-2478176D01*
X284327Y-2491130D01*
X290372Y-2503424D01*
X297992Y-2514803D01*
X307035Y-2525064D01*
X317296Y-2534107D01*
X328676Y-2541727D01*
X340969Y-2547772D01*
X353923Y-2552141D01*
X367334Y-2554833D01*
X381000Y-2555748D01*
X394665Y-2554833D01*
X408076Y-2552141D01*
X421030Y-2547772D01*
X433324Y-2541727D01*
X444703Y-2534107D01*
X449935Y-2529535D01*
X453034Y-2527655D01*
X456590Y-2526995D01*
X962304Y-2526995D01*
X966368Y-2527858D01*
X969721Y-2530195D01*
X974750Y-2535580D01*
X985977Y-2544876D01*
X998270Y-2552649D01*
X1011428Y-2558846D01*
X1025296Y-2563368D01*
X1039571Y-2566060D01*
G37*
G36*
X6223000Y-2558237D02*
G01*
X6232804Y-2557373D01*
X6242253Y-2554833D01*
X6251194Y-2550718D01*
X6259220Y-2545080D01*
X6260998Y-2543302D01*
X6264300Y-2541066D01*
X6268161Y-2540304D01*
X6400292Y-2540304D01*
X6408267Y-2539542D01*
X6415481Y-2537358D01*
X6422136Y-2533802D01*
X6428333Y-2528722D01*
X6756653Y-2200402D01*
X6759905Y-2198166D01*
X6763816Y-2197404D01*
X6927138Y-2197404D01*
X6930999Y-2198166D01*
X6934301Y-2200402D01*
X6936079Y-2202180D01*
X6944106Y-2207818D01*
X6953046Y-2211933D01*
X6962495Y-2214473D01*
X6972300Y-2215337D01*
X6982104Y-2214473D01*
X6991553Y-2211933D01*
X7000494Y-2207818D01*
X7008520Y-2202180D01*
X7015480Y-2195220D01*
X7021118Y-2187194D01*
X7025233Y-2178253D01*
X7027773Y-2168804D01*
X7028637Y-2159000D01*
X7027773Y-2149195D01*
X7025233Y-2139746D01*
X7021118Y-2130806D01*
X7015480Y-2122779D01*
X7008520Y-2115820D01*
X7000494Y-2110181D01*
X6991553Y-2106066D01*
X6982104Y-2103526D01*
X6972300Y-2102662D01*
X6962495Y-2103526D01*
X6953046Y-2106066D01*
X6944106Y-2110181D01*
X6936079Y-2115820D01*
X6934301Y-2117598D01*
X6930999Y-2119833D01*
X6927138Y-2120595D01*
X6744208Y-2120595D01*
X6736232Y-2121357D01*
X6729018Y-2123541D01*
X6722364Y-2127097D01*
X6716166Y-2132177D01*
X6387846Y-2460498D01*
X6384594Y-2462733D01*
X6380683Y-2463495D01*
X6268161Y-2463495D01*
X6264300Y-2462733D01*
X6260998Y-2460498D01*
X6259220Y-2458720D01*
X6251194Y-2453081D01*
X6242253Y-2448966D01*
X6232804Y-2446426D01*
X6223000Y-2445562D01*
X6213195Y-2446426D01*
X6203746Y-2448966D01*
X6194806Y-2453081D01*
X6186779Y-2458720D01*
X6179820Y-2465679D01*
X6174181Y-2473706D01*
X6170066Y-2482646D01*
X6167526Y-2492095D01*
X6166662Y-2501900D01*
X6167526Y-2511704D01*
X6170066Y-2521153D01*
X6174181Y-2530094D01*
X6179820Y-2538120D01*
X6186779Y-2545080D01*
X6194806Y-2550718D01*
X6203746Y-2554833D01*
X6213195Y-2557373D01*
G37*
G36*
X7544358Y-2477008D02*
G01*
X7746441Y-2477008D01*
X7752740Y-2476296D01*
X7758226Y-2474366D01*
X7763103Y-2471318D01*
X7767218Y-2467203D01*
X7770266Y-2462326D01*
X7772196Y-2456840D01*
X7772908Y-2450541D01*
X7772908Y-2248458D01*
X7772196Y-2242159D01*
X7770266Y-2236673D01*
X7767218Y-2231796D01*
X7763103Y-2227681D01*
X7758226Y-2224633D01*
X7752740Y-2222703D01*
X7746441Y-2221992D01*
X7544358Y-2221992D01*
X7538059Y-2222703D01*
X7532573Y-2224633D01*
X7527696Y-2227681D01*
X7523581Y-2231796D01*
X7520533Y-2236673D01*
X7518603Y-2242159D01*
X7517892Y-2248458D01*
X7517892Y-2450541D01*
X7518603Y-2456840D01*
X7520533Y-2462326D01*
X7523581Y-2467203D01*
X7527696Y-2471318D01*
X7532573Y-2474366D01*
X7538059Y-2476296D01*
G37*
G36*
X3168243Y-2412441D02*
G01*
X3181756Y-2412441D01*
X3195167Y-2410663D01*
X3208223Y-2407056D01*
X3220669Y-2401824D01*
X3232302Y-2394915D01*
X3242919Y-2386533D01*
X3252368Y-2376779D01*
X3260394Y-2365908D01*
X3266897Y-2354021D01*
X3271723Y-2341422D01*
X3274872Y-2328265D01*
X3276244Y-2314803D01*
X3275787Y-2301240D01*
X3273501Y-2287930D01*
X3269538Y-2274976D01*
X3263798Y-2262733D01*
X3256534Y-2251303D01*
X3247796Y-2240991D01*
X3237788Y-2231898D01*
X3226612Y-2224278D01*
X3214522Y-2218131D01*
X3201771Y-2213711D01*
X3188512Y-2211019D01*
X3175000Y-2210104D01*
X3161487Y-2211019D01*
X3148228Y-2213711D01*
X3135477Y-2218131D01*
X3123387Y-2224278D01*
X3112211Y-2231898D01*
X3102203Y-2240991D01*
X3093466Y-2251303D01*
X3086201Y-2262733D01*
X3080461Y-2274976D01*
X3076498Y-2287930D01*
X3074212Y-2301240D01*
X3073755Y-2314803D01*
X3075127Y-2328265D01*
X3078276Y-2341422D01*
X3083102Y-2354021D01*
X3089605Y-2365908D01*
X3097631Y-2376779D01*
X3107080Y-2386533D01*
X3117697Y-2394915D01*
X3129330Y-2401824D01*
X3141776Y-2407056D01*
X3154832Y-2410663D01*
G37*
G36*
X4692243Y-2412441D02*
G01*
X4705756Y-2412441D01*
X4719167Y-2410663D01*
X4732223Y-2407056D01*
X4744669Y-2401824D01*
X4756302Y-2394915D01*
X4766919Y-2386533D01*
X4776368Y-2376779D01*
X4784394Y-2365908D01*
X4790897Y-2354021D01*
X4795723Y-2341422D01*
X4798872Y-2328265D01*
X4800244Y-2314803D01*
X4799787Y-2301240D01*
X4797501Y-2287930D01*
X4793538Y-2274976D01*
X4787798Y-2262733D01*
X4780534Y-2251303D01*
X4771796Y-2240991D01*
X4761788Y-2231898D01*
X4750612Y-2224278D01*
X4738522Y-2218131D01*
X4725771Y-2213711D01*
X4712512Y-2211019D01*
X4699000Y-2210104D01*
X4685487Y-2211019D01*
X4672228Y-2213711D01*
X4659477Y-2218131D01*
X4647387Y-2224278D01*
X4636211Y-2231898D01*
X4626203Y-2240991D01*
X4617466Y-2251303D01*
X4610201Y-2262733D01*
X4604461Y-2274976D01*
X4600498Y-2287930D01*
X4598212Y-2301240D01*
X4597755Y-2314803D01*
X4599127Y-2328265D01*
X4602276Y-2341422D01*
X4607102Y-2354021D01*
X4613605Y-2365908D01*
X4621631Y-2376779D01*
X4631080Y-2386533D01*
X4641697Y-2394915D01*
X4653330Y-2401824D01*
X4665776Y-2407056D01*
X4678832Y-2410663D01*
G37*
G36*
X6296761Y-2373020D02*
G01*
X6298895Y-2372055D01*
X6311900Y-2364181D01*
X6323888Y-2354834D01*
X6334607Y-2344064D01*
X6344005Y-2332126D01*
X6351879Y-2319121D01*
X6352844Y-2316937D01*
X6296761Y-2316937D01*
G37*
G36*
X6184036Y-2373020D02*
G01*
X6184036Y-2316937D01*
X6127953Y-2316937D01*
X6128918Y-2319121D01*
X6136792Y-2332126D01*
X6146190Y-2344064D01*
X6156909Y-2354834D01*
X6168898Y-2364181D01*
X6181902Y-2372055D01*
G37*
G36*
X1054100Y-2312974D02*
G01*
X1068628Y-2312060D01*
X1082903Y-2309368D01*
X1096772Y-2304846D01*
X1109929Y-2298649D01*
X1122222Y-2290876D01*
X1133449Y-2281580D01*
X1143406Y-2270963D01*
X1151940Y-2259177D01*
X1158951Y-2246426D01*
X1164336Y-2232914D01*
X1167942Y-2218791D01*
X1169771Y-2204364D01*
X1169771Y-2189835D01*
X1167942Y-2175408D01*
X1164336Y-2161286D01*
X1158951Y-2147773D01*
X1151940Y-2135022D01*
X1143406Y-2123236D01*
X1133449Y-2112619D01*
X1122222Y-2103323D01*
X1109929Y-2095550D01*
X1096772Y-2089353D01*
X1082903Y-2084832D01*
X1068628Y-2082139D01*
X1054100Y-2081225D01*
X1039571Y-2082139D01*
X1025296Y-2084832D01*
X1011428Y-2089353D01*
X998270Y-2095550D01*
X985977Y-2103323D01*
X974750Y-2112619D01*
X964793Y-2123236D01*
X956259Y-2135022D01*
X949248Y-2147773D01*
X943864Y-2161286D01*
X940257Y-2175408D01*
X938428Y-2189835D01*
X938428Y-2204364D01*
X940257Y-2218791D01*
X943864Y-2232914D01*
X949248Y-2246426D01*
X956259Y-2259177D01*
X964793Y-2270963D01*
X974750Y-2281580D01*
X985977Y-2290876D01*
X998270Y-2298649D01*
X1011428Y-2304846D01*
X1025296Y-2309368D01*
X1039571Y-2312060D01*
G37*
G36*
X2324100Y-2312974D02*
G01*
X2338628Y-2312060D01*
X2352903Y-2309368D01*
X2366772Y-2304846D01*
X2379929Y-2298649D01*
X2392222Y-2290876D01*
X2403449Y-2281580D01*
X2413406Y-2270963D01*
X2421940Y-2259177D01*
X2428951Y-2246426D01*
X2434336Y-2232914D01*
X2437942Y-2218791D01*
X2439771Y-2204364D01*
X2439771Y-2189835D01*
X2437942Y-2175408D01*
X2434336Y-2161286D01*
X2428951Y-2147773D01*
X2421940Y-2135022D01*
X2413406Y-2123236D01*
X2403449Y-2112619D01*
X2392222Y-2103323D01*
X2379929Y-2095550D01*
X2366772Y-2089353D01*
X2352903Y-2084832D01*
X2338628Y-2082139D01*
X2324100Y-2081225D01*
X2309571Y-2082139D01*
X2295296Y-2084832D01*
X2281428Y-2089353D01*
X2268270Y-2095550D01*
X2255977Y-2103323D01*
X2244750Y-2112619D01*
X2234793Y-2123236D01*
X2226259Y-2135022D01*
X2219248Y-2147773D01*
X2213864Y-2161286D01*
X2210257Y-2175408D01*
X2208428Y-2189835D01*
X2208428Y-2204364D01*
X2210257Y-2218791D01*
X2213864Y-2232914D01*
X2219248Y-2246426D01*
X2226259Y-2259177D01*
X2234793Y-2270963D01*
X2244750Y-2281580D01*
X2255977Y-2290876D01*
X2268270Y-2298649D01*
X2281428Y-2304846D01*
X2295296Y-2309368D01*
X2309571Y-2312060D01*
G37*
G36*
X6127953Y-2204262D02*
G01*
X6184036Y-2204262D01*
X6184036Y-2148179D01*
X6181902Y-2149144D01*
X6168898Y-2157018D01*
X6156909Y-2166366D01*
X6146190Y-2177135D01*
X6136792Y-2189073D01*
X6128918Y-2202078D01*
G37*
G36*
X6296761Y-2204262D02*
G01*
X6352844Y-2204262D01*
X6351879Y-2202078D01*
X6344005Y-2189073D01*
X6334607Y-2177135D01*
X6323888Y-2166366D01*
X6311900Y-2157018D01*
X6298895Y-2149144D01*
X6296761Y-2148179D01*
G37*
G36*
X4692243Y-2158441D02*
G01*
X4705756Y-2158441D01*
X4719167Y-2156663D01*
X4732223Y-2153056D01*
X4744669Y-2147824D01*
X4756302Y-2140915D01*
X4766919Y-2132533D01*
X4776368Y-2122779D01*
X4784394Y-2111908D01*
X4790897Y-2100021D01*
X4795723Y-2087422D01*
X4798872Y-2074265D01*
X4800244Y-2060803D01*
X4799787Y-2047239D01*
X4797501Y-2033930D01*
X4793538Y-2020976D01*
X4787798Y-2008733D01*
X4780534Y-1997303D01*
X4771796Y-1986991D01*
X4761788Y-1977898D01*
X4750612Y-1970278D01*
X4738522Y-1964131D01*
X4725771Y-1959711D01*
X4712512Y-1957019D01*
X4699000Y-1956104D01*
X4685487Y-1957019D01*
X4672228Y-1959711D01*
X4659477Y-1964131D01*
X4647387Y-1970278D01*
X4636211Y-1977898D01*
X4626203Y-1986991D01*
X4617466Y-1997303D01*
X4610201Y-2008733D01*
X4604461Y-2020976D01*
X4600498Y-2033930D01*
X4598212Y-2047239D01*
X4597755Y-2060803D01*
X4599127Y-2074265D01*
X4602276Y-2087422D01*
X4607102Y-2100021D01*
X4613605Y-2111908D01*
X4621631Y-2122779D01*
X4631080Y-2132533D01*
X4641697Y-2140915D01*
X4653330Y-2147824D01*
X4665776Y-2153056D01*
X4678832Y-2156663D01*
G37*
G36*
X3168243Y-2158441D02*
G01*
X3181756Y-2158441D01*
X3195167Y-2156663D01*
X3208223Y-2153056D01*
X3220669Y-2147824D01*
X3232302Y-2140915D01*
X3242919Y-2132533D01*
X3252368Y-2122779D01*
X3260394Y-2111908D01*
X3266897Y-2100021D01*
X3271723Y-2087422D01*
X3274872Y-2074265D01*
X3276244Y-2060803D01*
X3275787Y-2047239D01*
X3273501Y-2033930D01*
X3269538Y-2020976D01*
X3263798Y-2008733D01*
X3256534Y-1997303D01*
X3247796Y-1986991D01*
X3237788Y-1977898D01*
X3226612Y-1970278D01*
X3214522Y-1964131D01*
X3201771Y-1959711D01*
X3188512Y-1957019D01*
X3175000Y-1956104D01*
X3161487Y-1957019D01*
X3148228Y-1959711D01*
X3135477Y-1964131D01*
X3123387Y-1970278D01*
X3112211Y-1977898D01*
X3102203Y-1986991D01*
X3093466Y-1997303D01*
X3086201Y-2008733D01*
X3080461Y-2020976D01*
X3076498Y-2033930D01*
X3074212Y-2047239D01*
X3073755Y-2060803D01*
X3075127Y-2074265D01*
X3078276Y-2087422D01*
X3083102Y-2100021D01*
X3089605Y-2111908D01*
X3097631Y-2122779D01*
X3107080Y-2132533D01*
X3117697Y-2140915D01*
X3129330Y-2147824D01*
X3141776Y-2153056D01*
X3154832Y-2156663D01*
G37*
G36*
X5240426Y-2068982D02*
G01*
X5255564Y-2068068D01*
X5270550Y-2065324D01*
X5285028Y-2060803D01*
X5298897Y-2054555D01*
X5311902Y-2046681D01*
X5323890Y-2037334D01*
X5334609Y-2026564D01*
X5344007Y-2014626D01*
X5351881Y-2001621D01*
X5358130Y-1987753D01*
X5362651Y-1973224D01*
X5365394Y-1958289D01*
X5366308Y-1943100D01*
X5365394Y-1927910D01*
X5362651Y-1912975D01*
X5358130Y-1898446D01*
X5351881Y-1884578D01*
X5344007Y-1871573D01*
X5334609Y-1859635D01*
X5323890Y-1848866D01*
X5311902Y-1839518D01*
X5298897Y-1831644D01*
X5285028Y-1825396D01*
X5270550Y-1820875D01*
X5255564Y-1818132D01*
X5240426Y-1817217D01*
X5225237Y-1818132D01*
X5210251Y-1820875D01*
X5195773Y-1825396D01*
X5181904Y-1831644D01*
X5168900Y-1839518D01*
X5156911Y-1848866D01*
X5146192Y-1859635D01*
X5136794Y-1871573D01*
X5128920Y-1884578D01*
X5122672Y-1898446D01*
X5118150Y-1912975D01*
X5115407Y-1927910D01*
X5114493Y-1943100D01*
X5115407Y-1958289D01*
X5118150Y-1973224D01*
X5122672Y-1987753D01*
X5128920Y-2001621D01*
X5136794Y-2014626D01*
X5146192Y-2026564D01*
X5156911Y-2037334D01*
X5168900Y-2046681D01*
X5181904Y-2054555D01*
X5195773Y-2060803D01*
X5210251Y-2065324D01*
X5225237Y-2068068D01*
G37*
G36*
X2324100Y-2058974D02*
G01*
X2338628Y-2058060D01*
X2352903Y-2055368D01*
X2366772Y-2050846D01*
X2379929Y-2044649D01*
X2392222Y-2036876D01*
X2403449Y-2027580D01*
X2413406Y-2016963D01*
X2421940Y-2005177D01*
X2428951Y-1992426D01*
X2434336Y-1978914D01*
X2437942Y-1964791D01*
X2439771Y-1950364D01*
X2439771Y-1935835D01*
X2437942Y-1921408D01*
X2434336Y-1907286D01*
X2428951Y-1893773D01*
X2421940Y-1881022D01*
X2413406Y-1869236D01*
X2403449Y-1858619D01*
X2392222Y-1849323D01*
X2379929Y-1841550D01*
X2366772Y-1835353D01*
X2352903Y-1830832D01*
X2338628Y-1828139D01*
X2324100Y-1827225D01*
X2309571Y-1828139D01*
X2295296Y-1830832D01*
X2281428Y-1835353D01*
X2268270Y-1841550D01*
X2255977Y-1849323D01*
X2244750Y-1858619D01*
X2234793Y-1869236D01*
X2226259Y-1881022D01*
X2219248Y-1893773D01*
X2213864Y-1907286D01*
X2210257Y-1921408D01*
X2208428Y-1935835D01*
X2208428Y-1950364D01*
X2210257Y-1964791D01*
X2213864Y-1978914D01*
X2219248Y-1992426D01*
X2226259Y-2005177D01*
X2234793Y-2016963D01*
X2244750Y-2027580D01*
X2255977Y-2036876D01*
X2268270Y-2044649D01*
X2281428Y-2050846D01*
X2295296Y-2055368D01*
X2309571Y-2058060D01*
G37*
G36*
X1105458Y-2046782D02*
G01*
X1109929Y-2044649D01*
X1122222Y-2036876D01*
X1133449Y-2027580D01*
X1143406Y-2016963D01*
X1151940Y-2005177D01*
X1157833Y-1994458D01*
X1105458Y-1994458D01*
G37*
G36*
X1002741Y-2046782D02*
G01*
X1002741Y-1994458D01*
X950366Y-1994458D01*
X956259Y-2005177D01*
X964793Y-2016963D01*
X974750Y-2027580D01*
X985977Y-2036876D01*
X998270Y-2044649D01*
G37*
G36*
X4692243Y-1904441D02*
G01*
X4705756Y-1904441D01*
X4719167Y-1902663D01*
X4732223Y-1899056D01*
X4744669Y-1893824D01*
X4756302Y-1886915D01*
X4766919Y-1878533D01*
X4776368Y-1868779D01*
X4784394Y-1857908D01*
X4790897Y-1846021D01*
X4795723Y-1833422D01*
X4798872Y-1820265D01*
X4800244Y-1806803D01*
X4799787Y-1793239D01*
X4797501Y-1779930D01*
X4793538Y-1766976D01*
X4787798Y-1754733D01*
X4780534Y-1743303D01*
X4771796Y-1732991D01*
X4761788Y-1723898D01*
X4750612Y-1716278D01*
X4738522Y-1710131D01*
X4725771Y-1705711D01*
X4712512Y-1703019D01*
X4699000Y-1702104D01*
X4685487Y-1703019D01*
X4672228Y-1705711D01*
X4659477Y-1710131D01*
X4647387Y-1716278D01*
X4636211Y-1723898D01*
X4626203Y-1732991D01*
X4617466Y-1743303D01*
X4610201Y-1754733D01*
X4604461Y-1766976D01*
X4600498Y-1779930D01*
X4598212Y-1793239D01*
X4597755Y-1806803D01*
X4599127Y-1820265D01*
X4602276Y-1833422D01*
X4607102Y-1846021D01*
X4613605Y-1857908D01*
X4621631Y-1868779D01*
X4631080Y-1878533D01*
X4641697Y-1886915D01*
X4653330Y-1893824D01*
X4665776Y-1899056D01*
X4678832Y-1902663D01*
G37*
G36*
X950366Y-1891741D02*
G01*
X1002741Y-1891741D01*
X1002741Y-1839417D01*
X998270Y-1841550D01*
X985977Y-1849323D01*
X974750Y-1858619D01*
X964793Y-1869236D01*
X956259Y-1881022D01*
G37*
G36*
X1105458Y-1891741D02*
G01*
X1157833Y-1891741D01*
X1151940Y-1881022D01*
X1143406Y-1869236D01*
X1133449Y-1858619D01*
X1122222Y-1849323D01*
X1109929Y-1841550D01*
X1105458Y-1839417D01*
G37*
G36*
X3130956Y-1640484D02*
G01*
X3130956Y-1593443D01*
X3083915Y-1593443D01*
X3089605Y-1603908D01*
X3097631Y-1614779D01*
X3107080Y-1624533D01*
X3117697Y-1632915D01*
X3129330Y-1639824D01*
G37*
G36*
X3219043Y-1640484D02*
G01*
X3220669Y-1639824D01*
X3232302Y-1632915D01*
X3242919Y-1624533D01*
X3252368Y-1614779D01*
X3260394Y-1603908D01*
X3266084Y-1593443D01*
X3219043Y-1593443D01*
G37*
G36*
X3219043Y-1505356D02*
G01*
X3265982Y-1505356D01*
X3263798Y-1500733D01*
X3256534Y-1489303D01*
X3247796Y-1478991D01*
X3237788Y-1469898D01*
X3226612Y-1462278D01*
X3219043Y-1458417D01*
G37*
G36*
X3084017Y-1505356D02*
G01*
X3130956Y-1505356D01*
X3130956Y-1458417D01*
X3123387Y-1462278D01*
X3112211Y-1469898D01*
X3102203Y-1478991D01*
X3093466Y-1489303D01*
X3086201Y-1500733D01*
G37*
G36*
X3168243Y-1396441D02*
G01*
X3181756Y-1396441D01*
X3195167Y-1394663D01*
X3208223Y-1391056D01*
X3220669Y-1385824D01*
X3232302Y-1378915D01*
X3242919Y-1370533D01*
X3252368Y-1360779D01*
X3260394Y-1349908D01*
X3266897Y-1338021D01*
X3271723Y-1325422D01*
X3274872Y-1312265D01*
X3276244Y-1298803D01*
X3275787Y-1285240D01*
X3273501Y-1271930D01*
X3269538Y-1258976D01*
X3263798Y-1246733D01*
X3256534Y-1235303D01*
X3247796Y-1224991D01*
X3237788Y-1215898D01*
X3226612Y-1208278D01*
X3214522Y-1202131D01*
X3201771Y-1197711D01*
X3188512Y-1195019D01*
X3175000Y-1194104D01*
X3161487Y-1195019D01*
X3148228Y-1197711D01*
X3135477Y-1202131D01*
X3123387Y-1208278D01*
X3112211Y-1215898D01*
X3102203Y-1224991D01*
X3093466Y-1235303D01*
X3086201Y-1246733D01*
X3080461Y-1258976D01*
X3076498Y-1271930D01*
X3074212Y-1285240D01*
X3073755Y-1298803D01*
X3075127Y-1312265D01*
X3078276Y-1325422D01*
X3083102Y-1338021D01*
X3089605Y-1349908D01*
X3097631Y-1360779D01*
X3107080Y-1370533D01*
X3117697Y-1378915D01*
X3129330Y-1385824D01*
X3141776Y-1391056D01*
X3154832Y-1394663D01*
G37*
G36*
X4692243Y-1396441D02*
G01*
X4705756Y-1396441D01*
X4719167Y-1394663D01*
X4732223Y-1391056D01*
X4744669Y-1385824D01*
X4756302Y-1378915D01*
X4766919Y-1370533D01*
X4776368Y-1360779D01*
X4784394Y-1349908D01*
X4790897Y-1338021D01*
X4795723Y-1325422D01*
X4798872Y-1312265D01*
X4800244Y-1298803D01*
X4799787Y-1285240D01*
X4797501Y-1271930D01*
X4793538Y-1258976D01*
X4787798Y-1246733D01*
X4780534Y-1235303D01*
X4771796Y-1224991D01*
X4761788Y-1215898D01*
X4750612Y-1208278D01*
X4738522Y-1202131D01*
X4725771Y-1197711D01*
X4712512Y-1195019D01*
X4699000Y-1194104D01*
X4685487Y-1195019D01*
X4672228Y-1197711D01*
X4659477Y-1202131D01*
X4647387Y-1208278D01*
X4636211Y-1215898D01*
X4626203Y-1224991D01*
X4617466Y-1235303D01*
X4610201Y-1246733D01*
X4604461Y-1258976D01*
X4600498Y-1271930D01*
X4598212Y-1285240D01*
X4597755Y-1298803D01*
X4599127Y-1312265D01*
X4602276Y-1325422D01*
X4607102Y-1338021D01*
X4613605Y-1349908D01*
X4621631Y-1360779D01*
X4631080Y-1370533D01*
X4641697Y-1378915D01*
X4653330Y-1385824D01*
X4665776Y-1391056D01*
X4678832Y-1394663D01*
G37*
G36*
X1519529Y-1336751D02*
G01*
X1526133Y-1333500D01*
X1537665Y-1325829D01*
X1548079Y-1316685D01*
X1557223Y-1306271D01*
X1564894Y-1294739D01*
X1568145Y-1288135D01*
X1519529Y-1288135D01*
G37*
G36*
X1426870Y-1336751D02*
G01*
X1426870Y-1288135D01*
X1378254Y-1288135D01*
X1381506Y-1294739D01*
X1389176Y-1306271D01*
X1398320Y-1316685D01*
X1408734Y-1325829D01*
X1420266Y-1333500D01*
G37*
G36*
X2290470Y-1336751D02*
G01*
X2290470Y-1288135D01*
X2241854Y-1288135D01*
X2245106Y-1294739D01*
X2252776Y-1306271D01*
X2261920Y-1316685D01*
X2272334Y-1325829D01*
X2283866Y-1333500D01*
G37*
G36*
X2383129Y-1336751D02*
G01*
X2389733Y-1333500D01*
X2401265Y-1325829D01*
X2411679Y-1316685D01*
X2420823Y-1306271D01*
X2428494Y-1294739D01*
X2431745Y-1288135D01*
X2383129Y-1288135D01*
G37*
G36*
X1519529Y-1195476D02*
G01*
X1568145Y-1195476D01*
X1564894Y-1188872D01*
X1557223Y-1177340D01*
X1548079Y-1166926D01*
X1537665Y-1157782D01*
X1526133Y-1150112D01*
X1519529Y-1146860D01*
G37*
G36*
X1378254Y-1195476D02*
G01*
X1426870Y-1195476D01*
X1426870Y-1146860D01*
X1420266Y-1150112D01*
X1408734Y-1157782D01*
X1398320Y-1166926D01*
X1389176Y-1177340D01*
X1381506Y-1188872D01*
G37*
G36*
X2241854Y-1195476D02*
G01*
X2290470Y-1195476D01*
X2290470Y-1146860D01*
X2283866Y-1150112D01*
X2272334Y-1157782D01*
X2261920Y-1166926D01*
X2252776Y-1177340D01*
X2245106Y-1188872D01*
G37*
G36*
X2383129Y-1195476D02*
G01*
X2431745Y-1195476D01*
X2428494Y-1188872D01*
X2420823Y-1177340D01*
X2411679Y-1166926D01*
X2401265Y-1157782D01*
X2389733Y-1150112D01*
X2383129Y-1146860D01*
G37*
G36*
X3168243Y-1142441D02*
G01*
X3181756Y-1142441D01*
X3195167Y-1140663D01*
X3208223Y-1137056D01*
X3220669Y-1131824D01*
X3232302Y-1124915D01*
X3242919Y-1116533D01*
X3252368Y-1106779D01*
X3260394Y-1095908D01*
X3266897Y-1084021D01*
X3271723Y-1071422D01*
X3274872Y-1058265D01*
X3276244Y-1044803D01*
X3275787Y-1031240D01*
X3273501Y-1017930D01*
X3269538Y-1004976D01*
X3263798Y-992733D01*
X3256534Y-981303D01*
X3247796Y-970991D01*
X3237788Y-961898D01*
X3226612Y-954278D01*
X3214522Y-948131D01*
X3201771Y-943711D01*
X3188512Y-941019D01*
X3175000Y-940104D01*
X3161487Y-941019D01*
X3148228Y-943711D01*
X3135477Y-948131D01*
X3123387Y-954278D01*
X3112211Y-961898D01*
X3102203Y-970991D01*
X3093466Y-981303D01*
X3086201Y-992733D01*
X3080461Y-1004976D01*
X3076498Y-1017930D01*
X3074212Y-1031240D01*
X3073755Y-1044803D01*
X3075127Y-1058265D01*
X3078276Y-1071422D01*
X3083102Y-1084021D01*
X3089605Y-1095908D01*
X3097631Y-1106779D01*
X3107080Y-1116533D01*
X3117697Y-1124915D01*
X3129330Y-1131824D01*
X3141776Y-1137056D01*
X3154832Y-1140663D01*
G37*
G36*
X4654956Y-1132484D02*
G01*
X4654956Y-1085443D01*
X4607915Y-1085443D01*
X4613605Y-1095908D01*
X4621631Y-1106779D01*
X4631080Y-1116533D01*
X4641697Y-1124915D01*
X4653330Y-1131824D01*
G37*
G36*
X4743043Y-1132484D02*
G01*
X4744669Y-1131824D01*
X4756302Y-1124915D01*
X4766919Y-1116533D01*
X4776368Y-1106779D01*
X4784394Y-1095908D01*
X4790084Y-1085443D01*
X4743043Y-1085443D01*
G37*
G36*
X6743700Y-1130452D02*
G01*
X6756755Y-1129538D01*
X6769557Y-1126896D01*
X6781901Y-1122476D01*
X6793534Y-1116482D01*
X6804202Y-1108913D01*
X6813753Y-1099972D01*
X6822033Y-1089863D01*
X6828840Y-1078636D01*
X6834073Y-1066647D01*
X6837578Y-1054049D01*
X6839356Y-1041095D01*
X6839356Y-1027988D01*
X6837578Y-1015034D01*
X6834073Y-1002436D01*
X6828840Y-990447D01*
X6822033Y-979220D01*
X6813753Y-969111D01*
X6804202Y-960170D01*
X6793534Y-952601D01*
X6781901Y-946607D01*
X6769557Y-942187D01*
X6760260Y-940257D01*
X6756349Y-938580D01*
X6753504Y-935431D01*
X6752234Y-931418D01*
X6752640Y-927201D01*
X6754774Y-923544D01*
X6758178Y-921054D01*
X6762292Y-920191D01*
X7387081Y-920191D01*
X7390993Y-920953D01*
X7394244Y-923137D01*
X7529931Y-1058824D01*
X7537297Y-1068070D01*
X7548168Y-1078941D01*
X7560259Y-1088440D01*
X7573467Y-1096416D01*
X7587488Y-1102715D01*
X7602169Y-1107287D01*
X7617307Y-1110081D01*
X7632700Y-1110996D01*
X7648092Y-1110081D01*
X7663230Y-1107287D01*
X7677912Y-1102715D01*
X7691932Y-1096416D01*
X7705140Y-1088440D01*
X7717231Y-1078941D01*
X7728102Y-1068070D01*
X7737602Y-1055928D01*
X7745577Y-1042771D01*
X7751927Y-1028700D01*
X7756499Y-1014018D01*
X7759242Y-998880D01*
X7760208Y-983538D01*
X7759242Y-968146D01*
X7756499Y-953008D01*
X7751927Y-938326D01*
X7745577Y-924255D01*
X7737602Y-911098D01*
X7728102Y-898956D01*
X7717231Y-888085D01*
X7707985Y-880770D01*
X7532573Y-705358D01*
X7526934Y-700024D01*
X7521092Y-695147D01*
X7514945Y-690626D01*
X7508595Y-686511D01*
X7501940Y-682752D01*
X7495133Y-679450D01*
X7488072Y-676554D01*
X7480909Y-674065D01*
X7473594Y-672033D01*
X7466126Y-670407D01*
X7458608Y-669290D01*
X7451039Y-668578D01*
X7443266Y-668375D01*
X7106361Y-668375D01*
X7102449Y-667562D01*
X7099147Y-665378D01*
X7096963Y-662076D01*
X7096201Y-658215D01*
X7096201Y-554888D01*
X7097014Y-550926D01*
X7097877Y-549605D01*
X7096963Y-548182D01*
X7096201Y-544271D01*
X7096201Y-482396D01*
X7095236Y-466953D01*
X7092340Y-451510D01*
X7087971Y-437438D01*
X7086295Y-433781D01*
X7085431Y-430225D01*
X7085279Y-427583D01*
X7082536Y-413258D01*
X7078065Y-399440D01*
X7071868Y-386283D01*
X7064044Y-373989D01*
X7054799Y-362762D01*
X7044181Y-352806D01*
X7032396Y-344271D01*
X7019645Y-337261D01*
X7006132Y-331876D01*
X6992010Y-328269D01*
X6977583Y-326440D01*
X6963003Y-326440D01*
X6948576Y-328269D01*
X6934504Y-331876D01*
X6920941Y-337261D01*
X6908190Y-344271D01*
X6896404Y-352806D01*
X6885838Y-362762D01*
X6876542Y-373989D01*
X6868769Y-386283D01*
X6862572Y-399440D01*
X6858050Y-413258D01*
X6855307Y-427583D01*
X6855155Y-430072D01*
X6854291Y-433578D01*
X6852056Y-439013D01*
X6850075Y-442620D01*
X6846874Y-445109D01*
X6842912Y-446176D01*
X6838848Y-445566D01*
X6835394Y-443382D01*
X6833006Y-440029D01*
X6832193Y-436016D01*
X6832193Y-352653D01*
X6831482Y-346354D01*
X6829602Y-340868D01*
X6826503Y-335991D01*
X6822389Y-331876D01*
X6817512Y-328828D01*
X6812025Y-326898D01*
X6805726Y-326186D01*
X6626859Y-326186D01*
X6620560Y-326898D01*
X6615074Y-328828D01*
X6610197Y-331876D01*
X6606082Y-335991D01*
X6603034Y-340868D01*
X6601104Y-346354D01*
X6600393Y-352653D01*
X6600393Y-611530D01*
X6601104Y-617829D01*
X6603034Y-623316D01*
X6606082Y-628192D01*
X6610197Y-632307D01*
X6615074Y-635406D01*
X6620560Y-637286D01*
X6626859Y-637997D01*
X6805726Y-637997D01*
X6812025Y-637286D01*
X6817512Y-635406D01*
X6822389Y-632307D01*
X6827012Y-627684D01*
X6830314Y-625500D01*
X6834225Y-624738D01*
X6838086Y-625500D01*
X6841388Y-627684D01*
X6843572Y-630986D01*
X6844385Y-634898D01*
X6844385Y-658215D01*
X6843572Y-662076D01*
X6841388Y-665378D01*
X6838086Y-667562D01*
X6834225Y-668375D01*
X6744004Y-668375D01*
X6728510Y-669290D01*
X6713575Y-672033D01*
X6699046Y-676554D01*
X6685178Y-682802D01*
X6672173Y-690676D01*
X6660235Y-700024D01*
X6649466Y-710793D01*
X6640118Y-722731D01*
X6632244Y-735736D01*
X6625996Y-749604D01*
X6621475Y-764133D01*
X6618731Y-779068D01*
X6617817Y-794258D01*
X6618731Y-809447D01*
X6621475Y-824382D01*
X6625996Y-838911D01*
X6632244Y-852779D01*
X6640118Y-865784D01*
X6649466Y-877722D01*
X6660235Y-888492D01*
X6672173Y-897839D01*
X6685178Y-905713D01*
X6699046Y-911961D01*
X6713575Y-916482D01*
X6728561Y-919226D01*
X6733895Y-920445D01*
X6737096Y-923036D01*
X6739026Y-926693D01*
X6739331Y-930808D01*
X6737959Y-934719D01*
X6735114Y-937768D01*
X6731304Y-939393D01*
X6717842Y-942187D01*
X6705498Y-946607D01*
X6693865Y-952601D01*
X6683197Y-960170D01*
X6673646Y-969111D01*
X6665366Y-979220D01*
X6658102Y-991209D01*
X6655866Y-993851D01*
X6652818Y-995527D01*
X6649415Y-996137D01*
X6477558Y-996137D01*
X6473647Y-995375D01*
X6470396Y-993140D01*
X6447282Y-970026D01*
X6445250Y-967130D01*
X6444335Y-963726D01*
X6443573Y-955395D01*
X6441033Y-945946D01*
X6436918Y-937006D01*
X6431280Y-928979D01*
X6424320Y-922019D01*
X6416294Y-916381D01*
X6407353Y-912266D01*
X6397904Y-909726D01*
X6388100Y-908862D01*
X6378295Y-909726D01*
X6368846Y-912266D01*
X6359906Y-916381D01*
X6351879Y-922019D01*
X6344920Y-928979D01*
X6339281Y-937006D01*
X6335166Y-945946D01*
X6332626Y-955395D01*
X6331762Y-965200D01*
X6332626Y-975004D01*
X6335166Y-984453D01*
X6339281Y-993394D01*
X6344920Y-1001420D01*
X6351879Y-1008380D01*
X6359906Y-1014018D01*
X6368846Y-1018133D01*
X6378295Y-1020673D01*
X6386626Y-1021435D01*
X6390030Y-1022350D01*
X6392926Y-1024382D01*
X6429908Y-1061364D01*
X6436106Y-1066444D01*
X6442760Y-1070000D01*
X6449974Y-1072184D01*
X6457950Y-1072946D01*
X6649415Y-1072946D01*
X6652818Y-1073556D01*
X6655866Y-1075232D01*
X6658102Y-1077874D01*
X6665366Y-1089863D01*
X6673646Y-1099972D01*
X6683197Y-1108913D01*
X6693865Y-1116482D01*
X6705498Y-1122476D01*
X6717842Y-1126896D01*
X6730644Y-1129538D01*
G37*
G36*
X4608017Y-997356D02*
G01*
X4654956Y-997356D01*
X4654956Y-950417D01*
X4647387Y-954278D01*
X4636211Y-961898D01*
X4626203Y-970991D01*
X4617466Y-981303D01*
X4610201Y-992733D01*
G37*
G36*
X4743043Y-997356D02*
G01*
X4789982Y-997356D01*
X4787798Y-992733D01*
X4780534Y-981303D01*
X4771796Y-970991D01*
X4761788Y-961898D01*
X4750612Y-954278D01*
X4743043Y-950417D01*
G37*
G36*
X3100171Y-888695D02*
G01*
X3249828Y-888695D01*
X3256127Y-887984D01*
X3261614Y-886104D01*
X3266490Y-883005D01*
X3270605Y-878890D01*
X3273704Y-874014D01*
X3275584Y-868527D01*
X3276295Y-862228D01*
X3276295Y-712571D01*
X3275584Y-706272D01*
X3273704Y-700786D01*
X3270605Y-695909D01*
X3266490Y-691794D01*
X3261614Y-688695D01*
X3256127Y-686816D01*
X3249828Y-686104D01*
X3100171Y-686104D01*
X3093872Y-686816D01*
X3088386Y-688695D01*
X3083509Y-691794D01*
X3079394Y-695909D01*
X3076295Y-700786D01*
X3074416Y-706272D01*
X3073704Y-712571D01*
X3073704Y-862228D01*
X3074416Y-868527D01*
X3076295Y-874014D01*
X3079394Y-878890D01*
X3083509Y-883005D01*
X3088386Y-886104D01*
X3093872Y-887984D01*
G37*
G36*
X330758Y-660908D02*
G01*
X374650Y-660908D01*
X374650Y-590550D01*
X304292Y-590550D01*
X304292Y-634441D01*
X305003Y-640740D01*
X306933Y-646226D01*
X309981Y-651103D01*
X314096Y-655218D01*
X318973Y-658266D01*
X324459Y-660196D01*
G37*
G36*
X488950Y-660908D02*
G01*
X532841Y-660908D01*
X539140Y-660196D01*
X544626Y-658266D01*
X549503Y-655218D01*
X553618Y-651103D01*
X556666Y-646226D01*
X558596Y-640740D01*
X559308Y-634441D01*
X559308Y-590550D01*
X488950Y-590550D01*
G37*
G36*
X3175000Y-641858D02*
G01*
X3189173Y-640892D01*
X3203041Y-638149D01*
X3216503Y-633577D01*
X3229203Y-627329D01*
X3240989Y-619404D01*
X3251657Y-610057D01*
X3261004Y-599389D01*
X3268929Y-587603D01*
X3275177Y-574903D01*
X3279749Y-561441D01*
X3282492Y-547573D01*
X3283458Y-533400D01*
X3282492Y-519226D01*
X3279749Y-505358D01*
X3275177Y-491896D01*
X3268929Y-479196D01*
X3261004Y-467410D01*
X3251657Y-456742D01*
X3240989Y-447395D01*
X3229203Y-439470D01*
X3216503Y-433222D01*
X3203041Y-428650D01*
X3189173Y-425907D01*
X3175000Y-424942D01*
X3160826Y-425907D01*
X3146958Y-428650D01*
X3133496Y-433222D01*
X3120796Y-439470D01*
X3109010Y-447395D01*
X3098342Y-456742D01*
X3088995Y-467410D01*
X3081070Y-479196D01*
X3074822Y-491896D01*
X3070250Y-505358D01*
X3067507Y-519226D01*
X3066542Y-533400D01*
X3067507Y-547573D01*
X3070250Y-561441D01*
X3074822Y-574903D01*
X3081070Y-587603D01*
X3088995Y-599389D01*
X3098342Y-610057D01*
X3109010Y-619404D01*
X3120796Y-627329D01*
X3133496Y-633577D01*
X3146958Y-638149D01*
X3160826Y-640892D01*
G37*
G36*
X5521960Y-637997D02*
G01*
X5700826Y-637997D01*
X5707126Y-637286D01*
X5712612Y-635406D01*
X5717489Y-632307D01*
X5721604Y-628192D01*
X5724702Y-623316D01*
X5726582Y-617829D01*
X5727293Y-611530D01*
X5727293Y-352653D01*
X5726582Y-346354D01*
X5724702Y-340868D01*
X5721604Y-335991D01*
X5717489Y-331876D01*
X5712612Y-328828D01*
X5707126Y-326898D01*
X5700826Y-326186D01*
X5521960Y-326186D01*
X5515660Y-326898D01*
X5510174Y-328828D01*
X5505297Y-331876D01*
X5501182Y-335991D01*
X5498134Y-340868D01*
X5496204Y-346354D01*
X5495493Y-352653D01*
X5495493Y-611530D01*
X5496204Y-617829D01*
X5498134Y-623316D01*
X5501182Y-628192D01*
X5505297Y-632307D01*
X5510174Y-635406D01*
X5515660Y-637286D01*
G37*
G36*
X5858103Y-637743D02*
G01*
X5872683Y-637743D01*
X5887110Y-635914D01*
X5901232Y-632307D01*
X5914745Y-626973D01*
X5927496Y-619963D01*
X5939282Y-611378D01*
X5949899Y-601421D01*
X5959144Y-590194D01*
X5966968Y-577951D01*
X5973165Y-564743D01*
X5977636Y-550926D01*
X5980379Y-536600D01*
X5981293Y-521766D01*
X5981293Y-442417D01*
X5980379Y-427583D01*
X5977636Y-413258D01*
X5973165Y-399440D01*
X5966968Y-386283D01*
X5959144Y-373989D01*
X5949899Y-362762D01*
X5939282Y-352806D01*
X5927496Y-344271D01*
X5914745Y-337261D01*
X5901232Y-331876D01*
X5887110Y-328269D01*
X5872683Y-326440D01*
X5858103Y-326440D01*
X5843676Y-328269D01*
X5829604Y-331876D01*
X5816041Y-337261D01*
X5803290Y-344271D01*
X5791504Y-352806D01*
X5780938Y-362762D01*
X5771642Y-373989D01*
X5763869Y-386283D01*
X5757672Y-399440D01*
X5753150Y-413258D01*
X5750407Y-427583D01*
X5749493Y-442417D01*
X5749493Y-521766D01*
X5750407Y-536600D01*
X5753150Y-550926D01*
X5757672Y-564743D01*
X5763869Y-577951D01*
X5771642Y-590194D01*
X5780938Y-601421D01*
X5791504Y-611378D01*
X5803290Y-619963D01*
X5816041Y-626973D01*
X5829604Y-632307D01*
X5843676Y-635914D01*
G37*
G36*
X7176973Y-626872D02*
G01*
X7176973Y-554431D01*
X7116876Y-554431D01*
X7120534Y-565759D01*
X7126731Y-578916D01*
X7134555Y-591210D01*
X7143800Y-602437D01*
X7154418Y-612394D01*
X7166203Y-620928D01*
G37*
G36*
X6174740Y-626872D02*
G01*
X6185509Y-620928D01*
X6197244Y-612394D01*
X6207861Y-602437D01*
X6217158Y-591210D01*
X6224930Y-578916D01*
X6231128Y-565759D01*
X6234836Y-554431D01*
X6174740Y-554431D01*
G37*
G36*
X6072073Y-626872D02*
G01*
X6072073Y-554431D01*
X6011976Y-554431D01*
X6015634Y-565759D01*
X6021832Y-578916D01*
X6029655Y-591210D01*
X6038900Y-602437D01*
X6049518Y-612394D01*
X6061303Y-620928D01*
G37*
G36*
X7279640Y-626872D02*
G01*
X7290409Y-620928D01*
X7302144Y-612394D01*
X7312761Y-602437D01*
X7322058Y-591210D01*
X7329830Y-578916D01*
X7336028Y-565759D01*
X7339736Y-554431D01*
X7279640Y-554431D01*
G37*
G36*
X304292Y-476250D02*
G01*
X374650Y-476250D01*
X374650Y-405892D01*
X330758Y-405892D01*
X324459Y-406603D01*
X318973Y-408533D01*
X314096Y-411581D01*
X309981Y-415696D01*
X306933Y-420573D01*
X305003Y-426059D01*
X304292Y-432358D01*
G37*
G36*
X488950Y-476250D02*
G01*
X559308Y-476250D01*
X559308Y-432358D01*
X558596Y-426059D01*
X556666Y-420573D01*
X553618Y-415696D01*
X549503Y-411581D01*
X544626Y-408533D01*
X539140Y-406603D01*
X532841Y-405892D01*
X488950Y-405892D01*
G37*
G36*
X6011976Y-411734D02*
G01*
X6072073Y-411734D01*
X6072073Y-339344D01*
X6061303Y-345236D01*
X6049518Y-353822D01*
X6038900Y-363778D01*
X6029655Y-375005D01*
X6021832Y-387248D01*
X6015634Y-400456D01*
G37*
G36*
X7116876Y-411734D02*
G01*
X7176973Y-411734D01*
X7176973Y-339344D01*
X7166203Y-345236D01*
X7154418Y-353822D01*
X7143800Y-363778D01*
X7134555Y-375005D01*
X7126731Y-387248D01*
X7120534Y-400456D01*
G37*
G36*
X6174740Y-411734D02*
G01*
X6234836Y-411734D01*
X6231128Y-400456D01*
X6224930Y-387248D01*
X6217158Y-375005D01*
X6207861Y-363778D01*
X6197244Y-353822D01*
X6185509Y-345236D01*
X6174740Y-339344D01*
G37*
G36*
X7279640Y-411734D02*
G01*
X7339736Y-411734D01*
X7336028Y-400456D01*
X7329830Y-387248D01*
X7322058Y-375005D01*
X7312761Y-363778D01*
X7302144Y-353822D01*
X7290409Y-345236D01*
X7279640Y-339344D01*
G37*

%LPD*%
D10*
X7645400Y-1999513D02*
G01*
X7316444Y-1670557D01*
X6731000Y-1670557D01*
D11*
X6743700Y-794257D02*
G01*
X6914641Y-794257D01*
X6970268Y-738631D01*
X6970268Y-482092D01*
X7632700Y-983513D02*
G01*
X7443444Y-794257D01*
X6743700Y-794257D01*
D10*
X7632700Y-1333500D02*
G01*
X5892800Y-1333500D01*
X4762500Y-203200D01*
X2882900Y-203200D01*
X2336800Y-749300D01*
X2336800Y-891796D01*
D12*
X7099300Y-2209800D02*
G01*
X7150100Y-2260600D01*
X7150100Y-3060700D01*
X7112000Y-3098800D01*
X6731000Y-3098800D01*
X6223000Y-2501900D02*
G01*
X6400800Y-2501900D01*
X6743700Y-2159000D01*
X6972300Y-2159000D01*
X6845300Y-2630093D02*
G01*
X6576890Y-2630093D01*
X6456870Y-2750113D01*
X6456423Y-2806700D01*
D10*
X1473200Y-891794D02*
G01*
X2336800Y-891794D01*
X2256027Y-891794D02*
G01*
X1651000Y-292100D01*
X431800Y-883386D02*
G01*
X691413Y-883386D01*
X1308100Y-266700D01*
D13*
X6083300Y-4559300D02*
G01*
X6388100Y-4864100D01*
X6908800Y-4864100D01*
X7010400Y-4762500D01*
X7010400Y-4559300D01*
X6083300Y-4559300D02*
G01*
X5791200Y-4851400D01*
X3911600Y-4851400D01*
D12*
X4394200Y-3708400D02*
G01*
X4826000Y-3708400D01*
X5575300Y-4457700D01*
X5575300Y-4559300D01*
X4394200Y-3848100D02*
G01*
X4521200Y-3975100D01*
X4521200Y-4178300D01*
X4559300Y-4216400D01*
X4953000Y-4216400D01*
X5295900Y-4559300D01*
X5321300Y-4559300D01*
D11*
X3175000Y-1549400D02*
G01*
X3581400Y-1549400D01*
X4089400Y-1041400D01*
X4699000Y-1041400D01*
D13*
X5562600Y-3898900D02*
G01*
X5854700Y-4191000D01*
X5969000Y-4191000D01*
X6337300Y-4559300D01*
X6756400Y-4559300D02*
G01*
X6337300Y-4559300D01*
X7243699Y-3962400D02*
G01*
X6756400Y-4449698D01*
X6756400Y-4559300D01*
X7243701Y-3962400D02*
G01*
X7645400Y-3560701D01*
X7645400Y-3175000D01*
D11*
X3175000Y-1549400D02*
G01*
X2921005Y-1549400D01*
X2613408Y-1241803D01*
X2336800Y-1241803D01*
X1054100Y-1943100D02*
G01*
X1473200Y-1524000D01*
X1473200Y-1241805D01*
D12*
X5240398Y-1625600D02*
G01*
X5392798Y-1778000D01*
X6578600Y-1778000D01*
X6711441Y-1910842D01*
X6731000Y-1910842D01*
X6388100Y-965200D02*
G01*
X6457441Y-1034542D01*
X6743700Y-1034542D01*
X6243700Y-3962400D02*
G01*
X6243700Y-3644900D01*
D13*
X2786001Y-4457700D02*
G01*
X3179701Y-4851400D01*
X3911600Y-4851400D01*
X4178300Y-4584700D01*
X4178300Y-1790700D01*
X4419600Y-1549400D01*
X4699000Y-1549400D01*
D12*
X5803900Y-3390900D02*
G01*
X5892800Y-3479800D01*
X6896100Y-3479800D01*
X7061200Y-3644900D01*
X7243699Y-3644900D01*
X6240399Y-1943100D02*
G01*
X5922899Y-2260600D01*
X5240400Y-2260600D01*
X4699000Y-3581400D02*
G01*
X5181600Y-3098800D01*
X6299200Y-3098800D01*
X6456301Y-2941698D01*
X6456301Y-2806700D01*
X6240525Y-1625600D02*
G01*
X6239002Y-1282700D01*
X5456300Y-2806700D02*
G01*
X5356547Y-2706946D01*
X4178300Y-2706946D01*
D13*
X5562600Y-3898900D02*
G01*
X5562600Y-3365500D01*
X4699000Y-787400D02*
G01*
X4729124Y-817524D01*
X5376824Y-817524D01*
X1054100Y-3467100D02*
G01*
X1066800Y-3479800D01*
X1168400Y-3479800D01*
X1498600Y-3149600D01*
X1498600Y-1841500D01*
X1388110Y-1731010D01*
X1266189Y-1731010D01*
X1422400Y-4572000D02*
G01*
X1612900Y-4762500D01*
X2667000Y-4762500D01*
X2785999Y-4643501D01*
X2785999Y-4457700D01*
X1422400Y-4572000D02*
G01*
X914400Y-4572000D01*
D12*
X2324100Y-3721100D02*
G01*
X2527300Y-3721100D01*
X2819400Y-3429000D01*
X2819400Y-2108200D01*
X3124200Y-1803400D01*
X3175000Y-1803400D01*
D11*
X1054100Y-3721100D02*
G01*
X1257300Y-3721100D01*
X1778000Y-3200400D01*
X1778000Y-891794D01*
D12*
X914400Y-4305300D02*
G01*
X990600Y-4305300D01*
X2324100Y-2971800D01*
X2324100Y-2959100D01*
X1168400Y-4305300D02*
G01*
X1231900Y-4305300D01*
X2324100Y-3213100D01*
X1422400Y-4305300D02*
G01*
X2260600Y-3467100D01*
X2324100Y-3467100D01*
X2324100Y-3721100D02*
G01*
X2324100Y-4343400D01*
X2209800Y-4457700D01*
X1786001Y-4457700D01*
D13*
X381000Y-3213100D02*
G01*
X1054100Y-3213100D01*
X1054100Y-2959100D02*
G01*
X381000Y-2959100D01*
X381000Y-2705100D02*
G01*
X1054100Y-2705100D01*
X1054100Y-2451100D02*
G01*
X381000Y-2451100D01*
D14*
G01*
X6845300Y-2780106D03*
G01*
X6845300Y-2630093D03*
D15*
G01*
X1473200Y-1241805D03*
G01*
X1473200Y-891794D03*
G01*
X2336800Y-1241805D03*
G01*
X2336800Y-891794D03*
D16*
G01*
X381000Y-3213100D03*
D17*
G01*
X381000Y-2959100D03*
G01*
X381000Y-2705100D03*
G01*
X381000Y-2451100D03*
D16*
G01*
X1308100Y-266700D03*
D17*
G01*
X1562100Y-266700D03*
D16*
G01*
X5308600Y-3365500D03*
D17*
G01*
X5562600Y-3365500D03*
D16*
G01*
X5308600Y-3632200D03*
D17*
G01*
X5562600Y-3632200D03*
D16*
G01*
X5308600Y-3898900D03*
D17*
G01*
X5562600Y-3898900D03*
G01*
X6337300Y-4559300D03*
G01*
X6083300Y-4559300D03*
G01*
X5829300Y-4559300D03*
G01*
X5575300Y-4559300D03*
G36*
X5242559Y-4480560D02*
G01*
X5400040Y-4480560D01*
X5400040Y-4638039D01*
X5242559Y-4638039D01*
G37*
D18*
G01*
X1054100Y-3721100D03*
D19*
G01*
X1054100Y-3467100D03*
G01*
X1054100Y-3213100D03*
G01*
X1054100Y-2959100D03*
G01*
X1054100Y-2705100D03*
G01*
X1054100Y-2451100D03*
G01*
X1054100Y-2197100D03*
G01*
X1054100Y-1943100D03*
G01*
X2324100Y-1943100D03*
G01*
X2324100Y-2197100D03*
G01*
X2324100Y-2451100D03*
G01*
X2324100Y-2705100D03*
G01*
X2324100Y-2959100D03*
G01*
X2324100Y-3213100D03*
G01*
X2324100Y-3467100D03*
D18*
G01*
X2324100Y-3721100D03*
D20*
G01*
X7645400Y-3175000D03*
D21*
G01*
X7645400Y-2921000D03*
D17*
G01*
X1422400Y-4305300D03*
G01*
X1168400Y-4305300D03*
G36*
X835660Y-4226560D02*
G01*
X993139Y-4226560D01*
X993139Y-4384039D01*
X835660Y-4384039D01*
G37*
G01*
X1422400Y-4572000D03*
G01*
X1168400Y-4572000D03*
G36*
X835660Y-4493260D02*
G01*
X993139Y-4493260D01*
X993139Y-4650739D01*
X835660Y-4650739D01*
G37*
D22*
G01*
X431800Y-533400D03*
D23*
G01*
X431800Y-883386D03*
D22*
G01*
X7645400Y-2349500D03*
D23*
G01*
X7645400Y-1999513D03*
D22*
G01*
X7632700Y-1333500D03*
D23*
G01*
X7632700Y-983513D03*
D24*
G01*
X6731000Y-1910842D03*
G01*
X6731000Y-1670557D03*
G01*
X6743700Y-1034542D03*
G01*
X6743700Y-794257D03*
D25*
G01*
X3175000Y-787400D03*
D26*
G01*
X3175000Y-1041400D03*
G01*
X3175000Y-1295400D03*
G01*
X3175000Y-1549400D03*
G01*
X3175000Y-1803400D03*
G01*
X3175000Y-2057400D03*
G01*
X3175000Y-2311400D03*
G01*
X3175000Y-2565400D03*
G01*
X3175000Y-2819400D03*
G01*
X3175000Y-3073400D03*
G01*
X3175000Y-3327400D03*
G01*
X3175000Y-3581400D03*
G01*
X4699000Y-787400D03*
G01*
X4699000Y-1041400D03*
G01*
X4699000Y-1295400D03*
G01*
X4699000Y-1549400D03*
G01*
X4699000Y-1803400D03*
G01*
X4699000Y-2057400D03*
G01*
X4699000Y-2565400D03*
G01*
X4699000Y-2819400D03*
G01*
X4699000Y-3327400D03*
G01*
X4699000Y-3581400D03*
G01*
X4699000Y-3073400D03*
G01*
X4699000Y-2311400D03*
G01*
X3175000Y-3835400D03*
G01*
X3175000Y-4089400D03*
G01*
X3175000Y-4343400D03*
G01*
X4699000Y-3835400D03*
G01*
X4699000Y-4089400D03*
G01*
X4699000Y-4343400D03*
G36*
X6626298Y-352099D02*
G01*
X6806298Y-352099D01*
X6806298Y-612099D01*
X6626298Y-612099D01*
G37*
G36*
X5521398Y-352099D02*
G01*
X5701398Y-352099D01*
X5701398Y-612099D01*
X5521398Y-612099D01*
G37*
D11*
G01*
X5456300Y-2806700D03*
G01*
X6456299Y-2806700D03*
G01*
X2785999Y-4457700D03*
G01*
X1786001Y-4457700D03*
G01*
X6240399Y-1943100D03*
G01*
X5240400Y-1943100D03*
G01*
X5240400Y-2260600D03*
G01*
X6240399Y-2260600D03*
G01*
X6243700Y-3327400D03*
G01*
X7243699Y-3327400D03*
G01*
X6243700Y-3644900D03*
G01*
X7243699Y-3644900D03*
G01*
X6243700Y-3962400D03*
G01*
X7243699Y-3962400D03*
G01*
X5240400Y-1625600D03*
G01*
X6240399Y-1625600D03*
G36*
X6677659Y-4480560D02*
G01*
X6835140Y-4480560D01*
X6835140Y-4638039D01*
X6677659Y-4638039D01*
G37*
D17*
G01*
X7010400Y-4559300D03*
G01*
X7264400Y-4559300D03*
G01*
X7518400Y-4559300D03*
D27*
G01*
X889000Y-203200D03*
G01*
X482600Y-4699000D03*
G01*
X7797800Y-4000500D03*
G01*
X7734300Y-520700D03*
D28*
G01*
X4394200Y-3848100D03*
G01*
X4394200Y-3708400D03*
G01*
X5803900Y-3390900D03*
G01*
X7099300Y-2209800D03*
G01*
X6731000Y-3098800D03*
G01*
X6223000Y-2501900D03*
G01*
X6972300Y-2159000D03*
G01*
X6388100Y-965200D03*
D19*
X6970293Y-442092D02*
G01*
X6970293Y-522091D01*
X7228306Y-443082D02*
G01*
X7228306Y-523082D01*
X5865393Y-442092D02*
G01*
X5865393Y-522091D01*
X6123406Y-443082D02*
G01*
X6123406Y-523082D01*
M02*
